%TF.GenerationSoftware,KiCad,Pcbnew,8.0.3*%
%TF.CreationDate,2024-07-14T22:50:11-07:00*%
%TF.ProjectId,Artemis ALU Module,41727465-6d69-4732-9041-4c55204d6f64,rev?*%
%TF.SameCoordinates,Original*%
%TF.FileFunction,Copper,L4,Bot*%
%TF.FilePolarity,Positive*%
%FSLAX46Y46*%
G04 Gerber Fmt 4.6, Leading zero omitted, Abs format (unit mm)*
G04 Created by KiCad (PCBNEW 8.0.3) date 2024-07-14 22:50:11*
%MOMM*%
%LPD*%
G01*
G04 APERTURE LIST*
G04 Aperture macros list*
%AMRoundRect*
0 Rectangle with rounded corners*
0 $1 Rounding radius*
0 $2 $3 $4 $5 $6 $7 $8 $9 X,Y pos of 4 corners*
0 Add a 4 corners polygon primitive as box body*
4,1,4,$2,$3,$4,$5,$6,$7,$8,$9,$2,$3,0*
0 Add four circle primitives for the rounded corners*
1,1,$1+$1,$2,$3*
1,1,$1+$1,$4,$5*
1,1,$1+$1,$6,$7*
1,1,$1+$1,$8,$9*
0 Add four rect primitives between the rounded corners*
20,1,$1+$1,$2,$3,$4,$5,0*
20,1,$1+$1,$4,$5,$6,$7,0*
20,1,$1+$1,$6,$7,$8,$9,0*
20,1,$1+$1,$8,$9,$2,$3,0*%
G04 Aperture macros list end*
%TA.AperFunction,ComponentPad*%
%ADD10R,1.600000X2.400000*%
%TD*%
%TA.AperFunction,ComponentPad*%
%ADD11O,1.600000X2.400000*%
%TD*%
%TA.AperFunction,ComponentPad*%
%ADD12RoundRect,0.200000X0.450000X-0.200000X0.450000X0.200000X-0.450000X0.200000X-0.450000X-0.200000X0*%
%TD*%
%TA.AperFunction,ComponentPad*%
%ADD13O,1.300000X0.800000*%
%TD*%
%TA.AperFunction,ComponentPad*%
%ADD14RoundRect,0.200000X-0.200000X-0.450000X0.200000X-0.450000X0.200000X0.450000X-0.200000X0.450000X0*%
%TD*%
%TA.AperFunction,ComponentPad*%
%ADD15O,0.800000X1.300000*%
%TD*%
%TA.AperFunction,ComponentPad*%
%ADD16RoundRect,0.200000X-0.450000X0.200000X-0.450000X-0.200000X0.450000X-0.200000X0.450000X0.200000X0*%
%TD*%
%TA.AperFunction,ComponentPad*%
%ADD17C,1.600000*%
%TD*%
%TA.AperFunction,ComponentPad*%
%ADD18RoundRect,0.200000X0.200000X0.450000X-0.200000X0.450000X-0.200000X-0.450000X0.200000X-0.450000X0*%
%TD*%
%TA.AperFunction,ComponentPad*%
%ADD19R,2.000000X2.000000*%
%TD*%
%TA.AperFunction,ComponentPad*%
%ADD20C,2.000000*%
%TD*%
%TA.AperFunction,Conductor*%
%ADD21C,0.500000*%
%TD*%
G04 APERTURE END LIST*
D10*
%TO.P,U3,1*%
%TO.N,/F7*%
X179375000Y-80300000D03*
D11*
%TO.P,U3,2*%
%TO.N,/F6*%
X181915000Y-80300000D03*
%TO.P,U3,3*%
%TO.N,/F5*%
X184455000Y-80300000D03*
%TO.P,U3,4*%
%TO.N,/F4*%
X186995000Y-80300000D03*
%TO.P,U3,5*%
%TO.N,/F3*%
X189535000Y-80300000D03*
%TO.P,U3,6*%
%TO.N,/F2*%
X192075000Y-80300000D03*
%TO.P,U3,7,GND*%
%TO.N,GNDREF*%
X194615000Y-80300000D03*
%TO.P,U3,8*%
%TO.N,/Zero flag*%
X194615000Y-72680000D03*
%TO.P,U3,9*%
%TO.N,N/C*%
X192075000Y-72680000D03*
%TO.P,U3,10*%
X189535000Y-72680000D03*
%TO.P,U3,11*%
%TO.N,/F1*%
X186995000Y-72680000D03*
%TO.P,U3,12*%
%TO.N,/F0*%
X184455000Y-72680000D03*
%TO.P,U3,13*%
%TO.N,N/C*%
X181915000Y-72680000D03*
%TO.P,U3,14,VCC*%
%TO.N,VCC*%
X179375000Y-72680000D03*
%TD*%
D12*
%TO.P,J4,1,Pin_1*%
%TO.N,/S0*%
X200300000Y-112125000D03*
D13*
%TO.P,J4,2,Pin_2*%
%TO.N,/S1*%
X200300000Y-110875000D03*
%TO.P,J4,3,Pin_3*%
%TO.N,/S2*%
X200300000Y-109625000D03*
%TO.P,J4,4,Pin_4*%
%TO.N,/S3*%
X200300000Y-108375000D03*
%TO.P,J4,5,Pin_5*%
%TO.N,/M*%
X200300000Y-107125000D03*
%TO.P,J4,6,Pin_6*%
%TO.N,/~{Cn}*%
X200300000Y-105875000D03*
%TD*%
D14*
%TO.P,J1,1,Pin_1*%
%TO.N,/B0*%
X166125000Y-109000000D03*
D15*
%TO.P,J1,2,Pin_2*%
%TO.N,/B1*%
X167375000Y-109000000D03*
%TO.P,J1,3,Pin_3*%
%TO.N,/B2*%
X168625000Y-109000000D03*
%TO.P,J1,4,Pin_4*%
%TO.N,/B3*%
X169875000Y-109000000D03*
%TO.P,J1,5,Pin_5*%
%TO.N,/B4*%
X171125000Y-109000000D03*
%TO.P,J1,6,Pin_6*%
%TO.N,/B5*%
X172375000Y-109000000D03*
%TO.P,J1,7,Pin_7*%
%TO.N,/B6*%
X173625000Y-109000000D03*
%TO.P,J1,8,Pin_8*%
%TO.N,/B7*%
X174875000Y-109000000D03*
%TD*%
D16*
%TO.P,J6,1,Pin_1*%
%TO.N,VCC*%
X147450000Y-73375000D03*
D13*
%TO.P,J6,2,Pin_2*%
%TO.N,GNDREF*%
X147450000Y-74625000D03*
%TD*%
D16*
%TO.P,J3,1,Pin_1*%
%TO.N,/F0*%
X147500000Y-103500000D03*
D13*
%TO.P,J3,2,Pin_2*%
%TO.N,/F1*%
X147500000Y-104750000D03*
%TO.P,J3,3,Pin_3*%
%TO.N,/F2*%
X147500000Y-106000000D03*
%TO.P,J3,4,Pin_4*%
%TO.N,/F3*%
X147500000Y-107250000D03*
%TO.P,J3,5,Pin_5*%
%TO.N,/F4*%
X147500000Y-108500000D03*
%TO.P,J3,6,Pin_6*%
%TO.N,/F5*%
X147500000Y-109750000D03*
%TO.P,J3,7,Pin_7*%
%TO.N,/F6*%
X147500000Y-111000000D03*
%TO.P,J3,8,Pin_8*%
%TO.N,/F7*%
X147500000Y-112250000D03*
%TD*%
D17*
%TO.P,C2,1*%
%TO.N,VCC*%
X147000000Y-79500000D03*
%TO.P,C2,2*%
%TO.N,GNDREF*%
X144500000Y-79500000D03*
%TD*%
D10*
%TO.P,U2,1,B0*%
%TO.N,/B0*%
X175920000Y-99240000D03*
D11*
%TO.P,U2,2,A0*%
%TO.N,/A0*%
X178460000Y-99240000D03*
%TO.P,U2,3,S3*%
%TO.N,/S3*%
X181000000Y-99240000D03*
%TO.P,U2,4,S2*%
%TO.N,/S2*%
X183540000Y-99240000D03*
%TO.P,U2,5,S1*%
%TO.N,/S1*%
X186080000Y-99240000D03*
%TO.P,U2,6,S0*%
%TO.N,/S0*%
X188620000Y-99240000D03*
%TO.P,U2,7,Cn*%
%TO.N,/~{Cn}*%
X191160000Y-99240000D03*
%TO.P,U2,8,M*%
%TO.N,/M*%
X193700000Y-99240000D03*
%TO.P,U2,9,F0*%
%TO.N,/F0*%
X196240000Y-99240000D03*
%TO.P,U2,10,F1*%
%TO.N,/F1*%
X198780000Y-99240000D03*
%TO.P,U2,11,F2*%
%TO.N,/F2*%
X201320000Y-99240000D03*
%TO.P,U2,12,GND*%
%TO.N,GNDREF*%
X203860000Y-99240000D03*
%TO.P,U2,13,F3*%
%TO.N,/F3*%
X203860000Y-84000000D03*
%TO.P,U2,14,A=B*%
%TO.N,unconnected-(U2-A=B-Pad14)*%
X201320000Y-84000000D03*
%TO.P,U2,15,X*%
%TO.N,unconnected-(U2-X-Pad15)*%
X198780000Y-84000000D03*
%TO.P,U2,16,Cn+4*%
%TO.N,Net-(U1-Cn)*%
X196240000Y-84000000D03*
%TO.P,U2,17,Y*%
%TO.N,unconnected-(U2-Y-Pad17)*%
X193700000Y-84000000D03*
%TO.P,U2,18,B3*%
%TO.N,/B3*%
X191160000Y-84000000D03*
%TO.P,U2,19,A3*%
%TO.N,/A3*%
X188620000Y-84000000D03*
%TO.P,U2,20,B2*%
%TO.N,/B2*%
X186080000Y-84000000D03*
%TO.P,U2,21,A2*%
%TO.N,/A2*%
X183540000Y-84000000D03*
%TO.P,U2,22,B1*%
%TO.N,/B1*%
X181000000Y-84000000D03*
%TO.P,U2,23,A1*%
%TO.N,/A1*%
X178460000Y-84000000D03*
%TO.P,U2,24,VCC*%
%TO.N,VCC*%
X175920000Y-84000000D03*
%TD*%
D12*
%TO.P,J5,1,Pin_1*%
%TO.N,/Zero flag*%
X200300000Y-74625000D03*
D13*
%TO.P,J5,2,Pin_2*%
%TO.N,/~{Carry flag}*%
X200300000Y-73375000D03*
%TD*%
D18*
%TO.P,J2,1,Pin_1*%
%TO.N,/A0*%
X175000000Y-76250000D03*
D15*
%TO.P,J2,2,Pin_2*%
%TO.N,/A1*%
X173750000Y-76250000D03*
%TO.P,J2,3,Pin_3*%
%TO.N,/A2*%
X172500000Y-76250000D03*
%TO.P,J2,4,Pin_4*%
%TO.N,/A3*%
X171250000Y-76250000D03*
%TO.P,J2,5,Pin_5*%
%TO.N,/A4*%
X170000000Y-76250000D03*
%TO.P,J2,6,Pin_6*%
%TO.N,/A5*%
X168750000Y-76250000D03*
%TO.P,J2,7,Pin_7*%
%TO.N,/A6*%
X167500000Y-76250000D03*
%TO.P,J2,8,Pin_8*%
%TO.N,/A7*%
X166250000Y-76250000D03*
%TD*%
D10*
%TO.P,U1,1,B0*%
%TO.N,/B4*%
X144025000Y-99125000D03*
D11*
%TO.P,U1,2,A0*%
%TO.N,/A4*%
X146565000Y-99125000D03*
%TO.P,U1,3,S3*%
%TO.N,/S3*%
X149105000Y-99125000D03*
%TO.P,U1,4,S2*%
%TO.N,/S2*%
X151645000Y-99125000D03*
%TO.P,U1,5,S1*%
%TO.N,/S1*%
X154185000Y-99125000D03*
%TO.P,U1,6,S0*%
%TO.N,/S0*%
X156725000Y-99125000D03*
%TO.P,U1,7,Cn*%
%TO.N,Net-(U1-Cn)*%
X159265000Y-99125000D03*
%TO.P,U1,8,M*%
%TO.N,/M*%
X161805000Y-99125000D03*
%TO.P,U1,9,F0*%
%TO.N,/F4*%
X164345000Y-99125000D03*
%TO.P,U1,10,F1*%
%TO.N,/F5*%
X166885000Y-99125000D03*
%TO.P,U1,11,F2*%
%TO.N,/F6*%
X169425000Y-99125000D03*
%TO.P,U1,12,GND*%
%TO.N,GNDREF*%
X171965000Y-99125000D03*
%TO.P,U1,13,F3*%
%TO.N,/F7*%
X171965000Y-83885000D03*
%TO.P,U1,14,A=B*%
%TO.N,unconnected-(U1-A=B-Pad14)*%
X169425000Y-83885000D03*
%TO.P,U1,15,X*%
%TO.N,unconnected-(U1-X-Pad15)*%
X166885000Y-83885000D03*
%TO.P,U1,16,Cn+4*%
%TO.N,/~{Carry flag}*%
X164345000Y-83885000D03*
%TO.P,U1,17,Y*%
%TO.N,unconnected-(U1-Y-Pad17)*%
X161805000Y-83885000D03*
%TO.P,U1,18,B3*%
%TO.N,/B7*%
X159265000Y-83885000D03*
%TO.P,U1,19,A3*%
%TO.N,/A7*%
X156725000Y-83885000D03*
%TO.P,U1,20,B2*%
%TO.N,/B6*%
X154185000Y-83885000D03*
%TO.P,U1,21,A2*%
%TO.N,/A6*%
X151645000Y-83885000D03*
%TO.P,U1,22,B1*%
%TO.N,/B5*%
X149105000Y-83885000D03*
%TO.P,U1,23,A1*%
%TO.N,/A5*%
X146565000Y-83885000D03*
%TO.P,U1,24,VCC*%
%TO.N,VCC*%
X144025000Y-83885000D03*
%TD*%
D19*
%TO.P,C1,1*%
%TO.N,VCC*%
X156500000Y-78867677D03*
D20*
%TO.P,C1,2*%
%TO.N,GNDREF*%
X156500000Y-73867677D03*
%TD*%
D21*
%TO.N,/F7*%
X147500000Y-112250000D02*
X146850000Y-112250000D01*
X145275000Y-82725000D02*
X146000000Y-82000000D01*
X171965000Y-83885000D02*
X171965000Y-82965000D01*
X145275000Y-110675000D02*
X145275000Y-82725000D01*
X146000000Y-82000000D02*
X171000000Y-82000000D01*
X171965000Y-82965000D02*
X171000000Y-82000000D01*
X146850000Y-112250000D02*
X145275000Y-110675000D01*
%TO.N,/S0*%
X188620000Y-108620000D02*
X188620000Y-99240000D01*
X199525000Y-112000000D02*
X192000000Y-112000000D01*
X199650000Y-112125000D02*
X199525000Y-112000000D01*
X188620000Y-108620000D02*
X192000000Y-112000000D01*
X200300000Y-112125000D02*
X199650000Y-112125000D01*
%TO.N,/S2*%
X192450000Y-107950000D02*
X192450000Y-98362233D01*
X192450000Y-98362233D02*
X190887767Y-96800000D01*
X199925000Y-109500000D02*
X194000000Y-109500000D01*
X192450000Y-107950000D02*
X194000000Y-109500000D01*
X200300000Y-109625000D02*
X200050000Y-109625000D01*
X190887767Y-96800000D02*
X185980000Y-96800000D01*
X185980000Y-96800000D02*
X183540000Y-99240000D01*
X200050000Y-109625000D02*
X199925000Y-109500000D01*
%TO.N,/M*%
X193700000Y-106200000D02*
X193700000Y-99240000D01*
X199925000Y-107000000D02*
X194500000Y-107000000D01*
X200050000Y-107125000D02*
X199925000Y-107000000D01*
X200300000Y-107125000D02*
X200050000Y-107125000D01*
X194500000Y-107000000D02*
X193700000Y-106200000D01*
%TO.N,/F6*%
X147500000Y-111000000D02*
X157550000Y-111000000D01*
X157550000Y-111000000D02*
X169425000Y-99125000D01*
%TO.N,/F5*%
X156260000Y-109750000D02*
X166885000Y-99125000D01*
X147500000Y-109750000D02*
X156260000Y-109750000D01*
%TO.N,/B6*%
X155700000Y-88700000D02*
X154185000Y-87185000D01*
X169700000Y-88700000D02*
X155700000Y-88700000D01*
X170715000Y-105715000D02*
X170715000Y-89715000D01*
X154185000Y-87185000D02*
X154185000Y-83885000D01*
X173625000Y-108625000D02*
X170715000Y-105715000D01*
X170715000Y-89715000D02*
X169700000Y-88700000D01*
X173625000Y-109000000D02*
X173625000Y-108625000D01*
%TO.N,/B7*%
X173500000Y-107375000D02*
X173500000Y-89500000D01*
X174875000Y-109000000D02*
X174875000Y-108750000D01*
X161000000Y-88000000D02*
X159265000Y-86265000D01*
X173500000Y-89500000D02*
X172000000Y-88000000D01*
X174875000Y-108750000D02*
X173500000Y-107375000D01*
X159265000Y-86265000D02*
X159265000Y-83885000D01*
X172000000Y-88000000D02*
X161000000Y-88000000D01*
%TO.N,/S1*%
X200300000Y-110875000D02*
X192375000Y-110875000D01*
X189910000Y-108410000D02*
X189910000Y-98362233D01*
X189047767Y-97500000D02*
X187820000Y-97500000D01*
X189910000Y-108410000D02*
X192375000Y-110875000D01*
X187820000Y-97500000D02*
X186080000Y-99240000D01*
X189910000Y-98362233D02*
X189047767Y-97500000D01*
%TO.N,/B2*%
X168625000Y-109250000D02*
X170175000Y-110800000D01*
X186080000Y-82920000D02*
X187000000Y-82000000D01*
X181000000Y-88700000D02*
X189789950Y-88700000D01*
X192410000Y-82410000D02*
X192000000Y-82000000D01*
X175517032Y-110800000D02*
X179710000Y-106607032D01*
X192410000Y-86079950D02*
X192410000Y-82410000D01*
X189789950Y-88700000D02*
X192410000Y-86079950D01*
X179710000Y-106607032D02*
X179710000Y-89990000D01*
X186080000Y-84000000D02*
X186080000Y-82920000D01*
X192000000Y-82000000D02*
X187000000Y-82000000D01*
X170175000Y-110800000D02*
X175517032Y-110800000D01*
X168625000Y-109000000D02*
X168625000Y-109250000D01*
X179710000Y-89990000D02*
X181000000Y-88700000D01*
%TO.N,/A3*%
X173300000Y-84800000D02*
X175000000Y-86500000D01*
X171250000Y-79739950D02*
X173300000Y-81789950D01*
X186120000Y-86500000D02*
X188620000Y-84000000D01*
X175000000Y-86500000D02*
X186120000Y-86500000D01*
X173300000Y-81789950D02*
X173300000Y-84800000D01*
X171250000Y-76250000D02*
X171250000Y-79739950D01*
%TO.N,/F0*%
X184455000Y-72680000D02*
X187775000Y-76000000D01*
X187775000Y-76000000D02*
X195500000Y-76000000D01*
X195500000Y-76000000D02*
X200070000Y-80570000D01*
X200070000Y-80570000D02*
X200070000Y-95410000D01*
X200070000Y-95410000D02*
X196240000Y-99240000D01*
%TO.N,/A2*%
X174000000Y-81500000D02*
X174000000Y-84500000D01*
X181890000Y-85650000D02*
X183540000Y-84000000D01*
X175150000Y-85650000D02*
X181890000Y-85650000D01*
X174000000Y-84500000D02*
X175150000Y-85650000D01*
X172500000Y-80000000D02*
X174000000Y-81500000D01*
X172500000Y-76250000D02*
X172500000Y-80000000D01*
%TO.N,/B1*%
X176000000Y-111500000D02*
X182290000Y-105210000D01*
X182290000Y-105210000D02*
X182290000Y-90710000D01*
X183500000Y-89500000D02*
X192907767Y-89500000D01*
X182047233Y-78000000D02*
X180665000Y-79382233D01*
X180665000Y-83665000D02*
X181000000Y-84000000D01*
X167375000Y-109250000D02*
X169625000Y-111500000D01*
X197500000Y-79750000D02*
X195750000Y-78000000D01*
X180665000Y-79382233D02*
X180665000Y-83665000D01*
X195750000Y-78000000D02*
X182047233Y-78000000D01*
X167375000Y-109000000D02*
X167375000Y-109250000D01*
X169625000Y-111500000D02*
X176000000Y-111500000D01*
X197500000Y-84907767D02*
X197500000Y-79750000D01*
X192907767Y-89500000D02*
X197500000Y-84907767D01*
X182290000Y-90710000D02*
X183500000Y-89500000D01*
%TO.N,/A1*%
X173750000Y-79290000D02*
X178460000Y-84000000D01*
X173750000Y-76250000D02*
X173750000Y-79290000D01*
%TO.N,/B3*%
X175227082Y-110100000D02*
X177000000Y-108327082D01*
X178340000Y-88000000D02*
X189500000Y-88000000D01*
X191160000Y-85340000D02*
X191160000Y-84000000D01*
X177000000Y-108327082D02*
X177000000Y-100890000D01*
X177000000Y-100890000D02*
X177170000Y-100720000D01*
X169875000Y-109000000D02*
X169875000Y-109250000D01*
X177170000Y-100720000D02*
X177170000Y-89170000D01*
X191000000Y-86500000D02*
X191000000Y-85500000D01*
X177170000Y-89170000D02*
X178340000Y-88000000D01*
X189500000Y-88000000D02*
X191000000Y-86500000D01*
X170725000Y-110100000D02*
X175227082Y-110100000D01*
X169875000Y-109250000D02*
X170725000Y-110100000D01*
X191000000Y-85500000D02*
X191160000Y-85340000D01*
%TD*%
%TA.AperFunction,NonConductor*%
G36*
X193849632Y-71019685D02*
G01*
X193895387Y-71072489D01*
X193905331Y-71141647D01*
X193876306Y-71205203D01*
X193855478Y-71224318D01*
X193767786Y-71288028D01*
X193623028Y-71432786D01*
X193502715Y-71598386D01*
X193455485Y-71691080D01*
X193407510Y-71741876D01*
X193339689Y-71758671D01*
X193273554Y-71736134D01*
X193234515Y-71691080D01*
X193233883Y-71689840D01*
X193187287Y-71598390D01*
X193179556Y-71587749D01*
X193066971Y-71432786D01*
X192922213Y-71288028D01*
X192834522Y-71224318D01*
X192791856Y-71168989D01*
X192785877Y-71099375D01*
X192818482Y-71037580D01*
X192879321Y-71003223D01*
X192907407Y-71000000D01*
X193782593Y-71000000D01*
X193849632Y-71019685D01*
G37*
%TD.AperFunction*%
%TA.AperFunction,NonConductor*%
G36*
X191309632Y-71019685D02*
G01*
X191355387Y-71072489D01*
X191365331Y-71141647D01*
X191336306Y-71205203D01*
X191315478Y-71224318D01*
X191227786Y-71288028D01*
X191083028Y-71432786D01*
X190962715Y-71598386D01*
X190915485Y-71691080D01*
X190867510Y-71741876D01*
X190799689Y-71758671D01*
X190733554Y-71736134D01*
X190694515Y-71691080D01*
X190693883Y-71689840D01*
X190647287Y-71598390D01*
X190639556Y-71587749D01*
X190526971Y-71432786D01*
X190382213Y-71288028D01*
X190294522Y-71224318D01*
X190251856Y-71168989D01*
X190245877Y-71099375D01*
X190278482Y-71037580D01*
X190339321Y-71003223D01*
X190367407Y-71000000D01*
X191242593Y-71000000D01*
X191309632Y-71019685D01*
G37*
%TD.AperFunction*%
%TA.AperFunction,NonConductor*%
G36*
X188769632Y-71019685D02*
G01*
X188815387Y-71072489D01*
X188825331Y-71141647D01*
X188796306Y-71205203D01*
X188775478Y-71224318D01*
X188687786Y-71288028D01*
X188543028Y-71432786D01*
X188422715Y-71598386D01*
X188375485Y-71691080D01*
X188327510Y-71741876D01*
X188259689Y-71758671D01*
X188193554Y-71736134D01*
X188154515Y-71691080D01*
X188153883Y-71689840D01*
X188107287Y-71598390D01*
X188099556Y-71587749D01*
X187986971Y-71432786D01*
X187842213Y-71288028D01*
X187754522Y-71224318D01*
X187711856Y-71168989D01*
X187705877Y-71099375D01*
X187738482Y-71037580D01*
X187799321Y-71003223D01*
X187827407Y-71000000D01*
X188702593Y-71000000D01*
X188769632Y-71019685D01*
G37*
%TD.AperFunction*%
%TA.AperFunction,NonConductor*%
G36*
X186229632Y-71019685D02*
G01*
X186275387Y-71072489D01*
X186285331Y-71141647D01*
X186256306Y-71205203D01*
X186235478Y-71224318D01*
X186147786Y-71288028D01*
X186003028Y-71432786D01*
X185882715Y-71598386D01*
X185835485Y-71691080D01*
X185787510Y-71741876D01*
X185719689Y-71758671D01*
X185653554Y-71736134D01*
X185614515Y-71691080D01*
X185613883Y-71689840D01*
X185567287Y-71598390D01*
X185559556Y-71587749D01*
X185446971Y-71432786D01*
X185302213Y-71288028D01*
X185214522Y-71224318D01*
X185171856Y-71168989D01*
X185165877Y-71099375D01*
X185198482Y-71037580D01*
X185259321Y-71003223D01*
X185287407Y-71000000D01*
X186162593Y-71000000D01*
X186229632Y-71019685D01*
G37*
%TD.AperFunction*%
%TA.AperFunction,NonConductor*%
G36*
X183689632Y-71019685D02*
G01*
X183735387Y-71072489D01*
X183745331Y-71141647D01*
X183716306Y-71205203D01*
X183695478Y-71224318D01*
X183607786Y-71288028D01*
X183463028Y-71432786D01*
X183342715Y-71598386D01*
X183295485Y-71691080D01*
X183247510Y-71741876D01*
X183179689Y-71758671D01*
X183113554Y-71736134D01*
X183074515Y-71691080D01*
X183073883Y-71689840D01*
X183027287Y-71598390D01*
X183019556Y-71587749D01*
X182906971Y-71432786D01*
X182762213Y-71288028D01*
X182674522Y-71224318D01*
X182631856Y-71168989D01*
X182625877Y-71099375D01*
X182658482Y-71037580D01*
X182719321Y-71003223D01*
X182747407Y-71000000D01*
X183622593Y-71000000D01*
X183689632Y-71019685D01*
G37*
%TD.AperFunction*%
%TA.AperFunction,NonConductor*%
G36*
X181149632Y-71019685D02*
G01*
X181195387Y-71072489D01*
X181205331Y-71141647D01*
X181176306Y-71205203D01*
X181155478Y-71224318D01*
X181067786Y-71288028D01*
X180923028Y-71432786D01*
X180802715Y-71598386D01*
X180755485Y-71691080D01*
X180707510Y-71741876D01*
X180639689Y-71758671D01*
X180573554Y-71736134D01*
X180534515Y-71691080D01*
X180533883Y-71689840D01*
X180487287Y-71598390D01*
X180479556Y-71587749D01*
X180366971Y-71432786D01*
X180222213Y-71288028D01*
X180134522Y-71224318D01*
X180091856Y-71168989D01*
X180085877Y-71099375D01*
X180118482Y-71037580D01*
X180179321Y-71003223D01*
X180207407Y-71000000D01*
X181082593Y-71000000D01*
X181149632Y-71019685D01*
G37*
%TD.AperFunction*%
%TA.AperFunction,NonConductor*%
G36*
X193692992Y-78770185D02*
G01*
X193738747Y-78822989D01*
X193748691Y-78892147D01*
X193719666Y-78955703D01*
X193713634Y-78962181D01*
X193623032Y-79052782D01*
X193623028Y-79052786D01*
X193502715Y-79218386D01*
X193455485Y-79311080D01*
X193407510Y-79361876D01*
X193339689Y-79378671D01*
X193273554Y-79356134D01*
X193234515Y-79311080D01*
X193233883Y-79309840D01*
X193187287Y-79218390D01*
X193130563Y-79140315D01*
X193066971Y-79052786D01*
X192976366Y-78962181D01*
X192942881Y-78900858D01*
X192947865Y-78831166D01*
X192989737Y-78775233D01*
X193055201Y-78750816D01*
X193064047Y-78750500D01*
X193625953Y-78750500D01*
X193692992Y-78770185D01*
G37*
%TD.AperFunction*%
%TA.AperFunction,NonConductor*%
G36*
X191152992Y-78770185D02*
G01*
X191198747Y-78822989D01*
X191208691Y-78892147D01*
X191179666Y-78955703D01*
X191173634Y-78962181D01*
X191083032Y-79052782D01*
X191083028Y-79052786D01*
X190962715Y-79218386D01*
X190915485Y-79311080D01*
X190867510Y-79361876D01*
X190799689Y-79378671D01*
X190733554Y-79356134D01*
X190694515Y-79311080D01*
X190693883Y-79309840D01*
X190647287Y-79218390D01*
X190590563Y-79140315D01*
X190526971Y-79052786D01*
X190436366Y-78962181D01*
X190402881Y-78900858D01*
X190407865Y-78831166D01*
X190449737Y-78775233D01*
X190515201Y-78750816D01*
X190524047Y-78750500D01*
X191085953Y-78750500D01*
X191152992Y-78770185D01*
G37*
%TD.AperFunction*%
%TA.AperFunction,NonConductor*%
G36*
X188612992Y-78770185D02*
G01*
X188658747Y-78822989D01*
X188668691Y-78892147D01*
X188639666Y-78955703D01*
X188633634Y-78962181D01*
X188543032Y-79052782D01*
X188543028Y-79052786D01*
X188422715Y-79218386D01*
X188375485Y-79311080D01*
X188327510Y-79361876D01*
X188259689Y-79378671D01*
X188193554Y-79356134D01*
X188154515Y-79311080D01*
X188153883Y-79309840D01*
X188107287Y-79218390D01*
X188050563Y-79140315D01*
X187986971Y-79052786D01*
X187896366Y-78962181D01*
X187862881Y-78900858D01*
X187867865Y-78831166D01*
X187909737Y-78775233D01*
X187975201Y-78750816D01*
X187984047Y-78750500D01*
X188545953Y-78750500D01*
X188612992Y-78770185D01*
G37*
%TD.AperFunction*%
%TA.AperFunction,NonConductor*%
G36*
X186072992Y-78770185D02*
G01*
X186118747Y-78822989D01*
X186128691Y-78892147D01*
X186099666Y-78955703D01*
X186093634Y-78962181D01*
X186003032Y-79052782D01*
X186003028Y-79052786D01*
X185882715Y-79218386D01*
X185835485Y-79311080D01*
X185787510Y-79361876D01*
X185719689Y-79378671D01*
X185653554Y-79356134D01*
X185614515Y-79311080D01*
X185613883Y-79309840D01*
X185567287Y-79218390D01*
X185510563Y-79140315D01*
X185446971Y-79052786D01*
X185356366Y-78962181D01*
X185322881Y-78900858D01*
X185327865Y-78831166D01*
X185369737Y-78775233D01*
X185435201Y-78750816D01*
X185444047Y-78750500D01*
X186005953Y-78750500D01*
X186072992Y-78770185D01*
G37*
%TD.AperFunction*%
%TA.AperFunction,NonConductor*%
G36*
X183532992Y-78770185D02*
G01*
X183578747Y-78822989D01*
X183588691Y-78892147D01*
X183559666Y-78955703D01*
X183553634Y-78962181D01*
X183463032Y-79052782D01*
X183463028Y-79052786D01*
X183342715Y-79218386D01*
X183295485Y-79311080D01*
X183247510Y-79361876D01*
X183179689Y-79378671D01*
X183113554Y-79356134D01*
X183074515Y-79311080D01*
X183073883Y-79309840D01*
X183027287Y-79218390D01*
X182970563Y-79140315D01*
X182906971Y-79052786D01*
X182816366Y-78962181D01*
X182782881Y-78900858D01*
X182787865Y-78831166D01*
X182829737Y-78775233D01*
X182895201Y-78750816D01*
X182904047Y-78750500D01*
X183465953Y-78750500D01*
X183532992Y-78770185D01*
G37*
%TD.AperFunction*%
%TA.AperFunction,NonConductor*%
G36*
X198455703Y-80017517D02*
G01*
X198462181Y-80023549D01*
X199283181Y-80844549D01*
X199316666Y-80905872D01*
X199319500Y-80932230D01*
X199319500Y-82237196D01*
X199299815Y-82304235D01*
X199247011Y-82349990D01*
X199177853Y-82359934D01*
X199157182Y-82355127D01*
X199084537Y-82331523D01*
X198884978Y-82299916D01*
X198882352Y-82299500D01*
X198677648Y-82299500D01*
X198675022Y-82299916D01*
X198475464Y-82331523D01*
X198475461Y-82331523D01*
X198412818Y-82351878D01*
X198342977Y-82353873D01*
X198283144Y-82317793D01*
X198252316Y-82255092D01*
X198250500Y-82233947D01*
X198250500Y-80111230D01*
X198270185Y-80044191D01*
X198322989Y-79998436D01*
X198392147Y-79988492D01*
X198455703Y-80017517D01*
G37*
%TD.AperFunction*%
%TA.AperFunction,NonConductor*%
G36*
X174955703Y-81557517D02*
G01*
X174962181Y-81563549D01*
X175558946Y-82160314D01*
X175592431Y-82221637D01*
X175587447Y-82291329D01*
X175545575Y-82347262D01*
X175509584Y-82365926D01*
X175420776Y-82394781D01*
X175238386Y-82487715D01*
X175072786Y-82608028D01*
X175072782Y-82608032D01*
X174962181Y-82718634D01*
X174900858Y-82752119D01*
X174831166Y-82747135D01*
X174775233Y-82705263D01*
X174750816Y-82639799D01*
X174750500Y-82630953D01*
X174750500Y-81651230D01*
X174770185Y-81584191D01*
X174822989Y-81538436D01*
X174892147Y-81528492D01*
X174955703Y-81557517D01*
G37*
%TD.AperFunction*%
%TA.AperFunction,NonConductor*%
G36*
X196016462Y-79340703D02*
G01*
X196055874Y-79367242D01*
X196713181Y-80024549D01*
X196746666Y-80085872D01*
X196749500Y-80112230D01*
X196749500Y-82227448D01*
X196729815Y-82294487D01*
X196677011Y-82340242D01*
X196607853Y-82350186D01*
X196587183Y-82345379D01*
X196544542Y-82331524D01*
X196544535Y-82331523D01*
X196443443Y-82315511D01*
X196342352Y-82299500D01*
X196137648Y-82299500D01*
X196135022Y-82299916D01*
X195935465Y-82331522D01*
X195740776Y-82394781D01*
X195558386Y-82487715D01*
X195392786Y-82608028D01*
X195248028Y-82752786D01*
X195127715Y-82918386D01*
X195080485Y-83011080D01*
X195032510Y-83061876D01*
X194964689Y-83078671D01*
X194898554Y-83056134D01*
X194859515Y-83011080D01*
X194846622Y-82985776D01*
X194812287Y-82918390D01*
X194782011Y-82876718D01*
X194691971Y-82752786D01*
X194547213Y-82608028D01*
X194381613Y-82487715D01*
X194381612Y-82487714D01*
X194381610Y-82487713D01*
X194324653Y-82458691D01*
X194199223Y-82394781D01*
X194004534Y-82331522D01*
X193804978Y-82299916D01*
X193802352Y-82299500D01*
X193597648Y-82299500D01*
X193595022Y-82299916D01*
X193395464Y-82331523D01*
X193395457Y-82331524D01*
X193306622Y-82360388D01*
X193236781Y-82362383D01*
X193176948Y-82326302D01*
X193146688Y-82266646D01*
X193144355Y-82254916D01*
X193131659Y-82191088D01*
X193098518Y-82111080D01*
X193098518Y-82111079D01*
X193075085Y-82054506D01*
X193075083Y-82054503D01*
X192992954Y-81931588D01*
X192992948Y-81931580D01*
X192925457Y-81864089D01*
X192891972Y-81802766D01*
X192896956Y-81733074D01*
X192925453Y-81688731D01*
X193066966Y-81547219D01*
X193187287Y-81381610D01*
X193234516Y-81288917D01*
X193282489Y-81238123D01*
X193350310Y-81221328D01*
X193416445Y-81243865D01*
X193455485Y-81288919D01*
X193502715Y-81381614D01*
X193623028Y-81547213D01*
X193767786Y-81691971D01*
X193895477Y-81784742D01*
X193933390Y-81812287D01*
X194022212Y-81857544D01*
X194115776Y-81905218D01*
X194115778Y-81905218D01*
X194115781Y-81905220D01*
X194220137Y-81939127D01*
X194310465Y-81968477D01*
X194411557Y-81984488D01*
X194512648Y-82000500D01*
X194512649Y-82000500D01*
X194717351Y-82000500D01*
X194717352Y-82000500D01*
X194919534Y-81968477D01*
X195114219Y-81905220D01*
X195296610Y-81812287D01*
X195405638Y-81733074D01*
X195462213Y-81691971D01*
X195462215Y-81691968D01*
X195462219Y-81691966D01*
X195606966Y-81547219D01*
X195606968Y-81547215D01*
X195606971Y-81547213D01*
X195701537Y-81417052D01*
X195727287Y-81381610D01*
X195820220Y-81199219D01*
X195883477Y-81004534D01*
X195915500Y-80802352D01*
X195915500Y-79797648D01*
X195904262Y-79726697D01*
X195883477Y-79595465D01*
X195868676Y-79549915D01*
X195850261Y-79493240D01*
X195848267Y-79423401D01*
X195884347Y-79363568D01*
X195947047Y-79332739D01*
X196016462Y-79340703D01*
G37*
%TD.AperFunction*%
%TA.AperFunction,NonConductor*%
G36*
X185796445Y-81243865D02*
G01*
X185835485Y-81288919D01*
X185882715Y-81381614D01*
X186003028Y-81547213D01*
X186109542Y-81653727D01*
X186143027Y-81715050D01*
X186138043Y-81784742D01*
X186109542Y-81829089D01*
X185519375Y-82419255D01*
X185487990Y-82442058D01*
X185398388Y-82487713D01*
X185232786Y-82608028D01*
X185088028Y-82752786D01*
X184967715Y-82918386D01*
X184920485Y-83011080D01*
X184872510Y-83061876D01*
X184804689Y-83078671D01*
X184738554Y-83056134D01*
X184699515Y-83011080D01*
X184686622Y-82985776D01*
X184652287Y-82918390D01*
X184622011Y-82876718D01*
X184531971Y-82752786D01*
X184387213Y-82608028D01*
X184221613Y-82487715D01*
X184221612Y-82487714D01*
X184221610Y-82487713D01*
X184164653Y-82458691D01*
X184039223Y-82394781D01*
X183844534Y-82331522D01*
X183644978Y-82299916D01*
X183642352Y-82299500D01*
X183437648Y-82299500D01*
X183435022Y-82299916D01*
X183235465Y-82331522D01*
X183040776Y-82394781D01*
X182858386Y-82487715D01*
X182692786Y-82608028D01*
X182548028Y-82752786D01*
X182427715Y-82918386D01*
X182380485Y-83011080D01*
X182332510Y-83061876D01*
X182264689Y-83078671D01*
X182198554Y-83056134D01*
X182159515Y-83011080D01*
X182146622Y-82985776D01*
X182112287Y-82918390D01*
X182082011Y-82876718D01*
X181991971Y-82752786D01*
X181847213Y-82608028D01*
X181681613Y-82487715D01*
X181681612Y-82487714D01*
X181681610Y-82487713D01*
X181622409Y-82457548D01*
X181499217Y-82394778D01*
X181494726Y-82392919D01*
X181495343Y-82391427D01*
X181443503Y-82355976D01*
X181416308Y-82291616D01*
X181415500Y-82277487D01*
X181415500Y-82075800D01*
X181435185Y-82008761D01*
X181487989Y-81963006D01*
X181557147Y-81953062D01*
X181577820Y-81957870D01*
X181610458Y-81968475D01*
X181610461Y-81968475D01*
X181610466Y-81968477D01*
X181812648Y-82000500D01*
X181812649Y-82000500D01*
X182017351Y-82000500D01*
X182017352Y-82000500D01*
X182219534Y-81968477D01*
X182414219Y-81905220D01*
X182596610Y-81812287D01*
X182705638Y-81733074D01*
X182762213Y-81691971D01*
X182762215Y-81691968D01*
X182762219Y-81691966D01*
X182906966Y-81547219D01*
X182906968Y-81547215D01*
X182906971Y-81547213D01*
X183027284Y-81381614D01*
X183027285Y-81381613D01*
X183027287Y-81381610D01*
X183074516Y-81288917D01*
X183122489Y-81238123D01*
X183190310Y-81221328D01*
X183256445Y-81243865D01*
X183295485Y-81288919D01*
X183342715Y-81381614D01*
X183463028Y-81547213D01*
X183607786Y-81691971D01*
X183735477Y-81784742D01*
X183773390Y-81812287D01*
X183862212Y-81857544D01*
X183955776Y-81905218D01*
X183955778Y-81905218D01*
X183955781Y-81905220D01*
X184060137Y-81939127D01*
X184150465Y-81968477D01*
X184251557Y-81984488D01*
X184352648Y-82000500D01*
X184352649Y-82000500D01*
X184557351Y-82000500D01*
X184557352Y-82000500D01*
X184759534Y-81968477D01*
X184954219Y-81905220D01*
X185136610Y-81812287D01*
X185245638Y-81733074D01*
X185302213Y-81691971D01*
X185302215Y-81691968D01*
X185302219Y-81691966D01*
X185446966Y-81547219D01*
X185446968Y-81547215D01*
X185446971Y-81547213D01*
X185567284Y-81381614D01*
X185567285Y-81381613D01*
X185567287Y-81381610D01*
X185614516Y-81288917D01*
X185662489Y-81238123D01*
X185730310Y-81221328D01*
X185796445Y-81243865D01*
G37*
%TD.AperFunction*%
%TA.AperFunction,NonConductor*%
G36*
X184881445Y-84943865D02*
G01*
X184920485Y-84988919D01*
X184967715Y-85081614D01*
X185088028Y-85247213D01*
X185232786Y-85391971D01*
X185398388Y-85512286D01*
X185403745Y-85515016D01*
X185454541Y-85562991D01*
X185471335Y-85630812D01*
X185448797Y-85696947D01*
X185394081Y-85740398D01*
X185347449Y-85749500D01*
X184272551Y-85749500D01*
X184205512Y-85729815D01*
X184159757Y-85677011D01*
X184149813Y-85607853D01*
X184178838Y-85544297D01*
X184216255Y-85515016D01*
X184218923Y-85513655D01*
X184221610Y-85512287D01*
X184340262Y-85426082D01*
X184387213Y-85391971D01*
X184387215Y-85391968D01*
X184387219Y-85391966D01*
X184531966Y-85247219D01*
X184531968Y-85247215D01*
X184531971Y-85247213D01*
X184652284Y-85081614D01*
X184652285Y-85081613D01*
X184652287Y-85081610D01*
X184699516Y-84988917D01*
X184747489Y-84938123D01*
X184815310Y-84921328D01*
X184881445Y-84943865D01*
G37*
%TD.AperFunction*%
%TA.AperFunction,NonConductor*%
G36*
X189961445Y-84943865D02*
G01*
X190000485Y-84988919D01*
X190047715Y-85081614D01*
X190168028Y-85247213D01*
X190218792Y-85297977D01*
X190252277Y-85359300D01*
X190252729Y-85409847D01*
X190249500Y-85426081D01*
X190249500Y-86137770D01*
X190229815Y-86204809D01*
X190213181Y-86225451D01*
X189225451Y-87213181D01*
X189164128Y-87246666D01*
X189137770Y-87249500D01*
X186731230Y-87249500D01*
X186664191Y-87229815D01*
X186618436Y-87177011D01*
X186608492Y-87107853D01*
X186637517Y-87044297D01*
X186643549Y-87037819D01*
X186937954Y-86743414D01*
X188033363Y-85648003D01*
X188094684Y-85614520D01*
X188159359Y-85617754D01*
X188242817Y-85644872D01*
X188315465Y-85668477D01*
X188414470Y-85684158D01*
X188517648Y-85700500D01*
X188517649Y-85700500D01*
X188722351Y-85700500D01*
X188722352Y-85700500D01*
X188924534Y-85668477D01*
X189119219Y-85605220D01*
X189301610Y-85512287D01*
X189420262Y-85426082D01*
X189467213Y-85391971D01*
X189467215Y-85391968D01*
X189467219Y-85391966D01*
X189611966Y-85247219D01*
X189611968Y-85247215D01*
X189611971Y-85247213D01*
X189732284Y-85081614D01*
X189732285Y-85081613D01*
X189732287Y-85081610D01*
X189779516Y-84988917D01*
X189827489Y-84938123D01*
X189895310Y-84921328D01*
X189961445Y-84943865D01*
G37*
%TD.AperFunction*%
%TA.AperFunction,NonConductor*%
G36*
X158066445Y-84828865D02*
G01*
X158105485Y-84873919D01*
X158152715Y-84966614D01*
X158273028Y-85132213D01*
X158273034Y-85132219D01*
X158417781Y-85276966D01*
X158463384Y-85310098D01*
X158506050Y-85365425D01*
X158514500Y-85410416D01*
X158514500Y-86338918D01*
X158514500Y-86338920D01*
X158514499Y-86338920D01*
X158543340Y-86483907D01*
X158543343Y-86483917D01*
X158599913Y-86620490D01*
X158599914Y-86620492D01*
X158628251Y-86662901D01*
X158628252Y-86662903D01*
X158682045Y-86743414D01*
X158682049Y-86743418D01*
X159676452Y-87737819D01*
X159709937Y-87799142D01*
X159704953Y-87868833D01*
X159663082Y-87924767D01*
X159597617Y-87949184D01*
X159588771Y-87949500D01*
X156062229Y-87949500D01*
X155995190Y-87929815D01*
X155974548Y-87913181D01*
X154971819Y-86910451D01*
X154938334Y-86849128D01*
X154935500Y-86822770D01*
X154935500Y-85410416D01*
X154955185Y-85343377D01*
X154986613Y-85310099D01*
X155032219Y-85276966D01*
X155176966Y-85132219D01*
X155176968Y-85132215D01*
X155176971Y-85132213D01*
X155297284Y-84966614D01*
X155297285Y-84966613D01*
X155297287Y-84966610D01*
X155344516Y-84873917D01*
X155392489Y-84823123D01*
X155460310Y-84806328D01*
X155526445Y-84828865D01*
X155565485Y-84873919D01*
X155612715Y-84966614D01*
X155733028Y-85132213D01*
X155877786Y-85276971D01*
X156019424Y-85379875D01*
X156043390Y-85397287D01*
X156152191Y-85452724D01*
X156225776Y-85490218D01*
X156225778Y-85490218D01*
X156225781Y-85490220D01*
X156330137Y-85524127D01*
X156420465Y-85553477D01*
X156480534Y-85562991D01*
X156622648Y-85585500D01*
X156622649Y-85585500D01*
X156827351Y-85585500D01*
X156827352Y-85585500D01*
X157029534Y-85553477D01*
X157224219Y-85490220D01*
X157406610Y-85397287D01*
X157543300Y-85297977D01*
X157572213Y-85276971D01*
X157572215Y-85276968D01*
X157572219Y-85276966D01*
X157716966Y-85132219D01*
X157716968Y-85132215D01*
X157716971Y-85132213D01*
X157837284Y-84966614D01*
X157837285Y-84966613D01*
X157837287Y-84966610D01*
X157884516Y-84873917D01*
X157932489Y-84823123D01*
X158000310Y-84806328D01*
X158066445Y-84828865D01*
G37*
%TD.AperFunction*%
%TA.AperFunction,NonConductor*%
G36*
X195041445Y-84943865D02*
G01*
X195080485Y-84988919D01*
X195127715Y-85081614D01*
X195248028Y-85247213D01*
X195392786Y-85391971D01*
X195558385Y-85512284D01*
X195558387Y-85512285D01*
X195558390Y-85512287D01*
X195588974Y-85527870D01*
X195639770Y-85575843D01*
X195656566Y-85643664D01*
X195634030Y-85709799D01*
X195620361Y-85726036D01*
X192633218Y-88713181D01*
X192571895Y-88746666D01*
X192545537Y-88749500D01*
X191101180Y-88749500D01*
X191034141Y-88729815D01*
X190988386Y-88677011D01*
X190978442Y-88607853D01*
X191007467Y-88544297D01*
X191013499Y-88537819D01*
X192992948Y-86558369D01*
X192992947Y-86558369D01*
X192992951Y-86558366D01*
X193075084Y-86435445D01*
X193131658Y-86298863D01*
X193150367Y-86204809D01*
X193160500Y-86153870D01*
X193160500Y-85762803D01*
X193180185Y-85695764D01*
X193232989Y-85650009D01*
X193302147Y-85640065D01*
X193322812Y-85644870D01*
X193348024Y-85653062D01*
X193395465Y-85668477D01*
X193494470Y-85684158D01*
X193597648Y-85700500D01*
X193597649Y-85700500D01*
X193802351Y-85700500D01*
X193802352Y-85700500D01*
X194004534Y-85668477D01*
X194199219Y-85605220D01*
X194381610Y-85512287D01*
X194500262Y-85426082D01*
X194547213Y-85391971D01*
X194547215Y-85391968D01*
X194547219Y-85391966D01*
X194691966Y-85247219D01*
X194691968Y-85247215D01*
X194691971Y-85247213D01*
X194812284Y-85081614D01*
X194812285Y-85081613D01*
X194812287Y-85081610D01*
X194859516Y-84988917D01*
X194907489Y-84938123D01*
X194975310Y-84921328D01*
X195041445Y-84943865D01*
G37*
%TD.AperFunction*%
%TA.AperFunction,NonConductor*%
G36*
X171704809Y-88770185D02*
G01*
X171725451Y-88786819D01*
X172713181Y-89774548D01*
X172746666Y-89835871D01*
X172749500Y-89862229D01*
X172749500Y-97462788D01*
X172729815Y-97529827D01*
X172677011Y-97575582D01*
X172607853Y-97585526D01*
X172569205Y-97573273D01*
X172464223Y-97519781D01*
X172269534Y-97456522D01*
X172094995Y-97428878D01*
X172067352Y-97424500D01*
X171862648Y-97424500D01*
X171822184Y-97430909D01*
X171660464Y-97456523D01*
X171660457Y-97456524D01*
X171627817Y-97467130D01*
X171557976Y-97469125D01*
X171498143Y-97433044D01*
X171467316Y-97370343D01*
X171465500Y-97349199D01*
X171465500Y-89641079D01*
X171436659Y-89496092D01*
X171436658Y-89496091D01*
X171436658Y-89496087D01*
X171425929Y-89470185D01*
X171380087Y-89359511D01*
X171380085Y-89359507D01*
X171380084Y-89359505D01*
X171328933Y-89282952D01*
X171327684Y-89281082D01*
X171297954Y-89236586D01*
X171023549Y-88962181D01*
X170990064Y-88900858D01*
X170995048Y-88831166D01*
X171036920Y-88775233D01*
X171102384Y-88750816D01*
X171111230Y-88750500D01*
X171637770Y-88750500D01*
X171704809Y-88770185D01*
G37*
%TD.AperFunction*%
%TA.AperFunction,NonConductor*%
G36*
X179655810Y-88770185D02*
G01*
X179701565Y-88822989D01*
X179711509Y-88892147D01*
X179682484Y-88955703D01*
X179676452Y-88962181D01*
X179127048Y-89511583D01*
X179113253Y-89532230D01*
X179085399Y-89573918D01*
X179073219Y-89592147D01*
X179044916Y-89634504D01*
X179044912Y-89634511D01*
X178988343Y-89771082D01*
X178988340Y-89771092D01*
X178959500Y-89916079D01*
X178959500Y-97464199D01*
X178939815Y-97531238D01*
X178887011Y-97576993D01*
X178817853Y-97586937D01*
X178797183Y-97582130D01*
X178764542Y-97571524D01*
X178764535Y-97571523D01*
X178631802Y-97550500D01*
X178562352Y-97539500D01*
X178357648Y-97539500D01*
X178317184Y-97545909D01*
X178155464Y-97571523D01*
X178155461Y-97571523D01*
X178082818Y-97595127D01*
X178012977Y-97597122D01*
X177953144Y-97561042D01*
X177922316Y-97498341D01*
X177920500Y-97477196D01*
X177920500Y-89532230D01*
X177940185Y-89465191D01*
X177956819Y-89444549D01*
X178614549Y-88786819D01*
X178675872Y-88753334D01*
X178702230Y-88750500D01*
X179588771Y-88750500D01*
X179655810Y-88770185D01*
G37*
%TD.AperFunction*%
%TA.AperFunction,NonConductor*%
G36*
X182255809Y-89470185D02*
G01*
X182301564Y-89522989D01*
X182311508Y-89592147D01*
X182282483Y-89655703D01*
X182276451Y-89662181D01*
X181707052Y-90231578D01*
X181707049Y-90231581D01*
X181662702Y-90297951D01*
X181662703Y-90297952D01*
X181624914Y-90354508D01*
X181568343Y-90491082D01*
X181568340Y-90491092D01*
X181539500Y-90636079D01*
X181539500Y-97477196D01*
X181519815Y-97544235D01*
X181467011Y-97589990D01*
X181397853Y-97599934D01*
X181377182Y-97595127D01*
X181304537Y-97571523D01*
X181132247Y-97544235D01*
X181102352Y-97539500D01*
X180897648Y-97539500D01*
X180857184Y-97545909D01*
X180695464Y-97571523D01*
X180695461Y-97571523D01*
X180622818Y-97595127D01*
X180552977Y-97597122D01*
X180493144Y-97561042D01*
X180462316Y-97498341D01*
X180460500Y-97477196D01*
X180460500Y-90352229D01*
X180480185Y-90285190D01*
X180496819Y-90264548D01*
X181274548Y-89486819D01*
X181335871Y-89453334D01*
X181362229Y-89450500D01*
X182188770Y-89450500D01*
X182255809Y-89470185D01*
G37*
%TD.AperFunction*%
%TA.AperFunction,NonConductor*%
G36*
X152986445Y-84828865D02*
G01*
X153025485Y-84873919D01*
X153072715Y-84966614D01*
X153193028Y-85132213D01*
X153193034Y-85132219D01*
X153337781Y-85276966D01*
X153383384Y-85310098D01*
X153426050Y-85365425D01*
X153434500Y-85410416D01*
X153434500Y-87258918D01*
X153434500Y-87258920D01*
X153434499Y-87258920D01*
X153463340Y-87403907D01*
X153463343Y-87403917D01*
X153519914Y-87540492D01*
X153552812Y-87589727D01*
X153552813Y-87589730D01*
X153602046Y-87663414D01*
X153602052Y-87663421D01*
X155117049Y-89178416D01*
X155221584Y-89282951D01*
X155221587Y-89282953D01*
X155221588Y-89282954D01*
X155344503Y-89365083D01*
X155344506Y-89365085D01*
X155401079Y-89388518D01*
X155401080Y-89388518D01*
X155481088Y-89421659D01*
X155597241Y-89444763D01*
X155616468Y-89448587D01*
X155626081Y-89450500D01*
X155626082Y-89450500D01*
X155626083Y-89450500D01*
X155773918Y-89450500D01*
X169337770Y-89450500D01*
X169404809Y-89470185D01*
X169425451Y-89486819D01*
X169928181Y-89989549D01*
X169961666Y-90050872D01*
X169964500Y-90077230D01*
X169964500Y-97362196D01*
X169944815Y-97429235D01*
X169892011Y-97474990D01*
X169822853Y-97484934D01*
X169802182Y-97480127D01*
X169729537Y-97456523D01*
X169557247Y-97429235D01*
X169527352Y-97424500D01*
X169322648Y-97424500D01*
X169298329Y-97428351D01*
X169120465Y-97456522D01*
X168925776Y-97519781D01*
X168743386Y-97612715D01*
X168577786Y-97733028D01*
X168433028Y-97877786D01*
X168312715Y-98043386D01*
X168265485Y-98136080D01*
X168217510Y-98186876D01*
X168149689Y-98203671D01*
X168083554Y-98181134D01*
X168044515Y-98136080D01*
X168043883Y-98134840D01*
X167997287Y-98043390D01*
X167989556Y-98032749D01*
X167876971Y-97877786D01*
X167732213Y-97733028D01*
X167566613Y-97612715D01*
X167566612Y-97612714D01*
X167566610Y-97612713D01*
X167496506Y-97576993D01*
X167384223Y-97519781D01*
X167189534Y-97456522D01*
X167014995Y-97428878D01*
X166987352Y-97424500D01*
X166782648Y-97424500D01*
X166758329Y-97428351D01*
X166580465Y-97456522D01*
X166385776Y-97519781D01*
X166203386Y-97612715D01*
X166037786Y-97733028D01*
X165893028Y-97877786D01*
X165772715Y-98043386D01*
X165725485Y-98136080D01*
X165677510Y-98186876D01*
X165609689Y-98203671D01*
X165543554Y-98181134D01*
X165504515Y-98136080D01*
X165503883Y-98134840D01*
X165457287Y-98043390D01*
X165449556Y-98032749D01*
X165336971Y-97877786D01*
X165192213Y-97733028D01*
X165026613Y-97612715D01*
X165026612Y-97612714D01*
X165026610Y-97612713D01*
X164956506Y-97576993D01*
X164844223Y-97519781D01*
X164649534Y-97456522D01*
X164474995Y-97428878D01*
X164447352Y-97424500D01*
X164242648Y-97424500D01*
X164218329Y-97428351D01*
X164040465Y-97456522D01*
X163845776Y-97519781D01*
X163663386Y-97612715D01*
X163497786Y-97733028D01*
X163353028Y-97877786D01*
X163232715Y-98043386D01*
X163185485Y-98136080D01*
X163137510Y-98186876D01*
X163069689Y-98203671D01*
X163003554Y-98181134D01*
X162964515Y-98136080D01*
X162963883Y-98134840D01*
X162917287Y-98043390D01*
X162909556Y-98032749D01*
X162796971Y-97877786D01*
X162652213Y-97733028D01*
X162486613Y-97612715D01*
X162486612Y-97612714D01*
X162486610Y-97612713D01*
X162416506Y-97576993D01*
X162304223Y-97519781D01*
X162109534Y-97456522D01*
X161934995Y-97428878D01*
X161907352Y-97424500D01*
X161702648Y-97424500D01*
X161678329Y-97428351D01*
X161500465Y-97456522D01*
X161305776Y-97519781D01*
X161123386Y-97612715D01*
X160957786Y-97733028D01*
X160813028Y-97877786D01*
X160692715Y-98043386D01*
X160645485Y-98136080D01*
X160597510Y-98186876D01*
X160529689Y-98203671D01*
X160463554Y-98181134D01*
X160424515Y-98136080D01*
X160423883Y-98134840D01*
X160377287Y-98043390D01*
X160369556Y-98032749D01*
X160256971Y-97877786D01*
X160112213Y-97733028D01*
X159946613Y-97612715D01*
X159946612Y-97612714D01*
X159946610Y-97612713D01*
X159876506Y-97576993D01*
X159764223Y-97519781D01*
X159569534Y-97456522D01*
X159394995Y-97428878D01*
X159367352Y-97424500D01*
X159162648Y-97424500D01*
X159138329Y-97428351D01*
X158960465Y-97456522D01*
X158765776Y-97519781D01*
X158583386Y-97612715D01*
X158417786Y-97733028D01*
X158273028Y-97877786D01*
X158152715Y-98043386D01*
X158105485Y-98136080D01*
X158057510Y-98186876D01*
X157989689Y-98203671D01*
X157923554Y-98181134D01*
X157884515Y-98136080D01*
X157883883Y-98134840D01*
X157837287Y-98043390D01*
X157829556Y-98032749D01*
X157716971Y-97877786D01*
X157572213Y-97733028D01*
X157406613Y-97612715D01*
X157406612Y-97612714D01*
X157406610Y-97612713D01*
X157336506Y-97576993D01*
X157224223Y-97519781D01*
X157029534Y-97456522D01*
X156854995Y-97428878D01*
X156827352Y-97424500D01*
X156622648Y-97424500D01*
X156598329Y-97428351D01*
X156420465Y-97456522D01*
X156225776Y-97519781D01*
X156043386Y-97612715D01*
X155877786Y-97733028D01*
X155733028Y-97877786D01*
X155612715Y-98043386D01*
X155565485Y-98136080D01*
X155517510Y-98186876D01*
X155449689Y-98203671D01*
X155383554Y-98181134D01*
X155344515Y-98136080D01*
X155343883Y-98134840D01*
X155297287Y-98043390D01*
X155289556Y-98032749D01*
X155176971Y-97877786D01*
X155032213Y-97733028D01*
X154866613Y-97612715D01*
X154866612Y-97612714D01*
X154866610Y-97612713D01*
X154796506Y-97576993D01*
X154684223Y-97519781D01*
X154489534Y-97456522D01*
X154314995Y-97428878D01*
X154287352Y-97424500D01*
X154082648Y-97424500D01*
X154058329Y-97428351D01*
X153880465Y-97456522D01*
X153685776Y-97519781D01*
X153503386Y-97612715D01*
X153337786Y-97733028D01*
X153193028Y-97877786D01*
X153072715Y-98043386D01*
X153025485Y-98136080D01*
X152977510Y-98186876D01*
X152909689Y-98203671D01*
X152843554Y-98181134D01*
X152804515Y-98136080D01*
X152803883Y-98134840D01*
X152757287Y-98043390D01*
X152749556Y-98032749D01*
X152636971Y-97877786D01*
X152492213Y-97733028D01*
X152326613Y-97612715D01*
X152326612Y-97612714D01*
X152326610Y-97612713D01*
X152256506Y-97576993D01*
X152144223Y-97519781D01*
X151949534Y-97456522D01*
X151774995Y-97428878D01*
X151747352Y-97424500D01*
X151542648Y-97424500D01*
X151518329Y-97428351D01*
X151340465Y-97456522D01*
X151145776Y-97519781D01*
X150963386Y-97612715D01*
X150797786Y-97733028D01*
X150653028Y-97877786D01*
X150532715Y-98043386D01*
X150485485Y-98136080D01*
X150437510Y-98186876D01*
X150369689Y-98203671D01*
X150303554Y-98181134D01*
X150264515Y-98136080D01*
X150263883Y-98134840D01*
X150217287Y-98043390D01*
X150209556Y-98032749D01*
X150096971Y-97877786D01*
X149952213Y-97733028D01*
X149786613Y-97612715D01*
X149786612Y-97612714D01*
X149786610Y-97612713D01*
X149716506Y-97576993D01*
X149604223Y-97519781D01*
X149409534Y-97456522D01*
X149234995Y-97428878D01*
X149207352Y-97424500D01*
X149002648Y-97424500D01*
X148978329Y-97428351D01*
X148800465Y-97456522D01*
X148605776Y-97519781D01*
X148423386Y-97612715D01*
X148257786Y-97733028D01*
X148113028Y-97877786D01*
X147992715Y-98043386D01*
X147945485Y-98136080D01*
X147897510Y-98186876D01*
X147829689Y-98203671D01*
X147763554Y-98181134D01*
X147724515Y-98136080D01*
X147723883Y-98134840D01*
X147677287Y-98043390D01*
X147669556Y-98032749D01*
X147556971Y-97877786D01*
X147412213Y-97733028D01*
X147246613Y-97612715D01*
X147246612Y-97612714D01*
X147246610Y-97612713D01*
X147176506Y-97576993D01*
X147064223Y-97519781D01*
X146869534Y-97456522D01*
X146694995Y-97428878D01*
X146667352Y-97424500D01*
X146462648Y-97424500D01*
X146422184Y-97430909D01*
X146260464Y-97456523D01*
X146260461Y-97456523D01*
X146187818Y-97480127D01*
X146117977Y-97482122D01*
X146058144Y-97446042D01*
X146027316Y-97383341D01*
X146025500Y-97362196D01*
X146025500Y-85647803D01*
X146045185Y-85580764D01*
X146097989Y-85535009D01*
X146167147Y-85525065D01*
X146187812Y-85529870D01*
X146221675Y-85540873D01*
X146260465Y-85553477D01*
X146320534Y-85562991D01*
X146462648Y-85585500D01*
X146462649Y-85585500D01*
X146667351Y-85585500D01*
X146667352Y-85585500D01*
X146869534Y-85553477D01*
X147064219Y-85490220D01*
X147246610Y-85397287D01*
X147383300Y-85297977D01*
X147412213Y-85276971D01*
X147412215Y-85276968D01*
X147412219Y-85276966D01*
X147556966Y-85132219D01*
X147556968Y-85132215D01*
X147556971Y-85132213D01*
X147677284Y-84966614D01*
X147677285Y-84966613D01*
X147677287Y-84966610D01*
X147724516Y-84873917D01*
X147772489Y-84823123D01*
X147840310Y-84806328D01*
X147906445Y-84828865D01*
X147945485Y-84873919D01*
X147992715Y-84966614D01*
X148113028Y-85132213D01*
X148257786Y-85276971D01*
X148399424Y-85379875D01*
X148423390Y-85397287D01*
X148532191Y-85452724D01*
X148605776Y-85490218D01*
X148605778Y-85490218D01*
X148605781Y-85490220D01*
X148710137Y-85524127D01*
X148800465Y-85553477D01*
X148860534Y-85562991D01*
X149002648Y-85585500D01*
X149002649Y-85585500D01*
X149207351Y-85585500D01*
X149207352Y-85585500D01*
X149409534Y-85553477D01*
X149604219Y-85490220D01*
X149786610Y-85397287D01*
X149923300Y-85297977D01*
X149952213Y-85276971D01*
X149952215Y-85276968D01*
X149952219Y-85276966D01*
X150096966Y-85132219D01*
X150096968Y-85132215D01*
X150096971Y-85132213D01*
X150217284Y-84966614D01*
X150217285Y-84966613D01*
X150217287Y-84966610D01*
X150264516Y-84873917D01*
X150312489Y-84823123D01*
X150380310Y-84806328D01*
X150446445Y-84828865D01*
X150485485Y-84873919D01*
X150532715Y-84966614D01*
X150653028Y-85132213D01*
X150797786Y-85276971D01*
X150939424Y-85379875D01*
X150963390Y-85397287D01*
X151072191Y-85452724D01*
X151145776Y-85490218D01*
X151145778Y-85490218D01*
X151145781Y-85490220D01*
X151250137Y-85524127D01*
X151340465Y-85553477D01*
X151400534Y-85562991D01*
X151542648Y-85585500D01*
X151542649Y-85585500D01*
X151747351Y-85585500D01*
X151747352Y-85585500D01*
X151949534Y-85553477D01*
X152144219Y-85490220D01*
X152326610Y-85397287D01*
X152463300Y-85297977D01*
X152492213Y-85276971D01*
X152492215Y-85276968D01*
X152492219Y-85276966D01*
X152636966Y-85132219D01*
X152636968Y-85132215D01*
X152636971Y-85132213D01*
X152757284Y-84966614D01*
X152757285Y-84966613D01*
X152757287Y-84966610D01*
X152804516Y-84873917D01*
X152852489Y-84823123D01*
X152920310Y-84806328D01*
X152986445Y-84828865D01*
G37*
%TD.AperFunction*%
%TA.AperFunction,NonConductor*%
G36*
X198072536Y-85499110D02*
G01*
X198093769Y-85510498D01*
X198094234Y-85509741D01*
X198098381Y-85512282D01*
X198098388Y-85512285D01*
X198098390Y-85512287D01*
X198161213Y-85544297D01*
X198280776Y-85605218D01*
X198280778Y-85605218D01*
X198280781Y-85605220D01*
X198319360Y-85617755D01*
X198475465Y-85668477D01*
X198574470Y-85684158D01*
X198677648Y-85700500D01*
X198677649Y-85700500D01*
X198882351Y-85700500D01*
X198882352Y-85700500D01*
X199084534Y-85668477D01*
X199157182Y-85644871D01*
X199227022Y-85642876D01*
X199286855Y-85678956D01*
X199317684Y-85741657D01*
X199319500Y-85762803D01*
X199319500Y-95047769D01*
X199299815Y-95114808D01*
X199283181Y-95135450D01*
X196826637Y-97591993D01*
X196765314Y-97625478D01*
X196700638Y-97622243D01*
X196544537Y-97571523D01*
X196372247Y-97544235D01*
X196342352Y-97539500D01*
X196137648Y-97539500D01*
X196113329Y-97543351D01*
X195935465Y-97571522D01*
X195740776Y-97634781D01*
X195558386Y-97727715D01*
X195392786Y-97848028D01*
X195248028Y-97992786D01*
X195127715Y-98158386D01*
X195080485Y-98251080D01*
X195032510Y-98301876D01*
X194964689Y-98318671D01*
X194898554Y-98296134D01*
X194859515Y-98251080D01*
X194846624Y-98225781D01*
X194812287Y-98158390D01*
X194796078Y-98136080D01*
X194691971Y-97992786D01*
X194547213Y-97848028D01*
X194381613Y-97727715D01*
X194381612Y-97727714D01*
X194381610Y-97727713D01*
X194302621Y-97687466D01*
X194199223Y-97634781D01*
X194004534Y-97571522D01*
X193829995Y-97543878D01*
X193802352Y-97539500D01*
X193597648Y-97539500D01*
X193573329Y-97543351D01*
X193395465Y-97571522D01*
X193200776Y-97634781D01*
X193018391Y-97727712D01*
X193014241Y-97730256D01*
X193013065Y-97728337D01*
X192955857Y-97748528D01*
X192887858Y-97732470D01*
X192861522Y-97712388D01*
X191366188Y-96217052D01*
X191366187Y-96217051D01*
X191281551Y-96160500D01*
X191281550Y-96160499D01*
X191243267Y-96134919D01*
X191243255Y-96134912D01*
X191106684Y-96078343D01*
X191106674Y-96078340D01*
X190961687Y-96049500D01*
X190961685Y-96049500D01*
X185906082Y-96049500D01*
X185906080Y-96049500D01*
X185761092Y-96078340D01*
X185761082Y-96078343D01*
X185624511Y-96134912D01*
X185624496Y-96134920D01*
X185586217Y-96160499D01*
X185586215Y-96160501D01*
X185501581Y-96217050D01*
X185501580Y-96217051D01*
X184126637Y-97591993D01*
X184065314Y-97625478D01*
X184000638Y-97622243D01*
X183844537Y-97571523D01*
X183672247Y-97544235D01*
X183642352Y-97539500D01*
X183437648Y-97539500D01*
X183397184Y-97545909D01*
X183235464Y-97571523D01*
X183235457Y-97571524D01*
X183202817Y-97582130D01*
X183132976Y-97584125D01*
X183073143Y-97548044D01*
X183042316Y-97485343D01*
X183040500Y-97464199D01*
X183040500Y-91072229D01*
X183060185Y-91005190D01*
X183076819Y-90984548D01*
X183774548Y-90286819D01*
X183835871Y-90253334D01*
X183862229Y-90250500D01*
X192981687Y-90250500D01*
X193079229Y-90231096D01*
X193126680Y-90221658D01*
X193263262Y-90165084D01*
X193320186Y-90127049D01*
X193386183Y-90082952D01*
X197941523Y-85527609D01*
X198002844Y-85494126D01*
X198072536Y-85499110D01*
G37*
%TD.AperFunction*%
%TA.AperFunction,NonConductor*%
G36*
X180622812Y-100884870D02*
G01*
X180648024Y-100893062D01*
X180695465Y-100908477D01*
X180796557Y-100924488D01*
X180897648Y-100940500D01*
X180897649Y-100940500D01*
X181102351Y-100940500D01*
X181102352Y-100940500D01*
X181304534Y-100908477D01*
X181377182Y-100884871D01*
X181447022Y-100882876D01*
X181506855Y-100918956D01*
X181537684Y-100981657D01*
X181539500Y-101002803D01*
X181539500Y-104847770D01*
X181519815Y-104914809D01*
X181503181Y-104935451D01*
X180672181Y-105766451D01*
X180610858Y-105799936D01*
X180541166Y-105794952D01*
X180485233Y-105753080D01*
X180460816Y-105687616D01*
X180460500Y-105678770D01*
X180460500Y-101002803D01*
X180480185Y-100935764D01*
X180532989Y-100890009D01*
X180602147Y-100880065D01*
X180622812Y-100884870D01*
G37*
%TD.AperFunction*%
%TA.AperFunction,NonConductor*%
G36*
X172702614Y-100690106D02*
G01*
X172742871Y-100747212D01*
X172749500Y-100787211D01*
X172749500Y-106388770D01*
X172729815Y-106455809D01*
X172677011Y-106501564D01*
X172607853Y-106511508D01*
X172544297Y-106482483D01*
X172537819Y-106476451D01*
X171501819Y-105440451D01*
X171468334Y-105379128D01*
X171465500Y-105352770D01*
X171465500Y-100900800D01*
X171485185Y-100833761D01*
X171537989Y-100788006D01*
X171607147Y-100778062D01*
X171627820Y-100782870D01*
X171660458Y-100793475D01*
X171660461Y-100793475D01*
X171660466Y-100793477D01*
X171862648Y-100825500D01*
X171862649Y-100825500D01*
X172067351Y-100825500D01*
X172067352Y-100825500D01*
X172269534Y-100793477D01*
X172464219Y-100730220D01*
X172569205Y-100676726D01*
X172637873Y-100663830D01*
X172702614Y-100690106D01*
G37*
%TD.AperFunction*%
%TA.AperFunction,NonConductor*%
G36*
X178043073Y-100871958D02*
G01*
X178108024Y-100893062D01*
X178155465Y-100908477D01*
X178256557Y-100924488D01*
X178357648Y-100940500D01*
X178357649Y-100940500D01*
X178562351Y-100940500D01*
X178562352Y-100940500D01*
X178764534Y-100908477D01*
X178764539Y-100908475D01*
X178764541Y-100908475D01*
X178797180Y-100897870D01*
X178867021Y-100895873D01*
X178926855Y-100931953D01*
X178957684Y-100994653D01*
X178959500Y-101015800D01*
X178959500Y-106244802D01*
X178939815Y-106311841D01*
X178923181Y-106332483D01*
X177962181Y-107293483D01*
X177900858Y-107326968D01*
X177831166Y-107321984D01*
X177775233Y-107280112D01*
X177750816Y-107214648D01*
X177750500Y-107205802D01*
X177750500Y-101239699D01*
X177770185Y-101172660D01*
X177771398Y-101170808D01*
X177835080Y-101075501D01*
X177835080Y-101075500D01*
X177835084Y-101075495D01*
X177890199Y-100942433D01*
X177934037Y-100888035D01*
X178000331Y-100865969D01*
X178043073Y-100871958D01*
G37*
%TD.AperFunction*%
%TA.AperFunction,NonConductor*%
G36*
X170766445Y-84828865D02*
G01*
X170805485Y-84873919D01*
X170852715Y-84966614D01*
X170973028Y-85132213D01*
X171117786Y-85276971D01*
X171259424Y-85379875D01*
X171283390Y-85397287D01*
X171392191Y-85452724D01*
X171465776Y-85490218D01*
X171465778Y-85490218D01*
X171465781Y-85490220D01*
X171570137Y-85524127D01*
X171660465Y-85553477D01*
X171720534Y-85562991D01*
X171862648Y-85585500D01*
X171862649Y-85585500D01*
X172067351Y-85585500D01*
X172067352Y-85585500D01*
X172269534Y-85553477D01*
X172464219Y-85490220D01*
X172646610Y-85397287D01*
X172670575Y-85379874D01*
X172736381Y-85356394D01*
X172804435Y-85372219D01*
X172831143Y-85392511D01*
X174521586Y-87082954D01*
X174551058Y-87102645D01*
X174595270Y-87132186D01*
X174644505Y-87165084D01*
X174644506Y-87165084D01*
X174644507Y-87165085D01*
X174644509Y-87165086D01*
X174781082Y-87221656D01*
X174781087Y-87221658D01*
X174781091Y-87221658D01*
X174781092Y-87221659D01*
X174926079Y-87250500D01*
X174926082Y-87250500D01*
X174926083Y-87250500D01*
X175073917Y-87250500D01*
X177728769Y-87250500D01*
X177795808Y-87270185D01*
X177841563Y-87322989D01*
X177851507Y-87392147D01*
X177822482Y-87455703D01*
X177816450Y-87462181D01*
X176587050Y-88691580D01*
X176587044Y-88691588D01*
X176537812Y-88765268D01*
X176537813Y-88765269D01*
X176504921Y-88814496D01*
X176504914Y-88814508D01*
X176448342Y-88951086D01*
X176448340Y-88951092D01*
X176419500Y-89096079D01*
X176419500Y-97415500D01*
X176399815Y-97482539D01*
X176347011Y-97528294D01*
X176295500Y-97539500D01*
X175072129Y-97539500D01*
X175072123Y-97539501D01*
X175012516Y-97545908D01*
X174877671Y-97596202D01*
X174877664Y-97596206D01*
X174762455Y-97682452D01*
X174762452Y-97682455D01*
X174676206Y-97797664D01*
X174676202Y-97797671D01*
X174625908Y-97932517D01*
X174619501Y-97992116D01*
X174619500Y-97992135D01*
X174619500Y-100487870D01*
X174619501Y-100487876D01*
X174625908Y-100547483D01*
X174676202Y-100682328D01*
X174676206Y-100682335D01*
X174762452Y-100797544D01*
X174762455Y-100797547D01*
X174877664Y-100883793D01*
X174877671Y-100883797D01*
X175012517Y-100934091D01*
X175012516Y-100934091D01*
X175019444Y-100934835D01*
X175072127Y-100940500D01*
X176125500Y-100940499D01*
X176192539Y-100960183D01*
X176238294Y-101012987D01*
X176249500Y-101064499D01*
X176249500Y-107964852D01*
X176229815Y-108031891D01*
X176213181Y-108052533D01*
X175883098Y-108382615D01*
X175821775Y-108416100D01*
X175752083Y-108411116D01*
X175696150Y-108369244D01*
X175680856Y-108342387D01*
X175673014Y-108323456D01*
X175673013Y-108323453D01*
X175673011Y-108323450D01*
X175673009Y-108323446D01*
X175574464Y-108175965D01*
X175574461Y-108175961D01*
X175449038Y-108050538D01*
X175449034Y-108050535D01*
X175301553Y-107951990D01*
X175301540Y-107951983D01*
X175137670Y-107884107D01*
X175137660Y-107884104D01*
X175090679Y-107874759D01*
X175028768Y-107842374D01*
X175027190Y-107840823D01*
X174286819Y-107100451D01*
X174253334Y-107039128D01*
X174250500Y-107012770D01*
X174250500Y-89426079D01*
X174221659Y-89281092D01*
X174221658Y-89281091D01*
X174221658Y-89281087D01*
X174203225Y-89236586D01*
X174165087Y-89144511D01*
X174165080Y-89144498D01*
X174082952Y-89021585D01*
X174082951Y-89021584D01*
X173978416Y-88917049D01*
X173605664Y-88544297D01*
X172478421Y-87417052D01*
X172478414Y-87417046D01*
X172404729Y-87367812D01*
X172404729Y-87367813D01*
X172355491Y-87334913D01*
X172218917Y-87278343D01*
X172218907Y-87278340D01*
X172073920Y-87249500D01*
X172073918Y-87249500D01*
X161362229Y-87249500D01*
X161295190Y-87229815D01*
X161274548Y-87213181D01*
X160051819Y-85990451D01*
X160018334Y-85929128D01*
X160015500Y-85902770D01*
X160015500Y-85410416D01*
X160035185Y-85343377D01*
X160066613Y-85310099D01*
X160112219Y-85276966D01*
X160256966Y-85132219D01*
X160256968Y-85132215D01*
X160256971Y-85132213D01*
X160377284Y-84966614D01*
X160377285Y-84966613D01*
X160377287Y-84966610D01*
X160424516Y-84873917D01*
X160472489Y-84823123D01*
X160540310Y-84806328D01*
X160606445Y-84828865D01*
X160645485Y-84873919D01*
X160692715Y-84966614D01*
X160813028Y-85132213D01*
X160957786Y-85276971D01*
X161099424Y-85379875D01*
X161123390Y-85397287D01*
X161232191Y-85452724D01*
X161305776Y-85490218D01*
X161305778Y-85490218D01*
X161305781Y-85490220D01*
X161410137Y-85524127D01*
X161500465Y-85553477D01*
X161560534Y-85562991D01*
X161702648Y-85585500D01*
X161702649Y-85585500D01*
X161907351Y-85585500D01*
X161907352Y-85585500D01*
X162109534Y-85553477D01*
X162304219Y-85490220D01*
X162486610Y-85397287D01*
X162623300Y-85297977D01*
X162652213Y-85276971D01*
X162652215Y-85276968D01*
X162652219Y-85276966D01*
X162796966Y-85132219D01*
X162796968Y-85132215D01*
X162796971Y-85132213D01*
X162917284Y-84966614D01*
X162917285Y-84966613D01*
X162917287Y-84966610D01*
X162964516Y-84873917D01*
X163012489Y-84823123D01*
X163080310Y-84806328D01*
X163146445Y-84828865D01*
X163185485Y-84873919D01*
X163232715Y-84966614D01*
X163353028Y-85132213D01*
X163497786Y-85276971D01*
X163639424Y-85379875D01*
X163663390Y-85397287D01*
X163772191Y-85452724D01*
X163845776Y-85490218D01*
X163845778Y-85490218D01*
X163845781Y-85490220D01*
X163950137Y-85524127D01*
X164040465Y-85553477D01*
X164100534Y-85562991D01*
X164242648Y-85585500D01*
X164242649Y-85585500D01*
X164447351Y-85585500D01*
X164447352Y-85585500D01*
X164649534Y-85553477D01*
X164844219Y-85490220D01*
X165026610Y-85397287D01*
X165163300Y-85297977D01*
X165192213Y-85276971D01*
X165192215Y-85276968D01*
X165192219Y-85276966D01*
X165336966Y-85132219D01*
X165336968Y-85132215D01*
X165336971Y-85132213D01*
X165457284Y-84966614D01*
X165457285Y-84966613D01*
X165457287Y-84966610D01*
X165504516Y-84873917D01*
X165552489Y-84823123D01*
X165620310Y-84806328D01*
X165686445Y-84828865D01*
X165725485Y-84873919D01*
X165772715Y-84966614D01*
X165893028Y-85132213D01*
X166037786Y-85276971D01*
X166179424Y-85379875D01*
X166203390Y-85397287D01*
X166312191Y-85452724D01*
X166385776Y-85490218D01*
X166385778Y-85490218D01*
X166385781Y-85490220D01*
X166490137Y-85524127D01*
X166580465Y-85553477D01*
X166640534Y-85562991D01*
X166782648Y-85585500D01*
X166782649Y-85585500D01*
X166987351Y-85585500D01*
X166987352Y-85585500D01*
X167189534Y-85553477D01*
X167384219Y-85490220D01*
X167566610Y-85397287D01*
X167703300Y-85297977D01*
X167732213Y-85276971D01*
X167732215Y-85276968D01*
X167732219Y-85276966D01*
X167876966Y-85132219D01*
X167876968Y-85132215D01*
X167876971Y-85132213D01*
X167997284Y-84966614D01*
X167997285Y-84966613D01*
X167997287Y-84966610D01*
X168044516Y-84873917D01*
X168092489Y-84823123D01*
X168160310Y-84806328D01*
X168226445Y-84828865D01*
X168265485Y-84873919D01*
X168312715Y-84966614D01*
X168433028Y-85132213D01*
X168577786Y-85276971D01*
X168719424Y-85379875D01*
X168743390Y-85397287D01*
X168852191Y-85452724D01*
X168925776Y-85490218D01*
X168925778Y-85490218D01*
X168925781Y-85490220D01*
X169030137Y-85524127D01*
X169120465Y-85553477D01*
X169180534Y-85562991D01*
X169322648Y-85585500D01*
X169322649Y-85585500D01*
X169527351Y-85585500D01*
X169527352Y-85585500D01*
X169729534Y-85553477D01*
X169924219Y-85490220D01*
X170106610Y-85397287D01*
X170243300Y-85297977D01*
X170272213Y-85276971D01*
X170272215Y-85276968D01*
X170272219Y-85276966D01*
X170416966Y-85132219D01*
X170416968Y-85132215D01*
X170416971Y-85132213D01*
X170537284Y-84966614D01*
X170537285Y-84966613D01*
X170537287Y-84966610D01*
X170584516Y-84873917D01*
X170632489Y-84823123D01*
X170700310Y-84806328D01*
X170766445Y-84828865D01*
G37*
%TD.AperFunction*%
%TA.AperFunction,NonConductor*%
G36*
X193405703Y-106967517D02*
G01*
X193412181Y-106973549D01*
X194021586Y-107582954D01*
X194051058Y-107602645D01*
X194095270Y-107632186D01*
X194144505Y-107665084D01*
X194144506Y-107665084D01*
X194144507Y-107665085D01*
X194144509Y-107665086D01*
X194226470Y-107699035D01*
X194281087Y-107721658D01*
X194281091Y-107721658D01*
X194281092Y-107721659D01*
X194426079Y-107750500D01*
X194426082Y-107750500D01*
X194426083Y-107750500D01*
X194573918Y-107750500D01*
X199152267Y-107750500D01*
X199219306Y-107770185D01*
X199265061Y-107822989D01*
X199275005Y-107892147D01*
X199255368Y-107943393D01*
X199251988Y-107948450D01*
X199251983Y-107948459D01*
X199184106Y-108112332D01*
X199184103Y-108112341D01*
X199149500Y-108286304D01*
X199149500Y-108286309D01*
X199149500Y-108463691D01*
X199149500Y-108463693D01*
X199149499Y-108463693D01*
X199176874Y-108601308D01*
X199170647Y-108670900D01*
X199127784Y-108726077D01*
X199061895Y-108749322D01*
X199055257Y-108749500D01*
X194362230Y-108749500D01*
X194295191Y-108729815D01*
X194274549Y-108713181D01*
X193236819Y-107675451D01*
X193203334Y-107614128D01*
X193200500Y-107587770D01*
X193200500Y-107061230D01*
X193220185Y-106994191D01*
X193272989Y-106948436D01*
X193342147Y-106938492D01*
X193405703Y-106967517D01*
G37*
%TD.AperFunction*%
%TA.AperFunction,NonConductor*%
G36*
X191666855Y-100918956D02*
G01*
X191697684Y-100981657D01*
X191699500Y-101002803D01*
X191699500Y-108023918D01*
X191699500Y-108023920D01*
X191699499Y-108023920D01*
X191728340Y-108168907D01*
X191728343Y-108168917D01*
X191776969Y-108286309D01*
X191784916Y-108305495D01*
X191796910Y-108323446D01*
X191805353Y-108336082D01*
X191867049Y-108428418D01*
X193351450Y-109912819D01*
X193384935Y-109974142D01*
X193379951Y-110043834D01*
X193338079Y-110099767D01*
X193272615Y-110124184D01*
X193263769Y-110124500D01*
X192737229Y-110124500D01*
X192670190Y-110104815D01*
X192649548Y-110088181D01*
X190696819Y-108135451D01*
X190663334Y-108074128D01*
X190660500Y-108047770D01*
X190660500Y-101015800D01*
X190680185Y-100948761D01*
X190732989Y-100903006D01*
X190802147Y-100893062D01*
X190822820Y-100897870D01*
X190855458Y-100908475D01*
X190855461Y-100908475D01*
X190855466Y-100908477D01*
X191057648Y-100940500D01*
X191057649Y-100940500D01*
X191262351Y-100940500D01*
X191262352Y-100940500D01*
X191464534Y-100908477D01*
X191537182Y-100884871D01*
X191607022Y-100882876D01*
X191666855Y-100918956D01*
G37*
%TD.AperFunction*%
%TA.AperFunction,NonConductor*%
G36*
X166424358Y-100742755D02*
G01*
X166474581Y-100759073D01*
X166532257Y-100798510D01*
X166559456Y-100862868D01*
X166547542Y-100931715D01*
X166523945Y-100964685D01*
X157275451Y-110213181D01*
X157214128Y-110246666D01*
X157187770Y-110249500D01*
X157121230Y-110249500D01*
X157054191Y-110229815D01*
X157008436Y-110177011D01*
X156998492Y-110107853D01*
X157027517Y-110044297D01*
X157033549Y-110037819D01*
X158552767Y-108518601D01*
X166298362Y-100773003D01*
X166359683Y-100739520D01*
X166424358Y-100742755D01*
G37*
%TD.AperFunction*%
%TA.AperFunction,NonConductor*%
G36*
X163146445Y-100068865D02*
G01*
X163185485Y-100113919D01*
X163232715Y-100206614D01*
X163353028Y-100372213D01*
X163497786Y-100516971D01*
X163652749Y-100629556D01*
X163663390Y-100637287D01*
X163845781Y-100730220D01*
X163934584Y-100759073D01*
X163992258Y-100798510D01*
X164019457Y-100862869D01*
X164007543Y-100931715D01*
X163983946Y-100964685D01*
X155985451Y-108963181D01*
X155924128Y-108996666D01*
X155897770Y-108999500D01*
X148703373Y-108999500D01*
X148636334Y-108979815D01*
X148590579Y-108927011D01*
X148580635Y-108857853D01*
X148588812Y-108828048D01*
X148599792Y-108801540D01*
X148615894Y-108762666D01*
X148618549Y-108749322D01*
X148650499Y-108588695D01*
X148650500Y-108588693D01*
X148650500Y-108411306D01*
X148650499Y-108411304D01*
X148615896Y-108237341D01*
X148615893Y-108237332D01*
X148548016Y-108073459D01*
X148548014Y-108073455D01*
X148548013Y-108073453D01*
X148495277Y-107994528D01*
X148461442Y-107943891D01*
X148440564Y-107877214D01*
X148459048Y-107809834D01*
X148461442Y-107806109D01*
X148485446Y-107770185D01*
X148548013Y-107676547D01*
X148615894Y-107512666D01*
X148617387Y-107505164D01*
X148650499Y-107338695D01*
X148650500Y-107338693D01*
X148650500Y-107161306D01*
X148650499Y-107161304D01*
X148615896Y-106987341D01*
X148615893Y-106987332D01*
X148548016Y-106823459D01*
X148548014Y-106823455D01*
X148548013Y-106823453D01*
X148461442Y-106693891D01*
X148440564Y-106627214D01*
X148459048Y-106559834D01*
X148461442Y-106556109D01*
X148491243Y-106511508D01*
X148548013Y-106426547D01*
X148615894Y-106262666D01*
X148618549Y-106249322D01*
X148644326Y-106119729D01*
X148650500Y-106088691D01*
X148650500Y-105911309D01*
X148650500Y-105911306D01*
X148650499Y-105911304D01*
X148615896Y-105737341D01*
X148615893Y-105737332D01*
X148548016Y-105573459D01*
X148548014Y-105573455D01*
X148548013Y-105573453D01*
X148464490Y-105448453D01*
X148461442Y-105443891D01*
X148440564Y-105377214D01*
X148459048Y-105309834D01*
X148461442Y-105306109D01*
X148477352Y-105282296D01*
X148548013Y-105176547D01*
X148615894Y-105012666D01*
X148616603Y-105009106D01*
X148650499Y-104838695D01*
X148650500Y-104838693D01*
X148650500Y-104661306D01*
X148650499Y-104661304D01*
X148615896Y-104487341D01*
X148615893Y-104487332D01*
X148548015Y-104323457D01*
X148548011Y-104323450D01*
X148509733Y-104266162D01*
X148488855Y-104199485D01*
X148506717Y-104133125D01*
X148593478Y-103989606D01*
X148644086Y-103827196D01*
X148650500Y-103756616D01*
X148650500Y-103243384D01*
X148644086Y-103172804D01*
X148593478Y-103010394D01*
X148505472Y-102864815D01*
X148505470Y-102864813D01*
X148505469Y-102864811D01*
X148385188Y-102744530D01*
X148239606Y-102656522D01*
X148077196Y-102605914D01*
X148077194Y-102605913D01*
X148077192Y-102605913D01*
X148027778Y-102601423D01*
X148006616Y-102599500D01*
X146993384Y-102599500D01*
X146974145Y-102601248D01*
X146922807Y-102605913D01*
X146760393Y-102656522D01*
X146614811Y-102744530D01*
X146494530Y-102864811D01*
X146406522Y-103010393D01*
X146355913Y-103172807D01*
X146349500Y-103243386D01*
X146349500Y-103756613D01*
X146355913Y-103827192D01*
X146406522Y-103989606D01*
X146493281Y-104133122D01*
X146511117Y-104200677D01*
X146490267Y-104266162D01*
X146451989Y-104323449D01*
X146451983Y-104323460D01*
X146384106Y-104487332D01*
X146384103Y-104487341D01*
X146349500Y-104661304D01*
X146349500Y-104838695D01*
X146384103Y-105012658D01*
X146384106Y-105012667D01*
X146451983Y-105176540D01*
X146451990Y-105176553D01*
X146538557Y-105306109D01*
X146559435Y-105372787D01*
X146540950Y-105440167D01*
X146538557Y-105443891D01*
X146451990Y-105573446D01*
X146451983Y-105573459D01*
X146384106Y-105737332D01*
X146384103Y-105737341D01*
X146349500Y-105911304D01*
X146349500Y-106088695D01*
X146384103Y-106262658D01*
X146384106Y-106262667D01*
X146451983Y-106426540D01*
X146451990Y-106426553D01*
X146538557Y-106556109D01*
X146559435Y-106622787D01*
X146540950Y-106690167D01*
X146538557Y-106693891D01*
X146451990Y-106823446D01*
X146451983Y-106823459D01*
X146384106Y-106987332D01*
X146384103Y-106987341D01*
X146349500Y-107161304D01*
X146349500Y-107338695D01*
X146384103Y-107512658D01*
X146384106Y-107512667D01*
X146451983Y-107676540D01*
X146451990Y-107676553D01*
X146538557Y-107806109D01*
X146559435Y-107872787D01*
X146540950Y-107940167D01*
X146538557Y-107943891D01*
X146451990Y-108073446D01*
X146451983Y-108073459D01*
X146384106Y-108237332D01*
X146384103Y-108237341D01*
X146349500Y-108411304D01*
X146349500Y-108588695D01*
X146384103Y-108762658D01*
X146384106Y-108762667D01*
X146451983Y-108926540D01*
X146451990Y-108926553D01*
X146538557Y-109056109D01*
X146559435Y-109122787D01*
X146540950Y-109190167D01*
X146538557Y-109193891D01*
X146451990Y-109323446D01*
X146451983Y-109323459D01*
X146384106Y-109487332D01*
X146384103Y-109487341D01*
X146349500Y-109661304D01*
X146349500Y-109838695D01*
X146384103Y-110012658D01*
X146384106Y-110012667D01*
X146451983Y-110176540D01*
X146451990Y-110176553D01*
X146538557Y-110306109D01*
X146559435Y-110372787D01*
X146540950Y-110440167D01*
X146538557Y-110443891D01*
X146448945Y-110578005D01*
X146395333Y-110622810D01*
X146326008Y-110631517D01*
X146262981Y-110601363D01*
X146258162Y-110596795D01*
X146061819Y-110400451D01*
X146028334Y-110339128D01*
X146025500Y-110312770D01*
X146025500Y-100887803D01*
X146045185Y-100820764D01*
X146097989Y-100775009D01*
X146167147Y-100765065D01*
X146187812Y-100769870D01*
X146213024Y-100778062D01*
X146260465Y-100793477D01*
X146359470Y-100809158D01*
X146462648Y-100825500D01*
X146462649Y-100825500D01*
X146667351Y-100825500D01*
X146667352Y-100825500D01*
X146869534Y-100793477D01*
X147064219Y-100730220D01*
X147246610Y-100637287D01*
X147370216Y-100547483D01*
X147412213Y-100516971D01*
X147412215Y-100516968D01*
X147412219Y-100516966D01*
X147556966Y-100372219D01*
X147556968Y-100372215D01*
X147556971Y-100372213D01*
X147677284Y-100206614D01*
X147677283Y-100206614D01*
X147677287Y-100206610D01*
X147724516Y-100113917D01*
X147772489Y-100063123D01*
X147840310Y-100046328D01*
X147906445Y-100068865D01*
X147945485Y-100113919D01*
X147992715Y-100206614D01*
X148113028Y-100372213D01*
X148257786Y-100516971D01*
X148412749Y-100629556D01*
X148423390Y-100637287D01*
X148511788Y-100682328D01*
X148605776Y-100730218D01*
X148605778Y-100730218D01*
X148605781Y-100730220D01*
X148710137Y-100764127D01*
X148800465Y-100793477D01*
X148899470Y-100809158D01*
X149002648Y-100825500D01*
X149002649Y-100825500D01*
X149207351Y-100825500D01*
X149207352Y-100825500D01*
X149409534Y-100793477D01*
X149604219Y-100730220D01*
X149786610Y-100637287D01*
X149910216Y-100547483D01*
X149952213Y-100516971D01*
X149952215Y-100516968D01*
X149952219Y-100516966D01*
X150096966Y-100372219D01*
X150096968Y-100372215D01*
X150096971Y-100372213D01*
X150217284Y-100206614D01*
X150217283Y-100206614D01*
X150217287Y-100206610D01*
X150264516Y-100113917D01*
X150312489Y-100063123D01*
X150380310Y-100046328D01*
X150446445Y-100068865D01*
X150485485Y-100113919D01*
X150532715Y-100206614D01*
X150653028Y-100372213D01*
X150797786Y-100516971D01*
X150952749Y-100629556D01*
X150963390Y-100637287D01*
X151051788Y-100682328D01*
X151145776Y-100730218D01*
X151145778Y-100730218D01*
X151145781Y-100730220D01*
X151250137Y-100764127D01*
X151340465Y-100793477D01*
X151439470Y-100809158D01*
X151542648Y-100825500D01*
X151542649Y-100825500D01*
X151747351Y-100825500D01*
X151747352Y-100825500D01*
X151949534Y-100793477D01*
X152144219Y-100730220D01*
X152326610Y-100637287D01*
X152450216Y-100547483D01*
X152492213Y-100516971D01*
X152492215Y-100516968D01*
X152492219Y-100516966D01*
X152636966Y-100372219D01*
X152636968Y-100372215D01*
X152636971Y-100372213D01*
X152757284Y-100206614D01*
X152757283Y-100206614D01*
X152757287Y-100206610D01*
X152804516Y-100113917D01*
X152852489Y-100063123D01*
X152920310Y-100046328D01*
X152986445Y-100068865D01*
X153025485Y-100113919D01*
X153072715Y-100206614D01*
X153193028Y-100372213D01*
X153337786Y-100516971D01*
X153492749Y-100629556D01*
X153503390Y-100637287D01*
X153591788Y-100682328D01*
X153685776Y-100730218D01*
X153685778Y-100730218D01*
X153685781Y-100730220D01*
X153790137Y-100764127D01*
X153880465Y-100793477D01*
X153979470Y-100809158D01*
X154082648Y-100825500D01*
X154082649Y-100825500D01*
X154287351Y-100825500D01*
X154287352Y-100825500D01*
X154489534Y-100793477D01*
X154684219Y-100730220D01*
X154866610Y-100637287D01*
X154990216Y-100547483D01*
X155032213Y-100516971D01*
X155032215Y-100516968D01*
X155032219Y-100516966D01*
X155176966Y-100372219D01*
X155176968Y-100372215D01*
X155176971Y-100372213D01*
X155297284Y-100206614D01*
X155297283Y-100206614D01*
X155297287Y-100206610D01*
X155344516Y-100113917D01*
X155392489Y-100063123D01*
X155460310Y-100046328D01*
X155526445Y-100068865D01*
X155565485Y-100113919D01*
X155612715Y-100206614D01*
X155733028Y-100372213D01*
X155877786Y-100516971D01*
X156032749Y-100629556D01*
X156043390Y-100637287D01*
X156131788Y-100682328D01*
X156225776Y-100730218D01*
X156225778Y-100730218D01*
X156225781Y-100730220D01*
X156330137Y-100764127D01*
X156420465Y-100793477D01*
X156519470Y-100809158D01*
X156622648Y-100825500D01*
X156622649Y-100825500D01*
X156827351Y-100825500D01*
X156827352Y-100825500D01*
X157029534Y-100793477D01*
X157224219Y-100730220D01*
X157406610Y-100637287D01*
X157530216Y-100547483D01*
X157572213Y-100516971D01*
X157572215Y-100516968D01*
X157572219Y-100516966D01*
X157716966Y-100372219D01*
X157716968Y-100372215D01*
X157716971Y-100372213D01*
X157837284Y-100206614D01*
X157837283Y-100206614D01*
X157837287Y-100206610D01*
X157884516Y-100113917D01*
X157932489Y-100063123D01*
X158000310Y-100046328D01*
X158066445Y-100068865D01*
X158105485Y-100113919D01*
X158152715Y-100206614D01*
X158273028Y-100372213D01*
X158417786Y-100516971D01*
X158572749Y-100629556D01*
X158583390Y-100637287D01*
X158671788Y-100682328D01*
X158765776Y-100730218D01*
X158765778Y-100730218D01*
X158765781Y-100730220D01*
X158870137Y-100764127D01*
X158960465Y-100793477D01*
X159059470Y-100809158D01*
X159162648Y-100825500D01*
X159162649Y-100825500D01*
X159367351Y-100825500D01*
X159367352Y-100825500D01*
X159569534Y-100793477D01*
X159764219Y-100730220D01*
X159946610Y-100637287D01*
X160070216Y-100547483D01*
X160112213Y-100516971D01*
X160112215Y-100516968D01*
X160112219Y-100516966D01*
X160256966Y-100372219D01*
X160256968Y-100372215D01*
X160256971Y-100372213D01*
X160377284Y-100206614D01*
X160377283Y-100206614D01*
X160377287Y-100206610D01*
X160424516Y-100113917D01*
X160472489Y-100063123D01*
X160540310Y-100046328D01*
X160606445Y-100068865D01*
X160645485Y-100113919D01*
X160692715Y-100206614D01*
X160813028Y-100372213D01*
X160957786Y-100516971D01*
X161112749Y-100629556D01*
X161123390Y-100637287D01*
X161211788Y-100682328D01*
X161305776Y-100730218D01*
X161305778Y-100730218D01*
X161305781Y-100730220D01*
X161410137Y-100764127D01*
X161500465Y-100793477D01*
X161599470Y-100809158D01*
X161702648Y-100825500D01*
X161702649Y-100825500D01*
X161907351Y-100825500D01*
X161907352Y-100825500D01*
X162109534Y-100793477D01*
X162304219Y-100730220D01*
X162486610Y-100637287D01*
X162610216Y-100547483D01*
X162652213Y-100516971D01*
X162652215Y-100516968D01*
X162652219Y-100516966D01*
X162796966Y-100372219D01*
X162796968Y-100372215D01*
X162796971Y-100372213D01*
X162917284Y-100206614D01*
X162917283Y-100206614D01*
X162917287Y-100206610D01*
X162964516Y-100113917D01*
X163012489Y-100063123D01*
X163080310Y-100046328D01*
X163146445Y-100068865D01*
G37*
%TD.AperFunction*%
%TA.AperFunction,NonConductor*%
G36*
X178609632Y-71019685D02*
G01*
X178655387Y-71072489D01*
X178665331Y-71141647D01*
X178636306Y-71205203D01*
X178615478Y-71224318D01*
X178527786Y-71288028D01*
X178383028Y-71432786D01*
X178262715Y-71598386D01*
X178169781Y-71780776D01*
X178106522Y-71975465D01*
X178074500Y-72177648D01*
X178074500Y-73182351D01*
X178106522Y-73384534D01*
X178169781Y-73579223D01*
X178262715Y-73761613D01*
X178383028Y-73927213D01*
X178527786Y-74071971D01*
X178682749Y-74184556D01*
X178693390Y-74192287D01*
X178809607Y-74251503D01*
X178875776Y-74285218D01*
X178875778Y-74285218D01*
X178875781Y-74285220D01*
X178980137Y-74319127D01*
X179070465Y-74348477D01*
X179157954Y-74362334D01*
X179272648Y-74380500D01*
X179272649Y-74380500D01*
X179477351Y-74380500D01*
X179477352Y-74380500D01*
X179679534Y-74348477D01*
X179874219Y-74285220D01*
X180056610Y-74192287D01*
X180162314Y-74115489D01*
X180222213Y-74071971D01*
X180222215Y-74071968D01*
X180222219Y-74071966D01*
X180366966Y-73927219D01*
X180366968Y-73927215D01*
X180366971Y-73927213D01*
X180487284Y-73761614D01*
X180487285Y-73761613D01*
X180487287Y-73761610D01*
X180534516Y-73668917D01*
X180582489Y-73618123D01*
X180650310Y-73601328D01*
X180716445Y-73623865D01*
X180755485Y-73668919D01*
X180802715Y-73761614D01*
X180923028Y-73927213D01*
X181067786Y-74071971D01*
X181222749Y-74184556D01*
X181233390Y-74192287D01*
X181349607Y-74251503D01*
X181415776Y-74285218D01*
X181415778Y-74285218D01*
X181415781Y-74285220D01*
X181520137Y-74319127D01*
X181610465Y-74348477D01*
X181697954Y-74362334D01*
X181812648Y-74380500D01*
X181812649Y-74380500D01*
X182017351Y-74380500D01*
X182017352Y-74380500D01*
X182219534Y-74348477D01*
X182414219Y-74285220D01*
X182596610Y-74192287D01*
X182702314Y-74115489D01*
X182762213Y-74071971D01*
X182762215Y-74071968D01*
X182762219Y-74071966D01*
X182906966Y-73927219D01*
X182906968Y-73927215D01*
X182906971Y-73927213D01*
X183027284Y-73761614D01*
X183027285Y-73761613D01*
X183027287Y-73761610D01*
X183074516Y-73668917D01*
X183122489Y-73618123D01*
X183190310Y-73601328D01*
X183256445Y-73623865D01*
X183295485Y-73668919D01*
X183342715Y-73761614D01*
X183463028Y-73927213D01*
X183607786Y-74071971D01*
X183762749Y-74184556D01*
X183773390Y-74192287D01*
X183889607Y-74251503D01*
X183955776Y-74285218D01*
X183955778Y-74285218D01*
X183955781Y-74285220D01*
X184060137Y-74319127D01*
X184150465Y-74348477D01*
X184237954Y-74362334D01*
X184352648Y-74380500D01*
X184352649Y-74380500D01*
X184557351Y-74380500D01*
X184557352Y-74380500D01*
X184759534Y-74348477D01*
X184915640Y-74297754D01*
X184985478Y-74295760D01*
X185041637Y-74328005D01*
X187296586Y-76582954D01*
X187305173Y-76588691D01*
X187370270Y-76632186D01*
X187419505Y-76665084D01*
X187419506Y-76665084D01*
X187419507Y-76665085D01*
X187419509Y-76665086D01*
X187556082Y-76721656D01*
X187556087Y-76721658D01*
X187556091Y-76721658D01*
X187556092Y-76721659D01*
X187701079Y-76750500D01*
X187701082Y-76750500D01*
X187701083Y-76750500D01*
X187848917Y-76750500D01*
X195137770Y-76750500D01*
X195204809Y-76770185D01*
X195225451Y-76786819D01*
X195476451Y-77037819D01*
X195509936Y-77099142D01*
X195504952Y-77168834D01*
X195463080Y-77224767D01*
X195397616Y-77249184D01*
X195388770Y-77249500D01*
X181973309Y-77249500D01*
X181944475Y-77255234D01*
X181944476Y-77255235D01*
X181828326Y-77278339D01*
X181828316Y-77278342D01*
X181748314Y-77311479D01*
X181748315Y-77311480D01*
X181691738Y-77334915D01*
X181657045Y-77358096D01*
X181633864Y-77373586D01*
X181633863Y-77373587D01*
X181568819Y-77417046D01*
X181568814Y-77417050D01*
X180409826Y-78576038D01*
X180348503Y-78609523D01*
X180290580Y-78605384D01*
X180290035Y-78607693D01*
X180282483Y-78605908D01*
X180222883Y-78599501D01*
X180222881Y-78599500D01*
X180222873Y-78599500D01*
X180222864Y-78599500D01*
X178527129Y-78599500D01*
X178527123Y-78599501D01*
X178467516Y-78605908D01*
X178332671Y-78656202D01*
X178332664Y-78656206D01*
X178217455Y-78742452D01*
X178217452Y-78742455D01*
X178131206Y-78857664D01*
X178131202Y-78857671D01*
X178080908Y-78992517D01*
X178074501Y-79052116D01*
X178074500Y-79052135D01*
X178074500Y-81547870D01*
X178074501Y-81547876D01*
X178080908Y-81607483D01*
X178131202Y-81742328D01*
X178131206Y-81742335D01*
X178217452Y-81857544D01*
X178217455Y-81857547D01*
X178332664Y-81943793D01*
X178332671Y-81943797D01*
X178467517Y-81994091D01*
X178467516Y-81994091D01*
X178474444Y-81994835D01*
X178527127Y-82000500D01*
X179790500Y-82000499D01*
X179857539Y-82020184D01*
X179903294Y-82072987D01*
X179914500Y-82124499D01*
X179914500Y-82841231D01*
X179894815Y-82908270D01*
X179890820Y-82914114D01*
X179887712Y-82918391D01*
X179840485Y-83011080D01*
X179792510Y-83061876D01*
X179724689Y-83078671D01*
X179658554Y-83056134D01*
X179619515Y-83011080D01*
X179606622Y-82985776D01*
X179572287Y-82918390D01*
X179542011Y-82876718D01*
X179451971Y-82752786D01*
X179307213Y-82608028D01*
X179141613Y-82487715D01*
X179141612Y-82487714D01*
X179141610Y-82487713D01*
X179084653Y-82458691D01*
X178959223Y-82394781D01*
X178764534Y-82331522D01*
X178564978Y-82299916D01*
X178562352Y-82299500D01*
X178357648Y-82299500D01*
X178355022Y-82299916D01*
X178155464Y-82331523D01*
X178155461Y-82331523D01*
X177999361Y-82382244D01*
X177929520Y-82384239D01*
X177873362Y-82351994D01*
X174536819Y-79015451D01*
X174503334Y-78954128D01*
X174500500Y-78927770D01*
X174500500Y-77508914D01*
X174520185Y-77441875D01*
X174572989Y-77396120D01*
X174642147Y-77386176D01*
X174661380Y-77390526D01*
X174672804Y-77394086D01*
X174743384Y-77400500D01*
X174743387Y-77400500D01*
X175256613Y-77400500D01*
X175256616Y-77400500D01*
X175327196Y-77394086D01*
X175489606Y-77343478D01*
X175635185Y-77255472D01*
X175755472Y-77135185D01*
X175843478Y-76989606D01*
X175894086Y-76827196D01*
X175900500Y-76756616D01*
X175900500Y-75743384D01*
X175894086Y-75672804D01*
X175843478Y-75510394D01*
X175755472Y-75364815D01*
X175755470Y-75364813D01*
X175755469Y-75364811D01*
X175635188Y-75244530D01*
X175564820Y-75201991D01*
X175489606Y-75156522D01*
X175327196Y-75105914D01*
X175327194Y-75105913D01*
X175327192Y-75105913D01*
X175277778Y-75101423D01*
X175256616Y-75099500D01*
X174743384Y-75099500D01*
X174724145Y-75101248D01*
X174672807Y-75105913D01*
X174510391Y-75156523D01*
X174366875Y-75243281D01*
X174299321Y-75261117D01*
X174233834Y-75240265D01*
X174176555Y-75201991D01*
X174176540Y-75201983D01*
X174012667Y-75134106D01*
X174012658Y-75134103D01*
X173838694Y-75099500D01*
X173838691Y-75099500D01*
X173661309Y-75099500D01*
X173661306Y-75099500D01*
X173487341Y-75134103D01*
X173487332Y-75134106D01*
X173323459Y-75201983D01*
X173323446Y-75201990D01*
X173193891Y-75288557D01*
X173127213Y-75309435D01*
X173059833Y-75290950D01*
X173056109Y-75288557D01*
X172926553Y-75201990D01*
X172926540Y-75201983D01*
X172762667Y-75134106D01*
X172762658Y-75134103D01*
X172588694Y-75099500D01*
X172588691Y-75099500D01*
X172411309Y-75099500D01*
X172411306Y-75099500D01*
X172237341Y-75134103D01*
X172237332Y-75134106D01*
X172073459Y-75201983D01*
X172073446Y-75201990D01*
X171943891Y-75288557D01*
X171877213Y-75309435D01*
X171809833Y-75290950D01*
X171806109Y-75288557D01*
X171676553Y-75201990D01*
X171676540Y-75201983D01*
X171512667Y-75134106D01*
X171512658Y-75134103D01*
X171338694Y-75099500D01*
X171338691Y-75099500D01*
X171161309Y-75099500D01*
X171161306Y-75099500D01*
X170987341Y-75134103D01*
X170987332Y-75134106D01*
X170823459Y-75201983D01*
X170823446Y-75201990D01*
X170693891Y-75288557D01*
X170627213Y-75309435D01*
X170559833Y-75290950D01*
X170556109Y-75288557D01*
X170426553Y-75201990D01*
X170426540Y-75201983D01*
X170262667Y-75134106D01*
X170262658Y-75134103D01*
X170088694Y-75099500D01*
X170088691Y-75099500D01*
X169911309Y-75099500D01*
X169911306Y-75099500D01*
X169737341Y-75134103D01*
X169737332Y-75134106D01*
X169573459Y-75201983D01*
X169573446Y-75201990D01*
X169443891Y-75288557D01*
X169377213Y-75309435D01*
X169309833Y-75290950D01*
X169306109Y-75288557D01*
X169176553Y-75201990D01*
X169176540Y-75201983D01*
X169012667Y-75134106D01*
X169012658Y-75134103D01*
X168838694Y-75099500D01*
X168838691Y-75099500D01*
X168661309Y-75099500D01*
X168661306Y-75099500D01*
X168487341Y-75134103D01*
X168487332Y-75134106D01*
X168323459Y-75201983D01*
X168323446Y-75201990D01*
X168193891Y-75288557D01*
X168127213Y-75309435D01*
X168059833Y-75290950D01*
X168056109Y-75288557D01*
X167926553Y-75201990D01*
X167926540Y-75201983D01*
X167762667Y-75134106D01*
X167762658Y-75134103D01*
X167588694Y-75099500D01*
X167588691Y-75099500D01*
X167411309Y-75099500D01*
X167411306Y-75099500D01*
X167237341Y-75134103D01*
X167237332Y-75134106D01*
X167073459Y-75201983D01*
X167073446Y-75201990D01*
X166943891Y-75288557D01*
X166877213Y-75309435D01*
X166809833Y-75290950D01*
X166806109Y-75288557D01*
X166676553Y-75201990D01*
X166676540Y-75201983D01*
X166512667Y-75134106D01*
X166512658Y-75134103D01*
X166338694Y-75099500D01*
X166338691Y-75099500D01*
X166161309Y-75099500D01*
X166161306Y-75099500D01*
X165987341Y-75134103D01*
X165987332Y-75134106D01*
X165823459Y-75201983D01*
X165823446Y-75201990D01*
X165675965Y-75300535D01*
X165675961Y-75300538D01*
X165550538Y-75425961D01*
X165550535Y-75425965D01*
X165451990Y-75573446D01*
X165451983Y-75573459D01*
X165384106Y-75737332D01*
X165384103Y-75737341D01*
X165349500Y-75911304D01*
X165349500Y-76588695D01*
X165384103Y-76762658D01*
X165384106Y-76762667D01*
X165451983Y-76926540D01*
X165451990Y-76926553D01*
X165550535Y-77074034D01*
X165550538Y-77074038D01*
X165675961Y-77199461D01*
X165675965Y-77199464D01*
X165823446Y-77298009D01*
X165823459Y-77298016D01*
X165933214Y-77343477D01*
X165987334Y-77365894D01*
X165987336Y-77365894D01*
X165987341Y-77365896D01*
X166161304Y-77400499D01*
X166161307Y-77400500D01*
X166161309Y-77400500D01*
X166338693Y-77400500D01*
X166338694Y-77400499D01*
X166410702Y-77386176D01*
X166512658Y-77365896D01*
X166512661Y-77365894D01*
X166512666Y-77365894D01*
X166676547Y-77298013D01*
X166806109Y-77211442D01*
X166872786Y-77190564D01*
X166940166Y-77209048D01*
X166943891Y-77211442D01*
X167073453Y-77298013D01*
X167073455Y-77298014D01*
X167073459Y-77298016D01*
X167183214Y-77343477D01*
X167237334Y-77365894D01*
X167237336Y-77365894D01*
X167237341Y-77365896D01*
X167411304Y-77400499D01*
X167411307Y-77400500D01*
X167411309Y-77400500D01*
X167588693Y-77400500D01*
X167588694Y-77400499D01*
X167660702Y-77386176D01*
X167762658Y-77365896D01*
X167762661Y-77365894D01*
X167762666Y-77365894D01*
X167926547Y-77298013D01*
X168056109Y-77211442D01*
X168122786Y-77190564D01*
X168190166Y-77209048D01*
X168193891Y-77211442D01*
X168323453Y-77298013D01*
X168323455Y-77298014D01*
X168323459Y-77298016D01*
X168433214Y-77343477D01*
X168487334Y-77365894D01*
X168487336Y-77365894D01*
X168487341Y-77365896D01*
X168661304Y-77400499D01*
X168661307Y-77400500D01*
X168661309Y-77400500D01*
X168838693Y-77400500D01*
X168838694Y-77400499D01*
X168910702Y-77386176D01*
X169012658Y-77365896D01*
X169012661Y-77365894D01*
X169012666Y-77365894D01*
X169176547Y-77298013D01*
X169306109Y-77211442D01*
X169372786Y-77190564D01*
X169440166Y-77209048D01*
X169443891Y-77211442D01*
X169573453Y-77298013D01*
X169573455Y-77298014D01*
X169573459Y-77298016D01*
X169683214Y-77343477D01*
X169737334Y-77365894D01*
X169737336Y-77365894D01*
X169737341Y-77365896D01*
X169911304Y-77400499D01*
X169911307Y-77400500D01*
X169911309Y-77400500D01*
X170088693Y-77400500D01*
X170088694Y-77400499D01*
X170160702Y-77386176D01*
X170262658Y-77365896D01*
X170262661Y-77365894D01*
X170262666Y-77365894D01*
X170328048Y-77338811D01*
X170397517Y-77331343D01*
X170459996Y-77362618D01*
X170495648Y-77422707D01*
X170499500Y-77453373D01*
X170499500Y-79813868D01*
X170499500Y-79813870D01*
X170499499Y-79813870D01*
X170528340Y-79958857D01*
X170528343Y-79958867D01*
X170584913Y-80095440D01*
X170584916Y-80095445D01*
X170594644Y-80110003D01*
X170594645Y-80110008D01*
X170594647Y-80110008D01*
X170664468Y-80214505D01*
X170667051Y-80218370D01*
X170667052Y-80218371D01*
X172490424Y-82041742D01*
X172523909Y-82103065D01*
X172518925Y-82172757D01*
X172477053Y-82228690D01*
X172411589Y-82253107D01*
X172364425Y-82247354D01*
X172310224Y-82229743D01*
X172260861Y-82199493D01*
X171478421Y-81417052D01*
X171478414Y-81417046D01*
X171404729Y-81367812D01*
X171404729Y-81367813D01*
X171355491Y-81334913D01*
X171218917Y-81278343D01*
X171218907Y-81278340D01*
X171073920Y-81249500D01*
X171073918Y-81249500D01*
X145926082Y-81249500D01*
X145926080Y-81249500D01*
X145781092Y-81278340D01*
X145781086Y-81278342D01*
X145644508Y-81334914D01*
X145644496Y-81334921D01*
X145595269Y-81367813D01*
X145521588Y-81417044D01*
X145521580Y-81417050D01*
X144692047Y-82246584D01*
X144688178Y-82251299D01*
X144686471Y-82249898D01*
X144640455Y-82288339D01*
X144571128Y-82297031D01*
X144534699Y-82285119D01*
X144524224Y-82279782D01*
X144524221Y-82279781D01*
X144524219Y-82279780D01*
X144471085Y-82262515D01*
X144329534Y-82216522D01*
X144154995Y-82188878D01*
X144127352Y-82184500D01*
X143922648Y-82184500D01*
X143898329Y-82188351D01*
X143720465Y-82216522D01*
X143525776Y-82279781D01*
X143343386Y-82372715D01*
X143177786Y-82493028D01*
X143033028Y-82637786D01*
X142912715Y-82803386D01*
X142819781Y-82985776D01*
X142756522Y-83180465D01*
X142724500Y-83382648D01*
X142724500Y-84387351D01*
X142756522Y-84589534D01*
X142819781Y-84784223D01*
X142912715Y-84966613D01*
X143033028Y-85132213D01*
X143177786Y-85276971D01*
X143319424Y-85379875D01*
X143343390Y-85397287D01*
X143452191Y-85452724D01*
X143525776Y-85490218D01*
X143525778Y-85490218D01*
X143525781Y-85490220D01*
X143630137Y-85524127D01*
X143720465Y-85553477D01*
X143780534Y-85562991D01*
X143922648Y-85585500D01*
X143922649Y-85585500D01*
X144127351Y-85585500D01*
X144127352Y-85585500D01*
X144329534Y-85553477D01*
X144329539Y-85553475D01*
X144329541Y-85553475D01*
X144362180Y-85542870D01*
X144432021Y-85540873D01*
X144491855Y-85576953D01*
X144522684Y-85639653D01*
X144524500Y-85660800D01*
X144524500Y-97300500D01*
X144504815Y-97367539D01*
X144452011Y-97413294D01*
X144400500Y-97424500D01*
X143177129Y-97424500D01*
X143177123Y-97424501D01*
X143117516Y-97430908D01*
X142982671Y-97481202D01*
X142982664Y-97481206D01*
X142867455Y-97567452D01*
X142867452Y-97567455D01*
X142781206Y-97682664D01*
X142781202Y-97682671D01*
X142730908Y-97817517D01*
X142724501Y-97877116D01*
X142724500Y-97877135D01*
X142724500Y-100372870D01*
X142724501Y-100372876D01*
X142730908Y-100432483D01*
X142781202Y-100567328D01*
X142781206Y-100567335D01*
X142867452Y-100682544D01*
X142867455Y-100682547D01*
X142982664Y-100768793D01*
X142982671Y-100768797D01*
X143117517Y-100819091D01*
X143117516Y-100819091D01*
X143124444Y-100819835D01*
X143177127Y-100825500D01*
X144400500Y-100825499D01*
X144467539Y-100845184D01*
X144513294Y-100897987D01*
X144524500Y-100949499D01*
X144524500Y-110748918D01*
X144524500Y-110748920D01*
X144524499Y-110748920D01*
X144553340Y-110893907D01*
X144553343Y-110893917D01*
X144609913Y-111030490D01*
X144609914Y-111030492D01*
X144638930Y-111073917D01*
X144638931Y-111073919D01*
X144692043Y-111153410D01*
X144692047Y-111153415D01*
X146371580Y-112832948D01*
X146371584Y-112832951D01*
X146494498Y-112915080D01*
X146494511Y-112915087D01*
X146623407Y-112968477D01*
X146631087Y-112971658D01*
X146718094Y-112988964D01*
X146762789Y-113007478D01*
X146823453Y-113048013D01*
X146823456Y-113048014D01*
X146823457Y-113048015D01*
X146932707Y-113093267D01*
X146987334Y-113115894D01*
X146987336Y-113115894D01*
X146987341Y-113115896D01*
X147161304Y-113150499D01*
X147161307Y-113150500D01*
X147161309Y-113150500D01*
X147838693Y-113150500D01*
X147838694Y-113150499D01*
X147896682Y-113138964D01*
X148012658Y-113115896D01*
X148012661Y-113115894D01*
X148012666Y-113115894D01*
X148176547Y-113048013D01*
X148324035Y-112949464D01*
X148449464Y-112824035D01*
X148548013Y-112676547D01*
X148615894Y-112512666D01*
X148627923Y-112452196D01*
X148650499Y-112338695D01*
X148650500Y-112338693D01*
X148650500Y-112161306D01*
X148650499Y-112161304D01*
X148615896Y-111987341D01*
X148615893Y-111987332D01*
X148588812Y-111921952D01*
X148581343Y-111852483D01*
X148612618Y-111790004D01*
X148672707Y-111754352D01*
X148703373Y-111750500D01*
X157623920Y-111750500D01*
X157721462Y-111731096D01*
X157768913Y-111721658D01*
X157905495Y-111665084D01*
X157964738Y-111625499D01*
X158028416Y-111582952D01*
X168838363Y-100773003D01*
X168899684Y-100739520D01*
X168964359Y-100742754D01*
X169044506Y-100768796D01*
X169120465Y-100793477D01*
X169219470Y-100809158D01*
X169322648Y-100825500D01*
X169322649Y-100825500D01*
X169527351Y-100825500D01*
X169527352Y-100825500D01*
X169729534Y-100793477D01*
X169802182Y-100769871D01*
X169872022Y-100767876D01*
X169931855Y-100803956D01*
X169962684Y-100866657D01*
X169964500Y-100887803D01*
X169964500Y-105788918D01*
X169964500Y-105788920D01*
X169964499Y-105788920D01*
X169993340Y-105933907D01*
X169993343Y-105933917D01*
X170049914Y-106070492D01*
X170049915Y-106070494D01*
X170049916Y-106070495D01*
X170062075Y-106088693D01*
X170082812Y-106119727D01*
X170082813Y-106119730D01*
X170132046Y-106193414D01*
X170132052Y-106193421D01*
X171689577Y-107750944D01*
X171723062Y-107812267D01*
X171718078Y-107881958D01*
X171676206Y-107937892D01*
X171610742Y-107962309D01*
X171554444Y-107953187D01*
X171551537Y-107951983D01*
X171387666Y-107884106D01*
X171387659Y-107884104D01*
X171387658Y-107884104D01*
X171387658Y-107884103D01*
X171213694Y-107849500D01*
X171213691Y-107849500D01*
X171036309Y-107849500D01*
X171036306Y-107849500D01*
X170862341Y-107884103D01*
X170862332Y-107884106D01*
X170698459Y-107951983D01*
X170698446Y-107951990D01*
X170568891Y-108038557D01*
X170502213Y-108059435D01*
X170434833Y-108040950D01*
X170431109Y-108038557D01*
X170301553Y-107951990D01*
X170301540Y-107951983D01*
X170137667Y-107884106D01*
X170137658Y-107884103D01*
X169963694Y-107849500D01*
X169963691Y-107849500D01*
X169786309Y-107849500D01*
X169786306Y-107849500D01*
X169612341Y-107884103D01*
X169612332Y-107884106D01*
X169448459Y-107951983D01*
X169448446Y-107951990D01*
X169318891Y-108038557D01*
X169252213Y-108059435D01*
X169184833Y-108040950D01*
X169181109Y-108038557D01*
X169051553Y-107951990D01*
X169051540Y-107951983D01*
X168887667Y-107884106D01*
X168887658Y-107884103D01*
X168713694Y-107849500D01*
X168713691Y-107849500D01*
X168536309Y-107849500D01*
X168536306Y-107849500D01*
X168362341Y-107884103D01*
X168362332Y-107884106D01*
X168198459Y-107951983D01*
X168198446Y-107951990D01*
X168068891Y-108038557D01*
X168002213Y-108059435D01*
X167934833Y-108040950D01*
X167931109Y-108038557D01*
X167801553Y-107951990D01*
X167801540Y-107951983D01*
X167637667Y-107884106D01*
X167637658Y-107884103D01*
X167463694Y-107849500D01*
X167463691Y-107849500D01*
X167286309Y-107849500D01*
X167286306Y-107849500D01*
X167112341Y-107884103D01*
X167112332Y-107884106D01*
X166948460Y-107951983D01*
X166948449Y-107951989D01*
X166891162Y-107990267D01*
X166824484Y-108011144D01*
X166758122Y-107993281D01*
X166706888Y-107962309D01*
X166614606Y-107906522D01*
X166452196Y-107855914D01*
X166452194Y-107855913D01*
X166452192Y-107855913D01*
X166402778Y-107851423D01*
X166381616Y-107849500D01*
X165868384Y-107849500D01*
X165849145Y-107851248D01*
X165797807Y-107855913D01*
X165635393Y-107906522D01*
X165489811Y-107994530D01*
X165369530Y-108114811D01*
X165281522Y-108260393D01*
X165230913Y-108422807D01*
X165224500Y-108493386D01*
X165224500Y-109506613D01*
X165230913Y-109577192D01*
X165281522Y-109739606D01*
X165369530Y-109885188D01*
X165489811Y-110005469D01*
X165489813Y-110005470D01*
X165489815Y-110005472D01*
X165635394Y-110093478D01*
X165797804Y-110144086D01*
X165868384Y-110150500D01*
X165868387Y-110150500D01*
X166381613Y-110150500D01*
X166381616Y-110150500D01*
X166452196Y-110144086D01*
X166614606Y-110093478D01*
X166758125Y-110006717D01*
X166825676Y-109988882D01*
X166891162Y-110009733D01*
X166948450Y-110048011D01*
X166948457Y-110048015D01*
X167008994Y-110073089D01*
X167112334Y-110115894D01*
X167159318Y-110125239D01*
X167221227Y-110157622D01*
X167222807Y-110159175D01*
X169042049Y-111978416D01*
X169146584Y-112082951D01*
X169146587Y-112082953D01*
X169146588Y-112082954D01*
X169269494Y-112165077D01*
X169269496Y-112165078D01*
X169269505Y-112165084D01*
X169296055Y-112176081D01*
X169296056Y-112176082D01*
X169296057Y-112176082D01*
X169406088Y-112221659D01*
X169522241Y-112244763D01*
X169541468Y-112248587D01*
X169551081Y-112250500D01*
X169551082Y-112250500D01*
X176073920Y-112250500D01*
X176171462Y-112231096D01*
X176218913Y-112221658D01*
X176355495Y-112165084D01*
X176404729Y-112132186D01*
X176478416Y-112082952D01*
X182872951Y-105688416D01*
X182955084Y-105565495D01*
X183011658Y-105428913D01*
X183040500Y-105283918D01*
X183040500Y-105136083D01*
X183040500Y-101015800D01*
X183060185Y-100948761D01*
X183112989Y-100903006D01*
X183182147Y-100893062D01*
X183202820Y-100897870D01*
X183235458Y-100908475D01*
X183235461Y-100908475D01*
X183235466Y-100908477D01*
X183437648Y-100940500D01*
X183437649Y-100940500D01*
X183642351Y-100940500D01*
X183642352Y-100940500D01*
X183844534Y-100908477D01*
X184039219Y-100845220D01*
X184221610Y-100752287D01*
X184343362Y-100663830D01*
X184387213Y-100631971D01*
X184387215Y-100631968D01*
X184387219Y-100631966D01*
X184531966Y-100487219D01*
X184531968Y-100487215D01*
X184531971Y-100487213D01*
X184652284Y-100321614D01*
X184652285Y-100321613D01*
X184652287Y-100321610D01*
X184699516Y-100228917D01*
X184747489Y-100178123D01*
X184815310Y-100161328D01*
X184881445Y-100183865D01*
X184920485Y-100228919D01*
X184967715Y-100321614D01*
X185088028Y-100487213D01*
X185232786Y-100631971D01*
X185347280Y-100715154D01*
X185398390Y-100752287D01*
X185514607Y-100811503D01*
X185580776Y-100845218D01*
X185580778Y-100845218D01*
X185580781Y-100845220D01*
X185663075Y-100871959D01*
X185775465Y-100908477D01*
X185876557Y-100924488D01*
X185977648Y-100940500D01*
X185977649Y-100940500D01*
X186182351Y-100940500D01*
X186182352Y-100940500D01*
X186384534Y-100908477D01*
X186579219Y-100845220D01*
X186761610Y-100752287D01*
X186883362Y-100663830D01*
X186927213Y-100631971D01*
X186927215Y-100631968D01*
X186927219Y-100631966D01*
X187071966Y-100487219D01*
X187071968Y-100487215D01*
X187071971Y-100487213D01*
X187192284Y-100321614D01*
X187192285Y-100321613D01*
X187192287Y-100321610D01*
X187239516Y-100228917D01*
X187287489Y-100178123D01*
X187355310Y-100161328D01*
X187421445Y-100183865D01*
X187460485Y-100228919D01*
X187507715Y-100321614D01*
X187628028Y-100487213D01*
X187628034Y-100487219D01*
X187772781Y-100631966D01*
X187818384Y-100665098D01*
X187861050Y-100720425D01*
X187869500Y-100765416D01*
X187869500Y-108693918D01*
X187869500Y-108693920D01*
X187869499Y-108693920D01*
X187898340Y-108838907D01*
X187898343Y-108838917D01*
X187954912Y-108975488D01*
X187954914Y-108975492D01*
X187954916Y-108975495D01*
X187966580Y-108992951D01*
X188020757Y-109074035D01*
X188037051Y-109098420D01*
X188037052Y-109098421D01*
X191521584Y-112582952D01*
X191521586Y-112582954D01*
X191553167Y-112604054D01*
X191568959Y-112614606D01*
X191644505Y-112665084D01*
X191644506Y-112665084D01*
X191644507Y-112665085D01*
X191781082Y-112721656D01*
X191781087Y-112721658D01*
X191781091Y-112721658D01*
X191781092Y-112721659D01*
X191926079Y-112750500D01*
X191926082Y-112750500D01*
X191926083Y-112750500D01*
X192073918Y-112750500D01*
X199197649Y-112750500D01*
X199264688Y-112770185D01*
X199266455Y-112771341D01*
X199294505Y-112790084D01*
X199294511Y-112790086D01*
X199294512Y-112790087D01*
X199322797Y-112801803D01*
X199363027Y-112828684D01*
X199414810Y-112880468D01*
X199414811Y-112880469D01*
X199414813Y-112880470D01*
X199414815Y-112880472D01*
X199560394Y-112968478D01*
X199722804Y-113019086D01*
X199793384Y-113025500D01*
X199793387Y-113025500D01*
X200806613Y-113025500D01*
X200806616Y-113025500D01*
X200877196Y-113019086D01*
X201039606Y-112968478D01*
X201185185Y-112880472D01*
X201305472Y-112760185D01*
X201393478Y-112614606D01*
X201444086Y-112452196D01*
X201450500Y-112381616D01*
X201450500Y-111868384D01*
X201444086Y-111797804D01*
X201393478Y-111635394D01*
X201306716Y-111491873D01*
X201288881Y-111424322D01*
X201309731Y-111358839D01*
X201348013Y-111301547D01*
X201415894Y-111137666D01*
X201450500Y-110963691D01*
X201450500Y-110786309D01*
X201450500Y-110786306D01*
X201450499Y-110786304D01*
X201415896Y-110612341D01*
X201415893Y-110612332D01*
X201409457Y-110596795D01*
X201398923Y-110571363D01*
X201348016Y-110448459D01*
X201348014Y-110448455D01*
X201348013Y-110448453D01*
X201261442Y-110318891D01*
X201240564Y-110252214D01*
X201259048Y-110184834D01*
X201261442Y-110181109D01*
X201319996Y-110093477D01*
X201348013Y-110051547D01*
X201415894Y-109887666D01*
X201450500Y-109713691D01*
X201450500Y-109536309D01*
X201450500Y-109536306D01*
X201450499Y-109536304D01*
X201415896Y-109362341D01*
X201415893Y-109362332D01*
X201348016Y-109198459D01*
X201348014Y-109198455D01*
X201348013Y-109198453D01*
X201261442Y-109068891D01*
X201240564Y-109002214D01*
X201259048Y-108934834D01*
X201261442Y-108931109D01*
X201323043Y-108838917D01*
X201348013Y-108801547D01*
X201415894Y-108637666D01*
X201425636Y-108588693D01*
X201450499Y-108463695D01*
X201450500Y-108463693D01*
X201450500Y-108286306D01*
X201450499Y-108286304D01*
X201415896Y-108112341D01*
X201415893Y-108112332D01*
X201410425Y-108099132D01*
X201354806Y-107964852D01*
X201348016Y-107948459D01*
X201348014Y-107948455D01*
X201348013Y-107948453D01*
X201277133Y-107842374D01*
X201261442Y-107818891D01*
X201240564Y-107752214D01*
X201259048Y-107684834D01*
X201261442Y-107681109D01*
X201327027Y-107582954D01*
X201348013Y-107551547D01*
X201415894Y-107387666D01*
X201425636Y-107338693D01*
X201438964Y-107271682D01*
X201450500Y-107213691D01*
X201450500Y-107036309D01*
X201450500Y-107036306D01*
X201450499Y-107036304D01*
X201415896Y-106862341D01*
X201415893Y-106862332D01*
X201348016Y-106698459D01*
X201348014Y-106698455D01*
X201348013Y-106698453D01*
X201261442Y-106568891D01*
X201240564Y-106502214D01*
X201259048Y-106434834D01*
X201261442Y-106431109D01*
X201327342Y-106332483D01*
X201348013Y-106301547D01*
X201415894Y-106137666D01*
X201419463Y-106119727D01*
X201450499Y-105963695D01*
X201450500Y-105963693D01*
X201450500Y-105786306D01*
X201450499Y-105786304D01*
X201415896Y-105612341D01*
X201415893Y-105612332D01*
X201348016Y-105448459D01*
X201348009Y-105448446D01*
X201249464Y-105300965D01*
X201249461Y-105300961D01*
X201124038Y-105175538D01*
X201124034Y-105175535D01*
X200976553Y-105076990D01*
X200976540Y-105076983D01*
X200812667Y-105009106D01*
X200812658Y-105009103D01*
X200638694Y-104974500D01*
X200638691Y-104974500D01*
X199961309Y-104974500D01*
X199961306Y-104974500D01*
X199787341Y-105009103D01*
X199787332Y-105009106D01*
X199623459Y-105076983D01*
X199623446Y-105076990D01*
X199475965Y-105175535D01*
X199475961Y-105175538D01*
X199350538Y-105300961D01*
X199350535Y-105300965D01*
X199251990Y-105448446D01*
X199251983Y-105448459D01*
X199184106Y-105612332D01*
X199184103Y-105612341D01*
X199149500Y-105786304D01*
X199149500Y-105786309D01*
X199149500Y-105963691D01*
X199149500Y-105963693D01*
X199149499Y-105963693D01*
X199176874Y-106101308D01*
X199170647Y-106170900D01*
X199127784Y-106226077D01*
X199061895Y-106249322D01*
X199055257Y-106249500D01*
X194862230Y-106249500D01*
X194795191Y-106229815D01*
X194774549Y-106213181D01*
X194486819Y-105925451D01*
X194453334Y-105864128D01*
X194450500Y-105837770D01*
X194450500Y-100765416D01*
X194470185Y-100698377D01*
X194501613Y-100665099D01*
X194547219Y-100631966D01*
X194691966Y-100487219D01*
X194691968Y-100487215D01*
X194691971Y-100487213D01*
X194812284Y-100321614D01*
X194812285Y-100321613D01*
X194812287Y-100321610D01*
X194859516Y-100228917D01*
X194907489Y-100178123D01*
X194975310Y-100161328D01*
X195041445Y-100183865D01*
X195080485Y-100228919D01*
X195127715Y-100321614D01*
X195248028Y-100487213D01*
X195392786Y-100631971D01*
X195507280Y-100715154D01*
X195558390Y-100752287D01*
X195674607Y-100811503D01*
X195740776Y-100845218D01*
X195740778Y-100845218D01*
X195740781Y-100845220D01*
X195823075Y-100871959D01*
X195935465Y-100908477D01*
X196036557Y-100924488D01*
X196137648Y-100940500D01*
X196137649Y-100940500D01*
X196342351Y-100940500D01*
X196342352Y-100940500D01*
X196544534Y-100908477D01*
X196739219Y-100845220D01*
X196921610Y-100752287D01*
X197043362Y-100663830D01*
X197087213Y-100631971D01*
X197087215Y-100631968D01*
X197087219Y-100631966D01*
X197231966Y-100487219D01*
X197231968Y-100487215D01*
X197231971Y-100487213D01*
X197352284Y-100321614D01*
X197352285Y-100321613D01*
X197352287Y-100321610D01*
X197399516Y-100228917D01*
X197447489Y-100178123D01*
X197515310Y-100161328D01*
X197581445Y-100183865D01*
X197620485Y-100228919D01*
X197667715Y-100321614D01*
X197788028Y-100487213D01*
X197932786Y-100631971D01*
X198047280Y-100715154D01*
X198098390Y-100752287D01*
X198214607Y-100811503D01*
X198280776Y-100845218D01*
X198280778Y-100845218D01*
X198280781Y-100845220D01*
X198363075Y-100871959D01*
X198475465Y-100908477D01*
X198576557Y-100924488D01*
X198677648Y-100940500D01*
X198677649Y-100940500D01*
X198882351Y-100940500D01*
X198882352Y-100940500D01*
X199084534Y-100908477D01*
X199279219Y-100845220D01*
X199461610Y-100752287D01*
X199583362Y-100663830D01*
X199627213Y-100631971D01*
X199627215Y-100631968D01*
X199627219Y-100631966D01*
X199771966Y-100487219D01*
X199771968Y-100487215D01*
X199771971Y-100487213D01*
X199892284Y-100321614D01*
X199892285Y-100321613D01*
X199892287Y-100321610D01*
X199939516Y-100228917D01*
X199987489Y-100178123D01*
X200055310Y-100161328D01*
X200121445Y-100183865D01*
X200160485Y-100228919D01*
X200207715Y-100321614D01*
X200328028Y-100487213D01*
X200472786Y-100631971D01*
X200587280Y-100715154D01*
X200638390Y-100752287D01*
X200754607Y-100811503D01*
X200820776Y-100845218D01*
X200820778Y-100845218D01*
X200820781Y-100845220D01*
X200903075Y-100871959D01*
X201015465Y-100908477D01*
X201116557Y-100924488D01*
X201217648Y-100940500D01*
X201217649Y-100940500D01*
X201422351Y-100940500D01*
X201422352Y-100940500D01*
X201624534Y-100908477D01*
X201819219Y-100845220D01*
X202001610Y-100752287D01*
X202123362Y-100663830D01*
X202167213Y-100631971D01*
X202167215Y-100631968D01*
X202167219Y-100631966D01*
X202311966Y-100487219D01*
X202311968Y-100487215D01*
X202311971Y-100487213D01*
X202432284Y-100321614D01*
X202432285Y-100321613D01*
X202432287Y-100321610D01*
X202479516Y-100228917D01*
X202527489Y-100178123D01*
X202595310Y-100161328D01*
X202661445Y-100183865D01*
X202700485Y-100228919D01*
X202747715Y-100321614D01*
X202868028Y-100487213D01*
X203012786Y-100631971D01*
X203127280Y-100715154D01*
X203178390Y-100752287D01*
X203294607Y-100811503D01*
X203360776Y-100845218D01*
X203360778Y-100845218D01*
X203360781Y-100845220D01*
X203443075Y-100871959D01*
X203555465Y-100908477D01*
X203656557Y-100924488D01*
X203757648Y-100940500D01*
X203757649Y-100940500D01*
X203962351Y-100940500D01*
X203962352Y-100940500D01*
X204164534Y-100908477D01*
X204359219Y-100845220D01*
X204541610Y-100752287D01*
X204663362Y-100663830D01*
X204707213Y-100631971D01*
X204707215Y-100631968D01*
X204707219Y-100631966D01*
X204851966Y-100487219D01*
X204851968Y-100487215D01*
X204851971Y-100487213D01*
X204935043Y-100372872D01*
X204972287Y-100321610D01*
X205065220Y-100139219D01*
X205128477Y-99944534D01*
X205160500Y-99742352D01*
X205160500Y-98737648D01*
X205128477Y-98535466D01*
X205065220Y-98340781D01*
X205065218Y-98340778D01*
X205065218Y-98340776D01*
X205006624Y-98225781D01*
X204972287Y-98158390D01*
X204956078Y-98136080D01*
X204851971Y-97992786D01*
X204707213Y-97848028D01*
X204541613Y-97727715D01*
X204541612Y-97727714D01*
X204541610Y-97727713D01*
X204462621Y-97687466D01*
X204359223Y-97634781D01*
X204164534Y-97571522D01*
X203989995Y-97543878D01*
X203962352Y-97539500D01*
X203757648Y-97539500D01*
X203733329Y-97543351D01*
X203555465Y-97571522D01*
X203360776Y-97634781D01*
X203178386Y-97727715D01*
X203012786Y-97848028D01*
X202868028Y-97992786D01*
X202747715Y-98158386D01*
X202700485Y-98251080D01*
X202652510Y-98301876D01*
X202584689Y-98318671D01*
X202518554Y-98296134D01*
X202479515Y-98251080D01*
X202466624Y-98225781D01*
X202432287Y-98158390D01*
X202416078Y-98136080D01*
X202311971Y-97992786D01*
X202167213Y-97848028D01*
X202001613Y-97727715D01*
X202001612Y-97727714D01*
X202001610Y-97727713D01*
X201922621Y-97687466D01*
X201819223Y-97634781D01*
X201624534Y-97571522D01*
X201449995Y-97543878D01*
X201422352Y-97539500D01*
X201217648Y-97539500D01*
X201193329Y-97543351D01*
X201015465Y-97571522D01*
X200820776Y-97634781D01*
X200638386Y-97727715D01*
X200472786Y-97848028D01*
X200328028Y-97992786D01*
X200207715Y-98158386D01*
X200160485Y-98251080D01*
X200112510Y-98301876D01*
X200044689Y-98318671D01*
X199978554Y-98296134D01*
X199939515Y-98251080D01*
X199926624Y-98225781D01*
X199892287Y-98158390D01*
X199876078Y-98136080D01*
X199771971Y-97992786D01*
X199627213Y-97848028D01*
X199461613Y-97727715D01*
X199461612Y-97727714D01*
X199461610Y-97727713D01*
X199279219Y-97634780D01*
X199190414Y-97605925D01*
X199132739Y-97566488D01*
X199105541Y-97502130D01*
X199117456Y-97433283D01*
X199141049Y-97400317D01*
X200652952Y-95888416D01*
X200702186Y-95814729D01*
X200735084Y-95765495D01*
X200791658Y-95628913D01*
X200820500Y-95483918D01*
X200820500Y-85775800D01*
X200840185Y-85708761D01*
X200892989Y-85663006D01*
X200962147Y-85653062D01*
X200982820Y-85657870D01*
X201015458Y-85668475D01*
X201015461Y-85668475D01*
X201015466Y-85668477D01*
X201217648Y-85700500D01*
X201217649Y-85700500D01*
X201422351Y-85700500D01*
X201422352Y-85700500D01*
X201624534Y-85668477D01*
X201819219Y-85605220D01*
X202001610Y-85512287D01*
X202120262Y-85426082D01*
X202167213Y-85391971D01*
X202167215Y-85391968D01*
X202167219Y-85391966D01*
X202311966Y-85247219D01*
X202311968Y-85247215D01*
X202311971Y-85247213D01*
X202432284Y-85081614D01*
X202432285Y-85081613D01*
X202432287Y-85081610D01*
X202479516Y-84988917D01*
X202527489Y-84938123D01*
X202595310Y-84921328D01*
X202661445Y-84943865D01*
X202700485Y-84988919D01*
X202747715Y-85081614D01*
X202868028Y-85247213D01*
X203012786Y-85391971D01*
X203147819Y-85490076D01*
X203178390Y-85512287D01*
X203259226Y-85553475D01*
X203360776Y-85605218D01*
X203360778Y-85605218D01*
X203360781Y-85605220D01*
X203399360Y-85617755D01*
X203555465Y-85668477D01*
X203654470Y-85684158D01*
X203757648Y-85700500D01*
X203757649Y-85700500D01*
X203962351Y-85700500D01*
X203962352Y-85700500D01*
X204164534Y-85668477D01*
X204359219Y-85605220D01*
X204541610Y-85512287D01*
X204660262Y-85426082D01*
X204707213Y-85391971D01*
X204707215Y-85391968D01*
X204707219Y-85391966D01*
X204851966Y-85247219D01*
X204851968Y-85247215D01*
X204851971Y-85247213D01*
X204904732Y-85174590D01*
X204972287Y-85081610D01*
X205065220Y-84899219D01*
X205128477Y-84704534D01*
X205160500Y-84502352D01*
X205160500Y-83497648D01*
X205128477Y-83295465D01*
X205065218Y-83100776D01*
X205006622Y-82985776D01*
X204972287Y-82918390D01*
X204942011Y-82876718D01*
X204851971Y-82752786D01*
X204707213Y-82608028D01*
X204541613Y-82487715D01*
X204541612Y-82487714D01*
X204541610Y-82487713D01*
X204484653Y-82458691D01*
X204359223Y-82394781D01*
X204164534Y-82331522D01*
X203964978Y-82299916D01*
X203962352Y-82299500D01*
X203757648Y-82299500D01*
X203755022Y-82299916D01*
X203555465Y-82331522D01*
X203360776Y-82394781D01*
X203178386Y-82487715D01*
X203012786Y-82608028D01*
X202868028Y-82752786D01*
X202747715Y-82918386D01*
X202700485Y-83011080D01*
X202652510Y-83061876D01*
X202584689Y-83078671D01*
X202518554Y-83056134D01*
X202479515Y-83011080D01*
X202466622Y-82985776D01*
X202432287Y-82918390D01*
X202402011Y-82876718D01*
X202311971Y-82752786D01*
X202167213Y-82608028D01*
X202001613Y-82487715D01*
X202001612Y-82487714D01*
X202001610Y-82487713D01*
X201944653Y-82458691D01*
X201819223Y-82394781D01*
X201624534Y-82331522D01*
X201424978Y-82299916D01*
X201422352Y-82299500D01*
X201217648Y-82299500D01*
X201215022Y-82299916D01*
X201015464Y-82331523D01*
X201015457Y-82331524D01*
X200982817Y-82342130D01*
X200912976Y-82344125D01*
X200853143Y-82308044D01*
X200822316Y-82245343D01*
X200820500Y-82224199D01*
X200820500Y-80496079D01*
X200791659Y-80351092D01*
X200791658Y-80351091D01*
X200791658Y-80351087D01*
X200739523Y-80225221D01*
X200735085Y-80214507D01*
X200693809Y-80152733D01*
X200680446Y-80132733D01*
X200652952Y-80091584D01*
X198321561Y-77760193D01*
X195978421Y-75417052D01*
X195978414Y-75417046D01*
X195873069Y-75346658D01*
X195855495Y-75334916D01*
X195855490Y-75334913D01*
X195718917Y-75278343D01*
X195718907Y-75278340D01*
X195573920Y-75249500D01*
X195573918Y-75249500D01*
X188137230Y-75249500D01*
X188070191Y-75229815D01*
X188049549Y-75213181D01*
X187356053Y-74519685D01*
X187322568Y-74458362D01*
X187327552Y-74388670D01*
X187369424Y-74332737D01*
X187405411Y-74314075D01*
X187494219Y-74285220D01*
X187676610Y-74192287D01*
X187782314Y-74115489D01*
X187842213Y-74071971D01*
X187842215Y-74071968D01*
X187842219Y-74071966D01*
X187986966Y-73927219D01*
X187986968Y-73927215D01*
X187986971Y-73927213D01*
X188107284Y-73761614D01*
X188107285Y-73761613D01*
X188107287Y-73761610D01*
X188154516Y-73668917D01*
X188202489Y-73618123D01*
X188270310Y-73601328D01*
X188336445Y-73623865D01*
X188375485Y-73668919D01*
X188422715Y-73761614D01*
X188543028Y-73927213D01*
X188687786Y-74071971D01*
X188842749Y-74184556D01*
X188853390Y-74192287D01*
X188969607Y-74251503D01*
X189035776Y-74285218D01*
X189035778Y-74285218D01*
X189035781Y-74285220D01*
X189140137Y-74319127D01*
X189230465Y-74348477D01*
X189317954Y-74362334D01*
X189432648Y-74380500D01*
X189432649Y-74380500D01*
X189637351Y-74380500D01*
X189637352Y-74380500D01*
X189839534Y-74348477D01*
X190034219Y-74285220D01*
X190216610Y-74192287D01*
X190322314Y-74115489D01*
X190382213Y-74071971D01*
X190382215Y-74071968D01*
X190382219Y-74071966D01*
X190526966Y-73927219D01*
X190526968Y-73927215D01*
X190526971Y-73927213D01*
X190647284Y-73761614D01*
X190647285Y-73761613D01*
X190647287Y-73761610D01*
X190694516Y-73668917D01*
X190742489Y-73618123D01*
X190810310Y-73601328D01*
X190876445Y-73623865D01*
X190915485Y-73668919D01*
X190962715Y-73761614D01*
X191083028Y-73927213D01*
X191227786Y-74071971D01*
X191382749Y-74184556D01*
X191393390Y-74192287D01*
X191509607Y-74251503D01*
X191575776Y-74285218D01*
X191575778Y-74285218D01*
X191575781Y-74285220D01*
X191680137Y-74319127D01*
X191770465Y-74348477D01*
X191857954Y-74362334D01*
X191972648Y-74380500D01*
X191972649Y-74380500D01*
X192177351Y-74380500D01*
X192177352Y-74380500D01*
X192379534Y-74348477D01*
X192574219Y-74285220D01*
X192756610Y-74192287D01*
X192862314Y-74115489D01*
X192922213Y-74071971D01*
X192922215Y-74071968D01*
X192922219Y-74071966D01*
X193066966Y-73927219D01*
X193066968Y-73927215D01*
X193066971Y-73927213D01*
X193187284Y-73761614D01*
X193187285Y-73761613D01*
X193187287Y-73761610D01*
X193234516Y-73668917D01*
X193282489Y-73618123D01*
X193350310Y-73601328D01*
X193416445Y-73623865D01*
X193455485Y-73668919D01*
X193502715Y-73761614D01*
X193623028Y-73927213D01*
X193767786Y-74071971D01*
X193922749Y-74184556D01*
X193933390Y-74192287D01*
X194049607Y-74251503D01*
X194115776Y-74285218D01*
X194115778Y-74285218D01*
X194115781Y-74285220D01*
X194220137Y-74319127D01*
X194310465Y-74348477D01*
X194397954Y-74362334D01*
X194512648Y-74380500D01*
X194512649Y-74380500D01*
X194717351Y-74380500D01*
X194717352Y-74380500D01*
X194919534Y-74348477D01*
X195114219Y-74285220D01*
X195296610Y-74192287D01*
X195402314Y-74115489D01*
X195462213Y-74071971D01*
X195462215Y-74071968D01*
X195462219Y-74071966D01*
X195606966Y-73927219D01*
X195606968Y-73927215D01*
X195606971Y-73927213D01*
X195698271Y-73801547D01*
X195727287Y-73761610D01*
X195820220Y-73579219D01*
X195883477Y-73384534D01*
X195899035Y-73286304D01*
X199149500Y-73286304D01*
X199149500Y-73463695D01*
X199184103Y-73637658D01*
X199184106Y-73637667D01*
X199251983Y-73801540D01*
X199251991Y-73801555D01*
X199290265Y-73858834D01*
X199311144Y-73925511D01*
X199293281Y-73991875D01*
X199206523Y-74135391D01*
X199155913Y-74297807D01*
X199149500Y-74368386D01*
X199149500Y-74881613D01*
X199155913Y-74952192D01*
X199155913Y-74952194D01*
X199155914Y-74952196D01*
X199206522Y-75114606D01*
X199259343Y-75201983D01*
X199294530Y-75260188D01*
X199414811Y-75380469D01*
X199414813Y-75380470D01*
X199414815Y-75380472D01*
X199560394Y-75468478D01*
X199722804Y-75519086D01*
X199793384Y-75525500D01*
X199793387Y-75525500D01*
X200806613Y-75525500D01*
X200806616Y-75525500D01*
X200877196Y-75519086D01*
X201039606Y-75468478D01*
X201185185Y-75380472D01*
X201305472Y-75260185D01*
X201393478Y-75114606D01*
X201444086Y-74952196D01*
X201450500Y-74881616D01*
X201450500Y-74368384D01*
X201444086Y-74297804D01*
X201393478Y-74135394D01*
X201306716Y-73991873D01*
X201288881Y-73924322D01*
X201309731Y-73858839D01*
X201348013Y-73801547D01*
X201415894Y-73637666D01*
X201417098Y-73631616D01*
X201450499Y-73463695D01*
X201450500Y-73463693D01*
X201450500Y-73286306D01*
X201450499Y-73286304D01*
X201415896Y-73112341D01*
X201415893Y-73112332D01*
X201348016Y-72948459D01*
X201348009Y-72948446D01*
X201249464Y-72800965D01*
X201249461Y-72800961D01*
X201124038Y-72675538D01*
X201124034Y-72675535D01*
X200976553Y-72576990D01*
X200976540Y-72576983D01*
X200812667Y-72509106D01*
X200812658Y-72509103D01*
X200638694Y-72474500D01*
X200638691Y-72474500D01*
X199961309Y-72474500D01*
X199961306Y-72474500D01*
X199787341Y-72509103D01*
X199787332Y-72509106D01*
X199623459Y-72576983D01*
X199623446Y-72576990D01*
X199475965Y-72675535D01*
X199475961Y-72675538D01*
X199350538Y-72800961D01*
X199350535Y-72800965D01*
X199251990Y-72948446D01*
X199251983Y-72948459D01*
X199184106Y-73112332D01*
X199184103Y-73112341D01*
X199149500Y-73286304D01*
X195899035Y-73286304D01*
X195915500Y-73182352D01*
X195915500Y-72177648D01*
X195883477Y-71975466D01*
X195820220Y-71780781D01*
X195820218Y-71780778D01*
X195820218Y-71780776D01*
X195774515Y-71691080D01*
X195727287Y-71598390D01*
X195719556Y-71587749D01*
X195606971Y-71432786D01*
X195462213Y-71288028D01*
X195374522Y-71224318D01*
X195331856Y-71168989D01*
X195325877Y-71099375D01*
X195358482Y-71037580D01*
X195419321Y-71003223D01*
X195447407Y-71000000D01*
X205376000Y-71000000D01*
X205443039Y-71019685D01*
X205488794Y-71072489D01*
X205500000Y-71124000D01*
X205500000Y-114376000D01*
X205480315Y-114443039D01*
X205427511Y-114488794D01*
X205376000Y-114500000D01*
X142124000Y-114500000D01*
X142056961Y-114480315D01*
X142011206Y-114427511D01*
X142000000Y-114376000D01*
X142000000Y-79499998D01*
X143194532Y-79499998D01*
X143194532Y-79500001D01*
X143214364Y-79726686D01*
X143214366Y-79726697D01*
X143273258Y-79946488D01*
X143273261Y-79946497D01*
X143369431Y-80152732D01*
X143369432Y-80152734D01*
X143499954Y-80339141D01*
X143660858Y-80500045D01*
X143660861Y-80500047D01*
X143847266Y-80630568D01*
X144053504Y-80726739D01*
X144273308Y-80785635D01*
X144435230Y-80799801D01*
X144499998Y-80805468D01*
X144500000Y-80805468D01*
X144500002Y-80805468D01*
X144556673Y-80800509D01*
X144726692Y-80785635D01*
X144946496Y-80726739D01*
X145152734Y-80630568D01*
X145339139Y-80500047D01*
X145500047Y-80339139D01*
X145630568Y-80152734D01*
X145637618Y-80137614D01*
X145683789Y-80085176D01*
X145750982Y-80066023D01*
X145817864Y-80086238D01*
X145862381Y-80137614D01*
X145869432Y-80152733D01*
X145869432Y-80152734D01*
X145999954Y-80339141D01*
X146160858Y-80500045D01*
X146160861Y-80500047D01*
X146347266Y-80630568D01*
X146553504Y-80726739D01*
X146773308Y-80785635D01*
X146935230Y-80799801D01*
X146999998Y-80805468D01*
X147000000Y-80805468D01*
X147000002Y-80805468D01*
X147056673Y-80800509D01*
X147226692Y-80785635D01*
X147446496Y-80726739D01*
X147652734Y-80630568D01*
X147839139Y-80500047D01*
X148000047Y-80339139D01*
X148130568Y-80152734D01*
X148226739Y-79946496D01*
X148285635Y-79726692D01*
X148305468Y-79500000D01*
X148285635Y-79273308D01*
X148226739Y-79053504D01*
X148130568Y-78847266D01*
X148000047Y-78660861D01*
X148000045Y-78660858D01*
X147839141Y-78499954D01*
X147652734Y-78369432D01*
X147652732Y-78369431D01*
X147446497Y-78273261D01*
X147446488Y-78273258D01*
X147226697Y-78214366D01*
X147226693Y-78214365D01*
X147226692Y-78214365D01*
X147226691Y-78214364D01*
X147226686Y-78214364D01*
X147000002Y-78194532D01*
X146999998Y-78194532D01*
X146773313Y-78214364D01*
X146773302Y-78214366D01*
X146553511Y-78273258D01*
X146553502Y-78273261D01*
X146347267Y-78369431D01*
X146347265Y-78369432D01*
X146160858Y-78499954D01*
X145999954Y-78660858D01*
X145880705Y-78831166D01*
X145869432Y-78847266D01*
X145862380Y-78862387D01*
X145816209Y-78914825D01*
X145749015Y-78933976D01*
X145682134Y-78913760D01*
X145637619Y-78862387D01*
X145630568Y-78847266D01*
X145500047Y-78660861D01*
X145500045Y-78660858D01*
X145339141Y-78499954D01*
X145152734Y-78369432D01*
X145152732Y-78369431D01*
X144946497Y-78273261D01*
X144946488Y-78273258D01*
X144726697Y-78214366D01*
X144726693Y-78214365D01*
X144726692Y-78214365D01*
X144726691Y-78214364D01*
X144726686Y-78214364D01*
X144500002Y-78194532D01*
X144499998Y-78194532D01*
X144273313Y-78214364D01*
X144273302Y-78214366D01*
X144053511Y-78273258D01*
X144053502Y-78273261D01*
X143847267Y-78369431D01*
X143847265Y-78369432D01*
X143660858Y-78499954D01*
X143499954Y-78660858D01*
X143369432Y-78847265D01*
X143369431Y-78847267D01*
X143273261Y-79053502D01*
X143273258Y-79053511D01*
X143214366Y-79273302D01*
X143214364Y-79273313D01*
X143194532Y-79499998D01*
X142000000Y-79499998D01*
X142000000Y-77819812D01*
X154999500Y-77819812D01*
X154999500Y-79915547D01*
X154999501Y-79915553D01*
X155005908Y-79975160D01*
X155056202Y-80110005D01*
X155056206Y-80110012D01*
X155142452Y-80225221D01*
X155142455Y-80225224D01*
X155257664Y-80311470D01*
X155257671Y-80311474D01*
X155392517Y-80361768D01*
X155392516Y-80361768D01*
X155399444Y-80362512D01*
X155452127Y-80368177D01*
X157547872Y-80368176D01*
X157607483Y-80361768D01*
X157742331Y-80311473D01*
X157857546Y-80225223D01*
X157943796Y-80110008D01*
X157994091Y-79975160D01*
X158000500Y-79915550D01*
X158000499Y-77819805D01*
X157994091Y-77760194D01*
X157943796Y-77625346D01*
X157943795Y-77625345D01*
X157943793Y-77625341D01*
X157857547Y-77510132D01*
X157857544Y-77510129D01*
X157742335Y-77423883D01*
X157742328Y-77423879D01*
X157607482Y-77373585D01*
X157607483Y-77373585D01*
X157547883Y-77367178D01*
X157547881Y-77367177D01*
X157547873Y-77367177D01*
X157547864Y-77367177D01*
X155452129Y-77367177D01*
X155452123Y-77367178D01*
X155392516Y-77373585D01*
X155257671Y-77423879D01*
X155257664Y-77423883D01*
X155142455Y-77510129D01*
X155142452Y-77510132D01*
X155056206Y-77625341D01*
X155056202Y-77625348D01*
X155005908Y-77760194D01*
X154999501Y-77819793D01*
X154999501Y-77819800D01*
X154999500Y-77819812D01*
X142000000Y-77819812D01*
X142000000Y-73118386D01*
X146299500Y-73118386D01*
X146299500Y-73631613D01*
X146305913Y-73702192D01*
X146305913Y-73702194D01*
X146305914Y-73702196D01*
X146336875Y-73801555D01*
X146356522Y-73864606D01*
X146443281Y-74008122D01*
X146461117Y-74075677D01*
X146440267Y-74141162D01*
X146401989Y-74198449D01*
X146401983Y-74198460D01*
X146334106Y-74362332D01*
X146334103Y-74362341D01*
X146299500Y-74536304D01*
X146299500Y-74713695D01*
X146334103Y-74887658D01*
X146334106Y-74887667D01*
X146401983Y-75051540D01*
X146401990Y-75051553D01*
X146500535Y-75199034D01*
X146500538Y-75199038D01*
X146625961Y-75324461D01*
X146625965Y-75324464D01*
X146773446Y-75423009D01*
X146773459Y-75423016D01*
X146883214Y-75468477D01*
X146937334Y-75490894D01*
X146937336Y-75490894D01*
X146937341Y-75490896D01*
X147111304Y-75525499D01*
X147111307Y-75525500D01*
X147111309Y-75525500D01*
X147788693Y-75525500D01*
X147788694Y-75525499D01*
X147864639Y-75510393D01*
X147962658Y-75490896D01*
X147962661Y-75490894D01*
X147962666Y-75490894D01*
X148126547Y-75423013D01*
X148274035Y-75324464D01*
X148399464Y-75199035D01*
X148498013Y-75051547D01*
X148565894Y-74887666D01*
X148567098Y-74881616D01*
X148600499Y-74713695D01*
X148600500Y-74713693D01*
X148600500Y-74536306D01*
X148600499Y-74536304D01*
X148565896Y-74362341D01*
X148565893Y-74362332D01*
X148563501Y-74356558D01*
X148498013Y-74198453D01*
X148493891Y-74192284D01*
X148459733Y-74141162D01*
X148438855Y-74074485D01*
X148456717Y-74008125D01*
X148541625Y-73867671D01*
X154994357Y-73867671D01*
X154994357Y-73867682D01*
X155014890Y-74115489D01*
X155014892Y-74115501D01*
X155075936Y-74356558D01*
X155175826Y-74584283D01*
X155311833Y-74792459D01*
X155311836Y-74792462D01*
X155480256Y-74975415D01*
X155676491Y-75128151D01*
X155676493Y-75128152D01*
X155891540Y-75244530D01*
X155895190Y-75246505D01*
X156130386Y-75327248D01*
X156375665Y-75368177D01*
X156624335Y-75368177D01*
X156869614Y-75327248D01*
X157104810Y-75246505D01*
X157323509Y-75128151D01*
X157519744Y-74975415D01*
X157688164Y-74792462D01*
X157824173Y-74584284D01*
X157924063Y-74356558D01*
X157985108Y-74115498D01*
X157988408Y-74075677D01*
X158005643Y-73867682D01*
X158005643Y-73867671D01*
X157985109Y-73619864D01*
X157985107Y-73619852D01*
X157924063Y-73378795D01*
X157824173Y-73151070D01*
X157688166Y-72942894D01*
X157635232Y-72885393D01*
X157519744Y-72759939D01*
X157323509Y-72607203D01*
X157323507Y-72607202D01*
X157323506Y-72607201D01*
X157104811Y-72488849D01*
X157104802Y-72488846D01*
X156869616Y-72408106D01*
X156624335Y-72367177D01*
X156375665Y-72367177D01*
X156130383Y-72408106D01*
X155895197Y-72488846D01*
X155895188Y-72488849D01*
X155676493Y-72607201D01*
X155480257Y-72759938D01*
X155311833Y-72942894D01*
X155175826Y-73151070D01*
X155075936Y-73378795D01*
X155014892Y-73619852D01*
X155014890Y-73619864D01*
X154994357Y-73867671D01*
X148541625Y-73867671D01*
X148543478Y-73864606D01*
X148594086Y-73702196D01*
X148600500Y-73631616D01*
X148600500Y-73118384D01*
X148594086Y-73047804D01*
X148543478Y-72885394D01*
X148455472Y-72739815D01*
X148455470Y-72739813D01*
X148455469Y-72739811D01*
X148335188Y-72619530D01*
X148314793Y-72607201D01*
X148189606Y-72531522D01*
X148027196Y-72480914D01*
X148027194Y-72480913D01*
X148027192Y-72480913D01*
X147977778Y-72476423D01*
X147956616Y-72474500D01*
X146943384Y-72474500D01*
X146924145Y-72476248D01*
X146872807Y-72480913D01*
X146710393Y-72531522D01*
X146564811Y-72619530D01*
X146444530Y-72739811D01*
X146356522Y-72885393D01*
X146305913Y-73047807D01*
X146299500Y-73118386D01*
X142000000Y-73118386D01*
X142000000Y-71124000D01*
X142019685Y-71056961D01*
X142072489Y-71011206D01*
X142124000Y-71000000D01*
X178542593Y-71000000D01*
X178609632Y-71019685D01*
G37*
%TD.AperFunction*%
M02*
