%TF.GenerationSoftware,KiCad,Pcbnew,8.0.3*%
%TF.CreationDate,2024-07-14T22:50:11-07:00*%
%TF.ProjectId,Artemis ALU Module,41727465-6d69-4732-9041-4c55204d6f64,rev?*%
%TF.SameCoordinates,Original*%
%TF.FileFunction,Copper,L2,Inr*%
%TF.FilePolarity,Positive*%
%FSLAX46Y46*%
G04 Gerber Fmt 4.6, Leading zero omitted, Abs format (unit mm)*
G04 Created by KiCad (PCBNEW 8.0.3) date 2024-07-14 22:50:11*
%MOMM*%
%LPD*%
G01*
G04 APERTURE LIST*
G04 Aperture macros list*
%AMRoundRect*
0 Rectangle with rounded corners*
0 $1 Rounding radius*
0 $2 $3 $4 $5 $6 $7 $8 $9 X,Y pos of 4 corners*
0 Add a 4 corners polygon primitive as box body*
4,1,4,$2,$3,$4,$5,$6,$7,$8,$9,$2,$3,0*
0 Add four circle primitives for the rounded corners*
1,1,$1+$1,$2,$3*
1,1,$1+$1,$4,$5*
1,1,$1+$1,$6,$7*
1,1,$1+$1,$8,$9*
0 Add four rect primitives between the rounded corners*
20,1,$1+$1,$2,$3,$4,$5,0*
20,1,$1+$1,$4,$5,$6,$7,0*
20,1,$1+$1,$6,$7,$8,$9,0*
20,1,$1+$1,$8,$9,$2,$3,0*%
G04 Aperture macros list end*
%TA.AperFunction,ComponentPad*%
%ADD10R,1.600000X2.400000*%
%TD*%
%TA.AperFunction,ComponentPad*%
%ADD11O,1.600000X2.400000*%
%TD*%
%TA.AperFunction,ComponentPad*%
%ADD12RoundRect,0.200000X0.450000X-0.200000X0.450000X0.200000X-0.450000X0.200000X-0.450000X-0.200000X0*%
%TD*%
%TA.AperFunction,ComponentPad*%
%ADD13O,1.300000X0.800000*%
%TD*%
%TA.AperFunction,ComponentPad*%
%ADD14RoundRect,0.200000X-0.200000X-0.450000X0.200000X-0.450000X0.200000X0.450000X-0.200000X0.450000X0*%
%TD*%
%TA.AperFunction,ComponentPad*%
%ADD15O,0.800000X1.300000*%
%TD*%
%TA.AperFunction,ComponentPad*%
%ADD16RoundRect,0.200000X-0.450000X0.200000X-0.450000X-0.200000X0.450000X-0.200000X0.450000X0.200000X0*%
%TD*%
%TA.AperFunction,ComponentPad*%
%ADD17C,1.600000*%
%TD*%
%TA.AperFunction,ComponentPad*%
%ADD18RoundRect,0.200000X0.200000X0.450000X-0.200000X0.450000X-0.200000X-0.450000X0.200000X-0.450000X0*%
%TD*%
%TA.AperFunction,ComponentPad*%
%ADD19R,2.000000X2.000000*%
%TD*%
%TA.AperFunction,ComponentPad*%
%ADD20C,2.000000*%
%TD*%
%TA.AperFunction,Conductor*%
%ADD21C,1.000000*%
%TD*%
G04 APERTURE END LIST*
D10*
%TO.N,/F7*%
%TO.C,U3*%
X179375000Y-80300000D03*
D11*
%TO.N,/F6*%
X181915000Y-80300000D03*
%TO.N,/F5*%
X184455000Y-80300000D03*
%TO.N,/F4*%
X186995000Y-80300000D03*
%TO.N,/F3*%
X189535000Y-80300000D03*
%TO.N,/F2*%
X192075000Y-80300000D03*
%TO.N,GNDREF*%
X194615000Y-80300000D03*
%TO.N,/Zero flag*%
X194615000Y-72680000D03*
%TO.N,N/C*%
X192075000Y-72680000D03*
X189535000Y-72680000D03*
%TO.N,/F1*%
X186995000Y-72680000D03*
%TO.N,/F0*%
X184455000Y-72680000D03*
%TO.N,N/C*%
X181915000Y-72680000D03*
%TO.N,VCC*%
X179375000Y-72680000D03*
%TD*%
D12*
%TO.N,/S0*%
%TO.C,J4*%
X200300000Y-112125000D03*
D13*
%TO.N,/S1*%
X200300000Y-110875000D03*
%TO.N,/S2*%
X200300000Y-109625000D03*
%TO.N,/S3*%
X200300000Y-108375000D03*
%TO.N,/M*%
X200300000Y-107125000D03*
%TO.N,/~{Cn}*%
X200300000Y-105875000D03*
%TD*%
D14*
%TO.N,/B0*%
%TO.C,J1*%
X166125000Y-109000000D03*
D15*
%TO.N,/B1*%
X167375000Y-109000000D03*
%TO.N,/B2*%
X168625000Y-109000000D03*
%TO.N,/B3*%
X169875000Y-109000000D03*
%TO.N,/B4*%
X171125000Y-109000000D03*
%TO.N,/B5*%
X172375000Y-109000000D03*
%TO.N,/B6*%
X173625000Y-109000000D03*
%TO.N,/B7*%
X174875000Y-109000000D03*
%TD*%
D16*
%TO.N,VCC*%
%TO.C,J6*%
X147450000Y-73375000D03*
D13*
%TO.N,GNDREF*%
X147450000Y-74625000D03*
%TD*%
D16*
%TO.N,/F0*%
%TO.C,J3*%
X147500000Y-103500000D03*
D13*
%TO.N,/F1*%
X147500000Y-104750000D03*
%TO.N,/F2*%
X147500000Y-106000000D03*
%TO.N,/F3*%
X147500000Y-107250000D03*
%TO.N,/F4*%
X147500000Y-108500000D03*
%TO.N,/F5*%
X147500000Y-109750000D03*
%TO.N,/F6*%
X147500000Y-111000000D03*
%TO.N,/F7*%
X147500000Y-112250000D03*
%TD*%
D17*
%TO.N,VCC*%
%TO.C,C2*%
X147000000Y-79500000D03*
%TO.N,GNDREF*%
X144500000Y-79500000D03*
%TD*%
D10*
%TO.N,/B0*%
%TO.C,U2*%
X175920000Y-99240000D03*
D11*
%TO.N,/A0*%
X178460000Y-99240000D03*
%TO.N,/S3*%
X181000000Y-99240000D03*
%TO.N,/S2*%
X183540000Y-99240000D03*
%TO.N,/S1*%
X186080000Y-99240000D03*
%TO.N,/S0*%
X188620000Y-99240000D03*
%TO.N,/~{Cn}*%
X191160000Y-99240000D03*
%TO.N,/M*%
X193700000Y-99240000D03*
%TO.N,/F0*%
X196240000Y-99240000D03*
%TO.N,/F1*%
X198780000Y-99240000D03*
%TO.N,/F2*%
X201320000Y-99240000D03*
%TO.N,GNDREF*%
X203860000Y-99240000D03*
%TO.N,/F3*%
X203860000Y-84000000D03*
%TO.N,unconnected-(U2-A=B-Pad14)*%
X201320000Y-84000000D03*
%TO.N,unconnected-(U2-X-Pad15)*%
X198780000Y-84000000D03*
%TO.N,Net-(U1-Cn)*%
X196240000Y-84000000D03*
%TO.N,unconnected-(U2-Y-Pad17)*%
X193700000Y-84000000D03*
%TO.N,/B3*%
X191160000Y-84000000D03*
%TO.N,/A3*%
X188620000Y-84000000D03*
%TO.N,/B2*%
X186080000Y-84000000D03*
%TO.N,/A2*%
X183540000Y-84000000D03*
%TO.N,/B1*%
X181000000Y-84000000D03*
%TO.N,/A1*%
X178460000Y-84000000D03*
%TO.N,VCC*%
X175920000Y-84000000D03*
%TD*%
D12*
%TO.N,/Zero flag*%
%TO.C,J5*%
X200300000Y-74625000D03*
D13*
%TO.N,/~{Carry flag}*%
X200300000Y-73375000D03*
%TD*%
D18*
%TO.N,/A0*%
%TO.C,J2*%
X175000000Y-76250000D03*
D15*
%TO.N,/A1*%
X173750000Y-76250000D03*
%TO.N,/A2*%
X172500000Y-76250000D03*
%TO.N,/A3*%
X171250000Y-76250000D03*
%TO.N,/A4*%
X170000000Y-76250000D03*
%TO.N,/A5*%
X168750000Y-76250000D03*
%TO.N,/A6*%
X167500000Y-76250000D03*
%TO.N,/A7*%
X166250000Y-76250000D03*
%TD*%
D10*
%TO.N,/B4*%
%TO.C,U1*%
X144025000Y-99125000D03*
D11*
%TO.N,/A4*%
X146565000Y-99125000D03*
%TO.N,/S3*%
X149105000Y-99125000D03*
%TO.N,/S2*%
X151645000Y-99125000D03*
%TO.N,/S1*%
X154185000Y-99125000D03*
%TO.N,/S0*%
X156725000Y-99125000D03*
%TO.N,Net-(U1-Cn)*%
X159265000Y-99125000D03*
%TO.N,/M*%
X161805000Y-99125000D03*
%TO.N,/F4*%
X164345000Y-99125000D03*
%TO.N,/F5*%
X166885000Y-99125000D03*
%TO.N,/F6*%
X169425000Y-99125000D03*
%TO.N,GNDREF*%
X171965000Y-99125000D03*
%TO.N,/F7*%
X171965000Y-83885000D03*
%TO.N,unconnected-(U1-A=B-Pad14)*%
X169425000Y-83885000D03*
%TO.N,unconnected-(U1-X-Pad15)*%
X166885000Y-83885000D03*
%TO.N,/~{Carry flag}*%
X164345000Y-83885000D03*
%TO.N,unconnected-(U1-Y-Pad17)*%
X161805000Y-83885000D03*
%TO.N,/B7*%
X159265000Y-83885000D03*
%TO.N,/A7*%
X156725000Y-83885000D03*
%TO.N,/B6*%
X154185000Y-83885000D03*
%TO.N,/A6*%
X151645000Y-83885000D03*
%TO.N,/B5*%
X149105000Y-83885000D03*
%TO.N,/A5*%
X146565000Y-83885000D03*
%TO.N,VCC*%
X144025000Y-83885000D03*
%TD*%
D19*
%TO.N,VCC*%
%TO.C,C1*%
X156500000Y-78867677D03*
D20*
%TO.N,GNDREF*%
X156500000Y-73867677D03*
%TD*%
D21*
%TO.N,VCC*%
X147632323Y-78867677D02*
X147000000Y-79500000D01*
X156500000Y-78867677D02*
X170787677Y-78867677D01*
X179375000Y-75125000D02*
X179375000Y-72680000D01*
X144025000Y-82475000D02*
X147000000Y-79500000D01*
X144025000Y-83885000D02*
X144025000Y-82475000D01*
X147450000Y-73375000D02*
X148100000Y-73375000D01*
X150000000Y-75275000D02*
X150000000Y-78867677D01*
X170787677Y-78867677D02*
X175632323Y-78867677D01*
X156500000Y-78867677D02*
X150000000Y-78867677D01*
X170787677Y-78867677D02*
X175920000Y-84000000D01*
X175632323Y-78867677D02*
X179375000Y-75125000D01*
X148100000Y-73375000D02*
X150000000Y-75275000D01*
X150000000Y-78867677D02*
X147632323Y-78867677D01*
%TD*%
%TA.AperFunction,Conductor*%
%TO.N,GNDREF*%
G36*
X178609632Y-71019685D02*
G01*
X178655387Y-71072489D01*
X178665331Y-71141647D01*
X178636306Y-71205203D01*
X178615478Y-71224318D01*
X178527786Y-71288028D01*
X178383028Y-71432786D01*
X178262715Y-71598386D01*
X178169781Y-71780776D01*
X178106522Y-71975465D01*
X178074500Y-72177648D01*
X178074500Y-73182351D01*
X178106522Y-73384534D01*
X178169781Y-73579223D01*
X178232438Y-73702192D01*
X178262713Y-73761610D01*
X178350819Y-73882877D01*
X178374298Y-73948681D01*
X178374500Y-73955761D01*
X178374500Y-74659217D01*
X178354815Y-74726256D01*
X178338181Y-74746898D01*
X176085141Y-76999937D01*
X176023818Y-77033422D01*
X175954126Y-77028438D01*
X175898193Y-76986566D01*
X175873776Y-76921102D01*
X175879074Y-76875371D01*
X175894086Y-76827196D01*
X175900500Y-76756616D01*
X175900500Y-75743384D01*
X175894086Y-75672804D01*
X175843478Y-75510394D01*
X175755472Y-75364815D01*
X175755470Y-75364813D01*
X175755469Y-75364811D01*
X175635188Y-75244530D01*
X175564820Y-75201991D01*
X175489606Y-75156522D01*
X175327196Y-75105914D01*
X175327194Y-75105913D01*
X175327192Y-75105913D01*
X175277778Y-75101423D01*
X175256616Y-75099500D01*
X174743384Y-75099500D01*
X174724145Y-75101248D01*
X174672807Y-75105913D01*
X174510391Y-75156523D01*
X174366875Y-75243281D01*
X174299321Y-75261117D01*
X174233834Y-75240265D01*
X174176555Y-75201991D01*
X174176540Y-75201983D01*
X174012667Y-75134106D01*
X174012658Y-75134103D01*
X173838694Y-75099500D01*
X173838691Y-75099500D01*
X173661309Y-75099500D01*
X173661306Y-75099500D01*
X173487341Y-75134103D01*
X173487332Y-75134106D01*
X173323459Y-75201983D01*
X173323446Y-75201990D01*
X173193891Y-75288557D01*
X173127213Y-75309435D01*
X173059833Y-75290950D01*
X173056109Y-75288557D01*
X172926553Y-75201990D01*
X172926540Y-75201983D01*
X172762667Y-75134106D01*
X172762658Y-75134103D01*
X172588694Y-75099500D01*
X172588691Y-75099500D01*
X172411309Y-75099500D01*
X172411306Y-75099500D01*
X172237341Y-75134103D01*
X172237332Y-75134106D01*
X172073459Y-75201983D01*
X172073446Y-75201990D01*
X171943891Y-75288557D01*
X171877213Y-75309435D01*
X171809833Y-75290950D01*
X171806109Y-75288557D01*
X171676553Y-75201990D01*
X171676540Y-75201983D01*
X171512667Y-75134106D01*
X171512658Y-75134103D01*
X171338694Y-75099500D01*
X171338691Y-75099500D01*
X171161309Y-75099500D01*
X171161306Y-75099500D01*
X170987341Y-75134103D01*
X170987332Y-75134106D01*
X170823459Y-75201983D01*
X170823446Y-75201990D01*
X170693891Y-75288557D01*
X170627213Y-75309435D01*
X170559833Y-75290950D01*
X170556109Y-75288557D01*
X170426553Y-75201990D01*
X170426540Y-75201983D01*
X170262667Y-75134106D01*
X170262658Y-75134103D01*
X170088694Y-75099500D01*
X170088691Y-75099500D01*
X169911309Y-75099500D01*
X169911306Y-75099500D01*
X169737341Y-75134103D01*
X169737332Y-75134106D01*
X169573459Y-75201983D01*
X169573446Y-75201990D01*
X169443891Y-75288557D01*
X169377213Y-75309435D01*
X169309833Y-75290950D01*
X169306109Y-75288557D01*
X169176553Y-75201990D01*
X169176540Y-75201983D01*
X169012667Y-75134106D01*
X169012658Y-75134103D01*
X168838694Y-75099500D01*
X168838691Y-75099500D01*
X168661309Y-75099500D01*
X168661306Y-75099500D01*
X168487341Y-75134103D01*
X168487332Y-75134106D01*
X168323459Y-75201983D01*
X168323446Y-75201990D01*
X168193891Y-75288557D01*
X168127213Y-75309435D01*
X168059833Y-75290950D01*
X168056109Y-75288557D01*
X167926553Y-75201990D01*
X167926540Y-75201983D01*
X167762667Y-75134106D01*
X167762658Y-75134103D01*
X167588694Y-75099500D01*
X167588691Y-75099500D01*
X167411309Y-75099500D01*
X167411306Y-75099500D01*
X167237341Y-75134103D01*
X167237332Y-75134106D01*
X167073459Y-75201983D01*
X167073446Y-75201990D01*
X166943891Y-75288557D01*
X166877213Y-75309435D01*
X166809833Y-75290950D01*
X166806109Y-75288557D01*
X166676553Y-75201990D01*
X166676540Y-75201983D01*
X166512667Y-75134106D01*
X166512658Y-75134103D01*
X166338694Y-75099500D01*
X166338691Y-75099500D01*
X166161309Y-75099500D01*
X166161306Y-75099500D01*
X165987341Y-75134103D01*
X165987332Y-75134106D01*
X165823459Y-75201983D01*
X165823446Y-75201990D01*
X165675965Y-75300535D01*
X165675961Y-75300538D01*
X165550538Y-75425961D01*
X165550535Y-75425965D01*
X165451990Y-75573446D01*
X165451983Y-75573459D01*
X165384106Y-75737332D01*
X165384103Y-75737341D01*
X165349500Y-75911304D01*
X165349500Y-76588695D01*
X165384103Y-76762658D01*
X165384106Y-76762667D01*
X165451983Y-76926540D01*
X165451990Y-76926553D01*
X165550535Y-77074034D01*
X165550538Y-77074038D01*
X165675961Y-77199461D01*
X165675965Y-77199464D01*
X165823446Y-77298009D01*
X165823459Y-77298016D01*
X165933214Y-77343477D01*
X165987334Y-77365894D01*
X165987336Y-77365894D01*
X165987341Y-77365896D01*
X166161304Y-77400499D01*
X166161307Y-77400500D01*
X166161309Y-77400500D01*
X166338693Y-77400500D01*
X166338694Y-77400499D01*
X166396682Y-77388964D01*
X166512658Y-77365896D01*
X166512661Y-77365894D01*
X166512666Y-77365894D01*
X166676547Y-77298013D01*
X166806109Y-77211442D01*
X166872786Y-77190564D01*
X166940166Y-77209048D01*
X166943891Y-77211442D01*
X167016163Y-77259733D01*
X167073453Y-77298013D01*
X167073455Y-77298014D01*
X167073459Y-77298016D01*
X167183214Y-77343477D01*
X167237334Y-77365894D01*
X167237336Y-77365894D01*
X167237341Y-77365896D01*
X167411304Y-77400499D01*
X167411307Y-77400500D01*
X167411309Y-77400500D01*
X167588693Y-77400500D01*
X167588694Y-77400499D01*
X167646682Y-77388964D01*
X167762658Y-77365896D01*
X167762661Y-77365894D01*
X167762666Y-77365894D01*
X167926547Y-77298013D01*
X168056109Y-77211442D01*
X168122786Y-77190564D01*
X168190166Y-77209048D01*
X168193891Y-77211442D01*
X168266163Y-77259733D01*
X168323453Y-77298013D01*
X168323455Y-77298014D01*
X168323459Y-77298016D01*
X168433214Y-77343477D01*
X168487334Y-77365894D01*
X168487336Y-77365894D01*
X168487341Y-77365896D01*
X168661304Y-77400499D01*
X168661307Y-77400500D01*
X168661309Y-77400500D01*
X168838693Y-77400500D01*
X168838694Y-77400499D01*
X168896682Y-77388964D01*
X169012658Y-77365896D01*
X169012661Y-77365894D01*
X169012666Y-77365894D01*
X169176547Y-77298013D01*
X169306109Y-77211442D01*
X169372786Y-77190564D01*
X169440166Y-77209048D01*
X169443891Y-77211442D01*
X169516163Y-77259733D01*
X169573453Y-77298013D01*
X169573455Y-77298014D01*
X169573459Y-77298016D01*
X169683214Y-77343477D01*
X169737334Y-77365894D01*
X169737336Y-77365894D01*
X169737341Y-77365896D01*
X169911304Y-77400499D01*
X169911307Y-77400500D01*
X169911309Y-77400500D01*
X170088693Y-77400500D01*
X170088694Y-77400499D01*
X170146682Y-77388964D01*
X170262658Y-77365896D01*
X170262661Y-77365894D01*
X170262666Y-77365894D01*
X170426547Y-77298013D01*
X170556109Y-77211442D01*
X170622786Y-77190564D01*
X170690166Y-77209048D01*
X170693891Y-77211442D01*
X170766163Y-77259733D01*
X170823453Y-77298013D01*
X170823455Y-77298014D01*
X170823459Y-77298016D01*
X170933214Y-77343477D01*
X170987334Y-77365894D01*
X170987336Y-77365894D01*
X170987341Y-77365896D01*
X171161304Y-77400499D01*
X171161307Y-77400500D01*
X171161309Y-77400500D01*
X171338693Y-77400500D01*
X171338694Y-77400499D01*
X171396682Y-77388964D01*
X171512658Y-77365896D01*
X171512661Y-77365894D01*
X171512666Y-77365894D01*
X171676547Y-77298013D01*
X171806109Y-77211442D01*
X171872786Y-77190564D01*
X171940166Y-77209048D01*
X171943891Y-77211442D01*
X172016163Y-77259733D01*
X172073453Y-77298013D01*
X172073455Y-77298014D01*
X172073459Y-77298016D01*
X172183214Y-77343477D01*
X172237334Y-77365894D01*
X172237336Y-77365894D01*
X172237341Y-77365896D01*
X172411304Y-77400499D01*
X172411307Y-77400500D01*
X172411309Y-77400500D01*
X172588693Y-77400500D01*
X172588694Y-77400499D01*
X172646682Y-77388964D01*
X172762658Y-77365896D01*
X172762661Y-77365894D01*
X172762666Y-77365894D01*
X172926547Y-77298013D01*
X173056109Y-77211442D01*
X173122786Y-77190564D01*
X173190166Y-77209048D01*
X173193891Y-77211442D01*
X173266163Y-77259733D01*
X173323453Y-77298013D01*
X173323455Y-77298014D01*
X173323459Y-77298016D01*
X173433214Y-77343477D01*
X173487334Y-77365894D01*
X173487336Y-77365894D01*
X173487341Y-77365896D01*
X173661304Y-77400499D01*
X173661307Y-77400500D01*
X173661309Y-77400500D01*
X173838693Y-77400500D01*
X173838694Y-77400499D01*
X173896682Y-77388964D01*
X174012658Y-77365896D01*
X174012661Y-77365894D01*
X174012666Y-77365894D01*
X174176547Y-77298013D01*
X174233838Y-77259731D01*
X174300510Y-77238854D01*
X174366873Y-77256716D01*
X174510394Y-77343478D01*
X174672804Y-77394086D01*
X174743384Y-77400500D01*
X174743387Y-77400500D01*
X175256613Y-77400500D01*
X175256616Y-77400500D01*
X175327196Y-77394086D01*
X175375369Y-77379074D01*
X175445226Y-77377923D01*
X175504619Y-77414724D01*
X175534687Y-77477792D01*
X175525885Y-77547105D01*
X175499938Y-77585141D01*
X175254222Y-77830858D01*
X175192899Y-77864343D01*
X175166541Y-77867177D01*
X158116977Y-77867177D01*
X158049938Y-77847492D01*
X158004183Y-77794688D01*
X157996733Y-77767542D01*
X157995876Y-77767745D01*
X157994092Y-77760197D01*
X157943797Y-77625348D01*
X157943793Y-77625341D01*
X157857547Y-77510132D01*
X157857544Y-77510129D01*
X157742335Y-77423883D01*
X157742328Y-77423879D01*
X157607482Y-77373585D01*
X157607483Y-77373585D01*
X157547883Y-77367178D01*
X157547881Y-77367177D01*
X157547873Y-77367177D01*
X157547864Y-77367177D01*
X155452129Y-77367177D01*
X155452123Y-77367178D01*
X155392516Y-77373585D01*
X155257671Y-77423879D01*
X155257664Y-77423883D01*
X155142455Y-77510129D01*
X155142452Y-77510132D01*
X155056206Y-77625341D01*
X155056202Y-77625348D01*
X155005908Y-77760194D01*
X155004126Y-77767739D01*
X155001853Y-77767202D01*
X154979571Y-77820989D01*
X154922177Y-77860834D01*
X154883024Y-77867177D01*
X151124500Y-77867177D01*
X151057461Y-77847492D01*
X151011706Y-77794688D01*
X151000500Y-77743177D01*
X151000500Y-75176456D01*
X150962052Y-74983170D01*
X150962051Y-74983169D01*
X150962051Y-74983165D01*
X150922435Y-74887523D01*
X150886635Y-74801092D01*
X150886628Y-74801079D01*
X150777140Y-74637219D01*
X150715193Y-74575272D01*
X150637782Y-74497861D01*
X150637781Y-74497860D01*
X150007592Y-73867671D01*
X154994859Y-73867671D01*
X154994859Y-73867682D01*
X155015385Y-74115406D01*
X155015387Y-74115415D01*
X155076412Y-74356394D01*
X155176266Y-74584041D01*
X155276564Y-74737559D01*
X156017037Y-73997086D01*
X156034075Y-74060670D01*
X156099901Y-74174684D01*
X156192993Y-74267776D01*
X156307007Y-74333602D01*
X156370590Y-74350639D01*
X155629942Y-75091286D01*
X155676768Y-75127732D01*
X155676770Y-75127733D01*
X155895385Y-75246041D01*
X155895396Y-75246046D01*
X156130506Y-75326760D01*
X156375707Y-75367677D01*
X156624293Y-75367677D01*
X156869493Y-75326760D01*
X157104603Y-75246046D01*
X157104614Y-75246041D01*
X157323228Y-75127734D01*
X157323231Y-75127732D01*
X157370056Y-75091286D01*
X156629409Y-74350639D01*
X156692993Y-74333602D01*
X156807007Y-74267776D01*
X156900099Y-74174684D01*
X156965925Y-74060670D01*
X156982962Y-73997087D01*
X157723434Y-74737559D01*
X157823731Y-74584046D01*
X157923587Y-74356394D01*
X157984612Y-74115415D01*
X157984614Y-74115406D01*
X158005141Y-73867682D01*
X158005141Y-73867671D01*
X157984614Y-73619947D01*
X157984612Y-73619938D01*
X157923587Y-73378959D01*
X157823731Y-73151307D01*
X157723434Y-72997793D01*
X156982962Y-73738266D01*
X156965925Y-73674684D01*
X156900099Y-73560670D01*
X156807007Y-73467578D01*
X156692993Y-73401752D01*
X156629410Y-73384714D01*
X157370057Y-72644067D01*
X157370056Y-72644066D01*
X157323229Y-72607620D01*
X157104614Y-72489312D01*
X157104603Y-72489307D01*
X156869493Y-72408593D01*
X156624293Y-72367677D01*
X156375707Y-72367677D01*
X156130506Y-72408593D01*
X155895396Y-72489307D01*
X155895390Y-72489309D01*
X155676761Y-72607626D01*
X155629942Y-72644065D01*
X155629942Y-72644067D01*
X156370590Y-73384714D01*
X156307007Y-73401752D01*
X156192993Y-73467578D01*
X156099901Y-73560670D01*
X156034075Y-73674684D01*
X156017037Y-73738266D01*
X155276564Y-72997793D01*
X155176267Y-73151309D01*
X155076412Y-73378959D01*
X155015387Y-73619938D01*
X155015385Y-73619947D01*
X154994859Y-73867671D01*
X150007592Y-73867671D01*
X148884208Y-72744288D01*
X148884206Y-72744285D01*
X148884206Y-72744286D01*
X148877139Y-72737219D01*
X148877139Y-72737218D01*
X148737782Y-72597861D01*
X148737781Y-72597860D01*
X148737780Y-72597859D01*
X148573920Y-72488371D01*
X148573911Y-72488366D01*
X148490683Y-72453892D01*
X148445165Y-72435038D01*
X148418500Y-72423993D01*
X148391837Y-72412949D01*
X148391833Y-72412948D01*
X148267239Y-72388165D01*
X148244339Y-72383610D01*
X148198543Y-72374500D01*
X148198541Y-72374500D01*
X147351459Y-72374500D01*
X147351457Y-72374500D01*
X147158170Y-72412947D01*
X147158160Y-72412950D01*
X147032354Y-72465061D01*
X146984902Y-72474500D01*
X146943384Y-72474500D01*
X146924145Y-72476248D01*
X146872807Y-72480913D01*
X146710393Y-72531522D01*
X146564811Y-72619530D01*
X146444530Y-72739811D01*
X146356522Y-72885393D01*
X146305913Y-73047807D01*
X146299500Y-73118386D01*
X146299500Y-73631613D01*
X146305913Y-73702192D01*
X146305913Y-73702194D01*
X146305914Y-73702196D01*
X146356522Y-73864606D01*
X146443567Y-74008596D01*
X146461403Y-74076148D01*
X146440553Y-74141634D01*
X146402429Y-74198691D01*
X146334587Y-74362476D01*
X146334584Y-74362483D01*
X146332096Y-74375000D01*
X147340291Y-74375000D01*
X147350469Y-74375500D01*
X147351459Y-74375500D01*
X147399065Y-74375500D01*
X147308386Y-74413060D01*
X147238060Y-74483386D01*
X147200000Y-74575272D01*
X147200000Y-74674728D01*
X147238060Y-74766614D01*
X147308386Y-74836940D01*
X147400272Y-74875000D01*
X147499728Y-74875000D01*
X147591614Y-74836940D01*
X147661940Y-74766614D01*
X147700000Y-74674728D01*
X147700000Y-75525000D01*
X147788643Y-75525000D01*
X147788646Y-75524999D01*
X147962512Y-75490415D01*
X147962520Y-75490413D01*
X148126307Y-75422571D01*
X148126316Y-75422566D01*
X148273716Y-75324076D01*
X148273720Y-75324073D01*
X148366256Y-75231538D01*
X148427579Y-75198053D01*
X148497271Y-75203037D01*
X148541618Y-75231538D01*
X148963181Y-75653101D01*
X148996666Y-75714424D01*
X148999500Y-75740782D01*
X148999500Y-77743177D01*
X148979815Y-77810216D01*
X148927011Y-77855971D01*
X148875500Y-77867177D01*
X147533778Y-77867177D01*
X147437135Y-77886401D01*
X147340490Y-77905624D01*
X147340484Y-77905626D01*
X147287157Y-77927714D01*
X147287157Y-77927715D01*
X147244241Y-77945491D01*
X147158407Y-77981045D01*
X147158406Y-77981045D01*
X147035368Y-78063256D01*
X147035369Y-78063257D01*
X146994541Y-78090536D01*
X146994538Y-78090539D01*
X146911966Y-78173112D01*
X146850643Y-78206597D01*
X146835094Y-78208959D01*
X146773311Y-78214364D01*
X146773302Y-78214366D01*
X146553511Y-78273258D01*
X146553502Y-78273261D01*
X146347267Y-78369431D01*
X146347265Y-78369432D01*
X146160858Y-78499954D01*
X145999954Y-78660858D01*
X145869432Y-78847265D01*
X145869429Y-78847270D01*
X145862104Y-78862979D01*
X145815929Y-78915417D01*
X145748735Y-78934566D01*
X145681855Y-78914347D01*
X145637341Y-78862973D01*
X145630133Y-78847515D01*
X145630132Y-78847513D01*
X145579025Y-78774526D01*
X144900000Y-79453552D01*
X144900000Y-79447339D01*
X144872741Y-79345606D01*
X144820080Y-79254394D01*
X144745606Y-79179920D01*
X144654394Y-79127259D01*
X144552661Y-79100000D01*
X144546448Y-79100000D01*
X145225472Y-78420974D01*
X145152478Y-78369863D01*
X144946331Y-78273735D01*
X144946317Y-78273730D01*
X144726610Y-78214860D01*
X144726599Y-78214858D01*
X144500002Y-78195034D01*
X144499998Y-78195034D01*
X144273400Y-78214858D01*
X144273389Y-78214860D01*
X144053682Y-78273730D01*
X144053673Y-78273734D01*
X143847516Y-78369866D01*
X143847512Y-78369868D01*
X143774526Y-78420973D01*
X143774526Y-78420974D01*
X144453553Y-79100000D01*
X144447339Y-79100000D01*
X144345606Y-79127259D01*
X144254394Y-79179920D01*
X144179920Y-79254394D01*
X144127259Y-79345606D01*
X144100000Y-79447339D01*
X144100000Y-79453552D01*
X143420974Y-78774526D01*
X143420973Y-78774526D01*
X143369868Y-78847512D01*
X143369866Y-78847516D01*
X143273734Y-79053673D01*
X143273730Y-79053682D01*
X143214860Y-79273389D01*
X143214858Y-79273400D01*
X143195034Y-79499997D01*
X143195034Y-79500002D01*
X143214858Y-79726599D01*
X143214860Y-79726610D01*
X143273730Y-79946317D01*
X143273735Y-79946331D01*
X143369863Y-80152478D01*
X143420974Y-80225472D01*
X144100000Y-79546446D01*
X144100000Y-79552661D01*
X144127259Y-79654394D01*
X144179920Y-79745606D01*
X144254394Y-79820080D01*
X144345606Y-79872741D01*
X144447339Y-79900000D01*
X144453553Y-79900000D01*
X143774526Y-80579025D01*
X143847513Y-80630132D01*
X143847521Y-80630136D01*
X144053668Y-80726264D01*
X144053682Y-80726269D01*
X144086871Y-80735162D01*
X144146532Y-80771527D01*
X144177061Y-80834373D01*
X144168767Y-80903749D01*
X144142459Y-80942618D01*
X143574150Y-81510929D01*
X143387220Y-81697859D01*
X143387218Y-81697861D01*
X143342751Y-81742328D01*
X143247859Y-81837219D01*
X143138371Y-82001079D01*
X143138366Y-82001089D01*
X143085038Y-82129835D01*
X143062950Y-82183159D01*
X143062947Y-82183167D01*
X143043731Y-82279779D01*
X143043731Y-82279780D01*
X143024500Y-82376456D01*
X143024500Y-82609237D01*
X143004815Y-82676276D01*
X143000818Y-82682122D01*
X142912715Y-82803386D01*
X142819781Y-82985776D01*
X142756522Y-83180465D01*
X142724500Y-83382648D01*
X142724500Y-84387351D01*
X142756522Y-84589534D01*
X142819781Y-84784223D01*
X142912715Y-84966613D01*
X143033028Y-85132213D01*
X143177786Y-85276971D01*
X143332749Y-85389556D01*
X143343390Y-85397287D01*
X143459607Y-85456503D01*
X143525776Y-85490218D01*
X143525778Y-85490218D01*
X143525781Y-85490220D01*
X143630137Y-85524127D01*
X143720465Y-85553477D01*
X143821557Y-85569488D01*
X143922648Y-85585500D01*
X143922649Y-85585500D01*
X144127351Y-85585500D01*
X144127352Y-85585500D01*
X144329534Y-85553477D01*
X144524219Y-85490220D01*
X144706610Y-85397287D01*
X144799590Y-85329732D01*
X144872213Y-85276971D01*
X144872215Y-85276968D01*
X144872219Y-85276966D01*
X145016966Y-85132219D01*
X145016968Y-85132215D01*
X145016971Y-85132213D01*
X145137284Y-84966614D01*
X145137285Y-84966613D01*
X145137287Y-84966610D01*
X145184516Y-84873917D01*
X145232489Y-84823123D01*
X145300310Y-84806328D01*
X145366445Y-84828865D01*
X145405485Y-84873919D01*
X145452715Y-84966614D01*
X145573028Y-85132213D01*
X145717786Y-85276971D01*
X145872749Y-85389556D01*
X145883390Y-85397287D01*
X145999607Y-85456503D01*
X146065776Y-85490218D01*
X146065778Y-85490218D01*
X146065781Y-85490220D01*
X146170137Y-85524127D01*
X146260465Y-85553477D01*
X146361557Y-85569488D01*
X146462648Y-85585500D01*
X146462649Y-85585500D01*
X146667351Y-85585500D01*
X146667352Y-85585500D01*
X146869534Y-85553477D01*
X147064219Y-85490220D01*
X147246610Y-85397287D01*
X147339590Y-85329732D01*
X147412213Y-85276971D01*
X147412215Y-85276968D01*
X147412219Y-85276966D01*
X147556966Y-85132219D01*
X147556968Y-85132215D01*
X147556971Y-85132213D01*
X147677284Y-84966614D01*
X147677285Y-84966613D01*
X147677287Y-84966610D01*
X147724516Y-84873917D01*
X147772489Y-84823123D01*
X147840310Y-84806328D01*
X147906445Y-84828865D01*
X147945485Y-84873919D01*
X147992715Y-84966614D01*
X148113028Y-85132213D01*
X148257786Y-85276971D01*
X148412749Y-85389556D01*
X148423390Y-85397287D01*
X148539607Y-85456503D01*
X148605776Y-85490218D01*
X148605778Y-85490218D01*
X148605781Y-85490220D01*
X148710137Y-85524127D01*
X148800465Y-85553477D01*
X148901557Y-85569488D01*
X149002648Y-85585500D01*
X149002649Y-85585500D01*
X149207351Y-85585500D01*
X149207352Y-85585500D01*
X149409534Y-85553477D01*
X149604219Y-85490220D01*
X149786610Y-85397287D01*
X149879590Y-85329732D01*
X149952213Y-85276971D01*
X149952215Y-85276968D01*
X149952219Y-85276966D01*
X150096966Y-85132219D01*
X150096968Y-85132215D01*
X150096971Y-85132213D01*
X150217284Y-84966614D01*
X150217285Y-84966613D01*
X150217287Y-84966610D01*
X150264516Y-84873917D01*
X150312489Y-84823123D01*
X150380310Y-84806328D01*
X150446445Y-84828865D01*
X150485485Y-84873919D01*
X150532715Y-84966614D01*
X150653028Y-85132213D01*
X150797786Y-85276971D01*
X150952749Y-85389556D01*
X150963390Y-85397287D01*
X151079607Y-85456503D01*
X151145776Y-85490218D01*
X151145778Y-85490218D01*
X151145781Y-85490220D01*
X151250137Y-85524127D01*
X151340465Y-85553477D01*
X151441557Y-85569488D01*
X151542648Y-85585500D01*
X151542649Y-85585500D01*
X151747351Y-85585500D01*
X151747352Y-85585500D01*
X151949534Y-85553477D01*
X152144219Y-85490220D01*
X152326610Y-85397287D01*
X152419590Y-85329732D01*
X152492213Y-85276971D01*
X152492215Y-85276968D01*
X152492219Y-85276966D01*
X152636966Y-85132219D01*
X152636968Y-85132215D01*
X152636971Y-85132213D01*
X152757284Y-84966614D01*
X152757285Y-84966613D01*
X152757287Y-84966610D01*
X152804516Y-84873917D01*
X152852489Y-84823123D01*
X152920310Y-84806328D01*
X152986445Y-84828865D01*
X153025485Y-84873919D01*
X153072715Y-84966614D01*
X153193028Y-85132213D01*
X153337786Y-85276971D01*
X153492749Y-85389556D01*
X153503390Y-85397287D01*
X153619607Y-85456503D01*
X153685776Y-85490218D01*
X153685778Y-85490218D01*
X153685781Y-85490220D01*
X153790137Y-85524127D01*
X153880465Y-85553477D01*
X153981557Y-85569488D01*
X154082648Y-85585500D01*
X154082649Y-85585500D01*
X154287351Y-85585500D01*
X154287352Y-85585500D01*
X154489534Y-85553477D01*
X154684219Y-85490220D01*
X154866610Y-85397287D01*
X154959590Y-85329732D01*
X155032213Y-85276971D01*
X155032215Y-85276968D01*
X155032219Y-85276966D01*
X155176966Y-85132219D01*
X155176968Y-85132215D01*
X155176971Y-85132213D01*
X155297284Y-84966614D01*
X155297285Y-84966613D01*
X155297287Y-84966610D01*
X155344516Y-84873917D01*
X155392489Y-84823123D01*
X155460310Y-84806328D01*
X155526445Y-84828865D01*
X155565485Y-84873919D01*
X155612715Y-84966614D01*
X155733028Y-85132213D01*
X155877786Y-85276971D01*
X156032749Y-85389556D01*
X156043390Y-85397287D01*
X156159607Y-85456503D01*
X156225776Y-85490218D01*
X156225778Y-85490218D01*
X156225781Y-85490220D01*
X156330137Y-85524127D01*
X156420465Y-85553477D01*
X156521557Y-85569488D01*
X156622648Y-85585500D01*
X156622649Y-85585500D01*
X156827351Y-85585500D01*
X156827352Y-85585500D01*
X157029534Y-85553477D01*
X157224219Y-85490220D01*
X157406610Y-85397287D01*
X157499590Y-85329732D01*
X157572213Y-85276971D01*
X157572215Y-85276968D01*
X157572219Y-85276966D01*
X157716966Y-85132219D01*
X157716968Y-85132215D01*
X157716971Y-85132213D01*
X157837284Y-84966614D01*
X157837285Y-84966613D01*
X157837287Y-84966610D01*
X157884516Y-84873917D01*
X157932489Y-84823123D01*
X158000310Y-84806328D01*
X158066445Y-84828865D01*
X158105485Y-84873919D01*
X158152715Y-84966614D01*
X158273028Y-85132213D01*
X158417786Y-85276971D01*
X158572749Y-85389556D01*
X158583390Y-85397287D01*
X158699607Y-85456503D01*
X158765776Y-85490218D01*
X158765778Y-85490218D01*
X158765781Y-85490220D01*
X158870137Y-85524127D01*
X158960465Y-85553477D01*
X159061557Y-85569488D01*
X159162648Y-85585500D01*
X159162649Y-85585500D01*
X159367351Y-85585500D01*
X159367352Y-85585500D01*
X159569534Y-85553477D01*
X159764219Y-85490220D01*
X159946610Y-85397287D01*
X160039590Y-85329732D01*
X160112213Y-85276971D01*
X160112215Y-85276968D01*
X160112219Y-85276966D01*
X160256966Y-85132219D01*
X160256968Y-85132215D01*
X160256971Y-85132213D01*
X160377284Y-84966614D01*
X160377285Y-84966613D01*
X160377287Y-84966610D01*
X160424516Y-84873917D01*
X160472489Y-84823123D01*
X160540310Y-84806328D01*
X160606445Y-84828865D01*
X160645485Y-84873919D01*
X160692715Y-84966614D01*
X160813028Y-85132213D01*
X160957786Y-85276971D01*
X161112749Y-85389556D01*
X161123390Y-85397287D01*
X161239607Y-85456503D01*
X161305776Y-85490218D01*
X161305778Y-85490218D01*
X161305781Y-85490220D01*
X161410137Y-85524127D01*
X161500465Y-85553477D01*
X161601557Y-85569488D01*
X161702648Y-85585500D01*
X161702649Y-85585500D01*
X161907351Y-85585500D01*
X161907352Y-85585500D01*
X162109534Y-85553477D01*
X162304219Y-85490220D01*
X162486610Y-85397287D01*
X162579590Y-85329732D01*
X162652213Y-85276971D01*
X162652215Y-85276968D01*
X162652219Y-85276966D01*
X162796966Y-85132219D01*
X162796968Y-85132215D01*
X162796971Y-85132213D01*
X162917284Y-84966614D01*
X162917285Y-84966613D01*
X162917287Y-84966610D01*
X162964516Y-84873917D01*
X163012489Y-84823123D01*
X163080310Y-84806328D01*
X163146445Y-84828865D01*
X163185485Y-84873919D01*
X163232715Y-84966614D01*
X163353028Y-85132213D01*
X163497786Y-85276971D01*
X163652749Y-85389556D01*
X163663390Y-85397287D01*
X163779607Y-85456503D01*
X163845776Y-85490218D01*
X163845778Y-85490218D01*
X163845781Y-85490220D01*
X163950137Y-85524127D01*
X164040465Y-85553477D01*
X164141557Y-85569488D01*
X164242648Y-85585500D01*
X164242649Y-85585500D01*
X164447351Y-85585500D01*
X164447352Y-85585500D01*
X164649534Y-85553477D01*
X164844219Y-85490220D01*
X165026610Y-85397287D01*
X165119590Y-85329732D01*
X165192213Y-85276971D01*
X165192215Y-85276968D01*
X165192219Y-85276966D01*
X165336966Y-85132219D01*
X165336968Y-85132215D01*
X165336971Y-85132213D01*
X165457284Y-84966614D01*
X165457285Y-84966613D01*
X165457287Y-84966610D01*
X165504516Y-84873917D01*
X165552489Y-84823123D01*
X165620310Y-84806328D01*
X165686445Y-84828865D01*
X165725485Y-84873919D01*
X165772715Y-84966614D01*
X165893028Y-85132213D01*
X166037786Y-85276971D01*
X166192749Y-85389556D01*
X166203390Y-85397287D01*
X166319607Y-85456503D01*
X166385776Y-85490218D01*
X166385778Y-85490218D01*
X166385781Y-85490220D01*
X166490137Y-85524127D01*
X166580465Y-85553477D01*
X166681557Y-85569488D01*
X166782648Y-85585500D01*
X166782649Y-85585500D01*
X166987351Y-85585500D01*
X166987352Y-85585500D01*
X167189534Y-85553477D01*
X167384219Y-85490220D01*
X167566610Y-85397287D01*
X167659590Y-85329732D01*
X167732213Y-85276971D01*
X167732215Y-85276968D01*
X167732219Y-85276966D01*
X167876966Y-85132219D01*
X167876968Y-85132215D01*
X167876971Y-85132213D01*
X167997284Y-84966614D01*
X167997285Y-84966613D01*
X167997287Y-84966610D01*
X168044516Y-84873917D01*
X168092489Y-84823123D01*
X168160310Y-84806328D01*
X168226445Y-84828865D01*
X168265485Y-84873919D01*
X168312715Y-84966614D01*
X168433028Y-85132213D01*
X168577786Y-85276971D01*
X168732749Y-85389556D01*
X168743390Y-85397287D01*
X168859607Y-85456503D01*
X168925776Y-85490218D01*
X168925778Y-85490218D01*
X168925781Y-85490220D01*
X169030137Y-85524127D01*
X169120465Y-85553477D01*
X169221557Y-85569488D01*
X169322648Y-85585500D01*
X169322649Y-85585500D01*
X169527351Y-85585500D01*
X169527352Y-85585500D01*
X169729534Y-85553477D01*
X169924219Y-85490220D01*
X170106610Y-85397287D01*
X170199590Y-85329732D01*
X170272213Y-85276971D01*
X170272215Y-85276968D01*
X170272219Y-85276966D01*
X170416966Y-85132219D01*
X170416968Y-85132215D01*
X170416971Y-85132213D01*
X170537284Y-84966614D01*
X170537285Y-84966613D01*
X170537287Y-84966610D01*
X170584516Y-84873917D01*
X170632489Y-84823123D01*
X170700310Y-84806328D01*
X170766445Y-84828865D01*
X170805485Y-84873919D01*
X170852715Y-84966614D01*
X170973028Y-85132213D01*
X171117786Y-85276971D01*
X171272749Y-85389556D01*
X171283390Y-85397287D01*
X171399607Y-85456503D01*
X171465776Y-85490218D01*
X171465778Y-85490218D01*
X171465781Y-85490220D01*
X171570137Y-85524127D01*
X171660465Y-85553477D01*
X171761557Y-85569488D01*
X171862648Y-85585500D01*
X171862649Y-85585500D01*
X172067351Y-85585500D01*
X172067352Y-85585500D01*
X172269534Y-85553477D01*
X172464219Y-85490220D01*
X172646610Y-85397287D01*
X172739590Y-85329732D01*
X172812213Y-85276971D01*
X172812215Y-85276968D01*
X172812219Y-85276966D01*
X172956966Y-85132219D01*
X172956968Y-85132215D01*
X172956971Y-85132213D01*
X173009732Y-85059590D01*
X173077287Y-84966610D01*
X173170220Y-84784219D01*
X173233477Y-84589534D01*
X173265500Y-84387352D01*
X173265500Y-83382648D01*
X173233477Y-83180466D01*
X173175498Y-83002027D01*
X173173504Y-82932190D01*
X173209584Y-82872357D01*
X173272284Y-82841528D01*
X173341699Y-82849492D01*
X173381111Y-82876031D01*
X174583181Y-84078101D01*
X174616666Y-84139424D01*
X174619500Y-84165782D01*
X174619500Y-84502351D01*
X174651522Y-84704534D01*
X174714781Y-84899223D01*
X174807715Y-85081613D01*
X174928028Y-85247213D01*
X175072786Y-85391971D01*
X175208014Y-85490218D01*
X175238390Y-85512287D01*
X175319230Y-85553477D01*
X175420776Y-85605218D01*
X175420778Y-85605218D01*
X175420781Y-85605220D01*
X175525137Y-85639127D01*
X175615465Y-85668477D01*
X175716557Y-85684488D01*
X175817648Y-85700500D01*
X175817649Y-85700500D01*
X176022351Y-85700500D01*
X176022352Y-85700500D01*
X176224534Y-85668477D01*
X176419219Y-85605220D01*
X176601610Y-85512287D01*
X176694590Y-85444732D01*
X176767213Y-85391971D01*
X176767215Y-85391968D01*
X176767219Y-85391966D01*
X176911966Y-85247219D01*
X176911968Y-85247215D01*
X176911971Y-85247213D01*
X177032284Y-85081614D01*
X177032285Y-85081613D01*
X177032287Y-85081610D01*
X177079516Y-84988917D01*
X177127489Y-84938123D01*
X177195310Y-84921328D01*
X177261445Y-84943865D01*
X177300485Y-84988919D01*
X177347715Y-85081614D01*
X177468028Y-85247213D01*
X177612786Y-85391971D01*
X177748014Y-85490218D01*
X177778390Y-85512287D01*
X177859230Y-85553477D01*
X177960776Y-85605218D01*
X177960778Y-85605218D01*
X177960781Y-85605220D01*
X178065137Y-85639127D01*
X178155465Y-85668477D01*
X178256557Y-85684488D01*
X178357648Y-85700500D01*
X178357649Y-85700500D01*
X178562351Y-85700500D01*
X178562352Y-85700500D01*
X178764534Y-85668477D01*
X178959219Y-85605220D01*
X179141610Y-85512287D01*
X179234590Y-85444732D01*
X179307213Y-85391971D01*
X179307215Y-85391968D01*
X179307219Y-85391966D01*
X179451966Y-85247219D01*
X179451968Y-85247215D01*
X179451971Y-85247213D01*
X179572284Y-85081614D01*
X179572285Y-85081613D01*
X179572287Y-85081610D01*
X179619516Y-84988917D01*
X179667489Y-84938123D01*
X179735310Y-84921328D01*
X179801445Y-84943865D01*
X179840485Y-84988919D01*
X179887715Y-85081614D01*
X180008028Y-85247213D01*
X180152786Y-85391971D01*
X180288014Y-85490218D01*
X180318390Y-85512287D01*
X180399230Y-85553477D01*
X180500776Y-85605218D01*
X180500778Y-85605218D01*
X180500781Y-85605220D01*
X180605137Y-85639127D01*
X180695465Y-85668477D01*
X180796557Y-85684488D01*
X180897648Y-85700500D01*
X180897649Y-85700500D01*
X181102351Y-85700500D01*
X181102352Y-85700500D01*
X181304534Y-85668477D01*
X181499219Y-85605220D01*
X181681610Y-85512287D01*
X181774590Y-85444732D01*
X181847213Y-85391971D01*
X181847215Y-85391968D01*
X181847219Y-85391966D01*
X181991966Y-85247219D01*
X181991968Y-85247215D01*
X181991971Y-85247213D01*
X182112284Y-85081614D01*
X182112285Y-85081613D01*
X182112287Y-85081610D01*
X182159516Y-84988917D01*
X182207489Y-84938123D01*
X182275310Y-84921328D01*
X182341445Y-84943865D01*
X182380485Y-84988919D01*
X182427715Y-85081614D01*
X182548028Y-85247213D01*
X182692786Y-85391971D01*
X182828014Y-85490218D01*
X182858390Y-85512287D01*
X182939230Y-85553477D01*
X183040776Y-85605218D01*
X183040778Y-85605218D01*
X183040781Y-85605220D01*
X183145137Y-85639127D01*
X183235465Y-85668477D01*
X183336557Y-85684488D01*
X183437648Y-85700500D01*
X183437649Y-85700500D01*
X183642351Y-85700500D01*
X183642352Y-85700500D01*
X183844534Y-85668477D01*
X184039219Y-85605220D01*
X184221610Y-85512287D01*
X184314590Y-85444732D01*
X184387213Y-85391971D01*
X184387215Y-85391968D01*
X184387219Y-85391966D01*
X184531966Y-85247219D01*
X184531968Y-85247215D01*
X184531971Y-85247213D01*
X184652284Y-85081614D01*
X184652285Y-85081613D01*
X184652287Y-85081610D01*
X184699516Y-84988917D01*
X184747489Y-84938123D01*
X184815310Y-84921328D01*
X184881445Y-84943865D01*
X184920485Y-84988919D01*
X184967715Y-85081614D01*
X185088028Y-85247213D01*
X185232786Y-85391971D01*
X185368014Y-85490218D01*
X185398390Y-85512287D01*
X185479230Y-85553477D01*
X185580776Y-85605218D01*
X185580778Y-85605218D01*
X185580781Y-85605220D01*
X185685137Y-85639127D01*
X185775465Y-85668477D01*
X185876557Y-85684488D01*
X185977648Y-85700500D01*
X185977649Y-85700500D01*
X186182351Y-85700500D01*
X186182352Y-85700500D01*
X186384534Y-85668477D01*
X186579219Y-85605220D01*
X186761610Y-85512287D01*
X186854590Y-85444732D01*
X186927213Y-85391971D01*
X186927215Y-85391968D01*
X186927219Y-85391966D01*
X187071966Y-85247219D01*
X187071968Y-85247215D01*
X187071971Y-85247213D01*
X187192284Y-85081614D01*
X187192285Y-85081613D01*
X187192287Y-85081610D01*
X187239516Y-84988917D01*
X187287489Y-84938123D01*
X187355310Y-84921328D01*
X187421445Y-84943865D01*
X187460485Y-84988919D01*
X187507715Y-85081614D01*
X187628028Y-85247213D01*
X187772786Y-85391971D01*
X187908014Y-85490218D01*
X187938390Y-85512287D01*
X188019230Y-85553477D01*
X188120776Y-85605218D01*
X188120778Y-85605218D01*
X188120781Y-85605220D01*
X188225137Y-85639127D01*
X188315465Y-85668477D01*
X188416557Y-85684488D01*
X188517648Y-85700500D01*
X188517649Y-85700500D01*
X188722351Y-85700500D01*
X188722352Y-85700500D01*
X188924534Y-85668477D01*
X189119219Y-85605220D01*
X189301610Y-85512287D01*
X189394590Y-85444732D01*
X189467213Y-85391971D01*
X189467215Y-85391968D01*
X189467219Y-85391966D01*
X189611966Y-85247219D01*
X189611968Y-85247215D01*
X189611971Y-85247213D01*
X189732284Y-85081614D01*
X189732285Y-85081613D01*
X189732287Y-85081610D01*
X189779516Y-84988917D01*
X189827489Y-84938123D01*
X189895310Y-84921328D01*
X189961445Y-84943865D01*
X190000485Y-84988919D01*
X190047715Y-85081614D01*
X190168028Y-85247213D01*
X190312786Y-85391971D01*
X190448014Y-85490218D01*
X190478390Y-85512287D01*
X190559230Y-85553477D01*
X190660776Y-85605218D01*
X190660778Y-85605218D01*
X190660781Y-85605220D01*
X190765137Y-85639127D01*
X190855465Y-85668477D01*
X190956557Y-85684488D01*
X191057648Y-85700500D01*
X191057649Y-85700500D01*
X191262351Y-85700500D01*
X191262352Y-85700500D01*
X191464534Y-85668477D01*
X191659219Y-85605220D01*
X191841610Y-85512287D01*
X191934590Y-85444732D01*
X192007213Y-85391971D01*
X192007215Y-85391968D01*
X192007219Y-85391966D01*
X192151966Y-85247219D01*
X192151968Y-85247215D01*
X192151971Y-85247213D01*
X192272284Y-85081614D01*
X192272285Y-85081613D01*
X192272287Y-85081610D01*
X192319516Y-84988917D01*
X192367489Y-84938123D01*
X192435310Y-84921328D01*
X192501445Y-84943865D01*
X192540485Y-84988919D01*
X192587715Y-85081614D01*
X192708028Y-85247213D01*
X192852786Y-85391971D01*
X192988014Y-85490218D01*
X193018390Y-85512287D01*
X193099230Y-85553477D01*
X193200776Y-85605218D01*
X193200778Y-85605218D01*
X193200781Y-85605220D01*
X193305137Y-85639127D01*
X193395465Y-85668477D01*
X193496557Y-85684488D01*
X193597648Y-85700500D01*
X193597649Y-85700500D01*
X193802351Y-85700500D01*
X193802352Y-85700500D01*
X194004534Y-85668477D01*
X194199219Y-85605220D01*
X194381610Y-85512287D01*
X194474590Y-85444732D01*
X194547213Y-85391971D01*
X194547215Y-85391968D01*
X194547219Y-85391966D01*
X194691966Y-85247219D01*
X194691968Y-85247215D01*
X194691971Y-85247213D01*
X194812284Y-85081614D01*
X194812285Y-85081613D01*
X194812287Y-85081610D01*
X194859516Y-84988917D01*
X194907489Y-84938123D01*
X194975310Y-84921328D01*
X195041445Y-84943865D01*
X195080485Y-84988919D01*
X195127715Y-85081614D01*
X195248028Y-85247213D01*
X195392786Y-85391971D01*
X195528014Y-85490218D01*
X195558390Y-85512287D01*
X195639230Y-85553477D01*
X195740776Y-85605218D01*
X195740778Y-85605218D01*
X195740781Y-85605220D01*
X195845137Y-85639127D01*
X195935465Y-85668477D01*
X196036557Y-85684488D01*
X196137648Y-85700500D01*
X196137649Y-85700500D01*
X196342351Y-85700500D01*
X196342352Y-85700500D01*
X196544534Y-85668477D01*
X196739219Y-85605220D01*
X196921610Y-85512287D01*
X197014590Y-85444732D01*
X197087213Y-85391971D01*
X197087215Y-85391968D01*
X197087219Y-85391966D01*
X197231966Y-85247219D01*
X197231968Y-85247215D01*
X197231971Y-85247213D01*
X197352284Y-85081614D01*
X197352285Y-85081613D01*
X197352287Y-85081610D01*
X197399516Y-84988917D01*
X197447489Y-84938123D01*
X197515310Y-84921328D01*
X197581445Y-84943865D01*
X197620485Y-84988919D01*
X197667715Y-85081614D01*
X197788028Y-85247213D01*
X197932786Y-85391971D01*
X198068014Y-85490218D01*
X198098390Y-85512287D01*
X198179230Y-85553477D01*
X198280776Y-85605218D01*
X198280778Y-85605218D01*
X198280781Y-85605220D01*
X198385137Y-85639127D01*
X198475465Y-85668477D01*
X198576557Y-85684488D01*
X198677648Y-85700500D01*
X198677649Y-85700500D01*
X198882351Y-85700500D01*
X198882352Y-85700500D01*
X199084534Y-85668477D01*
X199279219Y-85605220D01*
X199461610Y-85512287D01*
X199554590Y-85444732D01*
X199627213Y-85391971D01*
X199627215Y-85391968D01*
X199627219Y-85391966D01*
X199771966Y-85247219D01*
X199771968Y-85247215D01*
X199771971Y-85247213D01*
X199892284Y-85081614D01*
X199892285Y-85081613D01*
X199892287Y-85081610D01*
X199939516Y-84988917D01*
X199987489Y-84938123D01*
X200055310Y-84921328D01*
X200121445Y-84943865D01*
X200160485Y-84988919D01*
X200207715Y-85081614D01*
X200328028Y-85247213D01*
X200472786Y-85391971D01*
X200608014Y-85490218D01*
X200638390Y-85512287D01*
X200719230Y-85553477D01*
X200820776Y-85605218D01*
X200820778Y-85605218D01*
X200820781Y-85605220D01*
X200925137Y-85639127D01*
X201015465Y-85668477D01*
X201116557Y-85684488D01*
X201217648Y-85700500D01*
X201217649Y-85700500D01*
X201422351Y-85700500D01*
X201422352Y-85700500D01*
X201624534Y-85668477D01*
X201819219Y-85605220D01*
X202001610Y-85512287D01*
X202094590Y-85444732D01*
X202167213Y-85391971D01*
X202167215Y-85391968D01*
X202167219Y-85391966D01*
X202311966Y-85247219D01*
X202311968Y-85247215D01*
X202311971Y-85247213D01*
X202432284Y-85081614D01*
X202432285Y-85081613D01*
X202432287Y-85081610D01*
X202479516Y-84988917D01*
X202527489Y-84938123D01*
X202595310Y-84921328D01*
X202661445Y-84943865D01*
X202700485Y-84988919D01*
X202747715Y-85081614D01*
X202868028Y-85247213D01*
X203012786Y-85391971D01*
X203148014Y-85490218D01*
X203178390Y-85512287D01*
X203259230Y-85553477D01*
X203360776Y-85605218D01*
X203360778Y-85605218D01*
X203360781Y-85605220D01*
X203465137Y-85639127D01*
X203555465Y-85668477D01*
X203656557Y-85684488D01*
X203757648Y-85700500D01*
X203757649Y-85700500D01*
X203962351Y-85700500D01*
X203962352Y-85700500D01*
X204164534Y-85668477D01*
X204359219Y-85605220D01*
X204541610Y-85512287D01*
X204634590Y-85444732D01*
X204707213Y-85391971D01*
X204707215Y-85391968D01*
X204707219Y-85391966D01*
X204851966Y-85247219D01*
X204851968Y-85247215D01*
X204851971Y-85247213D01*
X204904732Y-85174590D01*
X204972287Y-85081610D01*
X205065220Y-84899219D01*
X205128477Y-84704534D01*
X205160500Y-84502352D01*
X205160500Y-83497648D01*
X205128477Y-83295465D01*
X205065218Y-83100776D01*
X205006622Y-82985776D01*
X204972287Y-82918390D01*
X204941512Y-82876031D01*
X204851971Y-82752786D01*
X204707213Y-82608028D01*
X204541613Y-82487715D01*
X204541612Y-82487714D01*
X204541610Y-82487713D01*
X204484653Y-82458691D01*
X204359223Y-82394781D01*
X204164534Y-82331522D01*
X203989995Y-82303878D01*
X203962352Y-82299500D01*
X203757648Y-82299500D01*
X203733329Y-82303351D01*
X203555465Y-82331522D01*
X203360776Y-82394781D01*
X203178386Y-82487715D01*
X203012786Y-82608028D01*
X202868028Y-82752786D01*
X202747715Y-82918386D01*
X202700485Y-83011080D01*
X202652510Y-83061876D01*
X202584689Y-83078671D01*
X202518554Y-83056134D01*
X202479515Y-83011080D01*
X202466622Y-82985776D01*
X202432287Y-82918390D01*
X202401512Y-82876031D01*
X202311971Y-82752786D01*
X202167213Y-82608028D01*
X202001613Y-82487715D01*
X202001612Y-82487714D01*
X202001610Y-82487713D01*
X201944653Y-82458691D01*
X201819223Y-82394781D01*
X201624534Y-82331522D01*
X201449995Y-82303878D01*
X201422352Y-82299500D01*
X201217648Y-82299500D01*
X201193329Y-82303351D01*
X201015465Y-82331522D01*
X200820776Y-82394781D01*
X200638386Y-82487715D01*
X200472786Y-82608028D01*
X200328028Y-82752786D01*
X200207715Y-82918386D01*
X200160485Y-83011080D01*
X200112510Y-83061876D01*
X200044689Y-83078671D01*
X199978554Y-83056134D01*
X199939515Y-83011080D01*
X199926622Y-82985776D01*
X199892287Y-82918390D01*
X199861512Y-82876031D01*
X199771971Y-82752786D01*
X199627213Y-82608028D01*
X199461613Y-82487715D01*
X199461612Y-82487714D01*
X199461610Y-82487713D01*
X199404653Y-82458691D01*
X199279223Y-82394781D01*
X199084534Y-82331522D01*
X198909995Y-82303878D01*
X198882352Y-82299500D01*
X198677648Y-82299500D01*
X198653329Y-82303351D01*
X198475465Y-82331522D01*
X198280776Y-82394781D01*
X198098386Y-82487715D01*
X197932786Y-82608028D01*
X197788028Y-82752786D01*
X197667715Y-82918386D01*
X197620485Y-83011080D01*
X197572510Y-83061876D01*
X197504689Y-83078671D01*
X197438554Y-83056134D01*
X197399515Y-83011080D01*
X197386622Y-82985776D01*
X197352287Y-82918390D01*
X197321512Y-82876031D01*
X197231971Y-82752786D01*
X197087213Y-82608028D01*
X196921613Y-82487715D01*
X196921612Y-82487714D01*
X196921610Y-82487713D01*
X196864653Y-82458691D01*
X196739223Y-82394781D01*
X196544534Y-82331522D01*
X196369995Y-82303878D01*
X196342352Y-82299500D01*
X196137648Y-82299500D01*
X196113329Y-82303351D01*
X195935465Y-82331522D01*
X195740776Y-82394781D01*
X195558386Y-82487715D01*
X195392786Y-82608028D01*
X195248028Y-82752786D01*
X195127715Y-82918386D01*
X195080485Y-83011080D01*
X195032510Y-83061876D01*
X194964689Y-83078671D01*
X194898554Y-83056134D01*
X194859515Y-83011080D01*
X194846622Y-82985776D01*
X194812287Y-82918390D01*
X194781512Y-82876031D01*
X194691971Y-82752786D01*
X194547213Y-82608028D01*
X194381613Y-82487715D01*
X194381612Y-82487714D01*
X194381610Y-82487713D01*
X194324653Y-82458691D01*
X194199223Y-82394781D01*
X194004534Y-82331522D01*
X193829995Y-82303878D01*
X193802352Y-82299500D01*
X193597648Y-82299500D01*
X193573329Y-82303351D01*
X193395465Y-82331522D01*
X193200776Y-82394781D01*
X193018386Y-82487715D01*
X192852786Y-82608028D01*
X192708028Y-82752786D01*
X192587715Y-82918386D01*
X192540485Y-83011080D01*
X192492510Y-83061876D01*
X192424689Y-83078671D01*
X192358554Y-83056134D01*
X192319515Y-83011080D01*
X192306622Y-82985776D01*
X192272287Y-82918390D01*
X192241512Y-82876031D01*
X192151971Y-82752786D01*
X192007213Y-82608028D01*
X191841613Y-82487715D01*
X191841612Y-82487714D01*
X191841610Y-82487713D01*
X191784653Y-82458691D01*
X191659223Y-82394781D01*
X191464534Y-82331522D01*
X191289995Y-82303878D01*
X191262352Y-82299500D01*
X191057648Y-82299500D01*
X191033329Y-82303351D01*
X190855465Y-82331522D01*
X190660776Y-82394781D01*
X190478386Y-82487715D01*
X190312786Y-82608028D01*
X190168028Y-82752786D01*
X190047715Y-82918386D01*
X190000485Y-83011080D01*
X189952510Y-83061876D01*
X189884689Y-83078671D01*
X189818554Y-83056134D01*
X189779515Y-83011080D01*
X189766622Y-82985776D01*
X189732287Y-82918390D01*
X189701512Y-82876031D01*
X189611971Y-82752786D01*
X189467213Y-82608028D01*
X189301613Y-82487715D01*
X189301612Y-82487714D01*
X189301610Y-82487713D01*
X189244653Y-82458691D01*
X189119223Y-82394781D01*
X188924534Y-82331522D01*
X188749995Y-82303878D01*
X188722352Y-82299500D01*
X188517648Y-82299500D01*
X188493329Y-82303351D01*
X188315465Y-82331522D01*
X188120776Y-82394781D01*
X187938386Y-82487715D01*
X187772786Y-82608028D01*
X187628028Y-82752786D01*
X187507715Y-82918386D01*
X187460485Y-83011080D01*
X187412510Y-83061876D01*
X187344689Y-83078671D01*
X187278554Y-83056134D01*
X187239515Y-83011080D01*
X187226622Y-82985776D01*
X187192287Y-82918390D01*
X187161512Y-82876031D01*
X187071971Y-82752786D01*
X186927213Y-82608028D01*
X186761613Y-82487715D01*
X186761612Y-82487714D01*
X186761610Y-82487713D01*
X186704653Y-82458691D01*
X186579223Y-82394781D01*
X186384534Y-82331522D01*
X186209995Y-82303878D01*
X186182352Y-82299500D01*
X185977648Y-82299500D01*
X185953329Y-82303351D01*
X185775465Y-82331522D01*
X185580776Y-82394781D01*
X185398386Y-82487715D01*
X185232786Y-82608028D01*
X185088028Y-82752786D01*
X184967715Y-82918386D01*
X184920485Y-83011080D01*
X184872510Y-83061876D01*
X184804689Y-83078671D01*
X184738554Y-83056134D01*
X184699515Y-83011080D01*
X184686622Y-82985776D01*
X184652287Y-82918390D01*
X184621512Y-82876031D01*
X184531971Y-82752786D01*
X184387213Y-82608028D01*
X184221613Y-82487715D01*
X184221612Y-82487714D01*
X184221610Y-82487713D01*
X184164653Y-82458691D01*
X184039223Y-82394781D01*
X183844534Y-82331522D01*
X183669995Y-82303878D01*
X183642352Y-82299500D01*
X183437648Y-82299500D01*
X183413329Y-82303351D01*
X183235465Y-82331522D01*
X183040776Y-82394781D01*
X182858386Y-82487715D01*
X182692786Y-82608028D01*
X182548028Y-82752786D01*
X182427715Y-82918386D01*
X182380485Y-83011080D01*
X182332510Y-83061876D01*
X182264689Y-83078671D01*
X182198554Y-83056134D01*
X182159515Y-83011080D01*
X182146622Y-82985776D01*
X182112287Y-82918390D01*
X182081512Y-82876031D01*
X181991971Y-82752786D01*
X181847213Y-82608028D01*
X181681613Y-82487715D01*
X181681612Y-82487714D01*
X181681610Y-82487713D01*
X181624653Y-82458691D01*
X181499223Y-82394781D01*
X181304534Y-82331522D01*
X181129995Y-82303878D01*
X181102352Y-82299500D01*
X180897648Y-82299500D01*
X180873329Y-82303351D01*
X180695465Y-82331522D01*
X180500776Y-82394781D01*
X180318386Y-82487715D01*
X180152786Y-82608028D01*
X180008028Y-82752786D01*
X179887715Y-82918386D01*
X179840485Y-83011080D01*
X179792510Y-83061876D01*
X179724689Y-83078671D01*
X179658554Y-83056134D01*
X179619515Y-83011080D01*
X179606622Y-82985776D01*
X179572287Y-82918390D01*
X179541512Y-82876031D01*
X179451971Y-82752786D01*
X179307213Y-82608028D01*
X179141613Y-82487715D01*
X179141612Y-82487714D01*
X179141610Y-82487713D01*
X179084653Y-82458691D01*
X178959223Y-82394781D01*
X178764534Y-82331522D01*
X178589995Y-82303878D01*
X178562352Y-82299500D01*
X178357648Y-82299500D01*
X178333329Y-82303351D01*
X178155465Y-82331522D01*
X177960776Y-82394781D01*
X177778386Y-82487715D01*
X177612786Y-82608028D01*
X177468028Y-82752786D01*
X177347715Y-82918386D01*
X177300485Y-83011080D01*
X177252510Y-83061876D01*
X177184689Y-83078671D01*
X177118554Y-83056134D01*
X177079515Y-83011080D01*
X177066622Y-82985776D01*
X177032287Y-82918390D01*
X177001512Y-82876031D01*
X176911971Y-82752786D01*
X176767213Y-82608028D01*
X176601613Y-82487715D01*
X176601612Y-82487714D01*
X176601610Y-82487713D01*
X176544653Y-82458691D01*
X176419223Y-82394781D01*
X176224534Y-82331522D01*
X176049995Y-82303878D01*
X176022352Y-82299500D01*
X175817648Y-82299500D01*
X175817643Y-82299500D01*
X175721875Y-82314668D01*
X175652581Y-82305713D01*
X175614796Y-82279876D01*
X173414778Y-80079858D01*
X173381293Y-80018535D01*
X173386277Y-79948843D01*
X173428149Y-79892910D01*
X173493613Y-79868493D01*
X173502459Y-79868177D01*
X175730865Y-79868177D01*
X175750193Y-79864332D01*
X175827511Y-79848952D01*
X175924159Y-79829728D01*
X175977488Y-79807638D01*
X176106237Y-79754309D01*
X176270105Y-79644816D01*
X176409462Y-79505459D01*
X176409462Y-79505457D01*
X176419670Y-79495250D01*
X176419671Y-79495247D01*
X176862783Y-79052135D01*
X178074500Y-79052135D01*
X178074500Y-81547870D01*
X178074501Y-81547876D01*
X178080908Y-81607483D01*
X178131202Y-81742328D01*
X178131206Y-81742335D01*
X178217452Y-81857544D01*
X178217455Y-81857547D01*
X178332664Y-81943793D01*
X178332671Y-81943797D01*
X178467517Y-81994091D01*
X178467516Y-81994091D01*
X178474444Y-81994835D01*
X178527127Y-82000500D01*
X180222872Y-82000499D01*
X180282483Y-81994091D01*
X180417331Y-81943796D01*
X180532546Y-81857546D01*
X180618796Y-81742331D01*
X180669091Y-81607483D01*
X180673061Y-81570556D01*
X180699796Y-81506011D01*
X180757188Y-81466161D01*
X180827013Y-81463666D01*
X180887102Y-81499317D01*
X180896667Y-81510929D01*
X180923032Y-81547217D01*
X181067786Y-81691971D01*
X181222749Y-81804556D01*
X181233390Y-81812287D01*
X181322212Y-81857544D01*
X181415776Y-81905218D01*
X181415778Y-81905218D01*
X181415781Y-81905220D01*
X181520137Y-81939127D01*
X181610465Y-81968477D01*
X181711557Y-81984488D01*
X181812648Y-82000500D01*
X181812649Y-82000500D01*
X182017351Y-82000500D01*
X182017352Y-82000500D01*
X182219534Y-81968477D01*
X182414219Y-81905220D01*
X182596610Y-81812287D01*
X182692901Y-81742328D01*
X182762213Y-81691971D01*
X182762215Y-81691968D01*
X182762219Y-81691966D01*
X182906966Y-81547219D01*
X182906968Y-81547215D01*
X182906971Y-81547213D01*
X183027284Y-81381614D01*
X183027283Y-81381614D01*
X183027287Y-81381610D01*
X183074516Y-81288917D01*
X183122489Y-81238123D01*
X183190310Y-81221328D01*
X183256445Y-81243865D01*
X183295485Y-81288919D01*
X183342715Y-81381614D01*
X183463028Y-81547213D01*
X183607786Y-81691971D01*
X183762749Y-81804556D01*
X183773390Y-81812287D01*
X183862212Y-81857544D01*
X183955776Y-81905218D01*
X183955778Y-81905218D01*
X183955781Y-81905220D01*
X184060137Y-81939127D01*
X184150465Y-81968477D01*
X184251557Y-81984488D01*
X184352648Y-82000500D01*
X184352649Y-82000500D01*
X184557351Y-82000500D01*
X184557352Y-82000500D01*
X184759534Y-81968477D01*
X184954219Y-81905220D01*
X185136610Y-81812287D01*
X185232901Y-81742328D01*
X185302213Y-81691971D01*
X185302215Y-81691968D01*
X185302219Y-81691966D01*
X185446966Y-81547219D01*
X185446968Y-81547215D01*
X185446971Y-81547213D01*
X185567284Y-81381614D01*
X185567283Y-81381614D01*
X185567287Y-81381610D01*
X185614516Y-81288917D01*
X185662489Y-81238123D01*
X185730310Y-81221328D01*
X185796445Y-81243865D01*
X185835485Y-81288919D01*
X185882715Y-81381614D01*
X186003028Y-81547213D01*
X186147786Y-81691971D01*
X186302749Y-81804556D01*
X186313390Y-81812287D01*
X186402212Y-81857544D01*
X186495776Y-81905218D01*
X186495778Y-81905218D01*
X186495781Y-81905220D01*
X186600137Y-81939127D01*
X186690465Y-81968477D01*
X186791557Y-81984488D01*
X186892648Y-82000500D01*
X186892649Y-82000500D01*
X187097351Y-82000500D01*
X187097352Y-82000500D01*
X187299534Y-81968477D01*
X187494219Y-81905220D01*
X187676610Y-81812287D01*
X187772901Y-81742328D01*
X187842213Y-81691971D01*
X187842215Y-81691968D01*
X187842219Y-81691966D01*
X187986966Y-81547219D01*
X187986968Y-81547215D01*
X187986971Y-81547213D01*
X188107284Y-81381614D01*
X188107283Y-81381614D01*
X188107287Y-81381610D01*
X188154516Y-81288917D01*
X188202489Y-81238123D01*
X188270310Y-81221328D01*
X188336445Y-81243865D01*
X188375485Y-81288919D01*
X188422715Y-81381614D01*
X188543028Y-81547213D01*
X188687786Y-81691971D01*
X188842749Y-81804556D01*
X188853390Y-81812287D01*
X188942212Y-81857544D01*
X189035776Y-81905218D01*
X189035778Y-81905218D01*
X189035781Y-81905220D01*
X189140137Y-81939127D01*
X189230465Y-81968477D01*
X189331557Y-81984488D01*
X189432648Y-82000500D01*
X189432649Y-82000500D01*
X189637351Y-82000500D01*
X189637352Y-82000500D01*
X189839534Y-81968477D01*
X190034219Y-81905220D01*
X190216610Y-81812287D01*
X190312901Y-81742328D01*
X190382213Y-81691971D01*
X190382215Y-81691968D01*
X190382219Y-81691966D01*
X190526966Y-81547219D01*
X190526968Y-81547215D01*
X190526971Y-81547213D01*
X190647284Y-81381614D01*
X190647283Y-81381614D01*
X190647287Y-81381610D01*
X190694516Y-81288917D01*
X190742489Y-81238123D01*
X190810310Y-81221328D01*
X190876445Y-81243865D01*
X190915485Y-81288919D01*
X190962715Y-81381614D01*
X191083028Y-81547213D01*
X191227786Y-81691971D01*
X191382749Y-81804556D01*
X191393390Y-81812287D01*
X191482212Y-81857544D01*
X191575776Y-81905218D01*
X191575778Y-81905218D01*
X191575781Y-81905220D01*
X191680137Y-81939127D01*
X191770465Y-81968477D01*
X191871557Y-81984488D01*
X191972648Y-82000500D01*
X191972649Y-82000500D01*
X192177351Y-82000500D01*
X192177352Y-82000500D01*
X192379534Y-81968477D01*
X192574219Y-81905220D01*
X192756610Y-81812287D01*
X192852901Y-81742328D01*
X192922213Y-81691971D01*
X192922215Y-81691968D01*
X192922219Y-81691966D01*
X193066966Y-81547219D01*
X193066968Y-81547215D01*
X193066971Y-81547213D01*
X193187284Y-81381614D01*
X193187283Y-81381614D01*
X193187287Y-81381610D01*
X193234795Y-81288369D01*
X193282770Y-81237574D01*
X193350591Y-81220779D01*
X193416725Y-81243316D01*
X193455765Y-81288370D01*
X193503140Y-81381349D01*
X193623417Y-81546894D01*
X193623417Y-81546895D01*
X193768104Y-81691582D01*
X193933650Y-81811859D01*
X194115968Y-81904754D01*
X194310578Y-81967988D01*
X194365000Y-81976607D01*
X194365000Y-80615686D01*
X194369394Y-80620080D01*
X194460606Y-80672741D01*
X194562339Y-80700000D01*
X194667661Y-80700000D01*
X194769394Y-80672741D01*
X194860606Y-80620080D01*
X194865000Y-80615686D01*
X194865000Y-81976606D01*
X194919421Y-81967988D01*
X195114031Y-81904754D01*
X195296349Y-81811859D01*
X195461894Y-81691582D01*
X195461895Y-81691582D01*
X195606582Y-81546895D01*
X195606582Y-81546894D01*
X195726859Y-81381349D01*
X195819755Y-81199031D01*
X195882990Y-81004417D01*
X195915000Y-80802317D01*
X195915000Y-80550000D01*
X194930686Y-80550000D01*
X194935080Y-80545606D01*
X194987741Y-80454394D01*
X195015000Y-80352661D01*
X195015000Y-80247339D01*
X194987741Y-80145606D01*
X194935080Y-80054394D01*
X194930686Y-80050000D01*
X195915000Y-80050000D01*
X195915000Y-79797682D01*
X195882990Y-79595582D01*
X195819755Y-79400968D01*
X195726859Y-79218650D01*
X195606582Y-79053105D01*
X195606582Y-79053104D01*
X195461895Y-78908417D01*
X195296349Y-78788140D01*
X195114029Y-78695244D01*
X194919413Y-78632009D01*
X194865000Y-78623390D01*
X194865000Y-79984314D01*
X194860606Y-79979920D01*
X194769394Y-79927259D01*
X194667661Y-79900000D01*
X194562339Y-79900000D01*
X194460606Y-79927259D01*
X194369394Y-79979920D01*
X194365000Y-79984314D01*
X194365000Y-78623390D01*
X194310586Y-78632009D01*
X194115970Y-78695244D01*
X193933650Y-78788140D01*
X193768105Y-78908417D01*
X193768104Y-78908417D01*
X193623417Y-79053104D01*
X193623417Y-79053105D01*
X193503140Y-79218650D01*
X193455765Y-79311629D01*
X193407790Y-79362425D01*
X193339969Y-79379220D01*
X193273834Y-79356682D01*
X193234795Y-79311629D01*
X193187419Y-79218650D01*
X193187287Y-79218390D01*
X193135018Y-79146447D01*
X193066971Y-79052786D01*
X192922213Y-78908028D01*
X192756613Y-78787715D01*
X192756612Y-78787714D01*
X192756610Y-78787713D01*
X192699653Y-78758691D01*
X192574223Y-78694781D01*
X192379534Y-78631522D01*
X192204995Y-78603878D01*
X192177352Y-78599500D01*
X191972648Y-78599500D01*
X191948329Y-78603351D01*
X191770465Y-78631522D01*
X191575776Y-78694781D01*
X191393386Y-78787715D01*
X191227786Y-78908028D01*
X191083028Y-79052786D01*
X190962715Y-79218386D01*
X190915485Y-79311080D01*
X190867510Y-79361876D01*
X190799689Y-79378671D01*
X190733554Y-79356134D01*
X190694515Y-79311080D01*
X190675269Y-79273308D01*
X190647287Y-79218390D01*
X190595018Y-79146447D01*
X190526971Y-79052786D01*
X190382213Y-78908028D01*
X190216613Y-78787715D01*
X190216612Y-78787714D01*
X190216610Y-78787713D01*
X190159653Y-78758691D01*
X190034223Y-78694781D01*
X189839534Y-78631522D01*
X189664995Y-78603878D01*
X189637352Y-78599500D01*
X189432648Y-78599500D01*
X189408329Y-78603351D01*
X189230465Y-78631522D01*
X189035776Y-78694781D01*
X188853386Y-78787715D01*
X188687786Y-78908028D01*
X188543028Y-79052786D01*
X188422715Y-79218386D01*
X188375485Y-79311080D01*
X188327510Y-79361876D01*
X188259689Y-79378671D01*
X188193554Y-79356134D01*
X188154515Y-79311080D01*
X188135269Y-79273308D01*
X188107287Y-79218390D01*
X188055018Y-79146447D01*
X187986971Y-79052786D01*
X187842213Y-78908028D01*
X187676613Y-78787715D01*
X187676612Y-78787714D01*
X187676610Y-78787713D01*
X187619653Y-78758691D01*
X187494223Y-78694781D01*
X187299534Y-78631522D01*
X187124995Y-78603878D01*
X187097352Y-78599500D01*
X186892648Y-78599500D01*
X186868329Y-78603351D01*
X186690465Y-78631522D01*
X186495776Y-78694781D01*
X186313386Y-78787715D01*
X186147786Y-78908028D01*
X186003028Y-79052786D01*
X185882715Y-79218386D01*
X185835485Y-79311080D01*
X185787510Y-79361876D01*
X185719689Y-79378671D01*
X185653554Y-79356134D01*
X185614515Y-79311080D01*
X185595269Y-79273308D01*
X185567287Y-79218390D01*
X185515018Y-79146447D01*
X185446971Y-79052786D01*
X185302213Y-78908028D01*
X185136613Y-78787715D01*
X185136612Y-78787714D01*
X185136610Y-78787713D01*
X185079653Y-78758691D01*
X184954223Y-78694781D01*
X184759534Y-78631522D01*
X184584995Y-78603878D01*
X184557352Y-78599500D01*
X184352648Y-78599500D01*
X184328329Y-78603351D01*
X184150465Y-78631522D01*
X183955776Y-78694781D01*
X183773386Y-78787715D01*
X183607786Y-78908028D01*
X183463028Y-79052786D01*
X183342715Y-79218386D01*
X183295485Y-79311080D01*
X183247510Y-79361876D01*
X183179689Y-79378671D01*
X183113554Y-79356134D01*
X183074515Y-79311080D01*
X183055269Y-79273308D01*
X183027287Y-79218390D01*
X182975018Y-79146447D01*
X182906971Y-79052786D01*
X182762213Y-78908028D01*
X182596613Y-78787715D01*
X182596612Y-78787714D01*
X182596610Y-78787713D01*
X182539653Y-78758691D01*
X182414223Y-78694781D01*
X182219534Y-78631522D01*
X182044995Y-78603878D01*
X182017352Y-78599500D01*
X181812648Y-78599500D01*
X181788329Y-78603351D01*
X181610465Y-78631522D01*
X181415776Y-78694781D01*
X181233386Y-78787715D01*
X181067786Y-78908028D01*
X180923032Y-79052782D01*
X180896668Y-79089070D01*
X180841338Y-79131735D01*
X180771724Y-79137714D01*
X180709929Y-79105108D01*
X180675572Y-79044269D01*
X180673060Y-79029438D01*
X180672640Y-79025533D01*
X180669091Y-78992517D01*
X180633298Y-78896552D01*
X180618797Y-78857671D01*
X180618793Y-78857664D01*
X180532547Y-78742455D01*
X180532544Y-78742452D01*
X180417335Y-78656206D01*
X180417328Y-78656202D01*
X180282482Y-78605908D01*
X180282483Y-78605908D01*
X180222883Y-78599501D01*
X180222881Y-78599500D01*
X180222873Y-78599500D01*
X180222864Y-78599500D01*
X178527129Y-78599500D01*
X178527123Y-78599501D01*
X178467516Y-78605908D01*
X178332671Y-78656202D01*
X178332664Y-78656206D01*
X178217455Y-78742452D01*
X178217452Y-78742455D01*
X178131206Y-78857664D01*
X178131202Y-78857671D01*
X178080908Y-78992517D01*
X178074501Y-79052116D01*
X178074500Y-79052135D01*
X176862783Y-79052135D01*
X180152140Y-75762781D01*
X180261632Y-75598914D01*
X180337052Y-75416835D01*
X180375501Y-75223540D01*
X180375501Y-75026459D01*
X180375501Y-75021349D01*
X180375500Y-75021323D01*
X180375500Y-73955761D01*
X180395185Y-73888722D01*
X180399165Y-73882899D01*
X180487287Y-73761610D01*
X180534516Y-73668917D01*
X180582489Y-73618123D01*
X180650310Y-73601328D01*
X180716445Y-73623865D01*
X180755485Y-73668919D01*
X180802715Y-73761614D01*
X180923028Y-73927213D01*
X181067786Y-74071971D01*
X181209161Y-74174684D01*
X181233390Y-74192287D01*
X181349607Y-74251503D01*
X181415776Y-74285218D01*
X181415778Y-74285218D01*
X181415781Y-74285220D01*
X181520137Y-74319127D01*
X181610465Y-74348477D01*
X181660451Y-74356394D01*
X181812648Y-74380500D01*
X181812649Y-74380500D01*
X182017351Y-74380500D01*
X182017352Y-74380500D01*
X182219534Y-74348477D01*
X182414219Y-74285220D01*
X182596610Y-74192287D01*
X182702416Y-74115415D01*
X182762213Y-74071971D01*
X182762215Y-74071968D01*
X182762219Y-74071966D01*
X182906966Y-73927219D01*
X182906968Y-73927215D01*
X182906971Y-73927213D01*
X183027284Y-73761614D01*
X183027285Y-73761613D01*
X183027287Y-73761610D01*
X183074516Y-73668917D01*
X183122489Y-73618123D01*
X183190310Y-73601328D01*
X183256445Y-73623865D01*
X183295485Y-73668919D01*
X183342715Y-73761614D01*
X183463028Y-73927213D01*
X183607786Y-74071971D01*
X183749161Y-74174684D01*
X183773390Y-74192287D01*
X183889607Y-74251503D01*
X183955776Y-74285218D01*
X183955778Y-74285218D01*
X183955781Y-74285220D01*
X184060137Y-74319127D01*
X184150465Y-74348477D01*
X184200451Y-74356394D01*
X184352648Y-74380500D01*
X184352649Y-74380500D01*
X184557351Y-74380500D01*
X184557352Y-74380500D01*
X184759534Y-74348477D01*
X184954219Y-74285220D01*
X185136610Y-74192287D01*
X185242416Y-74115415D01*
X185302213Y-74071971D01*
X185302215Y-74071968D01*
X185302219Y-74071966D01*
X185446966Y-73927219D01*
X185446968Y-73927215D01*
X185446971Y-73927213D01*
X185567284Y-73761614D01*
X185567285Y-73761613D01*
X185567287Y-73761610D01*
X185614516Y-73668917D01*
X185662489Y-73618123D01*
X185730310Y-73601328D01*
X185796445Y-73623865D01*
X185835485Y-73668919D01*
X185882715Y-73761614D01*
X186003028Y-73927213D01*
X186147786Y-74071971D01*
X186289161Y-74174684D01*
X186313390Y-74192287D01*
X186429607Y-74251503D01*
X186495776Y-74285218D01*
X186495778Y-74285218D01*
X186495781Y-74285220D01*
X186600137Y-74319127D01*
X186690465Y-74348477D01*
X186740451Y-74356394D01*
X186892648Y-74380500D01*
X186892649Y-74380500D01*
X187097351Y-74380500D01*
X187097352Y-74380500D01*
X187299534Y-74348477D01*
X187494219Y-74285220D01*
X187676610Y-74192287D01*
X187782416Y-74115415D01*
X187842213Y-74071971D01*
X187842215Y-74071968D01*
X187842219Y-74071966D01*
X187986966Y-73927219D01*
X187986968Y-73927215D01*
X187986971Y-73927213D01*
X188107284Y-73761614D01*
X188107285Y-73761613D01*
X188107287Y-73761610D01*
X188154516Y-73668917D01*
X188202489Y-73618123D01*
X188270310Y-73601328D01*
X188336445Y-73623865D01*
X188375485Y-73668919D01*
X188422715Y-73761614D01*
X188543028Y-73927213D01*
X188687786Y-74071971D01*
X188829161Y-74174684D01*
X188853390Y-74192287D01*
X188969607Y-74251503D01*
X189035776Y-74285218D01*
X189035778Y-74285218D01*
X189035781Y-74285220D01*
X189140137Y-74319127D01*
X189230465Y-74348477D01*
X189280451Y-74356394D01*
X189432648Y-74380500D01*
X189432649Y-74380500D01*
X189637351Y-74380500D01*
X189637352Y-74380500D01*
X189839534Y-74348477D01*
X190034219Y-74285220D01*
X190216610Y-74192287D01*
X190322416Y-74115415D01*
X190382213Y-74071971D01*
X190382215Y-74071968D01*
X190382219Y-74071966D01*
X190526966Y-73927219D01*
X190526968Y-73927215D01*
X190526971Y-73927213D01*
X190647284Y-73761614D01*
X190647285Y-73761613D01*
X190647287Y-73761610D01*
X190694516Y-73668917D01*
X190742489Y-73618123D01*
X190810310Y-73601328D01*
X190876445Y-73623865D01*
X190915485Y-73668919D01*
X190962715Y-73761614D01*
X191083028Y-73927213D01*
X191227786Y-74071971D01*
X191369161Y-74174684D01*
X191393390Y-74192287D01*
X191509607Y-74251503D01*
X191575776Y-74285218D01*
X191575778Y-74285218D01*
X191575781Y-74285220D01*
X191680137Y-74319127D01*
X191770465Y-74348477D01*
X191820451Y-74356394D01*
X191972648Y-74380500D01*
X191972649Y-74380500D01*
X192177351Y-74380500D01*
X192177352Y-74380500D01*
X192379534Y-74348477D01*
X192574219Y-74285220D01*
X192756610Y-74192287D01*
X192862416Y-74115415D01*
X192922213Y-74071971D01*
X192922215Y-74071968D01*
X192922219Y-74071966D01*
X193066966Y-73927219D01*
X193066968Y-73927215D01*
X193066971Y-73927213D01*
X193187284Y-73761614D01*
X193187285Y-73761613D01*
X193187287Y-73761610D01*
X193234516Y-73668917D01*
X193282489Y-73618123D01*
X193350310Y-73601328D01*
X193416445Y-73623865D01*
X193455485Y-73668919D01*
X193502715Y-73761614D01*
X193623028Y-73927213D01*
X193767786Y-74071971D01*
X193909161Y-74174684D01*
X193933390Y-74192287D01*
X194049607Y-74251503D01*
X194115776Y-74285218D01*
X194115778Y-74285218D01*
X194115781Y-74285220D01*
X194220137Y-74319127D01*
X194310465Y-74348477D01*
X194360451Y-74356394D01*
X194512648Y-74380500D01*
X194512649Y-74380500D01*
X194717351Y-74380500D01*
X194717352Y-74380500D01*
X194919534Y-74348477D01*
X195114219Y-74285220D01*
X195296610Y-74192287D01*
X195402416Y-74115415D01*
X195462213Y-74071971D01*
X195462215Y-74071968D01*
X195462219Y-74071966D01*
X195606966Y-73927219D01*
X195606968Y-73927215D01*
X195606971Y-73927213D01*
X195698271Y-73801547D01*
X195727287Y-73761610D01*
X195820220Y-73579219D01*
X195883477Y-73384534D01*
X195899035Y-73286304D01*
X199149500Y-73286304D01*
X199149500Y-73463695D01*
X199184103Y-73637658D01*
X199184106Y-73637667D01*
X199251983Y-73801540D01*
X199251991Y-73801555D01*
X199290265Y-73858834D01*
X199311144Y-73925511D01*
X199293281Y-73991875D01*
X199206523Y-74135391D01*
X199155913Y-74297807D01*
X199149500Y-74368386D01*
X199149500Y-74881613D01*
X199155913Y-74952192D01*
X199155913Y-74952194D01*
X199155914Y-74952196D01*
X199206522Y-75114606D01*
X199272376Y-75223542D01*
X199294530Y-75260188D01*
X199414811Y-75380469D01*
X199414813Y-75380470D01*
X199414815Y-75380472D01*
X199560394Y-75468478D01*
X199722804Y-75519086D01*
X199793384Y-75525500D01*
X199793387Y-75525500D01*
X200806613Y-75525500D01*
X200806616Y-75525500D01*
X200877196Y-75519086D01*
X201039606Y-75468478D01*
X201185185Y-75380472D01*
X201305472Y-75260185D01*
X201393478Y-75114606D01*
X201444086Y-74952196D01*
X201450500Y-74881616D01*
X201450500Y-74368384D01*
X201444086Y-74297804D01*
X201393478Y-74135394D01*
X201306716Y-73991873D01*
X201288881Y-73924322D01*
X201309731Y-73858839D01*
X201348013Y-73801547D01*
X201415894Y-73637666D01*
X201417098Y-73631616D01*
X201450499Y-73463695D01*
X201450500Y-73463693D01*
X201450500Y-73286306D01*
X201450499Y-73286304D01*
X201415896Y-73112341D01*
X201415893Y-73112332D01*
X201348016Y-72948459D01*
X201348009Y-72948446D01*
X201249464Y-72800965D01*
X201249461Y-72800961D01*
X201124038Y-72675538D01*
X201124034Y-72675535D01*
X200976553Y-72576990D01*
X200976540Y-72576983D01*
X200812667Y-72509106D01*
X200812658Y-72509103D01*
X200638694Y-72474500D01*
X200638691Y-72474500D01*
X199961309Y-72474500D01*
X199961306Y-72474500D01*
X199787341Y-72509103D01*
X199787332Y-72509106D01*
X199623459Y-72576983D01*
X199623446Y-72576990D01*
X199475965Y-72675535D01*
X199475961Y-72675538D01*
X199350538Y-72800961D01*
X199350535Y-72800965D01*
X199251990Y-72948446D01*
X199251983Y-72948459D01*
X199184106Y-73112332D01*
X199184103Y-73112341D01*
X199149500Y-73286304D01*
X195899035Y-73286304D01*
X195915500Y-73182352D01*
X195915500Y-72177648D01*
X195883477Y-71975466D01*
X195820220Y-71780781D01*
X195820218Y-71780778D01*
X195820218Y-71780776D01*
X195774515Y-71691080D01*
X195727287Y-71598390D01*
X195719556Y-71587749D01*
X195606971Y-71432786D01*
X195462213Y-71288028D01*
X195374522Y-71224318D01*
X195331856Y-71168989D01*
X195325877Y-71099375D01*
X195358482Y-71037580D01*
X195419321Y-71003223D01*
X195447407Y-71000000D01*
X205376000Y-71000000D01*
X205443039Y-71019685D01*
X205488794Y-71072489D01*
X205500000Y-71124000D01*
X205500000Y-114376000D01*
X205480315Y-114443039D01*
X205427511Y-114488794D01*
X205376000Y-114500000D01*
X142124000Y-114500000D01*
X142056961Y-114480315D01*
X142011206Y-114427511D01*
X142000000Y-114376000D01*
X142000000Y-103243386D01*
X146349500Y-103243386D01*
X146349500Y-103756613D01*
X146355913Y-103827192D01*
X146406522Y-103989606D01*
X146493281Y-104133122D01*
X146511117Y-104200677D01*
X146490267Y-104266162D01*
X146451989Y-104323449D01*
X146451983Y-104323460D01*
X146384106Y-104487332D01*
X146384103Y-104487341D01*
X146349500Y-104661304D01*
X146349500Y-104838695D01*
X146384103Y-105012658D01*
X146384106Y-105012667D01*
X146451983Y-105176540D01*
X146451990Y-105176553D01*
X146538557Y-105306109D01*
X146559435Y-105372787D01*
X146540950Y-105440167D01*
X146538557Y-105443891D01*
X146451990Y-105573446D01*
X146451983Y-105573459D01*
X146384106Y-105737332D01*
X146384103Y-105737341D01*
X146349500Y-105911304D01*
X146349500Y-106088695D01*
X146384103Y-106262658D01*
X146384106Y-106262667D01*
X146451983Y-106426540D01*
X146451990Y-106426553D01*
X146538557Y-106556109D01*
X146559435Y-106622787D01*
X146540950Y-106690167D01*
X146538557Y-106693891D01*
X146451990Y-106823446D01*
X146451983Y-106823459D01*
X146384106Y-106987332D01*
X146384103Y-106987341D01*
X146349500Y-107161304D01*
X146349500Y-107338695D01*
X146384103Y-107512658D01*
X146384106Y-107512667D01*
X146451983Y-107676540D01*
X146451990Y-107676553D01*
X146538557Y-107806109D01*
X146559435Y-107872787D01*
X146540950Y-107940167D01*
X146538557Y-107943891D01*
X146451990Y-108073446D01*
X146451983Y-108073459D01*
X146384106Y-108237332D01*
X146384103Y-108237341D01*
X146349500Y-108411304D01*
X146349500Y-108588695D01*
X146384103Y-108762658D01*
X146384106Y-108762667D01*
X146451983Y-108926540D01*
X146451990Y-108926553D01*
X146538557Y-109056109D01*
X146559435Y-109122787D01*
X146540950Y-109190167D01*
X146538557Y-109193891D01*
X146451990Y-109323446D01*
X146451983Y-109323459D01*
X146384106Y-109487332D01*
X146384103Y-109487341D01*
X146349500Y-109661304D01*
X146349500Y-109838695D01*
X146384103Y-110012658D01*
X146384106Y-110012667D01*
X146451983Y-110176540D01*
X146451990Y-110176553D01*
X146538557Y-110306109D01*
X146559435Y-110372787D01*
X146540950Y-110440167D01*
X146538557Y-110443891D01*
X146451990Y-110573446D01*
X146451983Y-110573459D01*
X146384106Y-110737332D01*
X146384103Y-110737341D01*
X146349500Y-110911304D01*
X146349500Y-111088695D01*
X146384103Y-111262658D01*
X146384106Y-111262667D01*
X146451983Y-111426540D01*
X146451990Y-111426553D01*
X146538557Y-111556109D01*
X146559435Y-111622787D01*
X146540950Y-111690167D01*
X146538557Y-111693891D01*
X146451990Y-111823446D01*
X146451983Y-111823459D01*
X146384106Y-111987332D01*
X146384103Y-111987341D01*
X146349500Y-112161304D01*
X146349500Y-112338695D01*
X146384103Y-112512658D01*
X146384106Y-112512667D01*
X146451983Y-112676540D01*
X146451990Y-112676553D01*
X146550535Y-112824034D01*
X146550538Y-112824038D01*
X146675961Y-112949461D01*
X146675965Y-112949464D01*
X146823446Y-113048009D01*
X146823459Y-113048016D01*
X146946363Y-113098923D01*
X146987334Y-113115894D01*
X146987336Y-113115894D01*
X146987341Y-113115896D01*
X147161304Y-113150499D01*
X147161307Y-113150500D01*
X147161309Y-113150500D01*
X147838693Y-113150500D01*
X147838694Y-113150499D01*
X147896682Y-113138964D01*
X148012658Y-113115896D01*
X148012661Y-113115894D01*
X148012666Y-113115894D01*
X148176547Y-113048013D01*
X148324035Y-112949464D01*
X148449464Y-112824035D01*
X148548013Y-112676547D01*
X148615894Y-112512666D01*
X148627923Y-112452196D01*
X148650499Y-112338695D01*
X148650500Y-112338693D01*
X148650500Y-112161306D01*
X148650499Y-112161304D01*
X148615896Y-111987341D01*
X148615893Y-111987332D01*
X148548016Y-111823459D01*
X148548014Y-111823455D01*
X148548013Y-111823453D01*
X148461442Y-111693891D01*
X148440564Y-111627214D01*
X148459048Y-111559834D01*
X148461442Y-111556109D01*
X148505738Y-111489815D01*
X148548013Y-111426547D01*
X148615894Y-111262666D01*
X148650500Y-111088691D01*
X148650500Y-110911309D01*
X148650500Y-110911306D01*
X148650499Y-110911304D01*
X148615896Y-110737341D01*
X148615893Y-110737332D01*
X148548016Y-110573459D01*
X148548014Y-110573455D01*
X148548013Y-110573453D01*
X148464486Y-110448447D01*
X148461442Y-110443891D01*
X148440564Y-110377214D01*
X148459048Y-110309834D01*
X148461442Y-110306109D01*
X148477352Y-110282296D01*
X148548013Y-110176547D01*
X148615894Y-110012666D01*
X148616478Y-110009733D01*
X148650499Y-109838695D01*
X148650500Y-109838693D01*
X148650500Y-109661306D01*
X148650499Y-109661304D01*
X148615896Y-109487341D01*
X148615893Y-109487332D01*
X148548016Y-109323459D01*
X148548014Y-109323455D01*
X148548013Y-109323453D01*
X148464486Y-109198447D01*
X148461442Y-109193891D01*
X148440564Y-109127214D01*
X148459048Y-109059834D01*
X148461442Y-109056109D01*
X148477352Y-109032296D01*
X148548013Y-108926547D01*
X148615894Y-108762666D01*
X148650500Y-108588691D01*
X148650500Y-108493386D01*
X165224500Y-108493386D01*
X165224500Y-109506613D01*
X165230913Y-109577192D01*
X165230913Y-109577194D01*
X165230914Y-109577196D01*
X165281522Y-109739606D01*
X165341422Y-109838693D01*
X165369530Y-109885188D01*
X165489811Y-110005469D01*
X165489813Y-110005470D01*
X165489815Y-110005472D01*
X165635394Y-110093478D01*
X165797804Y-110144086D01*
X165868384Y-110150500D01*
X165868387Y-110150500D01*
X166381613Y-110150500D01*
X166381616Y-110150500D01*
X166452196Y-110144086D01*
X166614606Y-110093478D01*
X166758125Y-110006717D01*
X166825676Y-109988882D01*
X166891162Y-110009733D01*
X166948450Y-110048011D01*
X166948457Y-110048015D01*
X166956999Y-110051553D01*
X167112334Y-110115894D01*
X167112336Y-110115894D01*
X167112341Y-110115896D01*
X167286304Y-110150499D01*
X167286307Y-110150500D01*
X167286309Y-110150500D01*
X167463693Y-110150500D01*
X167463694Y-110150499D01*
X167521682Y-110138964D01*
X167637658Y-110115896D01*
X167637661Y-110115894D01*
X167637666Y-110115894D01*
X167801547Y-110048013D01*
X167931109Y-109961442D01*
X167997786Y-109940564D01*
X168065166Y-109959048D01*
X168068891Y-109961442D01*
X168198453Y-110048013D01*
X168198455Y-110048014D01*
X168198459Y-110048016D01*
X168308214Y-110093477D01*
X168362334Y-110115894D01*
X168362336Y-110115894D01*
X168362341Y-110115896D01*
X168536304Y-110150499D01*
X168536307Y-110150500D01*
X168536309Y-110150500D01*
X168713693Y-110150500D01*
X168713694Y-110150499D01*
X168771682Y-110138964D01*
X168887658Y-110115896D01*
X168887661Y-110115894D01*
X168887666Y-110115894D01*
X169051547Y-110048013D01*
X169181109Y-109961442D01*
X169247786Y-109940564D01*
X169315166Y-109959048D01*
X169318891Y-109961442D01*
X169448453Y-110048013D01*
X169448455Y-110048014D01*
X169448459Y-110048016D01*
X169558214Y-110093477D01*
X169612334Y-110115894D01*
X169612336Y-110115894D01*
X169612341Y-110115896D01*
X169786304Y-110150499D01*
X169786307Y-110150500D01*
X169786309Y-110150500D01*
X169963693Y-110150500D01*
X169963694Y-110150499D01*
X170021682Y-110138964D01*
X170137658Y-110115896D01*
X170137661Y-110115894D01*
X170137666Y-110115894D01*
X170301547Y-110048013D01*
X170431109Y-109961442D01*
X170497786Y-109940564D01*
X170565166Y-109959048D01*
X170568891Y-109961442D01*
X170698453Y-110048013D01*
X170698455Y-110048014D01*
X170698459Y-110048016D01*
X170808214Y-110093477D01*
X170862334Y-110115894D01*
X170862336Y-110115894D01*
X170862341Y-110115896D01*
X171036304Y-110150499D01*
X171036307Y-110150500D01*
X171036309Y-110150500D01*
X171213693Y-110150500D01*
X171213694Y-110150499D01*
X171271682Y-110138964D01*
X171387658Y-110115896D01*
X171387661Y-110115894D01*
X171387666Y-110115894D01*
X171551547Y-110048013D01*
X171681109Y-109961442D01*
X171747786Y-109940564D01*
X171815166Y-109959048D01*
X171818891Y-109961442D01*
X171948453Y-110048013D01*
X171948455Y-110048014D01*
X171948459Y-110048016D01*
X172058214Y-110093477D01*
X172112334Y-110115894D01*
X172112336Y-110115894D01*
X172112341Y-110115896D01*
X172286304Y-110150499D01*
X172286307Y-110150500D01*
X172286309Y-110150500D01*
X172463693Y-110150500D01*
X172463694Y-110150499D01*
X172521682Y-110138964D01*
X172637658Y-110115896D01*
X172637661Y-110115894D01*
X172637666Y-110115894D01*
X172801547Y-110048013D01*
X172931109Y-109961442D01*
X172997786Y-109940564D01*
X173065166Y-109959048D01*
X173068891Y-109961442D01*
X173198453Y-110048013D01*
X173198455Y-110048014D01*
X173198459Y-110048016D01*
X173308214Y-110093477D01*
X173362334Y-110115894D01*
X173362336Y-110115894D01*
X173362341Y-110115896D01*
X173536304Y-110150499D01*
X173536307Y-110150500D01*
X173536309Y-110150500D01*
X173713693Y-110150500D01*
X173713694Y-110150499D01*
X173771682Y-110138964D01*
X173887658Y-110115896D01*
X173887661Y-110115894D01*
X173887666Y-110115894D01*
X174051547Y-110048013D01*
X174181109Y-109961442D01*
X174247786Y-109940564D01*
X174315166Y-109959048D01*
X174318891Y-109961442D01*
X174448453Y-110048013D01*
X174448455Y-110048014D01*
X174448459Y-110048016D01*
X174558214Y-110093477D01*
X174612334Y-110115894D01*
X174612336Y-110115894D01*
X174612341Y-110115896D01*
X174786304Y-110150499D01*
X174786307Y-110150500D01*
X174786309Y-110150500D01*
X174963693Y-110150500D01*
X174963694Y-110150499D01*
X175021682Y-110138964D01*
X175137658Y-110115896D01*
X175137661Y-110115894D01*
X175137666Y-110115894D01*
X175301547Y-110048013D01*
X175449035Y-109949464D01*
X175574464Y-109824035D01*
X175673013Y-109676547D01*
X175740894Y-109512666D01*
X175742098Y-109506616D01*
X175775499Y-109338695D01*
X175775500Y-109338693D01*
X175775500Y-108661306D01*
X175775499Y-108661304D01*
X175740896Y-108487341D01*
X175740893Y-108487332D01*
X175731102Y-108463695D01*
X175709402Y-108411304D01*
X175673016Y-108323459D01*
X175673009Y-108323446D01*
X175574464Y-108175965D01*
X175574461Y-108175961D01*
X175449038Y-108050538D01*
X175449034Y-108050535D01*
X175301553Y-107951990D01*
X175301540Y-107951983D01*
X175137667Y-107884106D01*
X175137658Y-107884103D01*
X174963694Y-107849500D01*
X174963691Y-107849500D01*
X174786309Y-107849500D01*
X174786306Y-107849500D01*
X174612341Y-107884103D01*
X174612332Y-107884106D01*
X174448459Y-107951983D01*
X174448446Y-107951990D01*
X174318891Y-108038557D01*
X174252213Y-108059435D01*
X174184833Y-108040950D01*
X174181109Y-108038557D01*
X174051553Y-107951990D01*
X174051540Y-107951983D01*
X173887667Y-107884106D01*
X173887658Y-107884103D01*
X173713694Y-107849500D01*
X173713691Y-107849500D01*
X173536309Y-107849500D01*
X173536306Y-107849500D01*
X173362341Y-107884103D01*
X173362332Y-107884106D01*
X173198459Y-107951983D01*
X173198446Y-107951990D01*
X173068891Y-108038557D01*
X173002213Y-108059435D01*
X172934833Y-108040950D01*
X172931109Y-108038557D01*
X172801553Y-107951990D01*
X172801540Y-107951983D01*
X172637667Y-107884106D01*
X172637658Y-107884103D01*
X172463694Y-107849500D01*
X172463691Y-107849500D01*
X172286309Y-107849500D01*
X172286306Y-107849500D01*
X172112341Y-107884103D01*
X172112332Y-107884106D01*
X171948459Y-107951983D01*
X171948446Y-107951990D01*
X171818891Y-108038557D01*
X171752213Y-108059435D01*
X171684833Y-108040950D01*
X171681109Y-108038557D01*
X171551553Y-107951990D01*
X171551540Y-107951983D01*
X171387667Y-107884106D01*
X171387658Y-107884103D01*
X171213694Y-107849500D01*
X171213691Y-107849500D01*
X171036309Y-107849500D01*
X171036306Y-107849500D01*
X170862341Y-107884103D01*
X170862332Y-107884106D01*
X170698459Y-107951983D01*
X170698446Y-107951990D01*
X170568891Y-108038557D01*
X170502213Y-108059435D01*
X170434833Y-108040950D01*
X170431109Y-108038557D01*
X170301553Y-107951990D01*
X170301540Y-107951983D01*
X170137667Y-107884106D01*
X170137658Y-107884103D01*
X169963694Y-107849500D01*
X169963691Y-107849500D01*
X169786309Y-107849500D01*
X169786306Y-107849500D01*
X169612341Y-107884103D01*
X169612332Y-107884106D01*
X169448459Y-107951983D01*
X169448446Y-107951990D01*
X169318891Y-108038557D01*
X169252213Y-108059435D01*
X169184833Y-108040950D01*
X169181109Y-108038557D01*
X169051553Y-107951990D01*
X169051540Y-107951983D01*
X168887667Y-107884106D01*
X168887658Y-107884103D01*
X168713694Y-107849500D01*
X168713691Y-107849500D01*
X168536309Y-107849500D01*
X168536306Y-107849500D01*
X168362341Y-107884103D01*
X168362332Y-107884106D01*
X168198459Y-107951983D01*
X168198446Y-107951990D01*
X168068891Y-108038557D01*
X168002213Y-108059435D01*
X167934833Y-108040950D01*
X167931109Y-108038557D01*
X167801553Y-107951990D01*
X167801540Y-107951983D01*
X167637667Y-107884106D01*
X167637658Y-107884103D01*
X167463694Y-107849500D01*
X167463691Y-107849500D01*
X167286309Y-107849500D01*
X167286306Y-107849500D01*
X167112341Y-107884103D01*
X167112332Y-107884106D01*
X166948460Y-107951983D01*
X166948449Y-107951989D01*
X166891162Y-107990267D01*
X166824484Y-108011144D01*
X166758122Y-107993281D01*
X166676421Y-107943891D01*
X166614606Y-107906522D01*
X166452196Y-107855914D01*
X166452194Y-107855913D01*
X166452192Y-107855913D01*
X166402778Y-107851423D01*
X166381616Y-107849500D01*
X165868384Y-107849500D01*
X165849145Y-107851248D01*
X165797807Y-107855913D01*
X165635393Y-107906522D01*
X165489811Y-107994530D01*
X165369530Y-108114811D01*
X165281522Y-108260393D01*
X165230913Y-108422807D01*
X165224500Y-108493386D01*
X148650500Y-108493386D01*
X148650500Y-108411309D01*
X148650500Y-108411306D01*
X148650499Y-108411304D01*
X148615896Y-108237341D01*
X148615893Y-108237332D01*
X148548016Y-108073459D01*
X148548014Y-108073455D01*
X148548013Y-108073453D01*
X148495277Y-107994528D01*
X148461442Y-107943891D01*
X148440564Y-107877214D01*
X148459048Y-107809834D01*
X148461442Y-107806109D01*
X148477352Y-107782296D01*
X148548013Y-107676547D01*
X148615894Y-107512666D01*
X148650500Y-107338691D01*
X148650500Y-107161309D01*
X148650500Y-107161306D01*
X148650499Y-107161304D01*
X148615896Y-106987341D01*
X148615893Y-106987332D01*
X148548016Y-106823459D01*
X148548014Y-106823455D01*
X148548013Y-106823453D01*
X148464486Y-106698447D01*
X148461442Y-106693891D01*
X148440564Y-106627214D01*
X148459048Y-106559834D01*
X148461442Y-106556109D01*
X148477352Y-106532296D01*
X148548013Y-106426547D01*
X148615894Y-106262666D01*
X148650500Y-106088691D01*
X148650500Y-105911309D01*
X148650500Y-105911306D01*
X148650499Y-105911304D01*
X148625635Y-105786304D01*
X199149500Y-105786304D01*
X199149500Y-105963695D01*
X199184103Y-106137658D01*
X199184106Y-106137667D01*
X199251983Y-106301540D01*
X199251990Y-106301553D01*
X199338557Y-106431109D01*
X199359435Y-106497787D01*
X199340950Y-106565167D01*
X199338557Y-106568891D01*
X199251990Y-106698446D01*
X199251983Y-106698459D01*
X199184106Y-106862332D01*
X199184103Y-106862341D01*
X199149500Y-107036304D01*
X199149500Y-107213695D01*
X199184103Y-107387658D01*
X199184106Y-107387667D01*
X199251983Y-107551540D01*
X199251990Y-107551553D01*
X199338557Y-107681109D01*
X199359435Y-107747787D01*
X199340950Y-107815167D01*
X199338557Y-107818891D01*
X199251990Y-107948446D01*
X199251983Y-107948459D01*
X199184106Y-108112332D01*
X199184103Y-108112341D01*
X199149500Y-108286304D01*
X199149500Y-108463695D01*
X199184103Y-108637658D01*
X199184106Y-108637667D01*
X199251983Y-108801540D01*
X199251990Y-108801553D01*
X199338557Y-108931109D01*
X199359435Y-108997787D01*
X199340950Y-109065167D01*
X199338557Y-109068891D01*
X199251990Y-109198446D01*
X199251983Y-109198459D01*
X199184106Y-109362332D01*
X199184103Y-109362341D01*
X199149500Y-109536304D01*
X199149500Y-109713695D01*
X199184103Y-109887658D01*
X199184106Y-109887667D01*
X199251983Y-110051540D01*
X199251990Y-110051553D01*
X199338557Y-110181109D01*
X199359435Y-110247787D01*
X199340950Y-110315167D01*
X199338557Y-110318891D01*
X199251990Y-110448446D01*
X199251983Y-110448459D01*
X199184106Y-110612332D01*
X199184103Y-110612341D01*
X199149500Y-110786304D01*
X199149500Y-110963695D01*
X199184103Y-111137658D01*
X199184106Y-111137667D01*
X199251983Y-111301540D01*
X199251991Y-111301555D01*
X199290265Y-111358834D01*
X199311144Y-111425511D01*
X199293281Y-111491875D01*
X199206523Y-111635391D01*
X199155913Y-111797807D01*
X199149500Y-111868386D01*
X199149500Y-112381613D01*
X199155913Y-112452192D01*
X199155913Y-112452194D01*
X199155914Y-112452196D01*
X199206522Y-112614606D01*
X199243970Y-112676553D01*
X199294530Y-112760188D01*
X199414811Y-112880469D01*
X199414813Y-112880470D01*
X199414815Y-112880472D01*
X199560394Y-112968478D01*
X199722804Y-113019086D01*
X199793384Y-113025500D01*
X199793387Y-113025500D01*
X200806613Y-113025500D01*
X200806616Y-113025500D01*
X200877196Y-113019086D01*
X201039606Y-112968478D01*
X201185185Y-112880472D01*
X201305472Y-112760185D01*
X201393478Y-112614606D01*
X201444086Y-112452196D01*
X201450500Y-112381616D01*
X201450500Y-111868384D01*
X201444086Y-111797804D01*
X201393478Y-111635394D01*
X201306716Y-111491873D01*
X201288881Y-111424322D01*
X201309731Y-111358839D01*
X201348013Y-111301547D01*
X201415894Y-111137666D01*
X201425636Y-111088693D01*
X201450499Y-110963695D01*
X201450500Y-110963693D01*
X201450500Y-110786306D01*
X201450499Y-110786304D01*
X201415896Y-110612341D01*
X201415893Y-110612332D01*
X201348016Y-110448459D01*
X201348014Y-110448455D01*
X201348013Y-110448453D01*
X201261442Y-110318891D01*
X201240564Y-110252214D01*
X201259048Y-110184834D01*
X201261442Y-110181109D01*
X201319996Y-110093477D01*
X201348013Y-110051547D01*
X201349479Y-110048009D01*
X201365333Y-110009733D01*
X201415894Y-109887666D01*
X201425636Y-109838693D01*
X201450499Y-109713695D01*
X201450500Y-109713693D01*
X201450500Y-109536306D01*
X201450499Y-109536304D01*
X201415896Y-109362341D01*
X201415893Y-109362332D01*
X201406102Y-109338695D01*
X201398923Y-109321363D01*
X201348016Y-109198459D01*
X201348014Y-109198455D01*
X201348013Y-109198453D01*
X201261442Y-109068891D01*
X201240564Y-109002214D01*
X201259048Y-108934834D01*
X201261442Y-108931109D01*
X201277352Y-108907296D01*
X201348013Y-108801547D01*
X201415894Y-108637666D01*
X201425636Y-108588693D01*
X201450499Y-108463695D01*
X201450500Y-108463693D01*
X201450500Y-108286306D01*
X201450499Y-108286304D01*
X201415896Y-108112341D01*
X201415893Y-108112332D01*
X201348016Y-107948459D01*
X201348014Y-107948455D01*
X201348013Y-107948453D01*
X201261442Y-107818891D01*
X201240564Y-107752214D01*
X201259048Y-107684834D01*
X201261442Y-107681109D01*
X201277352Y-107657296D01*
X201348013Y-107551547D01*
X201415894Y-107387666D01*
X201425636Y-107338693D01*
X201450499Y-107213695D01*
X201450500Y-107213693D01*
X201450500Y-107036306D01*
X201450499Y-107036304D01*
X201415896Y-106862341D01*
X201415893Y-106862332D01*
X201348016Y-106698459D01*
X201348014Y-106698455D01*
X201348013Y-106698453D01*
X201261442Y-106568891D01*
X201240564Y-106502214D01*
X201259048Y-106434834D01*
X201261442Y-106431109D01*
X201277352Y-106407296D01*
X201348013Y-106301547D01*
X201415894Y-106137666D01*
X201425636Y-106088693D01*
X201450499Y-105963695D01*
X201450500Y-105963693D01*
X201450500Y-105786306D01*
X201450499Y-105786304D01*
X201415896Y-105612341D01*
X201415893Y-105612332D01*
X201348016Y-105448459D01*
X201348009Y-105448446D01*
X201249464Y-105300965D01*
X201249461Y-105300961D01*
X201124038Y-105175538D01*
X201124034Y-105175535D01*
X200976553Y-105076990D01*
X200976540Y-105076983D01*
X200812667Y-105009106D01*
X200812658Y-105009103D01*
X200638694Y-104974500D01*
X200638691Y-104974500D01*
X199961309Y-104974500D01*
X199961306Y-104974500D01*
X199787341Y-105009103D01*
X199787332Y-105009106D01*
X199623459Y-105076983D01*
X199623446Y-105076990D01*
X199475965Y-105175535D01*
X199475961Y-105175538D01*
X199350538Y-105300961D01*
X199350535Y-105300965D01*
X199251990Y-105448446D01*
X199251983Y-105448459D01*
X199184106Y-105612332D01*
X199184103Y-105612341D01*
X199149500Y-105786304D01*
X148625635Y-105786304D01*
X148615896Y-105737341D01*
X148615893Y-105737332D01*
X148548016Y-105573459D01*
X148548014Y-105573455D01*
X148548013Y-105573453D01*
X148464490Y-105448453D01*
X148461442Y-105443891D01*
X148440564Y-105377214D01*
X148459048Y-105309834D01*
X148461442Y-105306109D01*
X148477352Y-105282296D01*
X148548013Y-105176547D01*
X148615894Y-105012666D01*
X148616603Y-105009106D01*
X148650499Y-104838695D01*
X148650500Y-104838693D01*
X148650500Y-104661306D01*
X148650499Y-104661304D01*
X148615896Y-104487341D01*
X148615893Y-104487332D01*
X148548015Y-104323457D01*
X148548011Y-104323450D01*
X148509733Y-104266162D01*
X148488855Y-104199485D01*
X148506717Y-104133125D01*
X148593478Y-103989606D01*
X148644086Y-103827196D01*
X148650500Y-103756616D01*
X148650500Y-103243384D01*
X148644086Y-103172804D01*
X148593478Y-103010394D01*
X148505472Y-102864815D01*
X148505470Y-102864813D01*
X148505469Y-102864811D01*
X148385188Y-102744530D01*
X148239606Y-102656522D01*
X148077196Y-102605914D01*
X148077194Y-102605913D01*
X148077192Y-102605913D01*
X148027778Y-102601423D01*
X148006616Y-102599500D01*
X146993384Y-102599500D01*
X146974145Y-102601248D01*
X146922807Y-102605913D01*
X146760393Y-102656522D01*
X146614811Y-102744530D01*
X146494530Y-102864811D01*
X146406522Y-103010393D01*
X146355913Y-103172807D01*
X146349500Y-103243386D01*
X142000000Y-103243386D01*
X142000000Y-97877135D01*
X142724500Y-97877135D01*
X142724500Y-100372870D01*
X142724501Y-100372876D01*
X142730908Y-100432483D01*
X142781202Y-100567328D01*
X142781206Y-100567335D01*
X142867452Y-100682544D01*
X142867455Y-100682547D01*
X142982664Y-100768793D01*
X142982671Y-100768797D01*
X143117517Y-100819091D01*
X143117516Y-100819091D01*
X143124444Y-100819835D01*
X143177127Y-100825500D01*
X144872872Y-100825499D01*
X144932483Y-100819091D01*
X145067331Y-100768796D01*
X145182546Y-100682546D01*
X145268796Y-100567331D01*
X145319091Y-100432483D01*
X145323061Y-100395556D01*
X145349796Y-100331011D01*
X145407188Y-100291161D01*
X145477013Y-100288666D01*
X145537102Y-100324317D01*
X145546667Y-100335929D01*
X145573032Y-100372217D01*
X145717786Y-100516971D01*
X145872749Y-100629556D01*
X145883390Y-100637287D01*
X145971788Y-100682328D01*
X146065776Y-100730218D01*
X146065778Y-100730218D01*
X146065781Y-100730220D01*
X146170137Y-100764127D01*
X146260465Y-100793477D01*
X146361557Y-100809488D01*
X146462648Y-100825500D01*
X146462649Y-100825500D01*
X146667351Y-100825500D01*
X146667352Y-100825500D01*
X146869534Y-100793477D01*
X147064219Y-100730220D01*
X147246610Y-100637287D01*
X147342901Y-100567328D01*
X147412213Y-100516971D01*
X147412215Y-100516968D01*
X147412219Y-100516966D01*
X147556966Y-100372219D01*
X147556968Y-100372215D01*
X147556971Y-100372213D01*
X147677284Y-100206614D01*
X147677283Y-100206614D01*
X147677287Y-100206610D01*
X147724516Y-100113917D01*
X147772489Y-100063123D01*
X147840310Y-100046328D01*
X147906445Y-100068865D01*
X147945483Y-100113917D01*
X147978198Y-100178123D01*
X147992715Y-100206614D01*
X148113028Y-100372213D01*
X148257786Y-100516971D01*
X148412749Y-100629556D01*
X148423390Y-100637287D01*
X148511788Y-100682328D01*
X148605776Y-100730218D01*
X148605778Y-100730218D01*
X148605781Y-100730220D01*
X148710137Y-100764127D01*
X148800465Y-100793477D01*
X148901557Y-100809488D01*
X149002648Y-100825500D01*
X149002649Y-100825500D01*
X149207351Y-100825500D01*
X149207352Y-100825500D01*
X149409534Y-100793477D01*
X149604219Y-100730220D01*
X149786610Y-100637287D01*
X149882901Y-100567328D01*
X149952213Y-100516971D01*
X149952215Y-100516968D01*
X149952219Y-100516966D01*
X150096966Y-100372219D01*
X150096968Y-100372215D01*
X150096971Y-100372213D01*
X150217284Y-100206614D01*
X150217283Y-100206614D01*
X150217287Y-100206610D01*
X150264516Y-100113917D01*
X150312489Y-100063123D01*
X150380310Y-100046328D01*
X150446445Y-100068865D01*
X150485483Y-100113917D01*
X150518198Y-100178123D01*
X150532715Y-100206614D01*
X150653028Y-100372213D01*
X150797786Y-100516971D01*
X150952749Y-100629556D01*
X150963390Y-100637287D01*
X151051788Y-100682328D01*
X151145776Y-100730218D01*
X151145778Y-100730218D01*
X151145781Y-100730220D01*
X151250137Y-100764127D01*
X151340465Y-100793477D01*
X151441557Y-100809488D01*
X151542648Y-100825500D01*
X151542649Y-100825500D01*
X151747351Y-100825500D01*
X151747352Y-100825500D01*
X151949534Y-100793477D01*
X152144219Y-100730220D01*
X152326610Y-100637287D01*
X152422901Y-100567328D01*
X152492213Y-100516971D01*
X152492215Y-100516968D01*
X152492219Y-100516966D01*
X152636966Y-100372219D01*
X152636968Y-100372215D01*
X152636971Y-100372213D01*
X152757284Y-100206614D01*
X152757283Y-100206614D01*
X152757287Y-100206610D01*
X152804516Y-100113917D01*
X152852489Y-100063123D01*
X152920310Y-100046328D01*
X152986445Y-100068865D01*
X153025483Y-100113917D01*
X153058198Y-100178123D01*
X153072715Y-100206614D01*
X153193028Y-100372213D01*
X153337786Y-100516971D01*
X153492749Y-100629556D01*
X153503390Y-100637287D01*
X153591788Y-100682328D01*
X153685776Y-100730218D01*
X153685778Y-100730218D01*
X153685781Y-100730220D01*
X153790137Y-100764127D01*
X153880465Y-100793477D01*
X153981557Y-100809488D01*
X154082648Y-100825500D01*
X154082649Y-100825500D01*
X154287351Y-100825500D01*
X154287352Y-100825500D01*
X154489534Y-100793477D01*
X154684219Y-100730220D01*
X154866610Y-100637287D01*
X154962901Y-100567328D01*
X155032213Y-100516971D01*
X155032215Y-100516968D01*
X155032219Y-100516966D01*
X155176966Y-100372219D01*
X155176968Y-100372215D01*
X155176971Y-100372213D01*
X155297284Y-100206614D01*
X155297283Y-100206614D01*
X155297287Y-100206610D01*
X155344516Y-100113917D01*
X155392489Y-100063123D01*
X155460310Y-100046328D01*
X155526445Y-100068865D01*
X155565483Y-100113917D01*
X155598198Y-100178123D01*
X155612715Y-100206614D01*
X155733028Y-100372213D01*
X155877786Y-100516971D01*
X156032749Y-100629556D01*
X156043390Y-100637287D01*
X156131788Y-100682328D01*
X156225776Y-100730218D01*
X156225778Y-100730218D01*
X156225781Y-100730220D01*
X156330137Y-100764127D01*
X156420465Y-100793477D01*
X156521557Y-100809488D01*
X156622648Y-100825500D01*
X156622649Y-100825500D01*
X156827351Y-100825500D01*
X156827352Y-100825500D01*
X157029534Y-100793477D01*
X157224219Y-100730220D01*
X157406610Y-100637287D01*
X157502901Y-100567328D01*
X157572213Y-100516971D01*
X157572215Y-100516968D01*
X157572219Y-100516966D01*
X157716966Y-100372219D01*
X157716968Y-100372215D01*
X157716971Y-100372213D01*
X157837284Y-100206614D01*
X157837283Y-100206614D01*
X157837287Y-100206610D01*
X157884516Y-100113917D01*
X157932489Y-100063123D01*
X158000310Y-100046328D01*
X158066445Y-100068865D01*
X158105483Y-100113917D01*
X158138198Y-100178123D01*
X158152715Y-100206614D01*
X158273028Y-100372213D01*
X158417786Y-100516971D01*
X158572749Y-100629556D01*
X158583390Y-100637287D01*
X158671788Y-100682328D01*
X158765776Y-100730218D01*
X158765778Y-100730218D01*
X158765781Y-100730220D01*
X158870137Y-100764127D01*
X158960465Y-100793477D01*
X159061557Y-100809488D01*
X159162648Y-100825500D01*
X159162649Y-100825500D01*
X159367351Y-100825500D01*
X159367352Y-100825500D01*
X159569534Y-100793477D01*
X159764219Y-100730220D01*
X159946610Y-100637287D01*
X160042901Y-100567328D01*
X160112213Y-100516971D01*
X160112215Y-100516968D01*
X160112219Y-100516966D01*
X160256966Y-100372219D01*
X160256968Y-100372215D01*
X160256971Y-100372213D01*
X160377284Y-100206614D01*
X160377283Y-100206614D01*
X160377287Y-100206610D01*
X160424516Y-100113917D01*
X160472489Y-100063123D01*
X160540310Y-100046328D01*
X160606445Y-100068865D01*
X160645483Y-100113917D01*
X160678198Y-100178123D01*
X160692715Y-100206614D01*
X160813028Y-100372213D01*
X160957786Y-100516971D01*
X161112749Y-100629556D01*
X161123390Y-100637287D01*
X161211788Y-100682328D01*
X161305776Y-100730218D01*
X161305778Y-100730218D01*
X161305781Y-100730220D01*
X161410137Y-100764127D01*
X161500465Y-100793477D01*
X161601557Y-100809488D01*
X161702648Y-100825500D01*
X161702649Y-100825500D01*
X161907351Y-100825500D01*
X161907352Y-100825500D01*
X162109534Y-100793477D01*
X162304219Y-100730220D01*
X162486610Y-100637287D01*
X162582901Y-100567328D01*
X162652213Y-100516971D01*
X162652215Y-100516968D01*
X162652219Y-100516966D01*
X162796966Y-100372219D01*
X162796968Y-100372215D01*
X162796971Y-100372213D01*
X162917284Y-100206614D01*
X162917283Y-100206614D01*
X162917287Y-100206610D01*
X162964516Y-100113917D01*
X163012489Y-100063123D01*
X163080310Y-100046328D01*
X163146445Y-100068865D01*
X163185483Y-100113917D01*
X163218198Y-100178123D01*
X163232715Y-100206614D01*
X163353028Y-100372213D01*
X163497786Y-100516971D01*
X163652749Y-100629556D01*
X163663390Y-100637287D01*
X163751788Y-100682328D01*
X163845776Y-100730218D01*
X163845778Y-100730218D01*
X163845781Y-100730220D01*
X163950137Y-100764127D01*
X164040465Y-100793477D01*
X164141557Y-100809488D01*
X164242648Y-100825500D01*
X164242649Y-100825500D01*
X164447351Y-100825500D01*
X164447352Y-100825500D01*
X164649534Y-100793477D01*
X164844219Y-100730220D01*
X165026610Y-100637287D01*
X165122901Y-100567328D01*
X165192213Y-100516971D01*
X165192215Y-100516968D01*
X165192219Y-100516966D01*
X165336966Y-100372219D01*
X165336968Y-100372215D01*
X165336971Y-100372213D01*
X165457284Y-100206614D01*
X165457283Y-100206614D01*
X165457287Y-100206610D01*
X165504516Y-100113917D01*
X165552489Y-100063123D01*
X165620310Y-100046328D01*
X165686445Y-100068865D01*
X165725483Y-100113917D01*
X165758198Y-100178123D01*
X165772715Y-100206614D01*
X165893028Y-100372213D01*
X166037786Y-100516971D01*
X166192749Y-100629556D01*
X166203390Y-100637287D01*
X166291788Y-100682328D01*
X166385776Y-100730218D01*
X166385778Y-100730218D01*
X166385781Y-100730220D01*
X166490137Y-100764127D01*
X166580465Y-100793477D01*
X166681557Y-100809488D01*
X166782648Y-100825500D01*
X166782649Y-100825500D01*
X166987351Y-100825500D01*
X166987352Y-100825500D01*
X167189534Y-100793477D01*
X167384219Y-100730220D01*
X167566610Y-100637287D01*
X167662901Y-100567328D01*
X167732213Y-100516971D01*
X167732215Y-100516968D01*
X167732219Y-100516966D01*
X167876966Y-100372219D01*
X167876968Y-100372215D01*
X167876971Y-100372213D01*
X167997284Y-100206614D01*
X167997283Y-100206614D01*
X167997287Y-100206610D01*
X168044516Y-100113917D01*
X168092489Y-100063123D01*
X168160310Y-100046328D01*
X168226445Y-100068865D01*
X168265483Y-100113917D01*
X168298198Y-100178123D01*
X168312715Y-100206614D01*
X168433028Y-100372213D01*
X168577786Y-100516971D01*
X168732749Y-100629556D01*
X168743390Y-100637287D01*
X168831788Y-100682328D01*
X168925776Y-100730218D01*
X168925778Y-100730218D01*
X168925781Y-100730220D01*
X169030137Y-100764127D01*
X169120465Y-100793477D01*
X169221557Y-100809488D01*
X169322648Y-100825500D01*
X169322649Y-100825500D01*
X169527351Y-100825500D01*
X169527352Y-100825500D01*
X169729534Y-100793477D01*
X169924219Y-100730220D01*
X170106610Y-100637287D01*
X170202901Y-100567328D01*
X170272213Y-100516971D01*
X170272215Y-100516968D01*
X170272219Y-100516966D01*
X170416966Y-100372219D01*
X170416968Y-100372215D01*
X170416971Y-100372213D01*
X170537284Y-100206614D01*
X170537283Y-100206614D01*
X170537287Y-100206610D01*
X170584795Y-100113369D01*
X170632770Y-100062574D01*
X170700591Y-100045779D01*
X170766725Y-100068316D01*
X170805765Y-100113370D01*
X170853140Y-100206349D01*
X170973417Y-100371894D01*
X170973417Y-100371895D01*
X171118104Y-100516582D01*
X171283650Y-100636859D01*
X171465968Y-100729754D01*
X171660578Y-100792988D01*
X171715000Y-100801607D01*
X171715000Y-99440686D01*
X171719394Y-99445080D01*
X171810606Y-99497741D01*
X171912339Y-99525000D01*
X172017661Y-99525000D01*
X172119394Y-99497741D01*
X172210606Y-99445080D01*
X172215000Y-99440686D01*
X172215000Y-100801606D01*
X172269421Y-100792988D01*
X172464031Y-100729754D01*
X172646349Y-100636859D01*
X172811894Y-100516582D01*
X172811895Y-100516582D01*
X172956582Y-100371895D01*
X172956582Y-100371894D01*
X173076859Y-100206349D01*
X173169755Y-100024031D01*
X173232990Y-99829417D01*
X173265000Y-99627317D01*
X173265000Y-99375000D01*
X172280686Y-99375000D01*
X172285080Y-99370606D01*
X172337741Y-99279394D01*
X172365000Y-99177661D01*
X172365000Y-99072339D01*
X172337741Y-98970606D01*
X172285080Y-98879394D01*
X172280686Y-98875000D01*
X173265000Y-98875000D01*
X173265000Y-98622682D01*
X173232990Y-98420582D01*
X173169755Y-98225968D01*
X173076859Y-98043650D01*
X173039431Y-97992135D01*
X174619500Y-97992135D01*
X174619500Y-100487870D01*
X174619501Y-100487876D01*
X174625908Y-100547483D01*
X174676202Y-100682328D01*
X174676206Y-100682335D01*
X174762452Y-100797544D01*
X174762455Y-100797547D01*
X174877664Y-100883793D01*
X174877671Y-100883797D01*
X175012517Y-100934091D01*
X175012516Y-100934091D01*
X175019444Y-100934835D01*
X175072127Y-100940500D01*
X176767872Y-100940499D01*
X176827483Y-100934091D01*
X176962331Y-100883796D01*
X177077546Y-100797546D01*
X177163796Y-100682331D01*
X177214091Y-100547483D01*
X177218061Y-100510556D01*
X177244796Y-100446011D01*
X177302188Y-100406161D01*
X177372013Y-100403666D01*
X177432102Y-100439317D01*
X177441667Y-100450929D01*
X177468032Y-100487217D01*
X177612786Y-100631971D01*
X177748014Y-100730218D01*
X177778390Y-100752287D01*
X177859230Y-100793477D01*
X177960776Y-100845218D01*
X177960778Y-100845218D01*
X177960781Y-100845220D01*
X178065137Y-100879127D01*
X178155465Y-100908477D01*
X178256557Y-100924488D01*
X178357648Y-100940500D01*
X178357649Y-100940500D01*
X178562351Y-100940500D01*
X178562352Y-100940500D01*
X178764534Y-100908477D01*
X178959219Y-100845220D01*
X179141610Y-100752287D01*
X179237901Y-100682328D01*
X179307213Y-100631971D01*
X179307215Y-100631968D01*
X179307219Y-100631966D01*
X179451966Y-100487219D01*
X179451968Y-100487215D01*
X179451971Y-100487213D01*
X179572284Y-100321614D01*
X179572283Y-100321614D01*
X179572287Y-100321610D01*
X179619516Y-100228917D01*
X179667489Y-100178123D01*
X179735310Y-100161328D01*
X179801445Y-100183865D01*
X179840483Y-100228917D01*
X179884348Y-100315006D01*
X179887715Y-100321614D01*
X180008028Y-100487213D01*
X180152786Y-100631971D01*
X180288014Y-100730218D01*
X180318390Y-100752287D01*
X180399230Y-100793477D01*
X180500776Y-100845218D01*
X180500778Y-100845218D01*
X180500781Y-100845220D01*
X180605137Y-100879127D01*
X180695465Y-100908477D01*
X180796557Y-100924488D01*
X180897648Y-100940500D01*
X180897649Y-100940500D01*
X181102351Y-100940500D01*
X181102352Y-100940500D01*
X181304534Y-100908477D01*
X181499219Y-100845220D01*
X181681610Y-100752287D01*
X181777901Y-100682328D01*
X181847213Y-100631971D01*
X181847215Y-100631968D01*
X181847219Y-100631966D01*
X181991966Y-100487219D01*
X181991968Y-100487215D01*
X181991971Y-100487213D01*
X182112284Y-100321614D01*
X182112283Y-100321614D01*
X182112287Y-100321610D01*
X182159516Y-100228917D01*
X182207489Y-100178123D01*
X182275310Y-100161328D01*
X182341445Y-100183865D01*
X182380483Y-100228917D01*
X182424348Y-100315006D01*
X182427715Y-100321614D01*
X182548028Y-100487213D01*
X182692786Y-100631971D01*
X182828014Y-100730218D01*
X182858390Y-100752287D01*
X182939230Y-100793477D01*
X183040776Y-100845218D01*
X183040778Y-100845218D01*
X183040781Y-100845220D01*
X183145137Y-100879127D01*
X183235465Y-100908477D01*
X183336557Y-100924488D01*
X183437648Y-100940500D01*
X183437649Y-100940500D01*
X183642351Y-100940500D01*
X183642352Y-100940500D01*
X183844534Y-100908477D01*
X184039219Y-100845220D01*
X184221610Y-100752287D01*
X184317901Y-100682328D01*
X184387213Y-100631971D01*
X184387215Y-100631968D01*
X184387219Y-100631966D01*
X184531966Y-100487219D01*
X184531968Y-100487215D01*
X184531971Y-100487213D01*
X184652284Y-100321614D01*
X184652283Y-100321614D01*
X184652287Y-100321610D01*
X184699516Y-100228917D01*
X184747489Y-100178123D01*
X184815310Y-100161328D01*
X184881445Y-100183865D01*
X184920483Y-100228917D01*
X184964348Y-100315006D01*
X184967715Y-100321614D01*
X185088028Y-100487213D01*
X185232786Y-100631971D01*
X185368014Y-100730218D01*
X185398390Y-100752287D01*
X185479230Y-100793477D01*
X185580776Y-100845218D01*
X185580778Y-100845218D01*
X185580781Y-100845220D01*
X185685137Y-100879127D01*
X185775465Y-100908477D01*
X185876557Y-100924488D01*
X185977648Y-100940500D01*
X185977649Y-100940500D01*
X186182351Y-100940500D01*
X186182352Y-100940500D01*
X186384534Y-100908477D01*
X186579219Y-100845220D01*
X186761610Y-100752287D01*
X186857901Y-100682328D01*
X186927213Y-100631971D01*
X186927215Y-100631968D01*
X186927219Y-100631966D01*
X187071966Y-100487219D01*
X187071968Y-100487215D01*
X187071971Y-100487213D01*
X187192284Y-100321614D01*
X187192283Y-100321614D01*
X187192287Y-100321610D01*
X187239516Y-100228917D01*
X187287489Y-100178123D01*
X187355310Y-100161328D01*
X187421445Y-100183865D01*
X187460483Y-100228917D01*
X187504348Y-100315006D01*
X187507715Y-100321614D01*
X187628028Y-100487213D01*
X187772786Y-100631971D01*
X187908014Y-100730218D01*
X187938390Y-100752287D01*
X188019230Y-100793477D01*
X188120776Y-100845218D01*
X188120778Y-100845218D01*
X188120781Y-100845220D01*
X188225137Y-100879127D01*
X188315465Y-100908477D01*
X188416557Y-100924488D01*
X188517648Y-100940500D01*
X188517649Y-100940500D01*
X188722351Y-100940500D01*
X188722352Y-100940500D01*
X188924534Y-100908477D01*
X189119219Y-100845220D01*
X189301610Y-100752287D01*
X189397901Y-100682328D01*
X189467213Y-100631971D01*
X189467215Y-100631968D01*
X189467219Y-100631966D01*
X189611966Y-100487219D01*
X189611968Y-100487215D01*
X189611971Y-100487213D01*
X189732284Y-100321614D01*
X189732283Y-100321614D01*
X189732287Y-100321610D01*
X189779516Y-100228917D01*
X189827489Y-100178123D01*
X189895310Y-100161328D01*
X189961445Y-100183865D01*
X190000483Y-100228917D01*
X190044348Y-100315006D01*
X190047715Y-100321614D01*
X190168028Y-100487213D01*
X190312786Y-100631971D01*
X190448014Y-100730218D01*
X190478390Y-100752287D01*
X190559230Y-100793477D01*
X190660776Y-100845218D01*
X190660778Y-100845218D01*
X190660781Y-100845220D01*
X190765137Y-100879127D01*
X190855465Y-100908477D01*
X190956557Y-100924488D01*
X191057648Y-100940500D01*
X191057649Y-100940500D01*
X191262351Y-100940500D01*
X191262352Y-100940500D01*
X191464534Y-100908477D01*
X191659219Y-100845220D01*
X191841610Y-100752287D01*
X191937901Y-100682328D01*
X192007213Y-100631971D01*
X192007215Y-100631968D01*
X192007219Y-100631966D01*
X192151966Y-100487219D01*
X192151968Y-100487215D01*
X192151971Y-100487213D01*
X192272284Y-100321614D01*
X192272283Y-100321614D01*
X192272287Y-100321610D01*
X192319516Y-100228917D01*
X192367489Y-100178123D01*
X192435310Y-100161328D01*
X192501445Y-100183865D01*
X192540483Y-100228917D01*
X192584348Y-100315006D01*
X192587715Y-100321614D01*
X192708028Y-100487213D01*
X192852786Y-100631971D01*
X192988014Y-100730218D01*
X193018390Y-100752287D01*
X193099230Y-100793477D01*
X193200776Y-100845218D01*
X193200778Y-100845218D01*
X193200781Y-100845220D01*
X193305137Y-100879127D01*
X193395465Y-100908477D01*
X193496557Y-100924488D01*
X193597648Y-100940500D01*
X193597649Y-100940500D01*
X193802351Y-100940500D01*
X193802352Y-100940500D01*
X194004534Y-100908477D01*
X194199219Y-100845220D01*
X194381610Y-100752287D01*
X194477901Y-100682328D01*
X194547213Y-100631971D01*
X194547215Y-100631968D01*
X194547219Y-100631966D01*
X194691966Y-100487219D01*
X194691968Y-100487215D01*
X194691971Y-100487213D01*
X194812284Y-100321614D01*
X194812283Y-100321614D01*
X194812287Y-100321610D01*
X194859516Y-100228917D01*
X194907489Y-100178123D01*
X194975310Y-100161328D01*
X195041445Y-100183865D01*
X195080483Y-100228917D01*
X195124348Y-100315006D01*
X195127715Y-100321614D01*
X195248028Y-100487213D01*
X195392786Y-100631971D01*
X195528014Y-100730218D01*
X195558390Y-100752287D01*
X195639230Y-100793477D01*
X195740776Y-100845218D01*
X195740778Y-100845218D01*
X195740781Y-100845220D01*
X195845137Y-100879127D01*
X195935465Y-100908477D01*
X196036557Y-100924488D01*
X196137648Y-100940500D01*
X196137649Y-100940500D01*
X196342351Y-100940500D01*
X196342352Y-100940500D01*
X196544534Y-100908477D01*
X196739219Y-100845220D01*
X196921610Y-100752287D01*
X197017901Y-100682328D01*
X197087213Y-100631971D01*
X197087215Y-100631968D01*
X197087219Y-100631966D01*
X197231966Y-100487219D01*
X197231968Y-100487215D01*
X197231971Y-100487213D01*
X197352284Y-100321614D01*
X197352283Y-100321614D01*
X197352287Y-100321610D01*
X197399516Y-100228917D01*
X197447489Y-100178123D01*
X197515310Y-100161328D01*
X197581445Y-100183865D01*
X197620483Y-100228917D01*
X197664348Y-100315006D01*
X197667715Y-100321614D01*
X197788028Y-100487213D01*
X197932786Y-100631971D01*
X198068014Y-100730218D01*
X198098390Y-100752287D01*
X198179230Y-100793477D01*
X198280776Y-100845218D01*
X198280778Y-100845218D01*
X198280781Y-100845220D01*
X198385137Y-100879127D01*
X198475465Y-100908477D01*
X198576557Y-100924488D01*
X198677648Y-100940500D01*
X198677649Y-100940500D01*
X198882351Y-100940500D01*
X198882352Y-100940500D01*
X199084534Y-100908477D01*
X199279219Y-100845220D01*
X199461610Y-100752287D01*
X199557901Y-100682328D01*
X199627213Y-100631971D01*
X199627215Y-100631968D01*
X199627219Y-100631966D01*
X199771966Y-100487219D01*
X199771968Y-100487215D01*
X199771971Y-100487213D01*
X199892284Y-100321614D01*
X199892283Y-100321614D01*
X199892287Y-100321610D01*
X199939516Y-100228917D01*
X199987489Y-100178123D01*
X200055310Y-100161328D01*
X200121445Y-100183865D01*
X200160483Y-100228917D01*
X200204348Y-100315006D01*
X200207715Y-100321614D01*
X200328028Y-100487213D01*
X200472786Y-100631971D01*
X200608014Y-100730218D01*
X200638390Y-100752287D01*
X200719230Y-100793477D01*
X200820776Y-100845218D01*
X200820778Y-100845218D01*
X200820781Y-100845220D01*
X200925137Y-100879127D01*
X201015465Y-100908477D01*
X201116557Y-100924488D01*
X201217648Y-100940500D01*
X201217649Y-100940500D01*
X201422351Y-100940500D01*
X201422352Y-100940500D01*
X201624534Y-100908477D01*
X201819219Y-100845220D01*
X202001610Y-100752287D01*
X202097901Y-100682328D01*
X202167213Y-100631971D01*
X202167215Y-100631968D01*
X202167219Y-100631966D01*
X202311966Y-100487219D01*
X202311968Y-100487215D01*
X202311971Y-100487213D01*
X202432284Y-100321614D01*
X202432283Y-100321614D01*
X202432287Y-100321610D01*
X202479795Y-100228369D01*
X202527770Y-100177574D01*
X202595591Y-100160779D01*
X202661725Y-100183316D01*
X202700765Y-100228370D01*
X202748140Y-100321349D01*
X202868417Y-100486894D01*
X202868417Y-100486895D01*
X203013104Y-100631582D01*
X203178650Y-100751859D01*
X203360968Y-100844754D01*
X203555578Y-100907988D01*
X203610000Y-100916607D01*
X203610000Y-99555686D01*
X203614394Y-99560080D01*
X203705606Y-99612741D01*
X203807339Y-99640000D01*
X203912661Y-99640000D01*
X204014394Y-99612741D01*
X204105606Y-99560080D01*
X204110000Y-99555686D01*
X204110000Y-100916606D01*
X204164421Y-100907988D01*
X204359031Y-100844754D01*
X204541349Y-100751859D01*
X204706894Y-100631582D01*
X204706895Y-100631582D01*
X204851582Y-100486895D01*
X204851582Y-100486894D01*
X204971859Y-100321349D01*
X205064755Y-100139031D01*
X205127990Y-99944417D01*
X205160000Y-99742317D01*
X205160000Y-99490000D01*
X204175686Y-99490000D01*
X204180080Y-99485606D01*
X204232741Y-99394394D01*
X204260000Y-99292661D01*
X204260000Y-99187339D01*
X204232741Y-99085606D01*
X204180080Y-98994394D01*
X204175686Y-98990000D01*
X205160000Y-98990000D01*
X205160000Y-98737682D01*
X205127990Y-98535582D01*
X205064755Y-98340968D01*
X204971859Y-98158650D01*
X204851582Y-97993105D01*
X204851582Y-97993104D01*
X204706895Y-97848417D01*
X204541349Y-97728140D01*
X204359029Y-97635244D01*
X204164413Y-97572009D01*
X204110000Y-97563390D01*
X204110000Y-98924314D01*
X204105606Y-98919920D01*
X204014394Y-98867259D01*
X203912661Y-98840000D01*
X203807339Y-98840000D01*
X203705606Y-98867259D01*
X203614394Y-98919920D01*
X203610000Y-98924314D01*
X203610000Y-97563390D01*
X203555586Y-97572009D01*
X203360970Y-97635244D01*
X203178650Y-97728140D01*
X203013105Y-97848417D01*
X203013104Y-97848417D01*
X202868417Y-97993104D01*
X202868417Y-97993105D01*
X202748140Y-98158650D01*
X202700765Y-98251629D01*
X202652790Y-98302425D01*
X202584969Y-98319220D01*
X202518834Y-98296682D01*
X202479795Y-98251629D01*
X202466624Y-98225781D01*
X202432287Y-98158390D01*
X202416078Y-98136080D01*
X202311971Y-97992786D01*
X202167213Y-97848028D01*
X202001613Y-97727715D01*
X202001612Y-97727714D01*
X202001610Y-97727713D01*
X201944653Y-97698691D01*
X201819223Y-97634781D01*
X201624534Y-97571522D01*
X201449995Y-97543878D01*
X201422352Y-97539500D01*
X201217648Y-97539500D01*
X201193329Y-97543351D01*
X201015465Y-97571522D01*
X200820776Y-97634781D01*
X200638386Y-97727715D01*
X200472786Y-97848028D01*
X200328028Y-97992786D01*
X200207715Y-98158386D01*
X200160485Y-98251080D01*
X200112510Y-98301876D01*
X200044689Y-98318671D01*
X199978554Y-98296134D01*
X199939515Y-98251080D01*
X199926624Y-98225781D01*
X199892287Y-98158390D01*
X199876078Y-98136080D01*
X199771971Y-97992786D01*
X199627213Y-97848028D01*
X199461613Y-97727715D01*
X199461612Y-97727714D01*
X199461610Y-97727713D01*
X199404653Y-97698691D01*
X199279223Y-97634781D01*
X199084534Y-97571522D01*
X198909995Y-97543878D01*
X198882352Y-97539500D01*
X198677648Y-97539500D01*
X198653329Y-97543351D01*
X198475465Y-97571522D01*
X198280776Y-97634781D01*
X198098386Y-97727715D01*
X197932786Y-97848028D01*
X197788028Y-97992786D01*
X197667715Y-98158386D01*
X197620485Y-98251080D01*
X197572510Y-98301876D01*
X197504689Y-98318671D01*
X197438554Y-98296134D01*
X197399515Y-98251080D01*
X197386624Y-98225781D01*
X197352287Y-98158390D01*
X197336078Y-98136080D01*
X197231971Y-97992786D01*
X197087213Y-97848028D01*
X196921613Y-97727715D01*
X196921612Y-97727714D01*
X196921610Y-97727713D01*
X196864653Y-97698691D01*
X196739223Y-97634781D01*
X196544534Y-97571522D01*
X196369995Y-97543878D01*
X196342352Y-97539500D01*
X196137648Y-97539500D01*
X196113329Y-97543351D01*
X195935465Y-97571522D01*
X195740776Y-97634781D01*
X195558386Y-97727715D01*
X195392786Y-97848028D01*
X195248028Y-97992786D01*
X195127715Y-98158386D01*
X195080485Y-98251080D01*
X195032510Y-98301876D01*
X194964689Y-98318671D01*
X194898554Y-98296134D01*
X194859515Y-98251080D01*
X194846624Y-98225781D01*
X194812287Y-98158390D01*
X194796078Y-98136080D01*
X194691971Y-97992786D01*
X194547213Y-97848028D01*
X194381613Y-97727715D01*
X194381612Y-97727714D01*
X194381610Y-97727713D01*
X194324653Y-97698691D01*
X194199223Y-97634781D01*
X194004534Y-97571522D01*
X193829995Y-97543878D01*
X193802352Y-97539500D01*
X193597648Y-97539500D01*
X193573329Y-97543351D01*
X193395465Y-97571522D01*
X193200776Y-97634781D01*
X193018386Y-97727715D01*
X192852786Y-97848028D01*
X192708028Y-97992786D01*
X192587715Y-98158386D01*
X192540485Y-98251080D01*
X192492510Y-98301876D01*
X192424689Y-98318671D01*
X192358554Y-98296134D01*
X192319515Y-98251080D01*
X192306624Y-98225781D01*
X192272287Y-98158390D01*
X192256078Y-98136080D01*
X192151971Y-97992786D01*
X192007213Y-97848028D01*
X191841613Y-97727715D01*
X191841612Y-97727714D01*
X191841610Y-97727713D01*
X191784653Y-97698691D01*
X191659223Y-97634781D01*
X191464534Y-97571522D01*
X191289995Y-97543878D01*
X191262352Y-97539500D01*
X191057648Y-97539500D01*
X191033329Y-97543351D01*
X190855465Y-97571522D01*
X190660776Y-97634781D01*
X190478386Y-97727715D01*
X190312786Y-97848028D01*
X190168028Y-97992786D01*
X190047715Y-98158386D01*
X190000485Y-98251080D01*
X189952510Y-98301876D01*
X189884689Y-98318671D01*
X189818554Y-98296134D01*
X189779515Y-98251080D01*
X189766624Y-98225781D01*
X189732287Y-98158390D01*
X189716078Y-98136080D01*
X189611971Y-97992786D01*
X189467213Y-97848028D01*
X189301613Y-97727715D01*
X189301612Y-97727714D01*
X189301610Y-97727713D01*
X189244653Y-97698691D01*
X189119223Y-97634781D01*
X188924534Y-97571522D01*
X188749995Y-97543878D01*
X188722352Y-97539500D01*
X188517648Y-97539500D01*
X188493329Y-97543351D01*
X188315465Y-97571522D01*
X188120776Y-97634781D01*
X187938386Y-97727715D01*
X187772786Y-97848028D01*
X187628028Y-97992786D01*
X187507715Y-98158386D01*
X187460485Y-98251080D01*
X187412510Y-98301876D01*
X187344689Y-98318671D01*
X187278554Y-98296134D01*
X187239515Y-98251080D01*
X187226624Y-98225781D01*
X187192287Y-98158390D01*
X187176078Y-98136080D01*
X187071971Y-97992786D01*
X186927213Y-97848028D01*
X186761613Y-97727715D01*
X186761612Y-97727714D01*
X186761610Y-97727713D01*
X186704653Y-97698691D01*
X186579223Y-97634781D01*
X186384534Y-97571522D01*
X186209995Y-97543878D01*
X186182352Y-97539500D01*
X185977648Y-97539500D01*
X185953329Y-97543351D01*
X185775465Y-97571522D01*
X185580776Y-97634781D01*
X185398386Y-97727715D01*
X185232786Y-97848028D01*
X185088028Y-97992786D01*
X184967715Y-98158386D01*
X184920485Y-98251080D01*
X184872510Y-98301876D01*
X184804689Y-98318671D01*
X184738554Y-98296134D01*
X184699515Y-98251080D01*
X184686624Y-98225781D01*
X184652287Y-98158390D01*
X184636078Y-98136080D01*
X184531971Y-97992786D01*
X184387213Y-97848028D01*
X184221613Y-97727715D01*
X184221612Y-97727714D01*
X184221610Y-97727713D01*
X184164653Y-97698691D01*
X184039223Y-97634781D01*
X183844534Y-97571522D01*
X183669995Y-97543878D01*
X183642352Y-97539500D01*
X183437648Y-97539500D01*
X183413329Y-97543351D01*
X183235465Y-97571522D01*
X183040776Y-97634781D01*
X182858386Y-97727715D01*
X182692786Y-97848028D01*
X182548028Y-97992786D01*
X182427715Y-98158386D01*
X182380485Y-98251080D01*
X182332510Y-98301876D01*
X182264689Y-98318671D01*
X182198554Y-98296134D01*
X182159515Y-98251080D01*
X182146624Y-98225781D01*
X182112287Y-98158390D01*
X182096078Y-98136080D01*
X181991971Y-97992786D01*
X181847213Y-97848028D01*
X181681613Y-97727715D01*
X181681612Y-97727714D01*
X181681610Y-97727713D01*
X181624653Y-97698691D01*
X181499223Y-97634781D01*
X181304534Y-97571522D01*
X181129995Y-97543878D01*
X181102352Y-97539500D01*
X180897648Y-97539500D01*
X180873329Y-97543351D01*
X180695465Y-97571522D01*
X180500776Y-97634781D01*
X180318386Y-97727715D01*
X180152786Y-97848028D01*
X180008028Y-97992786D01*
X179887715Y-98158386D01*
X179840485Y-98251080D01*
X179792510Y-98301876D01*
X179724689Y-98318671D01*
X179658554Y-98296134D01*
X179619515Y-98251080D01*
X179606624Y-98225781D01*
X179572287Y-98158390D01*
X179556078Y-98136080D01*
X179451971Y-97992786D01*
X179307213Y-97848028D01*
X179141613Y-97727715D01*
X179141612Y-97727714D01*
X179141610Y-97727713D01*
X179084653Y-97698691D01*
X178959223Y-97634781D01*
X178764534Y-97571522D01*
X178589995Y-97543878D01*
X178562352Y-97539500D01*
X178357648Y-97539500D01*
X178333329Y-97543351D01*
X178155465Y-97571522D01*
X177960776Y-97634781D01*
X177778386Y-97727715D01*
X177612786Y-97848028D01*
X177468032Y-97992782D01*
X177441668Y-98029070D01*
X177386338Y-98071735D01*
X177316724Y-98077714D01*
X177254929Y-98045108D01*
X177220572Y-97984269D01*
X177218060Y-97969438D01*
X177216694Y-97956735D01*
X177214091Y-97932517D01*
X177171199Y-97817517D01*
X177163797Y-97797671D01*
X177163793Y-97797664D01*
X177077547Y-97682455D01*
X177077544Y-97682452D01*
X176962335Y-97596206D01*
X176962328Y-97596202D01*
X176827482Y-97545908D01*
X176827483Y-97545908D01*
X176767883Y-97539501D01*
X176767881Y-97539500D01*
X176767873Y-97539500D01*
X176767864Y-97539500D01*
X175072129Y-97539500D01*
X175072123Y-97539501D01*
X175012516Y-97545908D01*
X174877671Y-97596202D01*
X174877664Y-97596206D01*
X174762455Y-97682452D01*
X174762452Y-97682455D01*
X174676206Y-97797664D01*
X174676202Y-97797671D01*
X174625908Y-97932517D01*
X174619501Y-97992116D01*
X174619500Y-97992135D01*
X173039431Y-97992135D01*
X172956582Y-97878105D01*
X172956582Y-97878104D01*
X172811895Y-97733417D01*
X172646349Y-97613140D01*
X172464029Y-97520244D01*
X172269413Y-97457009D01*
X172215000Y-97448390D01*
X172215000Y-98809314D01*
X172210606Y-98804920D01*
X172119394Y-98752259D01*
X172017661Y-98725000D01*
X171912339Y-98725000D01*
X171810606Y-98752259D01*
X171719394Y-98804920D01*
X171715000Y-98809314D01*
X171715000Y-97448390D01*
X171660586Y-97457009D01*
X171465970Y-97520244D01*
X171283650Y-97613140D01*
X171118105Y-97733417D01*
X171118104Y-97733417D01*
X170973417Y-97878104D01*
X170973417Y-97878105D01*
X170853140Y-98043650D01*
X170805765Y-98136629D01*
X170757790Y-98187425D01*
X170689969Y-98204220D01*
X170623834Y-98181682D01*
X170584795Y-98136629D01*
X170573990Y-98115424D01*
X170537287Y-98043390D01*
X170500753Y-97993105D01*
X170416971Y-97877786D01*
X170272213Y-97733028D01*
X170106613Y-97612715D01*
X170106612Y-97612714D01*
X170106610Y-97612713D01*
X170026724Y-97572009D01*
X169924223Y-97519781D01*
X169729534Y-97456522D01*
X169554995Y-97428878D01*
X169527352Y-97424500D01*
X169322648Y-97424500D01*
X169298329Y-97428351D01*
X169120465Y-97456522D01*
X168925776Y-97519781D01*
X168743386Y-97612715D01*
X168577786Y-97733028D01*
X168433028Y-97877786D01*
X168312715Y-98043386D01*
X168265485Y-98136080D01*
X168217510Y-98186876D01*
X168149689Y-98203671D01*
X168083554Y-98181134D01*
X168044515Y-98136080D01*
X168043883Y-98134840D01*
X167997287Y-98043390D01*
X167960753Y-97993105D01*
X167876971Y-97877786D01*
X167732213Y-97733028D01*
X167566613Y-97612715D01*
X167566612Y-97612714D01*
X167566610Y-97612713D01*
X167486724Y-97572009D01*
X167384223Y-97519781D01*
X167189534Y-97456522D01*
X167014995Y-97428878D01*
X166987352Y-97424500D01*
X166782648Y-97424500D01*
X166758329Y-97428351D01*
X166580465Y-97456522D01*
X166385776Y-97519781D01*
X166203386Y-97612715D01*
X166037786Y-97733028D01*
X165893028Y-97877786D01*
X165772715Y-98043386D01*
X165725485Y-98136080D01*
X165677510Y-98186876D01*
X165609689Y-98203671D01*
X165543554Y-98181134D01*
X165504515Y-98136080D01*
X165503883Y-98134840D01*
X165457287Y-98043390D01*
X165420753Y-97993105D01*
X165336971Y-97877786D01*
X165192213Y-97733028D01*
X165026613Y-97612715D01*
X165026612Y-97612714D01*
X165026610Y-97612713D01*
X164946724Y-97572009D01*
X164844223Y-97519781D01*
X164649534Y-97456522D01*
X164474995Y-97428878D01*
X164447352Y-97424500D01*
X164242648Y-97424500D01*
X164218329Y-97428351D01*
X164040465Y-97456522D01*
X163845776Y-97519781D01*
X163663386Y-97612715D01*
X163497786Y-97733028D01*
X163353028Y-97877786D01*
X163232715Y-98043386D01*
X163185485Y-98136080D01*
X163137510Y-98186876D01*
X163069689Y-98203671D01*
X163003554Y-98181134D01*
X162964515Y-98136080D01*
X162963883Y-98134840D01*
X162917287Y-98043390D01*
X162880753Y-97993105D01*
X162796971Y-97877786D01*
X162652213Y-97733028D01*
X162486613Y-97612715D01*
X162486612Y-97612714D01*
X162486610Y-97612713D01*
X162406724Y-97572009D01*
X162304223Y-97519781D01*
X162109534Y-97456522D01*
X161934995Y-97428878D01*
X161907352Y-97424500D01*
X161702648Y-97424500D01*
X161678329Y-97428351D01*
X161500465Y-97456522D01*
X161305776Y-97519781D01*
X161123386Y-97612715D01*
X160957786Y-97733028D01*
X160813028Y-97877786D01*
X160692715Y-98043386D01*
X160645485Y-98136080D01*
X160597510Y-98186876D01*
X160529689Y-98203671D01*
X160463554Y-98181134D01*
X160424515Y-98136080D01*
X160423883Y-98134840D01*
X160377287Y-98043390D01*
X160340753Y-97993105D01*
X160256971Y-97877786D01*
X160112213Y-97733028D01*
X159946613Y-97612715D01*
X159946612Y-97612714D01*
X159946610Y-97612713D01*
X159866724Y-97572009D01*
X159764223Y-97519781D01*
X159569534Y-97456522D01*
X159394995Y-97428878D01*
X159367352Y-97424500D01*
X159162648Y-97424500D01*
X159138329Y-97428351D01*
X158960465Y-97456522D01*
X158765776Y-97519781D01*
X158583386Y-97612715D01*
X158417786Y-97733028D01*
X158273028Y-97877786D01*
X158152715Y-98043386D01*
X158105485Y-98136080D01*
X158057510Y-98186876D01*
X157989689Y-98203671D01*
X157923554Y-98181134D01*
X157884515Y-98136080D01*
X157883883Y-98134840D01*
X157837287Y-98043390D01*
X157800753Y-97993105D01*
X157716971Y-97877786D01*
X157572213Y-97733028D01*
X157406613Y-97612715D01*
X157406612Y-97612714D01*
X157406610Y-97612713D01*
X157326724Y-97572009D01*
X157224223Y-97519781D01*
X157029534Y-97456522D01*
X156854995Y-97428878D01*
X156827352Y-97424500D01*
X156622648Y-97424500D01*
X156598329Y-97428351D01*
X156420465Y-97456522D01*
X156225776Y-97519781D01*
X156043386Y-97612715D01*
X155877786Y-97733028D01*
X155733028Y-97877786D01*
X155612715Y-98043386D01*
X155565485Y-98136080D01*
X155517510Y-98186876D01*
X155449689Y-98203671D01*
X155383554Y-98181134D01*
X155344515Y-98136080D01*
X155343883Y-98134840D01*
X155297287Y-98043390D01*
X155260753Y-97993105D01*
X155176971Y-97877786D01*
X155032213Y-97733028D01*
X154866613Y-97612715D01*
X154866612Y-97612714D01*
X154866610Y-97612713D01*
X154786724Y-97572009D01*
X154684223Y-97519781D01*
X154489534Y-97456522D01*
X154314995Y-97428878D01*
X154287352Y-97424500D01*
X154082648Y-97424500D01*
X154058329Y-97428351D01*
X153880465Y-97456522D01*
X153685776Y-97519781D01*
X153503386Y-97612715D01*
X153337786Y-97733028D01*
X153193028Y-97877786D01*
X153072715Y-98043386D01*
X153025485Y-98136080D01*
X152977510Y-98186876D01*
X152909689Y-98203671D01*
X152843554Y-98181134D01*
X152804515Y-98136080D01*
X152803883Y-98134840D01*
X152757287Y-98043390D01*
X152720753Y-97993105D01*
X152636971Y-97877786D01*
X152492213Y-97733028D01*
X152326613Y-97612715D01*
X152326612Y-97612714D01*
X152326610Y-97612713D01*
X152246724Y-97572009D01*
X152144223Y-97519781D01*
X151949534Y-97456522D01*
X151774995Y-97428878D01*
X151747352Y-97424500D01*
X151542648Y-97424500D01*
X151518329Y-97428351D01*
X151340465Y-97456522D01*
X151145776Y-97519781D01*
X150963386Y-97612715D01*
X150797786Y-97733028D01*
X150653028Y-97877786D01*
X150532715Y-98043386D01*
X150485485Y-98136080D01*
X150437510Y-98186876D01*
X150369689Y-98203671D01*
X150303554Y-98181134D01*
X150264515Y-98136080D01*
X150263883Y-98134840D01*
X150217287Y-98043390D01*
X150180753Y-97993105D01*
X150096971Y-97877786D01*
X149952213Y-97733028D01*
X149786613Y-97612715D01*
X149786612Y-97612714D01*
X149786610Y-97612713D01*
X149706724Y-97572009D01*
X149604223Y-97519781D01*
X149409534Y-97456522D01*
X149234995Y-97428878D01*
X149207352Y-97424500D01*
X149002648Y-97424500D01*
X148978329Y-97428351D01*
X148800465Y-97456522D01*
X148605776Y-97519781D01*
X148423386Y-97612715D01*
X148257786Y-97733028D01*
X148113028Y-97877786D01*
X147992715Y-98043386D01*
X147945485Y-98136080D01*
X147897510Y-98186876D01*
X147829689Y-98203671D01*
X147763554Y-98181134D01*
X147724515Y-98136080D01*
X147723883Y-98134840D01*
X147677287Y-98043390D01*
X147640753Y-97993105D01*
X147556971Y-97877786D01*
X147412213Y-97733028D01*
X147246613Y-97612715D01*
X147246612Y-97612714D01*
X147246610Y-97612713D01*
X147166724Y-97572009D01*
X147064223Y-97519781D01*
X146869534Y-97456522D01*
X146694995Y-97428878D01*
X146667352Y-97424500D01*
X146462648Y-97424500D01*
X146438329Y-97428351D01*
X146260465Y-97456522D01*
X146065776Y-97519781D01*
X145883386Y-97612715D01*
X145717786Y-97733028D01*
X145573032Y-97877782D01*
X145546668Y-97914070D01*
X145491338Y-97956735D01*
X145421724Y-97962714D01*
X145359929Y-97930108D01*
X145325572Y-97869269D01*
X145323060Y-97854438D01*
X145322371Y-97848028D01*
X145319091Y-97817517D01*
X145268796Y-97682669D01*
X145268795Y-97682668D01*
X145268793Y-97682664D01*
X145182547Y-97567455D01*
X145182544Y-97567452D01*
X145067335Y-97481206D01*
X145067328Y-97481202D01*
X144932482Y-97430908D01*
X144932483Y-97430908D01*
X144872883Y-97424501D01*
X144872881Y-97424500D01*
X144872873Y-97424500D01*
X144872864Y-97424500D01*
X143177129Y-97424500D01*
X143177123Y-97424501D01*
X143117516Y-97430908D01*
X142982671Y-97481202D01*
X142982664Y-97481206D01*
X142867455Y-97567452D01*
X142867452Y-97567455D01*
X142781206Y-97682664D01*
X142781202Y-97682671D01*
X142730908Y-97817517D01*
X142724501Y-97877116D01*
X142724500Y-97877135D01*
X142000000Y-97877135D01*
X142000000Y-74875000D01*
X146332096Y-74875000D01*
X146334584Y-74887516D01*
X146334587Y-74887523D01*
X146402428Y-75051306D01*
X146402433Y-75051316D01*
X146500923Y-75198716D01*
X146500926Y-75198720D01*
X146626279Y-75324073D01*
X146626283Y-75324076D01*
X146773683Y-75422566D01*
X146773692Y-75422571D01*
X146937479Y-75490413D01*
X146937487Y-75490415D01*
X147111353Y-75524999D01*
X147111357Y-75525000D01*
X147200000Y-75525000D01*
X147200000Y-74875000D01*
X146332096Y-74875000D01*
X142000000Y-74875000D01*
X142000000Y-71124000D01*
X142019685Y-71056961D01*
X142072489Y-71011206D01*
X142124000Y-71000000D01*
X178542593Y-71000000D01*
X178609632Y-71019685D01*
G37*
%TD.AperFunction*%
%TA.AperFunction,Conductor*%
G36*
X147643039Y-74395185D02*
G01*
X147688794Y-74447989D01*
X147700000Y-74499500D01*
X147700000Y-74575272D01*
X147661940Y-74483386D01*
X147591614Y-74413060D01*
X147500935Y-74375500D01*
X147576000Y-74375500D01*
X147643039Y-74395185D01*
G37*
%TD.AperFunction*%
%TD*%
%TA.AperFunction,NonConductor*%
G36*
X193849632Y-71019685D02*
G01*
X193895387Y-71072489D01*
X193905331Y-71141647D01*
X193876306Y-71205203D01*
X193855478Y-71224318D01*
X193767786Y-71288028D01*
X193623028Y-71432786D01*
X193502715Y-71598386D01*
X193455485Y-71691080D01*
X193407510Y-71741876D01*
X193339689Y-71758671D01*
X193273554Y-71736134D01*
X193234515Y-71691080D01*
X193233883Y-71689840D01*
X193187287Y-71598390D01*
X193179556Y-71587749D01*
X193066971Y-71432786D01*
X192922213Y-71288028D01*
X192834522Y-71224318D01*
X192791856Y-71168989D01*
X192785877Y-71099375D01*
X192818482Y-71037580D01*
X192879321Y-71003223D01*
X192907407Y-71000000D01*
X193782593Y-71000000D01*
X193849632Y-71019685D01*
G37*
%TD.AperFunction*%
%TA.AperFunction,NonConductor*%
G36*
X191309632Y-71019685D02*
G01*
X191355387Y-71072489D01*
X191365331Y-71141647D01*
X191336306Y-71205203D01*
X191315478Y-71224318D01*
X191227786Y-71288028D01*
X191083028Y-71432786D01*
X190962715Y-71598386D01*
X190915485Y-71691080D01*
X190867510Y-71741876D01*
X190799689Y-71758671D01*
X190733554Y-71736134D01*
X190694515Y-71691080D01*
X190693883Y-71689840D01*
X190647287Y-71598390D01*
X190639556Y-71587749D01*
X190526971Y-71432786D01*
X190382213Y-71288028D01*
X190294522Y-71224318D01*
X190251856Y-71168989D01*
X190245877Y-71099375D01*
X190278482Y-71037580D01*
X190339321Y-71003223D01*
X190367407Y-71000000D01*
X191242593Y-71000000D01*
X191309632Y-71019685D01*
G37*
%TD.AperFunction*%
%TA.AperFunction,NonConductor*%
G36*
X188769632Y-71019685D02*
G01*
X188815387Y-71072489D01*
X188825331Y-71141647D01*
X188796306Y-71205203D01*
X188775478Y-71224318D01*
X188687786Y-71288028D01*
X188543028Y-71432786D01*
X188422715Y-71598386D01*
X188375485Y-71691080D01*
X188327510Y-71741876D01*
X188259689Y-71758671D01*
X188193554Y-71736134D01*
X188154515Y-71691080D01*
X188153883Y-71689840D01*
X188107287Y-71598390D01*
X188099556Y-71587749D01*
X187986971Y-71432786D01*
X187842213Y-71288028D01*
X187754522Y-71224318D01*
X187711856Y-71168989D01*
X187705877Y-71099375D01*
X187738482Y-71037580D01*
X187799321Y-71003223D01*
X187827407Y-71000000D01*
X188702593Y-71000000D01*
X188769632Y-71019685D01*
G37*
%TD.AperFunction*%
%TA.AperFunction,NonConductor*%
G36*
X186229632Y-71019685D02*
G01*
X186275387Y-71072489D01*
X186285331Y-71141647D01*
X186256306Y-71205203D01*
X186235478Y-71224318D01*
X186147786Y-71288028D01*
X186003028Y-71432786D01*
X185882715Y-71598386D01*
X185835485Y-71691080D01*
X185787510Y-71741876D01*
X185719689Y-71758671D01*
X185653554Y-71736134D01*
X185614515Y-71691080D01*
X185613883Y-71689840D01*
X185567287Y-71598390D01*
X185559556Y-71587749D01*
X185446971Y-71432786D01*
X185302213Y-71288028D01*
X185214522Y-71224318D01*
X185171856Y-71168989D01*
X185165877Y-71099375D01*
X185198482Y-71037580D01*
X185259321Y-71003223D01*
X185287407Y-71000000D01*
X186162593Y-71000000D01*
X186229632Y-71019685D01*
G37*
%TD.AperFunction*%
%TA.AperFunction,NonConductor*%
G36*
X183689632Y-71019685D02*
G01*
X183735387Y-71072489D01*
X183745331Y-71141647D01*
X183716306Y-71205203D01*
X183695478Y-71224318D01*
X183607786Y-71288028D01*
X183463028Y-71432786D01*
X183342715Y-71598386D01*
X183295485Y-71691080D01*
X183247510Y-71741876D01*
X183179689Y-71758671D01*
X183113554Y-71736134D01*
X183074515Y-71691080D01*
X183073883Y-71689840D01*
X183027287Y-71598390D01*
X183019556Y-71587749D01*
X182906971Y-71432786D01*
X182762213Y-71288028D01*
X182674522Y-71224318D01*
X182631856Y-71168989D01*
X182625877Y-71099375D01*
X182658482Y-71037580D01*
X182719321Y-71003223D01*
X182747407Y-71000000D01*
X183622593Y-71000000D01*
X183689632Y-71019685D01*
G37*
%TD.AperFunction*%
%TA.AperFunction,NonConductor*%
G36*
X181149632Y-71019685D02*
G01*
X181195387Y-71072489D01*
X181205331Y-71141647D01*
X181176306Y-71205203D01*
X181155478Y-71224318D01*
X181067786Y-71288028D01*
X180923028Y-71432786D01*
X180802715Y-71598386D01*
X180755485Y-71691080D01*
X180707510Y-71741876D01*
X180639689Y-71758671D01*
X180573554Y-71736134D01*
X180534515Y-71691080D01*
X180533883Y-71689840D01*
X180487287Y-71598390D01*
X180479556Y-71587749D01*
X180366971Y-71432786D01*
X180222213Y-71288028D01*
X180134522Y-71224318D01*
X180091856Y-71168989D01*
X180085877Y-71099375D01*
X180118482Y-71037580D01*
X180179321Y-71003223D01*
X180207407Y-71000000D01*
X181082593Y-71000000D01*
X181149632Y-71019685D01*
G37*
%TD.AperFunction*%
%TA.AperFunction,NonConductor*%
G36*
X154950062Y-79887862D02*
G01*
X154995817Y-79940666D01*
X155003266Y-79967811D01*
X155004124Y-79967609D01*
X155005907Y-79975156D01*
X155056202Y-80110005D01*
X155056206Y-80110012D01*
X155142452Y-80225221D01*
X155142455Y-80225224D01*
X155257664Y-80311470D01*
X155257671Y-80311474D01*
X155392517Y-80361768D01*
X155392516Y-80361768D01*
X155399444Y-80362512D01*
X155452127Y-80368177D01*
X157547872Y-80368176D01*
X157607483Y-80361768D01*
X157742331Y-80311473D01*
X157857546Y-80225223D01*
X157943796Y-80110008D01*
X157994091Y-79975160D01*
X157994091Y-79975158D01*
X157995874Y-79967615D01*
X157998146Y-79968151D01*
X158020429Y-79914365D01*
X158077823Y-79874520D01*
X158116976Y-79868177D01*
X170321895Y-79868177D01*
X170388934Y-79887862D01*
X170409576Y-79904496D01*
X172573968Y-82068888D01*
X172607453Y-82130211D01*
X172602469Y-82199903D01*
X172560597Y-82255836D01*
X172495133Y-82280253D01*
X172447969Y-82274500D01*
X172269536Y-82216523D01*
X172134746Y-82195174D01*
X172067352Y-82184500D01*
X171862648Y-82184500D01*
X171838329Y-82188351D01*
X171660465Y-82216522D01*
X171465776Y-82279781D01*
X171283386Y-82372715D01*
X171117786Y-82493028D01*
X170973028Y-82637786D01*
X170852715Y-82803386D01*
X170805485Y-82896080D01*
X170757510Y-82946876D01*
X170689689Y-82963671D01*
X170623554Y-82941134D01*
X170584515Y-82896080D01*
X170556719Y-82841528D01*
X170537287Y-82803390D01*
X170526448Y-82788471D01*
X170416971Y-82637786D01*
X170272213Y-82493028D01*
X170106613Y-82372715D01*
X170106612Y-82372714D01*
X170106610Y-82372713D01*
X170049653Y-82343691D01*
X169924223Y-82279781D01*
X169729534Y-82216522D01*
X169554995Y-82188878D01*
X169527352Y-82184500D01*
X169322648Y-82184500D01*
X169298329Y-82188351D01*
X169120465Y-82216522D01*
X168925776Y-82279781D01*
X168743386Y-82372715D01*
X168577786Y-82493028D01*
X168433028Y-82637786D01*
X168312715Y-82803386D01*
X168265485Y-82896080D01*
X168217510Y-82946876D01*
X168149689Y-82963671D01*
X168083554Y-82941134D01*
X168044515Y-82896080D01*
X168016719Y-82841528D01*
X167997287Y-82803390D01*
X167986448Y-82788471D01*
X167876971Y-82637786D01*
X167732213Y-82493028D01*
X167566613Y-82372715D01*
X167566612Y-82372714D01*
X167566610Y-82372713D01*
X167509653Y-82343691D01*
X167384223Y-82279781D01*
X167189534Y-82216522D01*
X167014995Y-82188878D01*
X166987352Y-82184500D01*
X166782648Y-82184500D01*
X166758329Y-82188351D01*
X166580465Y-82216522D01*
X166385776Y-82279781D01*
X166203386Y-82372715D01*
X166037786Y-82493028D01*
X165893028Y-82637786D01*
X165772715Y-82803386D01*
X165725485Y-82896080D01*
X165677510Y-82946876D01*
X165609689Y-82963671D01*
X165543554Y-82941134D01*
X165504515Y-82896080D01*
X165476719Y-82841528D01*
X165457287Y-82803390D01*
X165446448Y-82788471D01*
X165336971Y-82637786D01*
X165192213Y-82493028D01*
X165026613Y-82372715D01*
X165026612Y-82372714D01*
X165026610Y-82372713D01*
X164969653Y-82343691D01*
X164844223Y-82279781D01*
X164649534Y-82216522D01*
X164474995Y-82188878D01*
X164447352Y-82184500D01*
X164242648Y-82184500D01*
X164218329Y-82188351D01*
X164040465Y-82216522D01*
X163845776Y-82279781D01*
X163663386Y-82372715D01*
X163497786Y-82493028D01*
X163353028Y-82637786D01*
X163232715Y-82803386D01*
X163185485Y-82896080D01*
X163137510Y-82946876D01*
X163069689Y-82963671D01*
X163003554Y-82941134D01*
X162964515Y-82896080D01*
X162936719Y-82841528D01*
X162917287Y-82803390D01*
X162906448Y-82788471D01*
X162796971Y-82637786D01*
X162652213Y-82493028D01*
X162486613Y-82372715D01*
X162486612Y-82372714D01*
X162486610Y-82372713D01*
X162429653Y-82343691D01*
X162304223Y-82279781D01*
X162109534Y-82216522D01*
X161934995Y-82188878D01*
X161907352Y-82184500D01*
X161702648Y-82184500D01*
X161678329Y-82188351D01*
X161500465Y-82216522D01*
X161305776Y-82279781D01*
X161123386Y-82372715D01*
X160957786Y-82493028D01*
X160813028Y-82637786D01*
X160692715Y-82803386D01*
X160645485Y-82896080D01*
X160597510Y-82946876D01*
X160529689Y-82963671D01*
X160463554Y-82941134D01*
X160424515Y-82896080D01*
X160396719Y-82841528D01*
X160377287Y-82803390D01*
X160366448Y-82788471D01*
X160256971Y-82637786D01*
X160112213Y-82493028D01*
X159946613Y-82372715D01*
X159946612Y-82372714D01*
X159946610Y-82372713D01*
X159889653Y-82343691D01*
X159764223Y-82279781D01*
X159569534Y-82216522D01*
X159394995Y-82188878D01*
X159367352Y-82184500D01*
X159162648Y-82184500D01*
X159138329Y-82188351D01*
X158960465Y-82216522D01*
X158765776Y-82279781D01*
X158583386Y-82372715D01*
X158417786Y-82493028D01*
X158273028Y-82637786D01*
X158152715Y-82803386D01*
X158105485Y-82896080D01*
X158057510Y-82946876D01*
X157989689Y-82963671D01*
X157923554Y-82941134D01*
X157884515Y-82896080D01*
X157856719Y-82841528D01*
X157837287Y-82803390D01*
X157826448Y-82788471D01*
X157716971Y-82637786D01*
X157572213Y-82493028D01*
X157406613Y-82372715D01*
X157406612Y-82372714D01*
X157406610Y-82372713D01*
X157349653Y-82343691D01*
X157224223Y-82279781D01*
X157029534Y-82216522D01*
X156854995Y-82188878D01*
X156827352Y-82184500D01*
X156622648Y-82184500D01*
X156598329Y-82188351D01*
X156420465Y-82216522D01*
X156225776Y-82279781D01*
X156043386Y-82372715D01*
X155877786Y-82493028D01*
X155733028Y-82637786D01*
X155612715Y-82803386D01*
X155565485Y-82896080D01*
X155517510Y-82946876D01*
X155449689Y-82963671D01*
X155383554Y-82941134D01*
X155344515Y-82896080D01*
X155316719Y-82841528D01*
X155297287Y-82803390D01*
X155286448Y-82788471D01*
X155176971Y-82637786D01*
X155032213Y-82493028D01*
X154866613Y-82372715D01*
X154866612Y-82372714D01*
X154866610Y-82372713D01*
X154809653Y-82343691D01*
X154684223Y-82279781D01*
X154489534Y-82216522D01*
X154314995Y-82188878D01*
X154287352Y-82184500D01*
X154082648Y-82184500D01*
X154058329Y-82188351D01*
X153880465Y-82216522D01*
X153685776Y-82279781D01*
X153503386Y-82372715D01*
X153337786Y-82493028D01*
X153193028Y-82637786D01*
X153072715Y-82803386D01*
X153025485Y-82896080D01*
X152977510Y-82946876D01*
X152909689Y-82963671D01*
X152843554Y-82941134D01*
X152804515Y-82896080D01*
X152776719Y-82841528D01*
X152757287Y-82803390D01*
X152746448Y-82788471D01*
X152636971Y-82637786D01*
X152492213Y-82493028D01*
X152326613Y-82372715D01*
X152326612Y-82372714D01*
X152326610Y-82372713D01*
X152269653Y-82343691D01*
X152144223Y-82279781D01*
X151949534Y-82216522D01*
X151774995Y-82188878D01*
X151747352Y-82184500D01*
X151542648Y-82184500D01*
X151518329Y-82188351D01*
X151340465Y-82216522D01*
X151145776Y-82279781D01*
X150963386Y-82372715D01*
X150797786Y-82493028D01*
X150653028Y-82637786D01*
X150532715Y-82803386D01*
X150485485Y-82896080D01*
X150437510Y-82946876D01*
X150369689Y-82963671D01*
X150303554Y-82941134D01*
X150264515Y-82896080D01*
X150236719Y-82841528D01*
X150217287Y-82803390D01*
X150206448Y-82788471D01*
X150096971Y-82637786D01*
X149952213Y-82493028D01*
X149786613Y-82372715D01*
X149786612Y-82372714D01*
X149786610Y-82372713D01*
X149729653Y-82343691D01*
X149604223Y-82279781D01*
X149409534Y-82216522D01*
X149234995Y-82188878D01*
X149207352Y-82184500D01*
X149002648Y-82184500D01*
X148978329Y-82188351D01*
X148800465Y-82216522D01*
X148605776Y-82279781D01*
X148423386Y-82372715D01*
X148257786Y-82493028D01*
X148113028Y-82637786D01*
X147992715Y-82803386D01*
X147945485Y-82896080D01*
X147897510Y-82946876D01*
X147829689Y-82963671D01*
X147763554Y-82941134D01*
X147724515Y-82896080D01*
X147696719Y-82841528D01*
X147677287Y-82803390D01*
X147666448Y-82788471D01*
X147556971Y-82637786D01*
X147412213Y-82493028D01*
X147246613Y-82372715D01*
X147246612Y-82372714D01*
X147246610Y-82372713D01*
X147189653Y-82343691D01*
X147064223Y-82279781D01*
X146869534Y-82216522D01*
X146694995Y-82188878D01*
X146667352Y-82184500D01*
X146462648Y-82184500D01*
X146438329Y-82188351D01*
X146260465Y-82216522D01*
X146108759Y-82265815D01*
X146065781Y-82279780D01*
X146065778Y-82279781D01*
X146065776Y-82279782D01*
X145885343Y-82371717D01*
X145816673Y-82384613D01*
X145751933Y-82358336D01*
X145711676Y-82301230D01*
X145708684Y-82231424D01*
X145741365Y-82173554D01*
X147088034Y-80826885D01*
X147149355Y-80793402D01*
X147164900Y-80791041D01*
X147226692Y-80785635D01*
X147446496Y-80726739D01*
X147652734Y-80630568D01*
X147839139Y-80500047D01*
X148000047Y-80339139D01*
X148130568Y-80152734D01*
X148226739Y-79946496D01*
X148226739Y-79946494D01*
X148229027Y-79941589D01*
X148230922Y-79942473D01*
X148266958Y-79893515D01*
X148332223Y-79868569D01*
X148342070Y-79868177D01*
X149901459Y-79868177D01*
X154883023Y-79868177D01*
X154950062Y-79887862D01*
G37*
%TD.AperFunction*%
M02*
