%TF.GenerationSoftware,KiCad,Pcbnew,8.0.3*%
%TF.CreationDate,2024-07-20T16:39:50-07:00*%
%TF.ProjectId,General Register V1,47656e65-7261-46c2-9052-656769737465,rev?*%
%TF.SameCoordinates,Original*%
%TF.FileFunction,Legend,Top*%
%TF.FilePolarity,Positive*%
%FSLAX46Y46*%
G04 Gerber Fmt 4.6, Leading zero omitted, Abs format (unit mm)*
G04 Created by KiCad (PCBNEW 8.0.3) date 2024-07-20 16:39:50*
%MOMM*%
%LPD*%
G01*
G04 APERTURE LIST*
%ADD10C,0.100000*%
%ADD11C,0.120000*%
G04 APERTURE END LIST*
D10*
X120772419Y-82724687D02*
X120296228Y-83058020D01*
X120772419Y-83296115D02*
X119772419Y-83296115D01*
X119772419Y-83296115D02*
X119772419Y-82915163D01*
X119772419Y-82915163D02*
X119820038Y-82819925D01*
X119820038Y-82819925D02*
X119867657Y-82772306D01*
X119867657Y-82772306D02*
X119962895Y-82724687D01*
X119962895Y-82724687D02*
X120105752Y-82724687D01*
X120105752Y-82724687D02*
X120200990Y-82772306D01*
X120200990Y-82772306D02*
X120248609Y-82819925D01*
X120248609Y-82819925D02*
X120296228Y-82915163D01*
X120296228Y-82915163D02*
X120296228Y-83296115D01*
X120200990Y-82153258D02*
X120153371Y-82248496D01*
X120153371Y-82248496D02*
X120105752Y-82296115D01*
X120105752Y-82296115D02*
X120010514Y-82343734D01*
X120010514Y-82343734D02*
X119962895Y-82343734D01*
X119962895Y-82343734D02*
X119867657Y-82296115D01*
X119867657Y-82296115D02*
X119820038Y-82248496D01*
X119820038Y-82248496D02*
X119772419Y-82153258D01*
X119772419Y-82153258D02*
X119772419Y-81962782D01*
X119772419Y-81962782D02*
X119820038Y-81867544D01*
X119820038Y-81867544D02*
X119867657Y-81819925D01*
X119867657Y-81819925D02*
X119962895Y-81772306D01*
X119962895Y-81772306D02*
X120010514Y-81772306D01*
X120010514Y-81772306D02*
X120105752Y-81819925D01*
X120105752Y-81819925D02*
X120153371Y-81867544D01*
X120153371Y-81867544D02*
X120200990Y-81962782D01*
X120200990Y-81962782D02*
X120200990Y-82153258D01*
X120200990Y-82153258D02*
X120248609Y-82248496D01*
X120248609Y-82248496D02*
X120296228Y-82296115D01*
X120296228Y-82296115D02*
X120391466Y-82343734D01*
X120391466Y-82343734D02*
X120581942Y-82343734D01*
X120581942Y-82343734D02*
X120677180Y-82296115D01*
X120677180Y-82296115D02*
X120724800Y-82248496D01*
X120724800Y-82248496D02*
X120772419Y-82153258D01*
X120772419Y-82153258D02*
X120772419Y-81962782D01*
X120772419Y-81962782D02*
X120724800Y-81867544D01*
X120724800Y-81867544D02*
X120677180Y-81819925D01*
X120677180Y-81819925D02*
X120581942Y-81772306D01*
X120581942Y-81772306D02*
X120391466Y-81772306D01*
X120391466Y-81772306D02*
X120296228Y-81819925D01*
X120296228Y-81819925D02*
X120248609Y-81867544D01*
X120248609Y-81867544D02*
X120200990Y-81962782D01*
X131208646Y-65872419D02*
X131875312Y-65872419D01*
X131875312Y-65872419D02*
X131446741Y-66872419D01*
X132684836Y-66205752D02*
X132684836Y-66872419D01*
X132446741Y-65824800D02*
X132208646Y-66539085D01*
X132208646Y-66539085D02*
X132827693Y-66539085D01*
X133684836Y-66872419D02*
X133208646Y-66872419D01*
X133208646Y-66872419D02*
X133208646Y-65872419D01*
X133970551Y-66824800D02*
X134113408Y-66872419D01*
X134113408Y-66872419D02*
X134351503Y-66872419D01*
X134351503Y-66872419D02*
X134446741Y-66824800D01*
X134446741Y-66824800D02*
X134494360Y-66777180D01*
X134494360Y-66777180D02*
X134541979Y-66681942D01*
X134541979Y-66681942D02*
X134541979Y-66586704D01*
X134541979Y-66586704D02*
X134494360Y-66491466D01*
X134494360Y-66491466D02*
X134446741Y-66443847D01*
X134446741Y-66443847D02*
X134351503Y-66396228D01*
X134351503Y-66396228D02*
X134161027Y-66348609D01*
X134161027Y-66348609D02*
X134065789Y-66300990D01*
X134065789Y-66300990D02*
X134018170Y-66253371D01*
X134018170Y-66253371D02*
X133970551Y-66158133D01*
X133970551Y-66158133D02*
X133970551Y-66062895D01*
X133970551Y-66062895D02*
X134018170Y-65967657D01*
X134018170Y-65967657D02*
X134065789Y-65920038D01*
X134065789Y-65920038D02*
X134161027Y-65872419D01*
X134161027Y-65872419D02*
X134399122Y-65872419D01*
X134399122Y-65872419D02*
X134541979Y-65920038D01*
X135494360Y-66872419D02*
X134922932Y-66872419D01*
X135208646Y-66872419D02*
X135208646Y-65872419D01*
X135208646Y-65872419D02*
X135113408Y-66015276D01*
X135113408Y-66015276D02*
X135018170Y-66110514D01*
X135018170Y-66110514D02*
X134922932Y-66158133D01*
X135827694Y-65872419D02*
X136494360Y-65872419D01*
X136494360Y-65872419D02*
X136065789Y-66872419D01*
X136780075Y-65872419D02*
X137399122Y-65872419D01*
X137399122Y-65872419D02*
X137065789Y-66253371D01*
X137065789Y-66253371D02*
X137208646Y-66253371D01*
X137208646Y-66253371D02*
X137303884Y-66300990D01*
X137303884Y-66300990D02*
X137351503Y-66348609D01*
X137351503Y-66348609D02*
X137399122Y-66443847D01*
X137399122Y-66443847D02*
X137399122Y-66681942D01*
X137399122Y-66681942D02*
X137351503Y-66777180D01*
X137351503Y-66777180D02*
X137303884Y-66824800D01*
X137303884Y-66824800D02*
X137208646Y-66872419D01*
X137208646Y-66872419D02*
X136922932Y-66872419D01*
X136922932Y-66872419D02*
X136827694Y-66824800D01*
X136827694Y-66824800D02*
X136780075Y-66777180D01*
X120703014Y-77655639D02*
X119953014Y-77655639D01*
X119953014Y-77655639D02*
X119953014Y-77477068D01*
X119953014Y-77477068D02*
X119988728Y-77369925D01*
X119988728Y-77369925D02*
X120060157Y-77298496D01*
X120060157Y-77298496D02*
X120131585Y-77262782D01*
X120131585Y-77262782D02*
X120274442Y-77227068D01*
X120274442Y-77227068D02*
X120381585Y-77227068D01*
X120381585Y-77227068D02*
X120524442Y-77262782D01*
X120524442Y-77262782D02*
X120595871Y-77298496D01*
X120595871Y-77298496D02*
X120667300Y-77369925D01*
X120667300Y-77369925D02*
X120703014Y-77477068D01*
X120703014Y-77477068D02*
X120703014Y-77655639D01*
X120274442Y-76798496D02*
X120238728Y-76869925D01*
X120238728Y-76869925D02*
X120203014Y-76905639D01*
X120203014Y-76905639D02*
X120131585Y-76941353D01*
X120131585Y-76941353D02*
X120095871Y-76941353D01*
X120095871Y-76941353D02*
X120024442Y-76905639D01*
X120024442Y-76905639D02*
X119988728Y-76869925D01*
X119988728Y-76869925D02*
X119953014Y-76798496D01*
X119953014Y-76798496D02*
X119953014Y-76655639D01*
X119953014Y-76655639D02*
X119988728Y-76584211D01*
X119988728Y-76584211D02*
X120024442Y-76548496D01*
X120024442Y-76548496D02*
X120095871Y-76512782D01*
X120095871Y-76512782D02*
X120131585Y-76512782D01*
X120131585Y-76512782D02*
X120203014Y-76548496D01*
X120203014Y-76548496D02*
X120238728Y-76584211D01*
X120238728Y-76584211D02*
X120274442Y-76655639D01*
X120274442Y-76655639D02*
X120274442Y-76798496D01*
X120274442Y-76798496D02*
X120310157Y-76869925D01*
X120310157Y-76869925D02*
X120345871Y-76905639D01*
X120345871Y-76905639D02*
X120417300Y-76941353D01*
X120417300Y-76941353D02*
X120560157Y-76941353D01*
X120560157Y-76941353D02*
X120631585Y-76905639D01*
X120631585Y-76905639D02*
X120667300Y-76869925D01*
X120667300Y-76869925D02*
X120703014Y-76798496D01*
X120703014Y-76798496D02*
X120703014Y-76655639D01*
X120703014Y-76655639D02*
X120667300Y-76584211D01*
X120667300Y-76584211D02*
X120631585Y-76548496D01*
X120631585Y-76548496D02*
X120560157Y-76512782D01*
X120560157Y-76512782D02*
X120417300Y-76512782D01*
X120417300Y-76512782D02*
X120345871Y-76548496D01*
X120345871Y-76548496D02*
X120310157Y-76584211D01*
X120310157Y-76584211D02*
X120274442Y-76655639D01*
X98151390Y-74714285D02*
X98103771Y-74857142D01*
X98103771Y-74857142D02*
X98056152Y-74904761D01*
X98056152Y-74904761D02*
X97960914Y-74952380D01*
X97960914Y-74952380D02*
X97818057Y-74952380D01*
X97818057Y-74952380D02*
X97722819Y-74904761D01*
X97722819Y-74904761D02*
X97675200Y-74857142D01*
X97675200Y-74857142D02*
X97627580Y-74761904D01*
X97627580Y-74761904D02*
X97627580Y-74380952D01*
X97627580Y-74380952D02*
X98627580Y-74380952D01*
X98627580Y-74380952D02*
X98627580Y-74714285D01*
X98627580Y-74714285D02*
X98579961Y-74809523D01*
X98579961Y-74809523D02*
X98532342Y-74857142D01*
X98532342Y-74857142D02*
X98437104Y-74904761D01*
X98437104Y-74904761D02*
X98341866Y-74904761D01*
X98341866Y-74904761D02*
X98246628Y-74857142D01*
X98246628Y-74857142D02*
X98199009Y-74809523D01*
X98199009Y-74809523D02*
X98151390Y-74714285D01*
X98151390Y-74714285D02*
X98151390Y-74380952D01*
X98294247Y-75809523D02*
X97627580Y-75809523D01*
X98294247Y-75380952D02*
X97770438Y-75380952D01*
X97770438Y-75380952D02*
X97675200Y-75428571D01*
X97675200Y-75428571D02*
X97627580Y-75523809D01*
X97627580Y-75523809D02*
X97627580Y-75666666D01*
X97627580Y-75666666D02*
X97675200Y-75761904D01*
X97675200Y-75761904D02*
X97722819Y-75809523D01*
X97675200Y-76238095D02*
X97627580Y-76333333D01*
X97627580Y-76333333D02*
X97627580Y-76523809D01*
X97627580Y-76523809D02*
X97675200Y-76619047D01*
X97675200Y-76619047D02*
X97770438Y-76666666D01*
X97770438Y-76666666D02*
X97818057Y-76666666D01*
X97818057Y-76666666D02*
X97913295Y-76619047D01*
X97913295Y-76619047D02*
X97960914Y-76523809D01*
X97960914Y-76523809D02*
X97960914Y-76380952D01*
X97960914Y-76380952D02*
X98008533Y-76285714D01*
X98008533Y-76285714D02*
X98103771Y-76238095D01*
X98103771Y-76238095D02*
X98151390Y-76238095D01*
X98151390Y-76238095D02*
X98246628Y-76285714D01*
X98246628Y-76285714D02*
X98294247Y-76380952D01*
X98294247Y-76380952D02*
X98294247Y-76523809D01*
X98294247Y-76523809D02*
X98246628Y-76619047D01*
X136203014Y-77655639D02*
X135453014Y-77655639D01*
X135453014Y-77655639D02*
X135453014Y-77477068D01*
X135453014Y-77477068D02*
X135488728Y-77369925D01*
X135488728Y-77369925D02*
X135560157Y-77298496D01*
X135560157Y-77298496D02*
X135631585Y-77262782D01*
X135631585Y-77262782D02*
X135774442Y-77227068D01*
X135774442Y-77227068D02*
X135881585Y-77227068D01*
X135881585Y-77227068D02*
X136024442Y-77262782D01*
X136024442Y-77262782D02*
X136095871Y-77298496D01*
X136095871Y-77298496D02*
X136167300Y-77369925D01*
X136167300Y-77369925D02*
X136203014Y-77477068D01*
X136203014Y-77477068D02*
X136203014Y-77655639D01*
X135453014Y-76977068D02*
X135453014Y-76512782D01*
X135453014Y-76512782D02*
X135738728Y-76762782D01*
X135738728Y-76762782D02*
X135738728Y-76655639D01*
X135738728Y-76655639D02*
X135774442Y-76584211D01*
X135774442Y-76584211D02*
X135810157Y-76548496D01*
X135810157Y-76548496D02*
X135881585Y-76512782D01*
X135881585Y-76512782D02*
X136060157Y-76512782D01*
X136060157Y-76512782D02*
X136131585Y-76548496D01*
X136131585Y-76548496D02*
X136167300Y-76584211D01*
X136167300Y-76584211D02*
X136203014Y-76655639D01*
X136203014Y-76655639D02*
X136203014Y-76869925D01*
X136203014Y-76869925D02*
X136167300Y-76941353D01*
X136167300Y-76941353D02*
X136131585Y-76977068D01*
X122366665Y-86977180D02*
X122319046Y-87024800D01*
X122319046Y-87024800D02*
X122176189Y-87072419D01*
X122176189Y-87072419D02*
X122080951Y-87072419D01*
X122080951Y-87072419D02*
X121938094Y-87024800D01*
X121938094Y-87024800D02*
X121842856Y-86929561D01*
X121842856Y-86929561D02*
X121795237Y-86834323D01*
X121795237Y-86834323D02*
X121747618Y-86643847D01*
X121747618Y-86643847D02*
X121747618Y-86500990D01*
X121747618Y-86500990D02*
X121795237Y-86310514D01*
X121795237Y-86310514D02*
X121842856Y-86215276D01*
X121842856Y-86215276D02*
X121938094Y-86120038D01*
X121938094Y-86120038D02*
X122080951Y-86072419D01*
X122080951Y-86072419D02*
X122176189Y-86072419D01*
X122176189Y-86072419D02*
X122319046Y-86120038D01*
X122319046Y-86120038D02*
X122366665Y-86167657D01*
X123223808Y-86405752D02*
X123223808Y-87072419D01*
X122795237Y-86405752D02*
X122795237Y-86929561D01*
X122795237Y-86929561D02*
X122842856Y-87024800D01*
X122842856Y-87024800D02*
X122938094Y-87072419D01*
X122938094Y-87072419D02*
X123080951Y-87072419D01*
X123080951Y-87072419D02*
X123176189Y-87024800D01*
X123176189Y-87024800D02*
X123223808Y-86977180D01*
X123699999Y-87072419D02*
X123699999Y-86405752D01*
X123699999Y-86596228D02*
X123747618Y-86500990D01*
X123747618Y-86500990D02*
X123795237Y-86453371D01*
X123795237Y-86453371D02*
X123890475Y-86405752D01*
X123890475Y-86405752D02*
X123985713Y-86405752D01*
X124319047Y-87072419D02*
X124319047Y-86405752D01*
X124319047Y-86596228D02*
X124366666Y-86500990D01*
X124366666Y-86500990D02*
X124414285Y-86453371D01*
X124414285Y-86453371D02*
X124509523Y-86405752D01*
X124509523Y-86405752D02*
X124604761Y-86405752D01*
X125319047Y-87024800D02*
X125223809Y-87072419D01*
X125223809Y-87072419D02*
X125033333Y-87072419D01*
X125033333Y-87072419D02*
X124938095Y-87024800D01*
X124938095Y-87024800D02*
X124890476Y-86929561D01*
X124890476Y-86929561D02*
X124890476Y-86548609D01*
X124890476Y-86548609D02*
X124938095Y-86453371D01*
X124938095Y-86453371D02*
X125033333Y-86405752D01*
X125033333Y-86405752D02*
X125223809Y-86405752D01*
X125223809Y-86405752D02*
X125319047Y-86453371D01*
X125319047Y-86453371D02*
X125366666Y-86548609D01*
X125366666Y-86548609D02*
X125366666Y-86643847D01*
X125366666Y-86643847D02*
X124890476Y-86739085D01*
X125795238Y-86405752D02*
X125795238Y-87072419D01*
X125795238Y-86500990D02*
X125842857Y-86453371D01*
X125842857Y-86453371D02*
X125938095Y-86405752D01*
X125938095Y-86405752D02*
X126080952Y-86405752D01*
X126080952Y-86405752D02*
X126176190Y-86453371D01*
X126176190Y-86453371D02*
X126223809Y-86548609D01*
X126223809Y-86548609D02*
X126223809Y-87072419D01*
X126557143Y-86405752D02*
X126938095Y-86405752D01*
X126700000Y-86072419D02*
X126700000Y-86929561D01*
X126700000Y-86929561D02*
X126747619Y-87024800D01*
X126747619Y-87024800D02*
X126842857Y-87072419D01*
X126842857Y-87072419D02*
X126938095Y-87072419D01*
X127890477Y-86072419D02*
X128223810Y-87072419D01*
X128223810Y-87072419D02*
X128557143Y-86072419D01*
X129319048Y-87072419D02*
X129319048Y-86548609D01*
X129319048Y-86548609D02*
X129271429Y-86453371D01*
X129271429Y-86453371D02*
X129176191Y-86405752D01*
X129176191Y-86405752D02*
X128985715Y-86405752D01*
X128985715Y-86405752D02*
X128890477Y-86453371D01*
X129319048Y-87024800D02*
X129223810Y-87072419D01*
X129223810Y-87072419D02*
X128985715Y-87072419D01*
X128985715Y-87072419D02*
X128890477Y-87024800D01*
X128890477Y-87024800D02*
X128842858Y-86929561D01*
X128842858Y-86929561D02*
X128842858Y-86834323D01*
X128842858Y-86834323D02*
X128890477Y-86739085D01*
X128890477Y-86739085D02*
X128985715Y-86691466D01*
X128985715Y-86691466D02*
X129223810Y-86691466D01*
X129223810Y-86691466D02*
X129319048Y-86643847D01*
X129938096Y-87072419D02*
X129842858Y-87024800D01*
X129842858Y-87024800D02*
X129795239Y-86929561D01*
X129795239Y-86929561D02*
X129795239Y-86072419D01*
X130747620Y-86405752D02*
X130747620Y-87072419D01*
X130319049Y-86405752D02*
X130319049Y-86929561D01*
X130319049Y-86929561D02*
X130366668Y-87024800D01*
X130366668Y-87024800D02*
X130461906Y-87072419D01*
X130461906Y-87072419D02*
X130604763Y-87072419D01*
X130604763Y-87072419D02*
X130700001Y-87024800D01*
X130700001Y-87024800D02*
X130747620Y-86977180D01*
X131604763Y-87024800D02*
X131509525Y-87072419D01*
X131509525Y-87072419D02*
X131319049Y-87072419D01*
X131319049Y-87072419D02*
X131223811Y-87024800D01*
X131223811Y-87024800D02*
X131176192Y-86929561D01*
X131176192Y-86929561D02*
X131176192Y-86548609D01*
X131176192Y-86548609D02*
X131223811Y-86453371D01*
X131223811Y-86453371D02*
X131319049Y-86405752D01*
X131319049Y-86405752D02*
X131509525Y-86405752D01*
X131509525Y-86405752D02*
X131604763Y-86453371D01*
X131604763Y-86453371D02*
X131652382Y-86548609D01*
X131652382Y-86548609D02*
X131652382Y-86643847D01*
X131652382Y-86643847D02*
X131176192Y-86739085D01*
G36*
X102204169Y-75513346D02*
G01*
X102099864Y-75521290D01*
X102000411Y-75544328D01*
X101906990Y-75581265D01*
X101820783Y-75630908D01*
X101742971Y-75692063D01*
X101674734Y-75763537D01*
X101617253Y-75844136D01*
X101571710Y-75932667D01*
X101539285Y-76027935D01*
X101521159Y-76128748D01*
X101517602Y-76198447D01*
X101517602Y-76538799D01*
X101521135Y-76616872D01*
X101531506Y-76691203D01*
X101559139Y-76795330D01*
X101600245Y-76890127D01*
X101653674Y-76975052D01*
X101718278Y-77049557D01*
X101792910Y-77113098D01*
X101876421Y-77165130D01*
X101967662Y-77205107D01*
X102065484Y-77232485D01*
X102168741Y-77246718D01*
X102204169Y-77248447D01*
X102285259Y-77247386D01*
X102362971Y-77237897D01*
X102437084Y-77220001D01*
X102507381Y-77193721D01*
X102573642Y-77159078D01*
X102635649Y-77116092D01*
X102693182Y-77064786D01*
X102746022Y-77005181D01*
X102792046Y-76939144D01*
X102828240Y-76873563D01*
X102858296Y-76800518D01*
X102867655Y-76771074D01*
X102881579Y-76698998D01*
X102891102Y-76621964D01*
X102897690Y-76546567D01*
X102899162Y-76511688D01*
X102897935Y-76437211D01*
X102897330Y-76425593D01*
X102895138Y-76350840D01*
X102895132Y-76347923D01*
X102855672Y-76283807D01*
X102829919Y-76280512D01*
X102271214Y-76280512D01*
X102208462Y-76318689D01*
X102204169Y-76347923D01*
X102204169Y-76477983D01*
X102245746Y-76539292D01*
X102271214Y-76545027D01*
X102632449Y-76545027D01*
X102623332Y-76618528D01*
X102622191Y-76628192D01*
X102608597Y-76700246D01*
X102590683Y-76751657D01*
X102550733Y-76817859D01*
X102500949Y-76872616D01*
X102430399Y-76923344D01*
X102350575Y-76957883D01*
X102278895Y-76974412D01*
X102204169Y-76979902D01*
X102129765Y-76973369D01*
X102051725Y-76950952D01*
X101981473Y-76914298D01*
X101919353Y-76865193D01*
X101912177Y-76858269D01*
X101861332Y-76796708D01*
X101823059Y-76724912D01*
X101801123Y-76651373D01*
X101791081Y-76565756D01*
X101790544Y-76538799D01*
X101790544Y-76198447D01*
X101799015Y-76115642D01*
X101823282Y-76038431D01*
X101861622Y-75968494D01*
X101912314Y-75907508D01*
X101973637Y-75857152D01*
X102043868Y-75819105D01*
X102121286Y-75795046D01*
X102204169Y-75786653D01*
X102279597Y-75792992D01*
X102361196Y-75816584D01*
X102433166Y-75856356D01*
X102495609Y-75910976D01*
X102548627Y-75979111D01*
X102571632Y-76017829D01*
X102569434Y-76015631D01*
X102630617Y-76055565D01*
X102781559Y-76055565D01*
X102848108Y-76020846D01*
X102846772Y-75971667D01*
X102810647Y-75897207D01*
X102768632Y-75827882D01*
X102721039Y-75764168D01*
X102668178Y-75706546D01*
X102610362Y-75655492D01*
X102547901Y-75611485D01*
X102481109Y-75575003D01*
X102410295Y-75546524D01*
X102335772Y-75526527D01*
X102257850Y-75515490D01*
X102204169Y-75513346D01*
G37*
G36*
X104237857Y-77225000D02*
G01*
X104302457Y-77189493D01*
X104307100Y-77141102D01*
X104307100Y-77027896D01*
X104290450Y-76956463D01*
X104223203Y-76945830D01*
X103408408Y-76945830D01*
X103408408Y-76474685D01*
X104107798Y-76474685D01*
X104169982Y-76433109D01*
X104174842Y-76405443D01*
X104174842Y-76262927D01*
X104135121Y-76198578D01*
X104107798Y-76193318D01*
X103408408Y-76193318D01*
X103408408Y-75816329D01*
X104196092Y-75816329D01*
X104269532Y-75799137D01*
X104279989Y-75734263D01*
X104279989Y-75618859D01*
X104257488Y-75547341D01*
X104210746Y-75536793D01*
X103196284Y-75536793D01*
X103131806Y-75573800D01*
X103124842Y-75604204D01*
X103128872Y-77157955D01*
X103168904Y-77220139D01*
X103196284Y-77225000D01*
X104237857Y-77225000D01*
G37*
G36*
X105801500Y-75604570D02*
G01*
X105759923Y-75542643D01*
X105732257Y-75536793D01*
X105589741Y-75536793D01*
X105526742Y-75576811D01*
X105520132Y-75604570D01*
X105520132Y-76657501D01*
X104799860Y-75568667D01*
X104799860Y-75570865D01*
X104743073Y-75536793D01*
X104587735Y-75536793D01*
X104525550Y-75579761D01*
X104520690Y-75604570D01*
X104524720Y-77157588D01*
X104564013Y-77220514D01*
X104587735Y-77225000D01*
X104732815Y-77225000D01*
X104795519Y-77185278D01*
X104802058Y-77157588D01*
X104802058Y-76106856D01*
X104850037Y-76178182D01*
X104897188Y-76248290D01*
X104943618Y-76317343D01*
X104989436Y-76385504D01*
X105034750Y-76452938D01*
X105079667Y-76519808D01*
X105124295Y-76586277D01*
X105168743Y-76652510D01*
X105213117Y-76718669D01*
X105257527Y-76784919D01*
X105302079Y-76851424D01*
X105346882Y-76918347D01*
X105392043Y-76985851D01*
X105437671Y-77054101D01*
X105483873Y-77123260D01*
X105530757Y-77193492D01*
X105589741Y-77225000D01*
X105732257Y-77225000D01*
X105794960Y-77185278D01*
X105801500Y-77157588D01*
X105801500Y-75604570D01*
G37*
G36*
X107168771Y-77225000D02*
G01*
X107233372Y-77189493D01*
X107238014Y-77141102D01*
X107238014Y-77027896D01*
X107221364Y-76956463D01*
X107154117Y-76945830D01*
X106339323Y-76945830D01*
X106339323Y-76474685D01*
X107038712Y-76474685D01*
X107100897Y-76433109D01*
X107105757Y-76405443D01*
X107105757Y-76262927D01*
X107066035Y-76198578D01*
X107038712Y-76193318D01*
X106339323Y-76193318D01*
X106339323Y-75816329D01*
X107127006Y-75816329D01*
X107200446Y-75799137D01*
X107210903Y-75734263D01*
X107210903Y-75618859D01*
X107188403Y-75547341D01*
X107141660Y-75536793D01*
X106127198Y-75536793D01*
X106062720Y-75573800D01*
X106055757Y-75604204D01*
X106059787Y-77157955D01*
X106099818Y-77220139D01*
X106127198Y-77225000D01*
X107168771Y-77225000D01*
G37*
G36*
X108301539Y-75538704D02*
G01*
X108385650Y-75559149D01*
X108461801Y-75599409D01*
X108526723Y-75656272D01*
X108577144Y-75726527D01*
X108609795Y-75806962D01*
X108621406Y-75894364D01*
X108621155Y-75909213D01*
X108609595Y-75990589D01*
X108582291Y-76060365D01*
X108533303Y-76130108D01*
X108478997Y-76182458D01*
X108415509Y-76230321D01*
X108431913Y-76274334D01*
X108460272Y-76350037D01*
X108488285Y-76424948D01*
X108516068Y-76500102D01*
X108543736Y-76576535D01*
X108568985Y-76646409D01*
X108594466Y-76716434D01*
X108620205Y-76786588D01*
X108646227Y-76856849D01*
X108672558Y-76927196D01*
X108699224Y-76997608D01*
X108726250Y-77068062D01*
X108753663Y-77138538D01*
X108756731Y-77194308D01*
X108688450Y-77225000D01*
X108528715Y-77225000D01*
X108517157Y-77224352D01*
X108461671Y-77172243D01*
X108159420Y-76367707D01*
X108132406Y-76381882D01*
X108066217Y-76417008D01*
X108001228Y-76451884D01*
X107936535Y-76486754D01*
X107871232Y-76521860D01*
X107804412Y-76557445D01*
X107735170Y-76593754D01*
X107735170Y-77142934D01*
X107731036Y-77187415D01*
X107667759Y-77225000D01*
X107518649Y-77225000D01*
X107494658Y-77220514D01*
X107453436Y-77157588D01*
X107451151Y-76276849D01*
X107735170Y-76276849D01*
X107768531Y-76260232D01*
X107846755Y-76220997D01*
X107912380Y-76187591D01*
X107981011Y-76151984D01*
X108049985Y-76115263D01*
X108116639Y-76078517D01*
X108197301Y-76031366D01*
X108262795Y-75988686D01*
X108318789Y-75938695D01*
X108318789Y-75940893D01*
X108331612Y-75896563D01*
X108316201Y-75848550D01*
X108249546Y-75816329D01*
X107735170Y-75816329D01*
X107735170Y-76276849D01*
X107451151Y-76276849D01*
X107449406Y-75604204D01*
X107455946Y-75576515D01*
X107518649Y-75536793D01*
X108266399Y-75536793D01*
X108301539Y-75538704D01*
G37*
G36*
X109621589Y-75538042D02*
G01*
X109672505Y-75591748D01*
X110209961Y-77132309D01*
X110212159Y-77157588D01*
X110207860Y-77186823D01*
X110144748Y-77225000D01*
X109993806Y-77225000D01*
X109978783Y-77223946D01*
X109926395Y-77170411D01*
X109735519Y-76615369D01*
X109218579Y-76845446D01*
X109103175Y-77170411D01*
X109096865Y-77185241D01*
X109033932Y-77225000D01*
X108888852Y-77225000D01*
X108860969Y-77218876D01*
X108819609Y-77157588D01*
X108825024Y-77140076D01*
X108851379Y-77060256D01*
X108879165Y-76977126D01*
X108913572Y-76874689D01*
X108953271Y-76756911D01*
X108996934Y-76627759D01*
X109043230Y-76491199D01*
X109052699Y-76463328D01*
X109344609Y-76463328D01*
X109634403Y-76334734D01*
X109611673Y-76273825D01*
X109586409Y-76201744D01*
X109565160Y-76136165D01*
X109562435Y-76128235D01*
X109538697Y-76054882D01*
X109514968Y-75984490D01*
X109344609Y-76463328D01*
X109052699Y-76463328D01*
X109066950Y-76421379D01*
X109090831Y-76351195D01*
X109114705Y-76281142D01*
X109138406Y-76211715D01*
X109184628Y-76076724D01*
X109228165Y-75950188D01*
X109267690Y-75836074D01*
X109301873Y-75738346D01*
X109329384Y-75660972D01*
X109355233Y-75591748D01*
X109360609Y-75580340D01*
X109422278Y-75536793D01*
X109607292Y-75536793D01*
X109621589Y-75538042D01*
G37*
G36*
X111355949Y-77225000D02*
G01*
X111419225Y-77186163D01*
X111423360Y-77141102D01*
X111423360Y-77027896D01*
X111406167Y-76954714D01*
X111341294Y-76945830D01*
X110644103Y-76945830D01*
X110644103Y-75619225D01*
X110621342Y-75547426D01*
X110577058Y-75536793D01*
X110431978Y-75536793D01*
X110369227Y-75575278D01*
X110364933Y-75604570D01*
X110368963Y-77157955D01*
X110407522Y-77221709D01*
X110431978Y-77225000D01*
X111355949Y-77225000D01*
G37*
G36*
X102373765Y-78058704D02*
G01*
X102457876Y-78079149D01*
X102534027Y-78119409D01*
X102598949Y-78176272D01*
X102649370Y-78246527D01*
X102682021Y-78326962D01*
X102693632Y-78414364D01*
X102693381Y-78429213D01*
X102681821Y-78510589D01*
X102654517Y-78580365D01*
X102605529Y-78650108D01*
X102551223Y-78702458D01*
X102487735Y-78750321D01*
X102504139Y-78794334D01*
X102532498Y-78870037D01*
X102560511Y-78944948D01*
X102588294Y-79020102D01*
X102615963Y-79096535D01*
X102641212Y-79166409D01*
X102666693Y-79236434D01*
X102692431Y-79306588D01*
X102718453Y-79376849D01*
X102744784Y-79447196D01*
X102771450Y-79517608D01*
X102798476Y-79588062D01*
X102825889Y-79658538D01*
X102828957Y-79714308D01*
X102760676Y-79745000D01*
X102600942Y-79745000D01*
X102589383Y-79744352D01*
X102533897Y-79692243D01*
X102231646Y-78887707D01*
X102204632Y-78901882D01*
X102138443Y-78937008D01*
X102073454Y-78971884D01*
X102008761Y-79006754D01*
X101943458Y-79041860D01*
X101876638Y-79077445D01*
X101807397Y-79113754D01*
X101807397Y-79662934D01*
X101803262Y-79707415D01*
X101739986Y-79745000D01*
X101590875Y-79745000D01*
X101566884Y-79740514D01*
X101525662Y-79677588D01*
X101523377Y-78796849D01*
X101807397Y-78796849D01*
X101840757Y-78780232D01*
X101918981Y-78740997D01*
X101984606Y-78707591D01*
X102053237Y-78671984D01*
X102122211Y-78635263D01*
X102188865Y-78598517D01*
X102269527Y-78551366D01*
X102335021Y-78508686D01*
X102391015Y-78458695D01*
X102391015Y-78460893D01*
X102403838Y-78416563D01*
X102388427Y-78368550D01*
X102321772Y-78336329D01*
X101807397Y-78336329D01*
X101807397Y-78796849D01*
X101523377Y-78796849D01*
X101521632Y-78124204D01*
X101528172Y-78096515D01*
X101590875Y-78056793D01*
X102338625Y-78056793D01*
X102373765Y-78058704D01*
G37*
G36*
X104101570Y-79745000D02*
G01*
X104166170Y-79709493D01*
X104170812Y-79661102D01*
X104170812Y-79547896D01*
X104154162Y-79476463D01*
X104086915Y-79465830D01*
X103272121Y-79465830D01*
X103272121Y-78994685D01*
X103971510Y-78994685D01*
X104033695Y-78953109D01*
X104038555Y-78925443D01*
X104038555Y-78782927D01*
X103998833Y-78718578D01*
X103971510Y-78713318D01*
X103272121Y-78713318D01*
X103272121Y-78336329D01*
X104059804Y-78336329D01*
X104133244Y-78319137D01*
X104143702Y-78254263D01*
X104143702Y-78138859D01*
X104121201Y-78067341D01*
X104074459Y-78056793D01*
X103059996Y-78056793D01*
X102995518Y-78093800D01*
X102988555Y-78124204D01*
X102992585Y-79677955D01*
X103032616Y-79740139D01*
X103059996Y-79745000D01*
X104101570Y-79745000D01*
G37*
G36*
X105064741Y-78033346D02*
G01*
X104960436Y-78041290D01*
X104860983Y-78064328D01*
X104767562Y-78101265D01*
X104681355Y-78150908D01*
X104603543Y-78212063D01*
X104535306Y-78283537D01*
X104477825Y-78364136D01*
X104432282Y-78452667D01*
X104399857Y-78547935D01*
X104381731Y-78648748D01*
X104378175Y-78718447D01*
X104378175Y-79058799D01*
X104381707Y-79136872D01*
X104392078Y-79211203D01*
X104419711Y-79315330D01*
X104460817Y-79410127D01*
X104514246Y-79495052D01*
X104578851Y-79569557D01*
X104653482Y-79633098D01*
X104736993Y-79685130D01*
X104828234Y-79725107D01*
X104926057Y-79752485D01*
X105029313Y-79766718D01*
X105064741Y-79768447D01*
X105145832Y-79767386D01*
X105223543Y-79757897D01*
X105297657Y-79740001D01*
X105367954Y-79713721D01*
X105434215Y-79679078D01*
X105496221Y-79636092D01*
X105553754Y-79584786D01*
X105606594Y-79525181D01*
X105652618Y-79459144D01*
X105688813Y-79393563D01*
X105718868Y-79320518D01*
X105728227Y-79291074D01*
X105742152Y-79218998D01*
X105751674Y-79141964D01*
X105758263Y-79066567D01*
X105759734Y-79031688D01*
X105758507Y-78957211D01*
X105757903Y-78945593D01*
X105755711Y-78870840D01*
X105755704Y-78867923D01*
X105716244Y-78803807D01*
X105690491Y-78800512D01*
X105131786Y-78800512D01*
X105069035Y-78838689D01*
X105064741Y-78867923D01*
X105064741Y-78997983D01*
X105106318Y-79059292D01*
X105131786Y-79065027D01*
X105493021Y-79065027D01*
X105483905Y-79138528D01*
X105482763Y-79148192D01*
X105469169Y-79220246D01*
X105451256Y-79271657D01*
X105411306Y-79337859D01*
X105361521Y-79392616D01*
X105290971Y-79443344D01*
X105211147Y-79477883D01*
X105139467Y-79494412D01*
X105064741Y-79499902D01*
X104990338Y-79493369D01*
X104912298Y-79470952D01*
X104842046Y-79434298D01*
X104779925Y-79385193D01*
X104772749Y-79378269D01*
X104721904Y-79316708D01*
X104683631Y-79244912D01*
X104661696Y-79171373D01*
X104651653Y-79085756D01*
X104651116Y-79058799D01*
X104651116Y-78718447D01*
X104659587Y-78635642D01*
X104683854Y-78558431D01*
X104722194Y-78488494D01*
X104772886Y-78427508D01*
X104834209Y-78377152D01*
X104904440Y-78339105D01*
X104981858Y-78315046D01*
X105064741Y-78306653D01*
X105140169Y-78312992D01*
X105221768Y-78336584D01*
X105293738Y-78376356D01*
X105356181Y-78430976D01*
X105409199Y-78499111D01*
X105432205Y-78537829D01*
X105430006Y-78535631D01*
X105491189Y-78575565D01*
X105642131Y-78575565D01*
X105708680Y-78540846D01*
X105707344Y-78491667D01*
X105671219Y-78417207D01*
X105629205Y-78347882D01*
X105581611Y-78284168D01*
X105528750Y-78226546D01*
X105470934Y-78175492D01*
X105408474Y-78131485D01*
X105341681Y-78095003D01*
X105270867Y-78066524D01*
X105196344Y-78046527D01*
X105118423Y-78035490D01*
X105064741Y-78033346D01*
G37*
G36*
X106266782Y-78124570D02*
G01*
X106225206Y-78062643D01*
X106197540Y-78056793D01*
X106054658Y-78056793D01*
X105992473Y-78099761D01*
X105987613Y-78124570D01*
X105991643Y-79677588D01*
X106030936Y-79740514D01*
X106054658Y-79745000D01*
X106197540Y-79745000D01*
X106260243Y-79705278D01*
X106266782Y-79677588D01*
X106266782Y-78124570D01*
G37*
G36*
X107706960Y-79227327D02*
G01*
X107700780Y-79150989D01*
X107679232Y-79073181D01*
X107644367Y-79007512D01*
X107591080Y-78947355D01*
X107560048Y-78923244D01*
X107496468Y-78886469D01*
X107428521Y-78856956D01*
X107412770Y-78851437D01*
X107337911Y-78827725D01*
X107261228Y-78805972D01*
X107189694Y-78785931D01*
X107144225Y-78773035D01*
X106902424Y-78705624D01*
X106836119Y-78671805D01*
X106812299Y-78650669D01*
X106775632Y-78583667D01*
X106776727Y-78509419D01*
X106778593Y-78498628D01*
X106778593Y-78500826D01*
X106809065Y-78426306D01*
X106861621Y-78367378D01*
X106929908Y-78328647D01*
X107007571Y-78314713D01*
X107167306Y-78314713D01*
X107246551Y-78324903D01*
X107315305Y-78363919D01*
X107355887Y-78425106D01*
X107375781Y-78499842D01*
X107381263Y-78562009D01*
X107421603Y-78623627D01*
X107448674Y-78629420D01*
X107587159Y-78629420D01*
X107650241Y-78588388D01*
X107654204Y-78546988D01*
X107652607Y-78472225D01*
X107638978Y-78387586D01*
X107613694Y-78310429D01*
X107577943Y-78242811D01*
X107524591Y-78178725D01*
X107507292Y-78163771D01*
X107441877Y-78118436D01*
X107370460Y-78082656D01*
X107294192Y-78057466D01*
X107214222Y-78043904D01*
X107167306Y-78041772D01*
X107007571Y-78041772D01*
X106919110Y-78049549D01*
X106834590Y-78072043D01*
X106755754Y-78108001D01*
X106684346Y-78156169D01*
X106622109Y-78215294D01*
X106570785Y-78284122D01*
X106532118Y-78361399D01*
X106507850Y-78445872D01*
X106509682Y-78443674D01*
X106498221Y-78516913D01*
X106497226Y-78589487D01*
X106497226Y-78618796D01*
X106504611Y-78693300D01*
X106535575Y-78777703D01*
X106587336Y-78846967D01*
X106656253Y-78903193D01*
X106738686Y-78948487D01*
X106807190Y-78976547D01*
X106879712Y-79000529D01*
X106954717Y-79021320D01*
X107030669Y-79039806D01*
X107055931Y-79045610D01*
X107138134Y-79064550D01*
X107213705Y-79082138D01*
X107291034Y-79103267D01*
X107361542Y-79131601D01*
X107394085Y-79153321D01*
X107424486Y-79220689D01*
X107425593Y-79276053D01*
X107421196Y-79318185D01*
X107391366Y-79393719D01*
X107334505Y-79450946D01*
X107268006Y-79483924D01*
X107190721Y-79499089D01*
X107167306Y-79499902D01*
X107007571Y-79499902D01*
X106929324Y-79486381D01*
X106861895Y-79448886D01*
X106810610Y-79392019D01*
X106780792Y-79320383D01*
X106776395Y-79263230D01*
X106770167Y-79195453D01*
X106716294Y-79145339D01*
X106707152Y-79144895D01*
X106564270Y-79144895D01*
X106501341Y-79182730D01*
X106497226Y-79227327D01*
X106497226Y-79222930D01*
X106498550Y-79299234D01*
X106508938Y-79378388D01*
X106511880Y-79394023D01*
X106534580Y-79466333D01*
X106570865Y-79531409D01*
X106618296Y-79595254D01*
X106675266Y-79650511D01*
X106740523Y-79696266D01*
X106812819Y-79731604D01*
X106890904Y-79755611D01*
X106973530Y-79767375D01*
X107007571Y-79768447D01*
X107167306Y-79768447D01*
X107250317Y-79764614D01*
X107328924Y-79752778D01*
X107402198Y-79732432D01*
X107479708Y-79697262D01*
X107547226Y-79649012D01*
X107597066Y-79592557D01*
X107639305Y-79520869D01*
X107667671Y-79452607D01*
X107688951Y-79379263D01*
X107702321Y-79303337D01*
X107706960Y-79227327D01*
G37*
G36*
X109017079Y-78327903D02*
G01*
X109089215Y-78307211D01*
X109098778Y-78245837D01*
X109098778Y-78138859D01*
X109074492Y-78067341D01*
X109029535Y-78056793D01*
X107910293Y-78056793D01*
X107847016Y-78094377D01*
X107842882Y-78138859D01*
X107842882Y-78245837D01*
X107865008Y-78318092D01*
X107926779Y-78327903D01*
X108334542Y-78327903D01*
X108334542Y-79662934D01*
X108357140Y-79734452D01*
X108401587Y-79745000D01*
X108546667Y-79745000D01*
X108609597Y-79707415D01*
X108613712Y-79662934D01*
X108613712Y-78327903D01*
X109017079Y-78327903D01*
G37*
G36*
X110379588Y-79745000D02*
G01*
X110444188Y-79709493D01*
X110448831Y-79661102D01*
X110448831Y-79547896D01*
X110432180Y-79476463D01*
X110364933Y-79465830D01*
X109550139Y-79465830D01*
X109550139Y-78994685D01*
X110249528Y-78994685D01*
X110311713Y-78953109D01*
X110316573Y-78925443D01*
X110316573Y-78782927D01*
X110276851Y-78718578D01*
X110249528Y-78713318D01*
X109550139Y-78713318D01*
X109550139Y-78336329D01*
X110337822Y-78336329D01*
X110411262Y-78319137D01*
X110421720Y-78254263D01*
X110421720Y-78138859D01*
X110399219Y-78067341D01*
X110352477Y-78056793D01*
X109338014Y-78056793D01*
X109273536Y-78093800D01*
X109266573Y-78124204D01*
X109270603Y-79677955D01*
X109310634Y-79740139D01*
X109338014Y-79745000D01*
X110379588Y-79745000D01*
G37*
G36*
X111512356Y-78058704D02*
G01*
X111596466Y-78079149D01*
X111672618Y-78119409D01*
X111737539Y-78176272D01*
X111787961Y-78246527D01*
X111820612Y-78326962D01*
X111832222Y-78414364D01*
X111831971Y-78429213D01*
X111820411Y-78510589D01*
X111793107Y-78580365D01*
X111744119Y-78650108D01*
X111689813Y-78702458D01*
X111626325Y-78750321D01*
X111642729Y-78794334D01*
X111671088Y-78870037D01*
X111699101Y-78944948D01*
X111726885Y-79020102D01*
X111754553Y-79096535D01*
X111779802Y-79166409D01*
X111805283Y-79236434D01*
X111831021Y-79306588D01*
X111857043Y-79376849D01*
X111883374Y-79447196D01*
X111910040Y-79517608D01*
X111937067Y-79588062D01*
X111964480Y-79658538D01*
X111967547Y-79714308D01*
X111899267Y-79745000D01*
X111739532Y-79745000D01*
X111727973Y-79744352D01*
X111672487Y-79692243D01*
X111370237Y-78887707D01*
X111343222Y-78901882D01*
X111277033Y-78937008D01*
X111212045Y-78971884D01*
X111147352Y-79006754D01*
X111082048Y-79041860D01*
X111015228Y-79077445D01*
X110945987Y-79113754D01*
X110945987Y-79662934D01*
X110941852Y-79707415D01*
X110878576Y-79745000D01*
X110729466Y-79745000D01*
X110705474Y-79740514D01*
X110664253Y-79677588D01*
X110661968Y-78796849D01*
X110945987Y-78796849D01*
X110979348Y-78780232D01*
X111057571Y-78740997D01*
X111123197Y-78707591D01*
X111191827Y-78671984D01*
X111260801Y-78635263D01*
X111327455Y-78598517D01*
X111408117Y-78551366D01*
X111473611Y-78508686D01*
X111529605Y-78458695D01*
X111529605Y-78460893D01*
X111542428Y-78416563D01*
X111527017Y-78368550D01*
X111460362Y-78336329D01*
X110945987Y-78336329D01*
X110945987Y-78796849D01*
X110661968Y-78796849D01*
X110660223Y-78124204D01*
X110666762Y-78096515D01*
X110729466Y-78056793D01*
X111477215Y-78056793D01*
X111512356Y-78058704D01*
G37*
G36*
X114052756Y-78124570D02*
G01*
X114010252Y-78062643D01*
X113985711Y-78056793D01*
X113819748Y-78056793D01*
X113759092Y-78098924D01*
X113752337Y-78116144D01*
X113748307Y-78124570D01*
X113750505Y-78111748D01*
X113340910Y-79341999D01*
X112926919Y-78111748D01*
X112874250Y-78058042D01*
X112859874Y-78056793D01*
X112696109Y-78056793D01*
X112631194Y-78095278D01*
X112626866Y-78124570D01*
X112635293Y-78160474D01*
X112663578Y-78231400D01*
X112691059Y-78301763D01*
X112717816Y-78371641D01*
X112743931Y-78441115D01*
X112769483Y-78510265D01*
X112794554Y-78579170D01*
X112831432Y-78682246D01*
X112867678Y-78785222D01*
X112903565Y-78888368D01*
X112939363Y-78991955D01*
X112963314Y-79061390D01*
X112987427Y-79131221D01*
X113011783Y-79201528D01*
X113036461Y-79272390D01*
X113181175Y-79692609D01*
X113235951Y-79744352D01*
X113248586Y-79745000D01*
X113433234Y-79745000D01*
X113494918Y-79702434D01*
X113500279Y-79690411D01*
X113536182Y-79591127D01*
X113752337Y-78989923D01*
X113977285Y-78363073D01*
X114002208Y-78290580D01*
X114025310Y-78219770D01*
X114047764Y-78145144D01*
X114052756Y-78124570D01*
G37*
G36*
X114999441Y-79745000D02*
G01*
X115062374Y-79703938D01*
X115066486Y-79661102D01*
X115066486Y-79558154D01*
X115039134Y-79487428D01*
X114984787Y-79476454D01*
X114745184Y-79476454D01*
X114745184Y-78138859D01*
X114722586Y-78067341D01*
X114678140Y-78056793D01*
X114260118Y-78056793D01*
X114190585Y-78081897D01*
X114178419Y-78138859D01*
X114178419Y-78245837D01*
X114199295Y-78317349D01*
X114245464Y-78330101D01*
X114466015Y-78330101D01*
X114466015Y-79476454D01*
X114239235Y-79476454D01*
X114170106Y-79507510D01*
X114161566Y-79558154D01*
X114161566Y-79661102D01*
X114182442Y-79732364D01*
X114228611Y-79745000D01*
X114999441Y-79745000D01*
G37*
X133103014Y-77655639D02*
X132353014Y-77655639D01*
X132353014Y-77655639D02*
X132353014Y-77477068D01*
X132353014Y-77477068D02*
X132388728Y-77369925D01*
X132388728Y-77369925D02*
X132460157Y-77298496D01*
X132460157Y-77298496D02*
X132531585Y-77262782D01*
X132531585Y-77262782D02*
X132674442Y-77227068D01*
X132674442Y-77227068D02*
X132781585Y-77227068D01*
X132781585Y-77227068D02*
X132924442Y-77262782D01*
X132924442Y-77262782D02*
X132995871Y-77298496D01*
X132995871Y-77298496D02*
X133067300Y-77369925D01*
X133067300Y-77369925D02*
X133103014Y-77477068D01*
X133103014Y-77477068D02*
X133103014Y-77655639D01*
X132603014Y-76584211D02*
X133103014Y-76584211D01*
X132317300Y-76762782D02*
X132853014Y-76941353D01*
X132853014Y-76941353D02*
X132853014Y-76477068D01*
X130003014Y-77655639D02*
X129253014Y-77655639D01*
X129253014Y-77655639D02*
X129253014Y-77477068D01*
X129253014Y-77477068D02*
X129288728Y-77369925D01*
X129288728Y-77369925D02*
X129360157Y-77298496D01*
X129360157Y-77298496D02*
X129431585Y-77262782D01*
X129431585Y-77262782D02*
X129574442Y-77227068D01*
X129574442Y-77227068D02*
X129681585Y-77227068D01*
X129681585Y-77227068D02*
X129824442Y-77262782D01*
X129824442Y-77262782D02*
X129895871Y-77298496D01*
X129895871Y-77298496D02*
X129967300Y-77369925D01*
X129967300Y-77369925D02*
X130003014Y-77477068D01*
X130003014Y-77477068D02*
X130003014Y-77655639D01*
X129253014Y-76548496D02*
X129253014Y-76905639D01*
X129253014Y-76905639D02*
X129610157Y-76941353D01*
X129610157Y-76941353D02*
X129574442Y-76905639D01*
X129574442Y-76905639D02*
X129538728Y-76834211D01*
X129538728Y-76834211D02*
X129538728Y-76655639D01*
X129538728Y-76655639D02*
X129574442Y-76584211D01*
X129574442Y-76584211D02*
X129610157Y-76548496D01*
X129610157Y-76548496D02*
X129681585Y-76512782D01*
X129681585Y-76512782D02*
X129860157Y-76512782D01*
X129860157Y-76512782D02*
X129931585Y-76548496D01*
X129931585Y-76548496D02*
X129967300Y-76584211D01*
X129967300Y-76584211D02*
X130003014Y-76655639D01*
X130003014Y-76655639D02*
X130003014Y-76834211D01*
X130003014Y-76834211D02*
X129967300Y-76905639D01*
X129967300Y-76905639D02*
X129931585Y-76941353D01*
X123803014Y-77655639D02*
X123053014Y-77655639D01*
X123053014Y-77655639D02*
X123053014Y-77477068D01*
X123053014Y-77477068D02*
X123088728Y-77369925D01*
X123088728Y-77369925D02*
X123160157Y-77298496D01*
X123160157Y-77298496D02*
X123231585Y-77262782D01*
X123231585Y-77262782D02*
X123374442Y-77227068D01*
X123374442Y-77227068D02*
X123481585Y-77227068D01*
X123481585Y-77227068D02*
X123624442Y-77262782D01*
X123624442Y-77262782D02*
X123695871Y-77298496D01*
X123695871Y-77298496D02*
X123767300Y-77369925D01*
X123767300Y-77369925D02*
X123803014Y-77477068D01*
X123803014Y-77477068D02*
X123803014Y-77655639D01*
X123053014Y-76977068D02*
X123053014Y-76477068D01*
X123053014Y-76477068D02*
X123803014Y-76798496D01*
X100177180Y-63924687D02*
X100224800Y-63972306D01*
X100224800Y-63972306D02*
X100272419Y-64115163D01*
X100272419Y-64115163D02*
X100272419Y-64210401D01*
X100272419Y-64210401D02*
X100224800Y-64353258D01*
X100224800Y-64353258D02*
X100129561Y-64448496D01*
X100129561Y-64448496D02*
X100034323Y-64496115D01*
X100034323Y-64496115D02*
X99843847Y-64543734D01*
X99843847Y-64543734D02*
X99700990Y-64543734D01*
X99700990Y-64543734D02*
X99510514Y-64496115D01*
X99510514Y-64496115D02*
X99415276Y-64448496D01*
X99415276Y-64448496D02*
X99320038Y-64353258D01*
X99320038Y-64353258D02*
X99272419Y-64210401D01*
X99272419Y-64210401D02*
X99272419Y-64115163D01*
X99272419Y-64115163D02*
X99320038Y-63972306D01*
X99320038Y-63972306D02*
X99367657Y-63924687D01*
X100272419Y-62972306D02*
X100272419Y-63543734D01*
X100272419Y-63258020D02*
X99272419Y-63258020D01*
X99272419Y-63258020D02*
X99415276Y-63353258D01*
X99415276Y-63353258D02*
X99510514Y-63448496D01*
X99510514Y-63448496D02*
X99558133Y-63543734D01*
X97627580Y-63123809D02*
X98627580Y-63123809D01*
X98627580Y-63123809D02*
X98627580Y-63504761D01*
X98627580Y-63504761D02*
X98579961Y-63599999D01*
X98579961Y-63599999D02*
X98532342Y-63647618D01*
X98532342Y-63647618D02*
X98437104Y-63695237D01*
X98437104Y-63695237D02*
X98294247Y-63695237D01*
X98294247Y-63695237D02*
X98199009Y-63647618D01*
X98199009Y-63647618D02*
X98151390Y-63599999D01*
X98151390Y-63599999D02*
X98103771Y-63504761D01*
X98103771Y-63504761D02*
X98103771Y-63123809D01*
X97627580Y-64266666D02*
X97675200Y-64171428D01*
X97675200Y-64171428D02*
X97722819Y-64123809D01*
X97722819Y-64123809D02*
X97818057Y-64076190D01*
X97818057Y-64076190D02*
X98103771Y-64076190D01*
X98103771Y-64076190D02*
X98199009Y-64123809D01*
X98199009Y-64123809D02*
X98246628Y-64171428D01*
X98246628Y-64171428D02*
X98294247Y-64266666D01*
X98294247Y-64266666D02*
X98294247Y-64409523D01*
X98294247Y-64409523D02*
X98246628Y-64504761D01*
X98246628Y-64504761D02*
X98199009Y-64552380D01*
X98199009Y-64552380D02*
X98103771Y-64599999D01*
X98103771Y-64599999D02*
X97818057Y-64599999D01*
X97818057Y-64599999D02*
X97722819Y-64552380D01*
X97722819Y-64552380D02*
X97675200Y-64504761D01*
X97675200Y-64504761D02*
X97627580Y-64409523D01*
X97627580Y-64409523D02*
X97627580Y-64266666D01*
X98294247Y-64933333D02*
X97627580Y-65123809D01*
X97627580Y-65123809D02*
X98103771Y-65314285D01*
X98103771Y-65314285D02*
X97627580Y-65504761D01*
X97627580Y-65504761D02*
X98294247Y-65695237D01*
X97675200Y-66457142D02*
X97627580Y-66361904D01*
X97627580Y-66361904D02*
X97627580Y-66171428D01*
X97627580Y-66171428D02*
X97675200Y-66076190D01*
X97675200Y-66076190D02*
X97770438Y-66028571D01*
X97770438Y-66028571D02*
X98151390Y-66028571D01*
X98151390Y-66028571D02*
X98246628Y-66076190D01*
X98246628Y-66076190D02*
X98294247Y-66171428D01*
X98294247Y-66171428D02*
X98294247Y-66361904D01*
X98294247Y-66361904D02*
X98246628Y-66457142D01*
X98246628Y-66457142D02*
X98151390Y-66504761D01*
X98151390Y-66504761D02*
X98056152Y-66504761D01*
X98056152Y-66504761D02*
X97960914Y-66028571D01*
X97627580Y-66933333D02*
X98294247Y-66933333D01*
X98103771Y-66933333D02*
X98199009Y-66980952D01*
X98199009Y-66980952D02*
X98246628Y-67028571D01*
X98246628Y-67028571D02*
X98294247Y-67123809D01*
X98294247Y-67123809D02*
X98294247Y-67219047D01*
X142472419Y-82724687D02*
X141996228Y-83058020D01*
X142472419Y-83296115D02*
X141472419Y-83296115D01*
X141472419Y-83296115D02*
X141472419Y-82915163D01*
X141472419Y-82915163D02*
X141520038Y-82819925D01*
X141520038Y-82819925D02*
X141567657Y-82772306D01*
X141567657Y-82772306D02*
X141662895Y-82724687D01*
X141662895Y-82724687D02*
X141805752Y-82724687D01*
X141805752Y-82724687D02*
X141900990Y-82772306D01*
X141900990Y-82772306D02*
X141948609Y-82819925D01*
X141948609Y-82819925D02*
X141996228Y-82915163D01*
X141996228Y-82915163D02*
X141996228Y-83296115D01*
X142472419Y-81772306D02*
X142472419Y-82343734D01*
X142472419Y-82058020D02*
X141472419Y-82058020D01*
X141472419Y-82058020D02*
X141615276Y-82153258D01*
X141615276Y-82153258D02*
X141710514Y-82248496D01*
X141710514Y-82248496D02*
X141758133Y-82343734D01*
X123872419Y-82724687D02*
X123396228Y-83058020D01*
X123872419Y-83296115D02*
X122872419Y-83296115D01*
X122872419Y-83296115D02*
X122872419Y-82915163D01*
X122872419Y-82915163D02*
X122920038Y-82819925D01*
X122920038Y-82819925D02*
X122967657Y-82772306D01*
X122967657Y-82772306D02*
X123062895Y-82724687D01*
X123062895Y-82724687D02*
X123205752Y-82724687D01*
X123205752Y-82724687D02*
X123300990Y-82772306D01*
X123300990Y-82772306D02*
X123348609Y-82819925D01*
X123348609Y-82819925D02*
X123396228Y-82915163D01*
X123396228Y-82915163D02*
X123396228Y-83296115D01*
X122872419Y-82391353D02*
X122872419Y-81724687D01*
X122872419Y-81724687D02*
X123872419Y-82153258D01*
X136272419Y-82724687D02*
X135796228Y-83058020D01*
X136272419Y-83296115D02*
X135272419Y-83296115D01*
X135272419Y-83296115D02*
X135272419Y-82915163D01*
X135272419Y-82915163D02*
X135320038Y-82819925D01*
X135320038Y-82819925D02*
X135367657Y-82772306D01*
X135367657Y-82772306D02*
X135462895Y-82724687D01*
X135462895Y-82724687D02*
X135605752Y-82724687D01*
X135605752Y-82724687D02*
X135700990Y-82772306D01*
X135700990Y-82772306D02*
X135748609Y-82819925D01*
X135748609Y-82819925D02*
X135796228Y-82915163D01*
X135796228Y-82915163D02*
X135796228Y-83296115D01*
X135272419Y-82391353D02*
X135272419Y-81772306D01*
X135272419Y-81772306D02*
X135653371Y-82105639D01*
X135653371Y-82105639D02*
X135653371Y-81962782D01*
X135653371Y-81962782D02*
X135700990Y-81867544D01*
X135700990Y-81867544D02*
X135748609Y-81819925D01*
X135748609Y-81819925D02*
X135843847Y-81772306D01*
X135843847Y-81772306D02*
X136081942Y-81772306D01*
X136081942Y-81772306D02*
X136177180Y-81819925D01*
X136177180Y-81819925D02*
X136224800Y-81867544D01*
X136224800Y-81867544D02*
X136272419Y-81962782D01*
X136272419Y-81962782D02*
X136272419Y-82248496D01*
X136272419Y-82248496D02*
X136224800Y-82343734D01*
X136224800Y-82343734D02*
X136177180Y-82391353D01*
X126972419Y-82724687D02*
X126496228Y-83058020D01*
X126972419Y-83296115D02*
X125972419Y-83296115D01*
X125972419Y-83296115D02*
X125972419Y-82915163D01*
X125972419Y-82915163D02*
X126020038Y-82819925D01*
X126020038Y-82819925D02*
X126067657Y-82772306D01*
X126067657Y-82772306D02*
X126162895Y-82724687D01*
X126162895Y-82724687D02*
X126305752Y-82724687D01*
X126305752Y-82724687D02*
X126400990Y-82772306D01*
X126400990Y-82772306D02*
X126448609Y-82819925D01*
X126448609Y-82819925D02*
X126496228Y-82915163D01*
X126496228Y-82915163D02*
X126496228Y-83296115D01*
X125972419Y-81867544D02*
X125972419Y-82058020D01*
X125972419Y-82058020D02*
X126020038Y-82153258D01*
X126020038Y-82153258D02*
X126067657Y-82200877D01*
X126067657Y-82200877D02*
X126210514Y-82296115D01*
X126210514Y-82296115D02*
X126400990Y-82343734D01*
X126400990Y-82343734D02*
X126781942Y-82343734D01*
X126781942Y-82343734D02*
X126877180Y-82296115D01*
X126877180Y-82296115D02*
X126924800Y-82248496D01*
X126924800Y-82248496D02*
X126972419Y-82153258D01*
X126972419Y-82153258D02*
X126972419Y-81962782D01*
X126972419Y-81962782D02*
X126924800Y-81867544D01*
X126924800Y-81867544D02*
X126877180Y-81819925D01*
X126877180Y-81819925D02*
X126781942Y-81772306D01*
X126781942Y-81772306D02*
X126543847Y-81772306D01*
X126543847Y-81772306D02*
X126448609Y-81819925D01*
X126448609Y-81819925D02*
X126400990Y-81867544D01*
X126400990Y-81867544D02*
X126353371Y-81962782D01*
X126353371Y-81962782D02*
X126353371Y-82153258D01*
X126353371Y-82153258D02*
X126400990Y-82248496D01*
X126400990Y-82248496D02*
X126448609Y-82296115D01*
X126448609Y-82296115D02*
X126543847Y-82343734D01*
X102227693Y-80420038D02*
X102132455Y-80372419D01*
X102132455Y-80372419D02*
X101989598Y-80372419D01*
X101989598Y-80372419D02*
X101846741Y-80420038D01*
X101846741Y-80420038D02*
X101751503Y-80515276D01*
X101751503Y-80515276D02*
X101703884Y-80610514D01*
X101703884Y-80610514D02*
X101656265Y-80800990D01*
X101656265Y-80800990D02*
X101656265Y-80943847D01*
X101656265Y-80943847D02*
X101703884Y-81134323D01*
X101703884Y-81134323D02*
X101751503Y-81229561D01*
X101751503Y-81229561D02*
X101846741Y-81324800D01*
X101846741Y-81324800D02*
X101989598Y-81372419D01*
X101989598Y-81372419D02*
X102084836Y-81372419D01*
X102084836Y-81372419D02*
X102227693Y-81324800D01*
X102227693Y-81324800D02*
X102275312Y-81277180D01*
X102275312Y-81277180D02*
X102275312Y-80943847D01*
X102275312Y-80943847D02*
X102084836Y-80943847D01*
X103084836Y-81324800D02*
X102989598Y-81372419D01*
X102989598Y-81372419D02*
X102799122Y-81372419D01*
X102799122Y-81372419D02*
X102703884Y-81324800D01*
X102703884Y-81324800D02*
X102656265Y-81229561D01*
X102656265Y-81229561D02*
X102656265Y-80848609D01*
X102656265Y-80848609D02*
X102703884Y-80753371D01*
X102703884Y-80753371D02*
X102799122Y-80705752D01*
X102799122Y-80705752D02*
X102989598Y-80705752D01*
X102989598Y-80705752D02*
X103084836Y-80753371D01*
X103084836Y-80753371D02*
X103132455Y-80848609D01*
X103132455Y-80848609D02*
X103132455Y-80943847D01*
X103132455Y-80943847D02*
X102656265Y-81039085D01*
X103703884Y-81372419D02*
X103608646Y-81324800D01*
X103608646Y-81324800D02*
X103561027Y-81277180D01*
X103561027Y-81277180D02*
X103513408Y-81181942D01*
X103513408Y-81181942D02*
X103513408Y-80896228D01*
X103513408Y-80896228D02*
X103561027Y-80800990D01*
X103561027Y-80800990D02*
X103608646Y-80753371D01*
X103608646Y-80753371D02*
X103703884Y-80705752D01*
X103703884Y-80705752D02*
X103846741Y-80705752D01*
X103846741Y-80705752D02*
X103941979Y-80753371D01*
X103941979Y-80753371D02*
X103989598Y-80800990D01*
X103989598Y-80800990D02*
X104037217Y-80896228D01*
X104037217Y-80896228D02*
X104037217Y-81181942D01*
X104037217Y-81181942D02*
X103989598Y-81277180D01*
X103989598Y-81277180D02*
X103941979Y-81324800D01*
X103941979Y-81324800D02*
X103846741Y-81372419D01*
X103846741Y-81372419D02*
X103703884Y-81372419D01*
X104465789Y-81372419D02*
X104465789Y-80705752D01*
X104465789Y-80896228D02*
X104513408Y-80800990D01*
X104513408Y-80800990D02*
X104561027Y-80753371D01*
X104561027Y-80753371D02*
X104656265Y-80705752D01*
X104656265Y-80705752D02*
X104751503Y-80705752D01*
X105513408Y-80705752D02*
X105513408Y-81515276D01*
X105513408Y-81515276D02*
X105465789Y-81610514D01*
X105465789Y-81610514D02*
X105418170Y-81658133D01*
X105418170Y-81658133D02*
X105322932Y-81705752D01*
X105322932Y-81705752D02*
X105180075Y-81705752D01*
X105180075Y-81705752D02*
X105084837Y-81658133D01*
X105513408Y-81324800D02*
X105418170Y-81372419D01*
X105418170Y-81372419D02*
X105227694Y-81372419D01*
X105227694Y-81372419D02*
X105132456Y-81324800D01*
X105132456Y-81324800D02*
X105084837Y-81277180D01*
X105084837Y-81277180D02*
X105037218Y-81181942D01*
X105037218Y-81181942D02*
X105037218Y-80896228D01*
X105037218Y-80896228D02*
X105084837Y-80800990D01*
X105084837Y-80800990D02*
X105132456Y-80753371D01*
X105132456Y-80753371D02*
X105227694Y-80705752D01*
X105227694Y-80705752D02*
X105418170Y-80705752D01*
X105418170Y-80705752D02*
X105513408Y-80753371D01*
X106370551Y-81324800D02*
X106275313Y-81372419D01*
X106275313Y-81372419D02*
X106084837Y-81372419D01*
X106084837Y-81372419D02*
X105989599Y-81324800D01*
X105989599Y-81324800D02*
X105941980Y-81229561D01*
X105941980Y-81229561D02*
X105941980Y-80848609D01*
X105941980Y-80848609D02*
X105989599Y-80753371D01*
X105989599Y-80753371D02*
X106084837Y-80705752D01*
X106084837Y-80705752D02*
X106275313Y-80705752D01*
X106275313Y-80705752D02*
X106370551Y-80753371D01*
X106370551Y-80753371D02*
X106418170Y-80848609D01*
X106418170Y-80848609D02*
X106418170Y-80943847D01*
X106418170Y-80943847D02*
X105941980Y-81039085D01*
X107561028Y-81324800D02*
X107703885Y-81372419D01*
X107703885Y-81372419D02*
X107941980Y-81372419D01*
X107941980Y-81372419D02*
X108037218Y-81324800D01*
X108037218Y-81324800D02*
X108084837Y-81277180D01*
X108084837Y-81277180D02*
X108132456Y-81181942D01*
X108132456Y-81181942D02*
X108132456Y-81086704D01*
X108132456Y-81086704D02*
X108084837Y-80991466D01*
X108084837Y-80991466D02*
X108037218Y-80943847D01*
X108037218Y-80943847D02*
X107941980Y-80896228D01*
X107941980Y-80896228D02*
X107751504Y-80848609D01*
X107751504Y-80848609D02*
X107656266Y-80800990D01*
X107656266Y-80800990D02*
X107608647Y-80753371D01*
X107608647Y-80753371D02*
X107561028Y-80658133D01*
X107561028Y-80658133D02*
X107561028Y-80562895D01*
X107561028Y-80562895D02*
X107608647Y-80467657D01*
X107608647Y-80467657D02*
X107656266Y-80420038D01*
X107656266Y-80420038D02*
X107751504Y-80372419D01*
X107751504Y-80372419D02*
X107989599Y-80372419D01*
X107989599Y-80372419D02*
X108132456Y-80420038D01*
X108703885Y-81372419D02*
X108608647Y-81324800D01*
X108608647Y-81324800D02*
X108561028Y-81229561D01*
X108561028Y-81229561D02*
X108561028Y-80372419D01*
X109465790Y-81324800D02*
X109370552Y-81372419D01*
X109370552Y-81372419D02*
X109180076Y-81372419D01*
X109180076Y-81372419D02*
X109084838Y-81324800D01*
X109084838Y-81324800D02*
X109037219Y-81229561D01*
X109037219Y-81229561D02*
X109037219Y-80848609D01*
X109037219Y-80848609D02*
X109084838Y-80753371D01*
X109084838Y-80753371D02*
X109180076Y-80705752D01*
X109180076Y-80705752D02*
X109370552Y-80705752D01*
X109370552Y-80705752D02*
X109465790Y-80753371D01*
X109465790Y-80753371D02*
X109513409Y-80848609D01*
X109513409Y-80848609D02*
X109513409Y-80943847D01*
X109513409Y-80943847D02*
X109037219Y-81039085D01*
X110322933Y-81324800D02*
X110227695Y-81372419D01*
X110227695Y-81372419D02*
X110037219Y-81372419D01*
X110037219Y-81372419D02*
X109941981Y-81324800D01*
X109941981Y-81324800D02*
X109894362Y-81229561D01*
X109894362Y-81229561D02*
X109894362Y-80848609D01*
X109894362Y-80848609D02*
X109941981Y-80753371D01*
X109941981Y-80753371D02*
X110037219Y-80705752D01*
X110037219Y-80705752D02*
X110227695Y-80705752D01*
X110227695Y-80705752D02*
X110322933Y-80753371D01*
X110322933Y-80753371D02*
X110370552Y-80848609D01*
X110370552Y-80848609D02*
X110370552Y-80943847D01*
X110370552Y-80943847D02*
X109894362Y-81039085D01*
X110799124Y-80705752D02*
X110799124Y-81372419D01*
X110799124Y-80800990D02*
X110846743Y-80753371D01*
X110846743Y-80753371D02*
X110941981Y-80705752D01*
X110941981Y-80705752D02*
X111084838Y-80705752D01*
X111084838Y-80705752D02*
X111180076Y-80753371D01*
X111180076Y-80753371D02*
X111227695Y-80848609D01*
X111227695Y-80848609D02*
X111227695Y-81372419D01*
X130072419Y-82724687D02*
X129596228Y-83058020D01*
X130072419Y-83296115D02*
X129072419Y-83296115D01*
X129072419Y-83296115D02*
X129072419Y-82915163D01*
X129072419Y-82915163D02*
X129120038Y-82819925D01*
X129120038Y-82819925D02*
X129167657Y-82772306D01*
X129167657Y-82772306D02*
X129262895Y-82724687D01*
X129262895Y-82724687D02*
X129405752Y-82724687D01*
X129405752Y-82724687D02*
X129500990Y-82772306D01*
X129500990Y-82772306D02*
X129548609Y-82819925D01*
X129548609Y-82819925D02*
X129596228Y-82915163D01*
X129596228Y-82915163D02*
X129596228Y-83296115D01*
X129072419Y-81819925D02*
X129072419Y-82296115D01*
X129072419Y-82296115D02*
X129548609Y-82343734D01*
X129548609Y-82343734D02*
X129500990Y-82296115D01*
X129500990Y-82296115D02*
X129453371Y-82200877D01*
X129453371Y-82200877D02*
X129453371Y-81962782D01*
X129453371Y-81962782D02*
X129500990Y-81867544D01*
X129500990Y-81867544D02*
X129548609Y-81819925D01*
X129548609Y-81819925D02*
X129643847Y-81772306D01*
X129643847Y-81772306D02*
X129881942Y-81772306D01*
X129881942Y-81772306D02*
X129977180Y-81819925D01*
X129977180Y-81819925D02*
X130024800Y-81867544D01*
X130024800Y-81867544D02*
X130072419Y-81962782D01*
X130072419Y-81962782D02*
X130072419Y-82200877D01*
X130072419Y-82200877D02*
X130024800Y-82296115D01*
X130024800Y-82296115D02*
X129977180Y-82343734D01*
X139195237Y-87977180D02*
X139147618Y-88024800D01*
X139147618Y-88024800D02*
X139004761Y-88072419D01*
X139004761Y-88072419D02*
X138909523Y-88072419D01*
X138909523Y-88072419D02*
X138766666Y-88024800D01*
X138766666Y-88024800D02*
X138671428Y-87929561D01*
X138671428Y-87929561D02*
X138623809Y-87834323D01*
X138623809Y-87834323D02*
X138576190Y-87643847D01*
X138576190Y-87643847D02*
X138576190Y-87500990D01*
X138576190Y-87500990D02*
X138623809Y-87310514D01*
X138623809Y-87310514D02*
X138671428Y-87215276D01*
X138671428Y-87215276D02*
X138766666Y-87120038D01*
X138766666Y-87120038D02*
X138909523Y-87072419D01*
X138909523Y-87072419D02*
X139004761Y-87072419D01*
X139004761Y-87072419D02*
X139147618Y-87120038D01*
X139147618Y-87120038D02*
X139195237Y-87167657D01*
X139766666Y-88072419D02*
X139671428Y-88024800D01*
X139671428Y-88024800D02*
X139623809Y-87977180D01*
X139623809Y-87977180D02*
X139576190Y-87881942D01*
X139576190Y-87881942D02*
X139576190Y-87596228D01*
X139576190Y-87596228D02*
X139623809Y-87500990D01*
X139623809Y-87500990D02*
X139671428Y-87453371D01*
X139671428Y-87453371D02*
X139766666Y-87405752D01*
X139766666Y-87405752D02*
X139909523Y-87405752D01*
X139909523Y-87405752D02*
X140004761Y-87453371D01*
X140004761Y-87453371D02*
X140052380Y-87500990D01*
X140052380Y-87500990D02*
X140099999Y-87596228D01*
X140099999Y-87596228D02*
X140099999Y-87881942D01*
X140099999Y-87881942D02*
X140052380Y-87977180D01*
X140052380Y-87977180D02*
X140004761Y-88024800D01*
X140004761Y-88024800D02*
X139909523Y-88072419D01*
X139909523Y-88072419D02*
X139766666Y-88072419D01*
X140528571Y-87405752D02*
X140528571Y-88072419D01*
X140528571Y-87500990D02*
X140576190Y-87453371D01*
X140576190Y-87453371D02*
X140671428Y-87405752D01*
X140671428Y-87405752D02*
X140814285Y-87405752D01*
X140814285Y-87405752D02*
X140909523Y-87453371D01*
X140909523Y-87453371D02*
X140957142Y-87548609D01*
X140957142Y-87548609D02*
X140957142Y-88072419D01*
X141290476Y-87405752D02*
X141671428Y-87405752D01*
X141433333Y-87072419D02*
X141433333Y-87929561D01*
X141433333Y-87929561D02*
X141480952Y-88024800D01*
X141480952Y-88024800D02*
X141576190Y-88072419D01*
X141576190Y-88072419D02*
X141671428Y-88072419D01*
X142004762Y-88072419D02*
X142004762Y-87405752D01*
X142004762Y-87596228D02*
X142052381Y-87500990D01*
X142052381Y-87500990D02*
X142100000Y-87453371D01*
X142100000Y-87453371D02*
X142195238Y-87405752D01*
X142195238Y-87405752D02*
X142290476Y-87405752D01*
X142766667Y-88072419D02*
X142671429Y-88024800D01*
X142671429Y-88024800D02*
X142623810Y-87977180D01*
X142623810Y-87977180D02*
X142576191Y-87881942D01*
X142576191Y-87881942D02*
X142576191Y-87596228D01*
X142576191Y-87596228D02*
X142623810Y-87500990D01*
X142623810Y-87500990D02*
X142671429Y-87453371D01*
X142671429Y-87453371D02*
X142766667Y-87405752D01*
X142766667Y-87405752D02*
X142909524Y-87405752D01*
X142909524Y-87405752D02*
X143004762Y-87453371D01*
X143004762Y-87453371D02*
X143052381Y-87500990D01*
X143052381Y-87500990D02*
X143100000Y-87596228D01*
X143100000Y-87596228D02*
X143100000Y-87881942D01*
X143100000Y-87881942D02*
X143052381Y-87977180D01*
X143052381Y-87977180D02*
X143004762Y-88024800D01*
X143004762Y-88024800D02*
X142909524Y-88072419D01*
X142909524Y-88072419D02*
X142766667Y-88072419D01*
X143671429Y-88072419D02*
X143576191Y-88024800D01*
X143576191Y-88024800D02*
X143528572Y-87929561D01*
X143528572Y-87929561D02*
X143528572Y-87072419D01*
X133172419Y-82724687D02*
X132696228Y-83058020D01*
X133172419Y-83296115D02*
X132172419Y-83296115D01*
X132172419Y-83296115D02*
X132172419Y-82915163D01*
X132172419Y-82915163D02*
X132220038Y-82819925D01*
X132220038Y-82819925D02*
X132267657Y-82772306D01*
X132267657Y-82772306D02*
X132362895Y-82724687D01*
X132362895Y-82724687D02*
X132505752Y-82724687D01*
X132505752Y-82724687D02*
X132600990Y-82772306D01*
X132600990Y-82772306D02*
X132648609Y-82819925D01*
X132648609Y-82819925D02*
X132696228Y-82915163D01*
X132696228Y-82915163D02*
X132696228Y-83296115D01*
X132505752Y-81867544D02*
X133172419Y-81867544D01*
X132124800Y-82105639D02*
X132839085Y-82343734D01*
X132839085Y-82343734D02*
X132839085Y-81724687D01*
X139303014Y-77655639D02*
X138553014Y-77655639D01*
X138553014Y-77655639D02*
X138553014Y-77477068D01*
X138553014Y-77477068D02*
X138588728Y-77369925D01*
X138588728Y-77369925D02*
X138660157Y-77298496D01*
X138660157Y-77298496D02*
X138731585Y-77262782D01*
X138731585Y-77262782D02*
X138874442Y-77227068D01*
X138874442Y-77227068D02*
X138981585Y-77227068D01*
X138981585Y-77227068D02*
X139124442Y-77262782D01*
X139124442Y-77262782D02*
X139195871Y-77298496D01*
X139195871Y-77298496D02*
X139267300Y-77369925D01*
X139267300Y-77369925D02*
X139303014Y-77477068D01*
X139303014Y-77477068D02*
X139303014Y-77655639D01*
X138624442Y-76941353D02*
X138588728Y-76905639D01*
X138588728Y-76905639D02*
X138553014Y-76834211D01*
X138553014Y-76834211D02*
X138553014Y-76655639D01*
X138553014Y-76655639D02*
X138588728Y-76584211D01*
X138588728Y-76584211D02*
X138624442Y-76548496D01*
X138624442Y-76548496D02*
X138695871Y-76512782D01*
X138695871Y-76512782D02*
X138767300Y-76512782D01*
X138767300Y-76512782D02*
X138874442Y-76548496D01*
X138874442Y-76548496D02*
X139303014Y-76977068D01*
X139303014Y-76977068D02*
X139303014Y-76512782D01*
X108958646Y-65872419D02*
X109625312Y-65872419D01*
X109625312Y-65872419D02*
X109196741Y-66872419D01*
X110434836Y-66205752D02*
X110434836Y-66872419D01*
X110196741Y-65824800D02*
X109958646Y-66539085D01*
X109958646Y-66539085D02*
X110577693Y-66539085D01*
X111434836Y-66872419D02*
X110958646Y-66872419D01*
X110958646Y-66872419D02*
X110958646Y-65872419D01*
X111720551Y-66824800D02*
X111863408Y-66872419D01*
X111863408Y-66872419D02*
X112101503Y-66872419D01*
X112101503Y-66872419D02*
X112196741Y-66824800D01*
X112196741Y-66824800D02*
X112244360Y-66777180D01*
X112244360Y-66777180D02*
X112291979Y-66681942D01*
X112291979Y-66681942D02*
X112291979Y-66586704D01*
X112291979Y-66586704D02*
X112244360Y-66491466D01*
X112244360Y-66491466D02*
X112196741Y-66443847D01*
X112196741Y-66443847D02*
X112101503Y-66396228D01*
X112101503Y-66396228D02*
X111911027Y-66348609D01*
X111911027Y-66348609D02*
X111815789Y-66300990D01*
X111815789Y-66300990D02*
X111768170Y-66253371D01*
X111768170Y-66253371D02*
X111720551Y-66158133D01*
X111720551Y-66158133D02*
X111720551Y-66062895D01*
X111720551Y-66062895D02*
X111768170Y-65967657D01*
X111768170Y-65967657D02*
X111815789Y-65920038D01*
X111815789Y-65920038D02*
X111911027Y-65872419D01*
X111911027Y-65872419D02*
X112149122Y-65872419D01*
X112149122Y-65872419D02*
X112291979Y-65920038D01*
X113244360Y-66872419D02*
X112672932Y-66872419D01*
X112958646Y-66872419D02*
X112958646Y-65872419D01*
X112958646Y-65872419D02*
X112863408Y-66015276D01*
X112863408Y-66015276D02*
X112768170Y-66110514D01*
X112768170Y-66110514D02*
X112672932Y-66158133D01*
X113577694Y-65872419D02*
X114244360Y-65872419D01*
X114244360Y-65872419D02*
X113815789Y-66872419D01*
X114530075Y-65872419D02*
X115149122Y-65872419D01*
X115149122Y-65872419D02*
X114815789Y-66253371D01*
X114815789Y-66253371D02*
X114958646Y-66253371D01*
X114958646Y-66253371D02*
X115053884Y-66300990D01*
X115053884Y-66300990D02*
X115101503Y-66348609D01*
X115101503Y-66348609D02*
X115149122Y-66443847D01*
X115149122Y-66443847D02*
X115149122Y-66681942D01*
X115149122Y-66681942D02*
X115101503Y-66777180D01*
X115101503Y-66777180D02*
X115053884Y-66824800D01*
X115053884Y-66824800D02*
X114958646Y-66872419D01*
X114958646Y-66872419D02*
X114672932Y-66872419D01*
X114672932Y-66872419D02*
X114577694Y-66824800D01*
X114577694Y-66824800D02*
X114530075Y-66777180D01*
X126903014Y-77655639D02*
X126153014Y-77655639D01*
X126153014Y-77655639D02*
X126153014Y-77477068D01*
X126153014Y-77477068D02*
X126188728Y-77369925D01*
X126188728Y-77369925D02*
X126260157Y-77298496D01*
X126260157Y-77298496D02*
X126331585Y-77262782D01*
X126331585Y-77262782D02*
X126474442Y-77227068D01*
X126474442Y-77227068D02*
X126581585Y-77227068D01*
X126581585Y-77227068D02*
X126724442Y-77262782D01*
X126724442Y-77262782D02*
X126795871Y-77298496D01*
X126795871Y-77298496D02*
X126867300Y-77369925D01*
X126867300Y-77369925D02*
X126903014Y-77477068D01*
X126903014Y-77477068D02*
X126903014Y-77655639D01*
X126153014Y-76584211D02*
X126153014Y-76727068D01*
X126153014Y-76727068D02*
X126188728Y-76798496D01*
X126188728Y-76798496D02*
X126224442Y-76834211D01*
X126224442Y-76834211D02*
X126331585Y-76905639D01*
X126331585Y-76905639D02*
X126474442Y-76941353D01*
X126474442Y-76941353D02*
X126760157Y-76941353D01*
X126760157Y-76941353D02*
X126831585Y-76905639D01*
X126831585Y-76905639D02*
X126867300Y-76869925D01*
X126867300Y-76869925D02*
X126903014Y-76798496D01*
X126903014Y-76798496D02*
X126903014Y-76655639D01*
X126903014Y-76655639D02*
X126867300Y-76584211D01*
X126867300Y-76584211D02*
X126831585Y-76548496D01*
X126831585Y-76548496D02*
X126760157Y-76512782D01*
X126760157Y-76512782D02*
X126581585Y-76512782D01*
X126581585Y-76512782D02*
X126510157Y-76548496D01*
X126510157Y-76548496D02*
X126474442Y-76584211D01*
X126474442Y-76584211D02*
X126438728Y-76655639D01*
X126438728Y-76655639D02*
X126438728Y-76798496D01*
X126438728Y-76798496D02*
X126474442Y-76869925D01*
X126474442Y-76869925D02*
X126510157Y-76905639D01*
X126510157Y-76905639D02*
X126581585Y-76941353D01*
X101458646Y-87872419D02*
X102125312Y-87872419D01*
X102125312Y-87872419D02*
X101696741Y-88872419D01*
X102934836Y-88205752D02*
X102934836Y-88872419D01*
X102696741Y-87824800D02*
X102458646Y-88539085D01*
X102458646Y-88539085D02*
X103077693Y-88539085D01*
X103934836Y-88872419D02*
X103458646Y-88872419D01*
X103458646Y-88872419D02*
X103458646Y-87872419D01*
X104220551Y-88824800D02*
X104363408Y-88872419D01*
X104363408Y-88872419D02*
X104601503Y-88872419D01*
X104601503Y-88872419D02*
X104696741Y-88824800D01*
X104696741Y-88824800D02*
X104744360Y-88777180D01*
X104744360Y-88777180D02*
X104791979Y-88681942D01*
X104791979Y-88681942D02*
X104791979Y-88586704D01*
X104791979Y-88586704D02*
X104744360Y-88491466D01*
X104744360Y-88491466D02*
X104696741Y-88443847D01*
X104696741Y-88443847D02*
X104601503Y-88396228D01*
X104601503Y-88396228D02*
X104411027Y-88348609D01*
X104411027Y-88348609D02*
X104315789Y-88300990D01*
X104315789Y-88300990D02*
X104268170Y-88253371D01*
X104268170Y-88253371D02*
X104220551Y-88158133D01*
X104220551Y-88158133D02*
X104220551Y-88062895D01*
X104220551Y-88062895D02*
X104268170Y-87967657D01*
X104268170Y-87967657D02*
X104315789Y-87920038D01*
X104315789Y-87920038D02*
X104411027Y-87872419D01*
X104411027Y-87872419D02*
X104649122Y-87872419D01*
X104649122Y-87872419D02*
X104791979Y-87920038D01*
X105172932Y-87967657D02*
X105220551Y-87920038D01*
X105220551Y-87920038D02*
X105315789Y-87872419D01*
X105315789Y-87872419D02*
X105553884Y-87872419D01*
X105553884Y-87872419D02*
X105649122Y-87920038D01*
X105649122Y-87920038D02*
X105696741Y-87967657D01*
X105696741Y-87967657D02*
X105744360Y-88062895D01*
X105744360Y-88062895D02*
X105744360Y-88158133D01*
X105744360Y-88158133D02*
X105696741Y-88300990D01*
X105696741Y-88300990D02*
X105125313Y-88872419D01*
X105125313Y-88872419D02*
X105744360Y-88872419D01*
X106601503Y-88205752D02*
X106601503Y-88872419D01*
X106363408Y-87824800D02*
X106125313Y-88539085D01*
X106125313Y-88539085D02*
X106744360Y-88539085D01*
X107601503Y-87872419D02*
X107125313Y-87872419D01*
X107125313Y-87872419D02*
X107077694Y-88348609D01*
X107077694Y-88348609D02*
X107125313Y-88300990D01*
X107125313Y-88300990D02*
X107220551Y-88253371D01*
X107220551Y-88253371D02*
X107458646Y-88253371D01*
X107458646Y-88253371D02*
X107553884Y-88300990D01*
X107553884Y-88300990D02*
X107601503Y-88348609D01*
X107601503Y-88348609D02*
X107649122Y-88443847D01*
X107649122Y-88443847D02*
X107649122Y-88681942D01*
X107649122Y-88681942D02*
X107601503Y-88777180D01*
X107601503Y-88777180D02*
X107553884Y-88824800D01*
X107553884Y-88824800D02*
X107458646Y-88872419D01*
X107458646Y-88872419D02*
X107220551Y-88872419D01*
X107220551Y-88872419D02*
X107125313Y-88824800D01*
X107125313Y-88824800D02*
X107077694Y-88777180D01*
X142403014Y-77655639D02*
X141653014Y-77655639D01*
X141653014Y-77655639D02*
X141653014Y-77477068D01*
X141653014Y-77477068D02*
X141688728Y-77369925D01*
X141688728Y-77369925D02*
X141760157Y-77298496D01*
X141760157Y-77298496D02*
X141831585Y-77262782D01*
X141831585Y-77262782D02*
X141974442Y-77227068D01*
X141974442Y-77227068D02*
X142081585Y-77227068D01*
X142081585Y-77227068D02*
X142224442Y-77262782D01*
X142224442Y-77262782D02*
X142295871Y-77298496D01*
X142295871Y-77298496D02*
X142367300Y-77369925D01*
X142367300Y-77369925D02*
X142403014Y-77477068D01*
X142403014Y-77477068D02*
X142403014Y-77655639D01*
X142403014Y-76512782D02*
X142403014Y-76941353D01*
X142403014Y-76727068D02*
X141653014Y-76727068D01*
X141653014Y-76727068D02*
X141760157Y-76798496D01*
X141760157Y-76798496D02*
X141831585Y-76869925D01*
X141831585Y-76869925D02*
X141867300Y-76941353D01*
X139372419Y-82724687D02*
X138896228Y-83058020D01*
X139372419Y-83296115D02*
X138372419Y-83296115D01*
X138372419Y-83296115D02*
X138372419Y-82915163D01*
X138372419Y-82915163D02*
X138420038Y-82819925D01*
X138420038Y-82819925D02*
X138467657Y-82772306D01*
X138467657Y-82772306D02*
X138562895Y-82724687D01*
X138562895Y-82724687D02*
X138705752Y-82724687D01*
X138705752Y-82724687D02*
X138800990Y-82772306D01*
X138800990Y-82772306D02*
X138848609Y-82819925D01*
X138848609Y-82819925D02*
X138896228Y-82915163D01*
X138896228Y-82915163D02*
X138896228Y-83296115D01*
X138467657Y-82343734D02*
X138420038Y-82296115D01*
X138420038Y-82296115D02*
X138372419Y-82200877D01*
X138372419Y-82200877D02*
X138372419Y-81962782D01*
X138372419Y-81962782D02*
X138420038Y-81867544D01*
X138420038Y-81867544D02*
X138467657Y-81819925D01*
X138467657Y-81819925D02*
X138562895Y-81772306D01*
X138562895Y-81772306D02*
X138658133Y-81772306D01*
X138658133Y-81772306D02*
X138800990Y-81819925D01*
X138800990Y-81819925D02*
X139372419Y-82391353D01*
X139372419Y-82391353D02*
X139372419Y-81772306D01*
D11*
%TO.C,C3*%
X98890000Y-63051248D02*
X98890000Y-64473752D01*
X100710000Y-63051248D02*
X100710000Y-64473752D01*
%TO.C,D2*%
X122265000Y-75487500D02*
X122265000Y-79547500D01*
X122265000Y-79547500D02*
X124535000Y-79547500D01*
X124535000Y-79547500D02*
X124535000Y-75487500D01*
%TO.C,D3*%
X125365000Y-75487500D02*
X125365000Y-79547500D01*
X125365000Y-79547500D02*
X127635000Y-79547500D01*
X127635000Y-79547500D02*
X127635000Y-75487500D01*
%TO.C,R6*%
X134890000Y-81822936D02*
X134890000Y-83277064D01*
X136710000Y-81822936D02*
X136710000Y-83277064D01*
%TO.C,U5*%
X123710000Y-61240000D02*
X123710000Y-71740000D01*
X123710000Y-71740000D02*
X144270000Y-71740000D01*
X123770000Y-64240000D02*
X123770000Y-65490000D01*
X123770000Y-67490000D02*
X123770000Y-68740000D01*
X123770000Y-68740000D02*
X144210000Y-68740000D01*
X144210000Y-64240000D02*
X123770000Y-64240000D01*
X144210000Y-68740000D02*
X144210000Y-64240000D01*
X144270000Y-61240000D02*
X123710000Y-61240000D01*
X144270000Y-71740000D02*
X144270000Y-61240000D01*
X123770000Y-65490000D02*
G75*
G02*
X123770000Y-67490000I0J-1000000D01*
G01*
%TO.C,R1*%
X119390000Y-81822936D02*
X119390000Y-83277064D01*
X121210000Y-81822936D02*
X121210000Y-83277064D01*
%TO.C,D7*%
X137765000Y-75487500D02*
X137765000Y-79547500D01*
X137765000Y-79547500D02*
X140035000Y-79547500D01*
X140035000Y-79547500D02*
X140035000Y-75487500D01*
%TO.C,J1*%
X91640000Y-61515000D02*
X91640000Y-65000000D01*
X91640000Y-68485000D02*
X91640000Y-65000000D01*
X97060000Y-62585000D02*
X97360000Y-62585000D01*
X97060000Y-65000000D02*
X97060000Y-62585000D01*
X97060000Y-65000000D02*
X97060000Y-67415000D01*
X97060000Y-67415000D02*
X97360000Y-67415000D01*
X97350000Y-62875000D02*
X97650000Y-62875000D01*
X97360000Y-61515000D02*
X91640000Y-61515000D01*
X97360000Y-62585000D02*
X97360000Y-61515000D01*
X97360000Y-67415000D02*
X97360000Y-68485000D01*
X97360000Y-68485000D02*
X91640000Y-68485000D01*
X97650000Y-62875000D02*
X97650000Y-62375000D01*
%TO.C,R8*%
X141090000Y-81822936D02*
X141090000Y-83277064D01*
X142910000Y-81822936D02*
X142910000Y-83277064D01*
%TO.C,D4*%
X128465000Y-75487500D02*
X128465000Y-79547500D01*
X128465000Y-79547500D02*
X130735000Y-79547500D01*
X130735000Y-79547500D02*
X130735000Y-75487500D01*
%TO.C,D1*%
X119165000Y-75487500D02*
X119165000Y-79547500D01*
X119165000Y-79547500D02*
X121435000Y-79547500D01*
X121435000Y-79547500D02*
X121435000Y-75487500D01*
%TO.C,R2*%
X122490000Y-81822936D02*
X122490000Y-83277064D01*
X124310000Y-81822936D02*
X124310000Y-83277064D01*
%TO.C,U6*%
X91530000Y-83360000D02*
X91530000Y-93860000D01*
X91530000Y-93860000D02*
X117170000Y-93860000D01*
X91590000Y-86360000D02*
X91590000Y-87610000D01*
X91590000Y-89610000D02*
X91590000Y-90860000D01*
X91590000Y-90860000D02*
X117110000Y-90860000D01*
X117110000Y-86360000D02*
X91590000Y-86360000D01*
X117110000Y-90860000D02*
X117110000Y-86360000D01*
X117170000Y-83360000D02*
X91530000Y-83360000D01*
X117170000Y-93860000D02*
X117170000Y-83360000D01*
X91590000Y-87610000D02*
G75*
G02*
X91590000Y-89610000I0J-1000000D01*
G01*
%TO.C,R7*%
X137990000Y-81822936D02*
X137990000Y-83277064D01*
X139810000Y-81822936D02*
X139810000Y-83277064D01*
%TO.C,R4*%
X128690000Y-81822936D02*
X128690000Y-83277064D01*
X130510000Y-81822936D02*
X130510000Y-83277064D01*
%TO.C,R5*%
X131790000Y-81822936D02*
X131790000Y-83277064D01*
X133610000Y-81822936D02*
X133610000Y-83277064D01*
%TO.C,J3*%
X137850000Y-92075000D02*
X137850000Y-92575000D01*
X138140000Y-88965000D02*
X143860000Y-88965000D01*
X138140000Y-90035000D02*
X138140000Y-88965000D01*
X138140000Y-92365000D02*
X138140000Y-93435000D01*
X138140000Y-93435000D02*
X143860000Y-93435000D01*
X138150000Y-92075000D02*
X137850000Y-92075000D01*
X138440000Y-90035000D02*
X138140000Y-90035000D01*
X138440000Y-91200000D02*
X138440000Y-90035000D01*
X138440000Y-91200000D02*
X138440000Y-92365000D01*
X138440000Y-92365000D02*
X138140000Y-92365000D01*
X143860000Y-88965000D02*
X143860000Y-91200000D01*
X143860000Y-93435000D02*
X143860000Y-91200000D01*
%TO.C,J2*%
X91640000Y-69515000D02*
X91640000Y-75500000D01*
X91640000Y-81485000D02*
X91640000Y-75500000D01*
X97060000Y-70585000D02*
X97360000Y-70585000D01*
X97060000Y-75500000D02*
X97060000Y-70585000D01*
X97060000Y-75500000D02*
X97060000Y-80415000D01*
X97060000Y-80415000D02*
X97360000Y-80415000D01*
X97350000Y-70875000D02*
X97650000Y-70875000D01*
X97360000Y-69515000D02*
X91640000Y-69515000D01*
X97360000Y-70585000D02*
X97360000Y-69515000D01*
X97360000Y-80415000D02*
X97360000Y-81485000D01*
X97360000Y-81485000D02*
X91640000Y-81485000D01*
X97650000Y-70875000D02*
X97650000Y-70375000D01*
%TO.C,D6*%
X134665000Y-75487500D02*
X134665000Y-79547500D01*
X134665000Y-79547500D02*
X136935000Y-79547500D01*
X136935000Y-79547500D02*
X136935000Y-75487500D01*
%TO.C,D8*%
X140865000Y-75487500D02*
X140865000Y-79547500D01*
X140865000Y-79547500D02*
X143135000Y-79547500D01*
X143135000Y-79547500D02*
X143135000Y-75487500D01*
%TO.C,U4*%
X101890000Y-61240000D02*
X101890000Y-71740000D01*
X101890000Y-71740000D02*
X122450000Y-71740000D01*
X101950000Y-64240000D02*
X101950000Y-65490000D01*
X101950000Y-67490000D02*
X101950000Y-68740000D01*
X101950000Y-68740000D02*
X122390000Y-68740000D01*
X122390000Y-64240000D02*
X101950000Y-64240000D01*
X122390000Y-68740000D02*
X122390000Y-64240000D01*
X122450000Y-61240000D02*
X101890000Y-61240000D01*
X122450000Y-71740000D02*
X122450000Y-61240000D01*
X101950000Y-65490000D02*
G75*
G02*
X101950000Y-67490000I0J-1000000D01*
G01*
%TO.C,J4*%
X120615000Y-87740000D02*
X120615000Y-93460000D01*
X120615000Y-93460000D02*
X126600000Y-93460000D01*
X121685000Y-87740000D02*
X120615000Y-87740000D01*
X121685000Y-88040000D02*
X121685000Y-87740000D01*
X121975000Y-87450000D02*
X121475000Y-87450000D01*
X121975000Y-87750000D02*
X121975000Y-87450000D01*
X126600000Y-88040000D02*
X121685000Y-88040000D01*
X126600000Y-88040000D02*
X131515000Y-88040000D01*
X131515000Y-87740000D02*
X132585000Y-87740000D01*
X131515000Y-88040000D02*
X131515000Y-87740000D01*
X132585000Y-87740000D02*
X132585000Y-93460000D01*
X132585000Y-93460000D02*
X126600000Y-93460000D01*
%TO.C,R3*%
X125590000Y-81822936D02*
X125590000Y-83277064D01*
X127410000Y-81822936D02*
X127410000Y-83277064D01*
%TO.C,D5*%
X131565000Y-75487500D02*
X131565000Y-79547500D01*
X131565000Y-79547500D02*
X133835000Y-79547500D01*
X133835000Y-79547500D02*
X133835000Y-75487500D01*
%TD*%
M02*
